<svg width="283" height="155" viewBox="0 0 283 155" fill="none" xmlns="http://www.w3.org/2000/svg">
<path d="M76.0648 80.9153C75.6309 80.9158 75.2149 81.0884 74.9081 81.3952C74.6013 81.702 74.4287 82.118 74.4282 82.5518V138.37C74.4287 138.804 74.6013 139.22 74.9081 139.527C75.2149 139.833 75.6309 140.006 76.0648 140.006H266.395C266.829 140.006 267.245 139.833 267.551 139.527C267.858 139.22 268.031 138.804 268.031 138.37V82.5518C268.031 82.118 267.858 81.702 267.551 81.3952C267.245 81.0884 266.829 80.9158 266.395 80.9153L76.0648 80.9153Z" fill="#E6E6E6"/>
<path d="M78.5283 135.905H263.929V85.0165H78.5283V135.905Z" fill="white"/>
<path d="M240.528 125.348C239.809 125.348 239.119 125.634 238.611 126.142C238.103 126.651 237.817 127.34 237.817 128.059C237.817 128.778 238.103 129.468 238.611 129.976C239.119 130.484 239.809 130.77 240.528 130.77H251.371C252.09 130.77 252.78 130.484 253.288 129.976C253.797 129.468 254.082 128.778 254.082 128.059C254.082 127.34 253.797 126.651 253.288 126.142C252.78 125.634 252.09 125.348 251.371 125.348H240.528V125.348Z" fill="#1448B6"/>
<path d="M254.081 120.09H128.905V120.803H254.081V120.09Z" fill="#E6E6E6"/>
<path d="M102.739 126.251C111.459 126.251 118.528 119.181 118.528 110.461C118.528 101.741 111.459 94.6713 102.739 94.6713C94.0185 94.6713 86.9492 101.741 86.9492 110.461C86.9492 119.181 94.0185 126.251 102.739 126.251Z" fill="#1448B6"/>
<path d="M129.103 116.107L128.707 115.514L141.715 106.842L150.635 111.124L163.464 102.927L163.638 103L188.986 113.814L209.311 103.83L229.047 111.83L253.845 89.8661L254.318 90.4004L229.189 112.658L209.339 104.611L189.007 114.598L163.532 103.73L150.684 111.938L141.773 107.661L129.103 116.107Z" fill="#3F3D56"/>
<path d="M131.223 125.721C130.608 125.721 130.018 125.965 129.584 126.4C129.149 126.835 128.905 127.425 128.905 128.039C128.905 128.654 129.149 129.244 129.584 129.678C130.018 130.113 130.608 130.357 131.223 130.357H155.474C156.088 130.357 156.678 130.113 157.113 129.678C157.547 129.244 157.792 128.654 157.792 128.039C157.792 127.425 157.547 126.835 157.113 126.4C156.678 125.965 156.088 125.721 155.474 125.721H131.223Z" fill="#E6E6E6"/>
<path d="M102.737 120.867L109.129 111.865L102.737 115.639L96.3486 111.865L102.736 120.867H102.737Z" fill="white"/>
<path d="M102.736 114.43H102.737L109.125 110.654L102.737 100.055H102.736L96.3486 110.654L102.736 114.43Z" fill="white"/>
<path d="M1.63657 1.16478e-05C1.20268 0.000518736 0.786707 0.173108 0.479902 0.479914C0.173097 0.78672 0.000506076 1.20269 0 1.63658V57.4546C0.000507096 57.8885 0.173097 58.3045 0.479902 58.6113C0.786708 58.9181 1.20268 59.0907 1.63657 59.0912H191.966C192.4 59.0907 192.816 58.9181 193.123 58.6113C193.43 58.3045 193.602 57.8885 193.603 57.4546V1.63657C193.602 1.20268 193.43 0.786714 193.123 0.479908C192.816 0.173102 192.4 0.000510124 191.966 0L1.63657 1.16478e-05Z" fill="#E6E6E6"/>
<path d="M4.10205 54.9901H189.503V4.10126H4.10205V54.9901Z" fill="white"/>
<path d="M166.102 44.4329C165.383 44.4329 164.693 44.7185 164.185 45.2269C163.676 45.7353 163.391 46.4249 163.391 47.1438C163.391 47.8628 163.676 48.5523 164.185 49.0607C164.693 49.5691 165.383 49.8548 166.102 49.8548H176.945C177.664 49.8548 178.354 49.5691 178.862 49.0607C179.37 48.5523 179.656 47.8628 179.656 47.1438C179.656 46.4249 179.37 45.7353 178.862 45.2269C178.354 44.7185 177.664 44.4329 176.945 44.4329H166.102Z" fill="#1448B6"/>
<path d="M179.655 39.1746H54.4785V39.8878H179.655V39.1746Z" fill="#E6E6E6"/>
<path d="M28.314 45.3353C37.0344 45.3353 44.1037 38.266 44.1037 29.5457C44.1037 20.8253 37.0344 13.756 28.314 13.756C19.5937 13.756 12.5244 20.8253 12.5244 29.5457C12.5244 38.266 19.5937 45.3353 28.314 45.3353Z" fill="#1448B6"/>
<path d="M54.6762 35.1916L54.2808 34.5981L67.2883 25.9264L76.2081 30.2081L89.0381 22.0112L89.2114 22.0849L114.56 32.8981L134.884 22.9142L154.62 30.9153L179.419 8.95062L179.891 9.48459L154.762 31.7424L134.912 23.6951L114.581 33.6825L89.1049 22.815L76.2577 31.0229L67.3459 26.7451L54.6762 35.1916Z" fill="#3F3D56"/>
<path d="M56.7975 44.8058C56.1833 44.8066 55.5944 45.0512 55.1603 45.4859C54.7262 45.9205 54.4824 46.5097 54.4824 47.1239C54.4824 47.7382 54.7262 48.3274 55.1603 48.762C55.5944 49.1967 56.1833 49.4412 56.7975 49.442H81.0483C81.6631 49.442 82.2527 49.1978 82.6874 48.7631C83.1221 48.3283 83.3664 47.7387 83.3664 47.1239C83.3664 46.5091 83.1221 45.9195 82.6874 45.4848C82.2527 45.0501 81.6631 44.8058 81.0483 44.8058H56.7975Z" fill="#E6E6E6"/>
<path d="M34.6652 27.7027C34.9603 25.7268 33.4558 24.6646 31.3988 23.956L32.0661 21.2794L30.4363 20.8734L29.7867 23.4794C29.3588 23.3727 28.9189 23.272 28.4818 23.1722L29.1361 20.549L27.5078 20.1429L26.84 22.8186C26.4855 22.7379 26.1374 22.6581 25.7996 22.5741L25.8015 22.5657L23.5546 22.0047L23.1212 23.7448C23.1212 23.7448 24.33 24.0219 24.3045 24.039C24.5299 24.066 24.7358 24.1805 24.8778 24.3577C25.0197 24.5349 25.0865 24.7607 25.0636 24.9866L24.3035 28.0358C24.3611 28.0502 24.4177 28.0683 24.4729 28.0901L24.3012 28.0474L23.2353 32.319C23.2119 32.3935 23.174 32.4627 23.1237 32.5226C23.0734 32.5824 23.0118 32.6317 22.9425 32.6677C22.8731 32.7037 22.7973 32.7256 22.7194 32.7321C22.6415 32.7387 22.5631 32.7298 22.4887 32.706C22.5049 32.7296 21.3044 32.4104 21.3044 32.4104L20.4956 34.2758L22.6163 34.8044C23.0107 34.9032 23.3973 35.0067 23.7773 35.1042L23.1031 37.8118L24.7305 38.2179L25.3987 35.5394C25.8428 35.6601 26.2743 35.7714 26.6966 35.8763L26.0312 38.5422L27.6604 38.9483L28.3347 36.2462C31.1129 36.7719 33.2025 36.5599 34.0809 34.0475C34.7895 32.0243 34.0461 30.8572 32.5844 30.0957C33.6489 29.8493 34.4508 29.1491 34.6647 27.7027L34.6652 27.7027ZM30.9421 32.9227C30.4382 34.9459 27.0321 33.8526 25.9272 33.5779L26.8219 29.9913C27.9263 30.267 31.4674 30.8127 30.9426 32.9227H30.9421ZM31.4456 27.6734C30.9862 29.5138 28.1509 28.5788 27.2307 28.3495L28.0419 25.0966C28.9621 25.3258 31.9245 25.7537 31.4456 27.6734V27.6734Z" fill="white"/>
<path d="M244.808 154.787C265.887 154.787 282.975 137.699 282.975 116.619C282.975 95.5399 265.887 78.4517 244.808 78.4517C223.728 78.4517 206.64 95.5399 206.64 116.619C206.64 137.699 223.728 154.787 244.808 154.787Z" fill="#DCAF54"/>
<path d="M243.235 135.988V131.211C240.82 131.164 238.322 130.312 236.864 129.13L237.863 125.961C239.595 127.258 241.695 127.971 243.859 127.994C246.816 127.994 248.814 126.055 248.814 123.359C248.814 120.757 247.19 119.149 244.109 117.73C239.862 115.838 237.239 113.662 237.239 109.547C237.239 105.621 239.696 102.641 243.526 101.931V97.1537H246.108V101.742C248.033 101.768 249.911 102.343 251.521 103.398L250.48 106.52C248.935 105.462 247.105 104.901 245.233 104.911C242.027 104.911 240.82 107.087 240.82 108.979C240.82 111.439 242.36 112.669 245.983 114.372C250.272 116.358 252.437 118.818 252.437 123.028C252.437 126.765 250.147 130.265 245.858 131.069V135.988H243.235Z" fill="#1448B6"/>
</svg>
