<svg width="297" height="222" viewBox="0 0 297 222" fill="none" xmlns="http://www.w3.org/2000/svg">
<path d="M111 52.214L108.823 53.3138C106.316 48.3981 102.995 43.9385 98.9984 40.1225C79.3733 21.3361 48.0579 21.9503 29.191 41.4916C10.3241 61.0329 10.9409 92.2146 30.566 111.001C34.3012 114.584 38.5803 117.558 43.2458 119.813L42.181 122C34.786 118.425 28.3515 113.148 23.4092 106.607C18.4669 100.066 15.1587 92.4481 13.7578 84.3823C12.357 76.3164 12.9037 68.0344 15.3528 60.2206C17.802 52.4067 22.0833 45.2853 27.8429 39.4447C33.6026 33.6041 40.6753 29.212 48.4768 26.6312C56.2782 24.0505 64.5843 23.3552 72.709 24.6028C80.8336 25.8503 88.5435 29.005 95.2016 33.8061C101.86 38.6073 107.275 44.917 111 52.214Z" fill="#E6E6E6"/>
<path d="M36.8654 97.1566C33.6613 100.527 31.9123 105.046 32.0034 109.72C32.0944 114.394 34.018 118.84 37.3509 122.08C40.6838 125.32 45.1531 127.089 49.7755 126.997C54.3979 126.905 58.7948 124.959 61.9989 121.589L65 118.433L39.8665 94L36.8654 97.1566Z" fill="#E6E6E6"/>
<path d="M38.089 93.154C37.3717 93.8744 36.9804 94.8394 37.0008 95.8375C37.0212 96.8355 37.4517 97.785 38.1979 98.4776L61.3828 119.949C62.13 120.641 63.1321 121.019 64.1685 120.999C65.2049 120.98 66.1907 120.564 66.9091 119.844C67.6275 119.124 68.0197 118.159 67.9992 117.161C67.9788 116.162 67.5475 115.213 66.8003 114.521L43.6154 93.0491C42.8676 92.3581 41.8657 91.9811 40.8297 92.0007C39.7937 92.0204 38.808 92.4351 38.089 93.154Z" fill="#1448B6"/>
<path d="M107.134 75L110.135 71.8434C113.339 68.4732 115.088 63.954 114.997 59.2799C114.906 54.6059 112.982 50.1598 109.649 46.9198C107.999 45.3155 106.052 44.0557 103.92 43.2121C101.789 42.3685 99.5133 41.9578 97.2245 42.0034C92.6021 42.0955 88.2052 44.0406 85.0011 47.4107L82 50.5673L107.134 75Z" fill="#E6E6E6"/>
<path d="M80.0891 49.1938C79.3718 49.9391 78.9804 50.9375 79.0008 51.97C79.0212 53.0025 79.4517 53.9848 80.198 54.7014L103.384 76.9147C104.132 77.6298 105.134 78.0199 106.17 77.9992C107.206 77.9785 108.191 77.5487 108.909 76.8043C109.627 76.06 110.019 75.0619 109.999 74.0295C109.979 72.9971 109.549 72.0148 108.802 71.2987L85.6158 49.0853C84.8679 48.3705 83.8661 47.9804 82.83 48.0008C81.7939 48.0211 80.8082 48.4502 80.0891 49.1938Z" fill="#1448B6"/>
<path d="M98.6592 112.436V109.782C98.6592 109.782 110.256 103.268 119.678 109.782V112.194L98.6592 112.436Z" fill="#535461"/>
<path d="M204.237 112.436V109.782C204.237 109.782 215.834 103.268 225.256 109.782V112.194L204.237 112.436Z" fill="#535461"/>
<path d="M133.45 112.194H122.095C122.095 112.194 119.196 108.817 109.532 109.058C99.8678 109.299 97.935 112.194 97.935 112.194C97.935 112.194 88.3919 118.588 86.2175 126.549C86.2175 126.549 74.5 161.652 74.2584 189.155C74.0168 216.658 84.6471 220.518 90.2039 221.242C95.7606 221.965 105.666 221 115.33 196.634L119.437 182.399C119.437 182.399 120.162 173.956 128.859 179.263C137.557 184.571 145.288 176.368 145.288 176.368H177.904C177.904 176.368 188.775 183.123 198.681 177.816C198.681 177.816 202.547 172.749 206.17 189.878C206.17 189.878 217.284 225.102 234.437 221.483C251.591 217.864 249.658 188.431 249.658 188.431C249.658 188.431 247.363 143.437 237.941 127.514C237.941 127.514 228.881 110.988 222.841 110.264C222.841 110.264 209.794 107.852 204.721 110.023L201.822 112.436L133.45 112.194Z" fill="#E6E6E6"/>
<path d="M107.115 156.826C118.724 156.826 128.134 147.429 128.134 135.837C128.134 124.245 118.724 114.848 107.115 114.848C95.5067 114.848 86.0962 124.245 86.0962 135.837C86.0962 147.429 95.5067 156.826 107.115 156.826Z" fill="#DCAF54"/>
<path d="M216.8 156.826C228.409 156.826 237.819 147.429 237.819 135.837C237.819 124.245 228.409 114.848 216.8 114.848C205.192 114.848 195.781 124.245 195.781 135.837C195.781 147.429 205.192 156.826 216.8 156.826Z" fill="#DCAF54"/>
<path d="M110.778 131.157L107.975 133.632C107.738 133.841 107.432 133.956 107.116 133.956C106.8 133.956 106.495 133.841 106.257 133.632L103.45 131.157C103.313 131.036 103.203 130.888 103.127 130.721C103.051 130.555 103.011 130.375 103.01 130.192V123.381C103.011 123.037 103.148 122.708 103.392 122.465C103.636 122.222 103.966 122.086 104.31 122.086H109.927C110.271 122.085 110.602 122.221 110.845 122.464C111.089 122.706 111.226 123.035 111.227 123.379V130.187C111.225 130.371 111.185 130.553 111.107 130.72C111.03 130.888 110.917 131.037 110.778 131.157Z" fill="#E6E6E6"/>
<path d="M110.778 140.515L107.975 138.042C107.738 137.834 107.432 137.719 107.116 137.719C106.8 137.719 106.495 137.834 106.257 138.042L103.45 140.518C103.313 140.638 103.203 140.787 103.127 140.953C103.051 141.12 103.011 141.3 103.01 141.483V148.286C103.01 148.63 103.146 148.959 103.389 149.203C103.631 149.446 103.961 149.583 104.305 149.584H109.927C110.271 149.585 110.602 149.449 110.845 149.206C111.089 148.964 111.226 148.634 111.227 148.291V141.485C111.225 141.301 111.185 141.119 111.107 140.952C111.03 140.784 110.917 140.636 110.778 140.515Z" fill="#E6E6E6"/>
<path d="M102.43 139.5L104.909 136.696C105.118 136.459 105.233 136.154 105.233 135.839C105.233 135.523 105.118 135.218 104.909 134.981L102.43 132.177C102.309 132.041 102.161 131.931 101.994 131.855C101.828 131.779 101.647 131.74 101.464 131.738H94.6509C94.3066 131.739 93.9766 131.876 93.7334 132.119C93.4901 132.363 93.3535 132.693 93.3535 133.036V138.646C93.3529 138.989 93.489 139.319 93.7318 139.562C93.9747 139.806 94.3044 139.943 94.6485 139.943H101.466C101.649 139.942 101.83 139.901 101.996 139.825C102.162 139.748 102.31 139.637 102.43 139.5Z" fill="#E6E6E6"/>
<path d="M111.802 139.5L109.328 136.694C109.119 136.457 109.003 136.152 109.003 135.836C109.003 135.52 109.119 135.215 109.328 134.978L111.807 132.175C111.928 132.038 112.076 131.928 112.243 131.852C112.409 131.777 112.59 131.737 112.773 131.736H119.586C119.93 131.735 120.26 131.871 120.504 132.114C120.748 132.356 120.885 132.686 120.886 133.029V138.643C120.887 138.987 120.751 139.317 120.508 139.56C120.265 139.803 119.935 139.94 119.591 139.941H112.776C112.591 139.941 112.409 139.901 112.241 139.825C112.073 139.749 111.923 139.638 111.802 139.5Z" fill="#E6E6E6"/>
<path d="M135.623 173.956C144.029 173.956 150.844 167.151 150.844 158.757C150.844 150.362 144.029 143.557 135.623 143.557C127.217 143.557 120.402 150.362 120.402 158.757C120.402 167.151 127.217 173.956 135.623 173.956Z" fill="#1448B6"/>
<path d="M188.291 173.956C196.698 173.956 203.512 167.151 203.512 158.757C203.512 150.362 196.698 143.557 188.291 143.557C179.885 143.557 173.071 150.362 173.071 158.757C173.071 167.151 179.885 173.956 188.291 173.956Z" fill="#1448B6"/>
<path d="M135.624 168.889C141.228 168.889 145.771 164.353 145.771 158.757C145.771 153.16 141.228 148.624 135.624 148.624C130.02 148.624 125.477 153.16 125.477 158.757C125.477 164.353 130.02 168.889 135.624 168.889Z" fill="#E6E6E6"/>
<path d="M135.624 165.753C134.238 165.753 132.883 165.343 131.731 164.574C130.579 163.805 129.681 162.712 129.151 161.434C128.62 160.155 128.481 158.749 128.752 157.392C129.022 156.034 129.689 154.788 130.669 153.809C131.649 152.831 132.898 152.164 134.257 151.895C135.616 151.625 137.024 151.763 138.305 152.293C139.585 152.822 140.679 153.719 141.449 154.87C142.219 156.02 142.63 157.373 142.63 158.757C142.628 160.611 141.889 162.39 140.575 163.701C139.262 165.013 137.481 165.751 135.624 165.753ZM135.624 152.243C134.333 152.243 133.072 152.625 131.999 153.34C130.927 154.056 130.091 155.073 129.597 156.264C129.103 157.454 128.974 158.764 129.226 160.027C129.477 161.291 130.099 162.452 131.011 163.363C131.923 164.273 133.086 164.894 134.351 165.145C135.616 165.397 136.928 165.268 138.12 164.775C139.312 164.282 140.331 163.447 141.047 162.375C141.764 161.304 142.147 160.045 142.147 158.757C142.145 157.03 141.457 155.374 140.234 154.153C139.011 152.932 137.353 152.245 135.624 152.243Z" fill="#535461"/>
<path d="M188.292 168.889C193.896 168.889 198.439 164.353 198.439 158.757C198.439 153.16 193.896 148.624 188.292 148.624C182.688 148.624 178.145 153.16 178.145 158.757C178.145 164.353 182.688 168.889 188.292 168.889Z" fill="#E6E6E6"/>
<path d="M188.292 165.753C186.906 165.753 185.552 165.343 184.399 164.574C183.247 163.805 182.349 162.712 181.819 161.434C181.289 160.155 181.15 158.749 181.42 157.392C181.691 156.034 182.358 154.788 183.338 153.809C184.318 152.831 185.566 152.164 186.925 151.895C188.284 151.625 189.693 151.763 190.973 152.293C192.253 152.822 193.348 153.719 194.117 154.87C194.887 156.02 195.298 157.373 195.298 158.757C195.296 160.611 194.557 162.39 193.244 163.701C191.93 165.013 190.149 165.751 188.292 165.753ZM188.292 152.243C187.002 152.243 185.741 152.625 184.668 153.34C183.595 154.056 182.759 155.073 182.265 156.264C181.772 157.454 181.642 158.764 181.894 160.027C182.146 161.291 182.767 162.452 183.679 163.363C184.592 164.273 185.754 164.894 187.019 165.145C188.285 165.397 189.596 165.268 190.788 164.775C191.98 164.282 192.999 163.447 193.716 162.375C194.432 161.304 194.815 160.045 194.815 158.757C194.813 157.03 194.125 155.374 192.902 154.153C191.679 152.932 190.021 152.245 188.292 152.243Z" fill="#535461"/>
<path d="M162.441 164.788C164.842 164.788 166.789 162.844 166.789 160.445C166.789 158.047 164.842 156.103 162.441 156.103C160.039 156.103 158.092 158.047 158.092 160.445C158.092 162.844 160.039 164.788 162.441 164.788Z" fill="#535461"/>
<path d="M155.794 146.899C156.319 146.899 156.744 146.474 156.744 145.951C156.744 145.427 156.319 145.003 155.794 145.003C155.27 145.003 154.845 145.427 154.845 145.951C154.845 146.474 155.27 146.899 155.794 146.899Z" fill="#535461"/>
<path d="M159.351 146.899C159.875 146.899 160.3 146.474 160.3 145.951C160.3 145.427 159.875 145.003 159.351 145.003C158.826 145.003 158.401 145.427 158.401 145.951C158.401 146.474 158.826 146.899 159.351 146.899Z" fill="#535461"/>
<path d="M158.877 151.398C159.402 151.398 159.827 150.974 159.827 150.45C159.827 149.927 159.402 149.502 158.877 149.502C158.353 149.502 157.928 149.927 157.928 150.45C157.928 150.974 158.353 151.398 158.877 151.398Z" fill="#535461"/>
<path d="M162.199 151.519C162.733 151.519 163.166 151.087 163.166 150.554C163.166 150.021 162.733 149.589 162.199 149.589C161.666 149.589 161.233 150.021 161.233 150.554C161.233 151.087 161.666 151.519 162.199 151.519Z" fill="#535461"/>
<path d="M165.516 151.398C166.04 151.398 166.465 150.974 166.465 150.45C166.465 149.927 166.04 149.502 165.516 149.502C164.992 149.502 164.566 149.927 164.566 150.45C164.566 150.974 164.992 151.398 165.516 151.398Z" fill="#535461"/>
<path d="M157.454 149.268C157.979 149.268 158.404 148.843 158.404 148.32C158.404 147.796 157.979 147.372 157.454 147.372C156.93 147.372 156.505 147.796 156.505 148.32C156.505 148.843 156.93 149.268 157.454 149.268Z" fill="#535461"/>
<path d="M160.508 149.348C161.042 149.348 161.474 148.916 161.474 148.383C161.474 147.85 161.042 147.418 160.508 147.418C159.974 147.418 159.542 147.85 159.542 148.383C159.542 148.916 159.974 149.348 160.508 149.348Z" fill="#535461"/>
<path d="M163.649 149.348C164.183 149.348 164.615 148.916 164.615 148.383C164.615 147.85 164.183 147.418 163.649 147.418C163.115 147.418 162.683 147.85 162.683 148.383C162.683 148.916 163.115 149.348 163.649 149.348Z" fill="#535461"/>
<path d="M166.939 149.268C167.463 149.268 167.888 148.843 167.888 148.32C167.888 147.796 167.463 147.372 166.939 147.372C166.414 147.372 165.989 147.796 165.989 148.32C165.989 148.843 166.414 149.268 166.939 149.268Z" fill="#535461"/>
<path d="M162.199 146.935C162.733 146.935 163.166 146.503 163.166 145.97C163.166 145.437 162.733 145.005 162.199 145.005C161.666 145.005 161.233 145.437 161.233 145.97C161.233 146.503 161.666 146.935 162.199 146.935Z" fill="#535461"/>
<path d="M165.581 146.935C166.115 146.935 166.548 146.503 166.548 145.97C166.548 145.437 166.115 145.005 165.581 145.005C165.047 145.005 164.615 145.437 164.615 145.97C164.615 146.503 165.047 146.935 165.581 146.935Z" fill="#535461"/>
<path d="M168.362 146.899C168.886 146.899 169.312 146.474 169.312 145.951C169.312 145.427 168.886 145.003 168.362 145.003C167.838 145.003 167.413 145.427 167.413 145.951C167.413 146.474 167.838 146.899 168.362 146.899Z" fill="#535461"/>
<path d="M126.322 114.25C125.875 114.251 125.447 114.428 125.131 114.744C124.815 115.06 124.637 115.487 124.637 115.934V121C124.637 121.446 124.815 121.874 125.131 122.19C125.447 122.505 125.875 122.683 126.322 122.683H127.53C127.977 122.683 128.406 122.505 128.722 122.19C129.038 121.874 129.215 121.446 129.216 121V115.934C129.215 115.487 129.038 115.06 128.722 114.744C128.406 114.428 127.977 114.251 127.53 114.25H126.322Z" fill="#535461"/>
<path d="M196.869 114.25C196.422 114.251 195.993 114.428 195.677 114.744C195.361 115.06 195.184 115.487 195.183 115.934V121C195.184 121.446 195.361 121.874 195.677 122.19C195.993 122.505 196.422 122.683 196.869 122.683H198.077C198.524 122.683 198.952 122.505 199.268 122.19C199.584 121.874 199.762 121.446 199.762 121V115.934C199.762 115.487 199.584 115.06 199.268 114.744C198.952 114.428 198.524 114.251 198.077 114.25H196.869Z" fill="#535461"/>
<path d="M217.041 128.841C220.244 128.841 222.84 126.249 222.84 123.051C222.84 119.853 220.244 117.261 217.041 117.261C213.839 117.261 211.243 119.853 211.243 123.051C211.243 126.249 213.839 128.841 217.041 128.841Z" fill="#E6E6E6"/>
<path d="M204.721 141.145C207.923 141.145 210.519 138.553 210.519 135.355C210.519 132.157 207.923 129.565 204.721 129.565C201.518 129.565 198.922 132.157 198.922 135.355C198.922 138.553 201.518 141.145 204.721 141.145Z" fill="#E6E6E6"/>
<path d="M229.847 140.421C233.049 140.421 235.645 137.829 235.645 134.631C235.645 131.433 233.049 128.841 229.847 128.841C226.644 128.841 224.048 131.433 224.048 134.631C224.048 137.829 226.644 140.421 229.847 140.421Z" fill="#E6E6E6"/>
<path d="M218.008 153.208C221.211 153.208 223.807 150.615 223.807 147.418C223.807 144.22 221.211 141.627 218.008 141.627C214.806 141.627 212.21 144.22 212.21 147.418C212.21 150.615 214.806 153.208 218.008 153.208Z" fill="#E6E6E6"/>
<path d="M137.255 110.873C135.959 110.874 134.717 111.389 133.801 112.304C132.884 113.219 132.369 114.459 132.368 115.753V137.345C132.369 138.639 132.884 139.879 133.801 140.794C134.717 141.709 135.959 142.224 137.255 142.225H186.903C188.198 142.224 189.44 141.709 190.356 140.794C191.273 139.879 191.788 138.639 191.789 137.345V115.753C191.788 114.459 191.273 113.219 190.356 112.304C189.44 111.389 188.198 110.874 186.903 110.873H137.255Z" fill="#535461"/>
<path d="M220.981 125.705H213.118L216.914 119.207L220.981 125.705ZM213.96 125.222H220.109L216.928 120.14L213.96 125.222Z" fill="#535461"/>
<path d="M207.982 138.25H201.459V132.46H207.982V138.25ZM201.942 137.767H207.499V132.942H201.942V137.767Z" fill="#535461"/>
<path d="M229.847 138.25C229.13 138.25 228.429 138.038 227.833 137.64C227.237 137.242 226.773 136.677 226.499 136.016C226.224 135.355 226.152 134.627 226.292 133.925C226.432 133.223 226.777 132.578 227.284 132.072C227.791 131.566 228.437 131.221 229.14 131.082C229.843 130.942 230.571 131.014 231.233 131.288C231.896 131.562 232.462 132.025 232.86 132.621C233.258 133.216 233.471 133.915 233.471 134.631C233.469 135.59 233.087 136.51 232.408 137.189C231.729 137.867 230.807 138.249 229.847 138.25ZM229.847 131.495C229.225 131.495 228.618 131.679 228.102 132.023C227.585 132.368 227.183 132.858 226.945 133.431C226.707 134.004 226.645 134.634 226.766 135.243C226.887 135.851 227.186 136.41 227.626 136.849C228.065 137.287 228.625 137.586 229.234 137.707C229.843 137.828 230.475 137.766 231.049 137.529C231.622 137.291 232.113 136.889 232.458 136.373C232.803 135.858 232.987 135.251 232.987 134.631C232.986 133.799 232.655 133.002 232.066 132.414C231.478 131.826 230.679 131.496 229.847 131.495Z" fill="#535461"/>
<path d="M215.401 144.533L215.059 144.874L220.495 150.302L220.837 149.961L215.401 144.533Z" fill="#535461"/>
<path d="M220.619 144.529L215.063 149.837L215.397 150.186L220.953 144.877L220.619 144.529Z" fill="#535461"/>
</svg>
