<svg width="260" height="200" viewBox="0 0 260 200" fill="none" xmlns="http://www.w3.org/2000/svg">
<mask id="mask0" mask-type="alpha" maskUnits="userSpaceOnUse" x="0" y="0" width="260" height="200">
<rect width="260" height="200" rx="30" fill="#EBF1FE"/>
</mask>
<g mask="url(#mask0)">
<path opacity="0.2" d="M27.0312 40.1373L443.661 38.9563" stroke="#5A5773" stroke-miterlimit="10"/>
<path opacity="0.2" d="M27.1309 71.2745L443.76 70.0935" stroke="#5A5773" stroke-miterlimit="10"/>
<path opacity="0.2" d="M27.2285 102.405L443.858 101.224" stroke="#5A5773" stroke-miterlimit="10"/>
<path opacity="0.2" d="M27.3203 133.542L443.958 132.361" stroke="#5A5773" stroke-miterlimit="10"/>
<path opacity="0.2" d="M64.9363 124.987L65.0584 164.57" stroke="#5A5773" stroke-miterlimit="10" stroke-dasharray="12 12"/>
<path opacity="0.2" d="M27.418 164.68L444.047 163.492" stroke="#5A5773" stroke-miterlimit="10"/>
<path opacity="0.2" d="M112.179 164.435L111.996 105.427" stroke="#5A5773" stroke-miterlimit="10" stroke-dasharray="12 12"/>
<path d="M385.705 93.3286C378.301 94.1453 370.936 90.3614 366.371 86.2986C361.642 82.0809 358.148 76.8301 354.771 71.7209C353.701 70.1057 352.591 68.4408 351.476 66.834C345.602 58.4607 339.819 52.8808 333.283 49.2699C330.889 47.9473 328.333 46.9122 325.674 46.188C325.438 46.7696 325.092 47.3045 324.653 47.7659C323.71 48.7602 322.394 49.356 320.992 49.4227L320.743 49.4294C319.484 49.4312 318.265 49.004 317.305 48.2244C316.346 47.4448 315.708 46.3636 315.506 45.1748C313.126 45.3476 310.789 45.873 308.579 46.732C302.045 49.2926 297.181 54.5458 292.769 59.7144C287.427 65.9586 282.291 72.4941 277.521 79.1501C276.552 80.4947 275.582 81.8466 274.613 83.2058C269.44 90.5463 334.093 98.1307 327.063 104.138C317.628 112.246 306.1 115.942 296.223 114.03C284.374 111.737 275.659 102.014 269.396 93.7959C268.607 92.7308 270.35 31.4157 269.5 30.3305C263.65 22.5215 240 62.8306 185.001 66.8341C172.001 66.8341 149.354 65.6229 139.373 73.7243C134.508 77.6737 130.925 82.9575 127.45 88.0644C126.26 89.8206 125.027 91.6361 123.754 93.3801C117.205 102.315 110.484 107.25 103.116 108.478C100.191 108.869 97.2302 108.95 94.2871 108.718C92.3314 108.641 90.3072 108.551 88.3341 108.655C83.4138 108.99 78.6677 110.537 74.5569 113.145C70.446 115.753 67.1101 119.334 64.8732 123.541L65.0653 165.229L392.354 164.309L392.139 95.3341C391.587 95.641 390.974 95.8331 390.339 95.8979C389.705 95.9627 389.063 95.8987 388.455 95.7101C387.848 95.5215 387.29 95.2126 386.816 94.8035C386.342 94.3944 385.963 93.8943 385.705 93.3358L385.705 93.3286Z" fill="#B4CCFF"/>
<path opacity="0.2" d="M160.257 66.4497L160.563 164.302" stroke="#5A5773" stroke-miterlimit="10" stroke-dasharray="12 12"/>
<path d="M65 124.831C67.1667 119.497 74.9 108.731 88.5 108.331C105.5 107.831 109.5 110.831 127 89.3307C144.5 67.8307 146.5 66.8307 190 66.3307C220 62.3307 243 50.8307 261 33.3307" stroke="#1448B6" stroke-width="1.5"/>
<path opacity="0.5" d="M41.7581 33.602L27.6811 33.6411C27.305 33.6421 27.0009 33.9347 27.002 34.2946L27.0178 39.5078C27.0189 39.8677 27.3247 40.1586 27.7009 40.1576L41.7778 40.1186C42.154 40.1175 42.458 39.8249 42.457 39.465L42.4412 34.2518C42.4401 33.8919 42.1342 33.601 41.7581 33.602Z" fill="#1448B6"/>
<path d="M41.844 64.7312L27.7671 64.7702C27.3909 64.7712 27.0868 65.0638 27.0879 65.4237L27.1037 70.637C27.1048 70.9969 27.4106 71.2878 27.7868 71.2868L41.8637 71.2477C42.2399 71.2467 42.544 70.9541 42.5429 70.5942L42.5271 65.381C42.526 65.0211 42.2202 64.7301 41.844 64.7312Z" fill="#1448B6"/>
<path opacity="0.5" d="M41.9377 95.8743L27.8608 95.9133C27.4846 95.9143 27.1806 96.2069 27.1817 96.5668L27.1974 101.78C27.1985 102.14 27.5044 102.431 27.8806 102.43L41.9575 102.391C42.3337 102.39 42.6377 102.097 42.6366 101.737L42.6209 96.524C42.6198 96.1641 42.3139 95.8732 41.9377 95.8743Z" fill="#1448B6"/>
<path opacity="0.5" d="M42.0334 127.004L27.9566 127.043C27.5804 127.044 27.2763 127.336 27.2774 127.696L27.2932 132.909C27.2942 133.269 27.6001 133.56 27.9763 133.559L42.0532 133.52C42.4294 133.519 42.7335 133.227 42.7324 132.867L42.7166 127.653C42.7155 127.294 42.4096 127.003 42.0334 127.004Z" fill="#1448B6"/>
<path opacity="0.5" d="M42.1311 158.14L28.0542 158.179C27.678 158.18 27.3739 158.473 27.375 158.832L27.3908 164.046C27.3919 164.406 27.6978 164.696 28.0739 164.695L42.1508 164.656C42.527 164.655 42.8311 164.363 42.83 164.003L42.8142 158.79C42.8131 158.43 42.5073 158.139 42.1311 158.14Z" fill="#1448B6"/>
<path opacity="0.5" d="M71.1604 171.091L57.0835 171.13C56.7073 171.131 56.4032 171.423 56.4043 171.783L56.4201 176.997C56.4212 177.356 56.727 177.647 57.1032 177.646L71.1801 177.607C71.5563 177.606 71.8604 177.314 71.8593 176.954L71.8435 171.741C71.8424 171.381 71.5366 171.09 71.1604 171.091Z" fill="#1448B6"/>
<path opacity="0.5" d="M119.219 170.957L105.142 170.996C104.766 170.997 104.462 171.289 104.463 171.649L104.479 176.863C104.48 177.222 104.786 177.513 105.162 177.512L119.239 177.473C119.615 177.472 119.919 177.18 119.918 176.82L119.902 171.607C119.901 171.247 119.595 170.956 119.219 170.957Z" fill="#1448B6"/>
<path d="M165.952 172.876L151.869 172.854C151.493 172.854 151.187 173.145 151.186 173.505L151.178 178.721C151.177 179.081 151.482 179.373 151.858 179.374L165.941 179.395C166.318 179.396 166.623 179.105 166.624 178.745L166.633 173.529C166.633 173.169 166.329 172.877 165.952 172.876Z" fill="#1448B6"/>
</g>
</svg>
