<svg width="260" height="200" viewBox="0 0 260 200" fill="none" xmlns="http://www.w3.org/2000/svg">
<path d="M167.839 184.953C167.319 193.623 164.059 210.349 162.494 217.628L185.25 229.184C186.584 223.936 190.369 208.142 194.844 186.947C188.708 176.911 156.047 129.864 140.484 107.595C134.698 107.698 124.349 109.532 129.243 116.043C135.36 124.183 168.489 174.115 167.839 184.953Z" fill="url(#paint0_linear)"/>
<path d="M148.233 31.5673C145.753 23.2435 138.77 7.69894 135.588 0.967133L155.116 -15.4668C157.609 -10.6606 164.89 3.85654 174.074 23.4759C170.385 34.6457 149.295 87.8936 139.211 113.121C133.554 114.339 123.059 114.91 126.342 107.455C130.445 98.1361 151.334 41.9719 148.233 31.5673Z" fill="url(#paint1_linear)"/>
<path d="M272.593 84.3064C272.593 84.3064 272.593 84.3064 272.593 84.3064L272.593 79.2491C271.914 80.0929 272.143 81.9212 272.593 84.3064C267.714 89.931 244.592 89 226.773 91.9044C216.058 93.651 158.681 102.45 148.499 102.45C140.353 102.45 145.104 111.825 148.499 116.512C175.651 115.574 232.883 113.418 244.592 112.293C279.718 112.293 274.391 93.8459 272.593 84.3064Z" fill="url(#paint2_linear)"/>
<path d="M88.5818 232.466C88.5818 232.466 88.5818 232.466 88.5818 232.466L92.9615 234.995C92.5702 233.985 90.8723 233.27 88.5818 232.466C86.1502 225.429 98.5174 205.87 104.911 188.987C108.757 178.834 129.825 124.744 134.916 115.926C138.989 108.871 128.494 108.299 122.738 108.895C109.974 132.878 83.2252 183.521 78.3447 194.224C60.7818 224.643 79.421 229.254 88.5818 232.466Z" fill="url(#paint3_linear)"/>
<path d="M28.7922 124.855C20.3 130.536 5.65639 143.319 -0.603888 149L-30 137.638C-25.645 133.377 -12.3623 120.736 5.92858 104.261C20.9533 103.125 94.3891 100.947 129.229 100C133.584 104.734 139.681 114.203 129.229 114.203C116.164 114.203 39.4075 117.754 28.7922 124.855Z" fill="url(#paint4_linear)"/>
<path d="M66.5752 32.9861C58.3988 30.0562 42.8081 1.42239 35.4994 4.11414e-05L51.9991 -23.5001C57.3483 -22.6631 63.9988 -14.5 75.3561 7.37143C82.1727 16.9583 112.594 65.4835 126.952 88.5477C124.583 93.8275 118.829 102.622 114.766 95.5628C109.686 86.7383 76.7958 36.6484 66.5752 32.9861Z" fill="url(#paint5_linear)"/>
<defs>
<linearGradient id="paint0_linear" x1="186.255" y1="196.278" x2="124.42" y2="101.601" gradientUnits="userSpaceOnUse">
<stop stop-color="#DBAF5C"/>
<stop offset="0.746838" stop-color="#DBAF5C"/>
<stop offset="0.759962" stop-color="#090704" stop-opacity="0.992229"/>
<stop offset="1"/>
</linearGradient>
<linearGradient id="paint1_linear" x1="163.586" y1="16.3462" x2="124.934" y2="122.616" gradientUnits="userSpaceOnUse">
<stop stop-color="#DBAF5C"/>
<stop offset="0.746838" stop-color="#DBAF5C"/>
<stop offset="0.759962" stop-color="#090704" stop-opacity="0.992229"/>
<stop offset="1"/>
</linearGradient>
<linearGradient id="paint2_linear" x1="246.89" y1="99.8216" x2="134.054" y2="107.271" gradientUnits="userSpaceOnUse">
<stop stop-color="#DBAF5C"/>
<stop offset="0.746838" stop-color="#DBAF5C"/>
<stop offset="0.759962" stop-color="#090704" stop-opacity="0.992229"/>
<stop offset="1"/>
</linearGradient>
<linearGradient id="paint3_linear" x1="87.9967" y1="202.449" x2="137.963" y2="101.006" gradientUnits="userSpaceOnUse">
<stop stop-color="#DBAF5C"/>
<stop offset="0.746838" stop-color="#DBAF5C"/>
<stop offset="0.759962" stop-color="#090704" stop-opacity="0.992229"/>
<stop offset="1"/>
</linearGradient>
<linearGradient id="paint4_linear" x1="2.97914" y1="116.858" x2="147.377" y2="104.747" gradientUnits="userSpaceOnUse">
<stop stop-color="#DBAF5C"/>
<stop offset="0.746838" stop-color="#DBAF5C"/>
<stop offset="0.759962" stop-color="#090704" stop-opacity="0.992229"/>
<stop offset="1"/>
</linearGradient>
<linearGradient id="paint5_linear" x1="63.4011" y1="11.6017" x2="126.15" y2="105.675" gradientUnits="userSpaceOnUse">
<stop stop-color="#DBAF5C"/>
<stop offset="0.746838" stop-color="#DBAF5C"/>
<stop offset="0.759962" stop-color="#090704" stop-opacity="0.992229"/>
<stop offset="1"/>
</linearGradient>
</defs>
</svg>
