<svg width="42" height="47" viewBox="0 0 42 47" fill="none" xmlns="http://www.w3.org/2000/svg">
<path fill-rule="evenodd" clip-rule="evenodd" d="M23.8657 36.5565C23.9022 36.5619 23.9396 36.5648 23.9778 36.5648C25.3648 36.5844 26.3551 36.5978 26.9487 36.6048L20.8367 47L15.1453 37.318H18.1775L20.8081 42.018L23.8657 36.5565ZM27.839 32.7549C28.8573 32.7549 28.949 33.0612 28.8114 34.3046C28.6692 35.5615 28.4995 35.8498 27.4904 35.8498C26.4813 35.8498 26.3941 35.5255 26.5317 34.3046C26.6785 33.0477 26.8482 32.7549 27.839 32.7549ZM6.29809 32.7458C6.29809 32.7458 6.81641 32.7323 7.27052 32.7999L7.21547 33.2729C6.72009 33.2324 6.33479 33.2504 6.27516 33.2504C5.91279 33.2504 5.89903 33.4757 5.78894 34.4623L5.77518 34.5749C5.70179 35.2281 5.83481 35.3408 6.18342 35.3408H6.26598L6.33479 34.7551H5.96783L6.02288 34.2866H7.13291L6.97237 35.7327C6.67422 35.8183 6.33479 35.8453 6.04581 35.8453C5.22017 35.8453 4.84404 35.6967 4.98165 34.4443C5.12843 33.1513 5.31649 32.7458 6.29809 32.7458ZM21.0928 35.075C21.4276 35.075 21.4689 35.1155 21.4322 35.4399C21.4001 35.7462 21.3588 35.8228 21.0102 35.8228C20.6616 35.8228 20.6387 35.7507 20.6708 35.4399C20.7075 35.129 20.7442 35.075 21.0928 35.075ZM25.4358 32.7999C26.0092 32.7999 26.4587 32.9576 26.3899 33.5838L26.3532 33.9217C26.3303 34.1469 26.2156 34.3316 26.0092 34.5028L26.0872 35.8048H25.312L25.2615 34.7191H24.8487L24.7295 35.8048H23.968L24.3029 32.7999H25.4358ZM23.0464 32.7999C23.6244 32.7999 24.0739 32.9576 24.0005 33.5838L23.9638 33.9217C23.9134 34.3406 23.5602 34.6335 23.1428 34.7011C23.0592 34.7167 22.9859 34.7188 22.6442 34.719L22.4685 34.7191L22.3492 35.8048H21.5878L21.9226 32.7999H23.0464ZM21.1299 32.7999L21.0748 33.3315H20.2996L20.0244 35.8048H19.2584L19.5336 33.3315H18.7676L18.8227 32.7999H21.1299ZM18.7863 32.7954L18.7221 33.336H17.5295L17.4561 34.0028H18.5478L18.4882 34.5479H17.3919L17.3094 35.2687H18.502L18.4469 35.8048H16.5021L16.8415 32.7954H18.7863ZM15.4108 32.7954C16.0071 32.7954 16.53 32.863 16.4474 33.5838L16.4291 33.7775C16.4015 33.9983 16.2869 34.1604 16.1401 34.2776C16.2685 34.4398 16.3236 34.6785 16.3098 34.8407L16.2869 35.0209C16.2181 35.6426 15.8511 35.8048 15.0759 35.8048H14.1952L14.5347 32.7954H15.4108ZM12.7278 32.7954L13.0259 34.0523L13.6268 32.7954H14.4479L13.3103 34.9398L13.2186 35.8048H12.448L12.5443 34.9398L11.9067 32.7954H12.7278ZM11.609 32.7999L12.0723 35.8048H11.3475L11.2328 35.0074H10.3797L10.1136 35.8048H9.37515L10.4806 32.7999H11.609ZM8.6829 32.7999C9.25627 32.7999 9.70579 32.9576 9.63698 33.5838L9.60029 33.9217C9.57735 34.1469 9.46268 34.3316 9.25627 34.5028L9.33424 35.8048H8.55906L8.5086 34.7191H8.09578L7.97652 35.8048H7.21509L7.54994 32.7999H8.6829ZM4.31598 28.6545C4.56842 29.4338 4.9515 30.1309 5.48322 30.7497C5.59048 30.8745 5.70214 30.9941 5.81809 31.1086L5.25252 32.0704C4.86763 32.1648 4.56659 32.3569 4.33796 32.6769C4.08199 33.0351 3.96789 33.4629 3.87418 34.2279L3.86899 34.2707L3.85691 34.3746C3.81066 34.7958 3.81025 35.1453 3.87111 35.4393L0.32723 35.4393L4.31598 28.6545ZM36.4155 25.9419L42 35.4393L29.8343 35.4393L31.3056 32.9355L37.5829 32.9356L34.5202 27.7265C34.7337 27.5681 34.953 27.3939 35.1936 27.2028C35.6644 26.829 36.0721 26.4068 36.4155 25.9419ZM27.7962 33.264L27.784 33.2639C27.417 33.2639 27.3803 33.4441 27.2794 34.3046C27.1831 35.1516 27.1831 35.3363 27.5454 35.3363C27.917 35.3363 27.9674 35.1876 28.0683 34.3046C28.1647 33.4261 28.1555 33.2639 27.784 33.2639L27.7962 33.264ZM15.3787 34.5884H15.0805L14.9979 35.3092H15.1447C15.3787 35.3092 15.5071 35.2327 15.5346 34.9894L15.553 34.8362C15.5759 34.629 15.4933 34.5884 15.3787 34.5884ZM10.9943 33.336L10.5953 34.4443H11.1503L10.9943 33.336ZM25.367 33.3045H25.0138L24.9083 34.1965L25.2708 34.1964C25.4275 34.1952 25.5648 34.1603 25.5918 33.9217L25.6331 33.5883C25.6698 33.336 25.5138 33.3045 25.367 33.3045ZM22.9868 33.3045H22.6336L22.5281 34.1965L22.8908 34.1964C23.0519 34.1952 23.1892 34.1603 23.2162 33.9217L23.2529 33.5883C23.285 33.336 23.1382 33.3045 22.9868 33.3045ZM8.6141 33.3045H8.26091L8.15541 34.1965L8.51784 34.1964C8.67457 34.1952 8.81187 34.1603 8.83886 33.9217L8.88014 33.5883C8.91684 33.336 8.76088 33.3045 8.6141 33.3045ZM15.3695 33.2955H15.2273L15.1447 34.0118H15.4429C15.5575 34.0118 15.6539 33.9667 15.6722 33.764L15.6906 33.6198C15.7227 33.318 15.5988 33.2955 15.3695 33.2955ZM16.5603 15.4764C16.6846 15.4902 16.8071 15.505 16.9276 15.5209L21.0311 15.5209C21.5518 15.5213 22.5569 15.5271 24.0464 15.5382H30.3197C31.9142 15.5382 33.2116 15.8055 34.2636 16.5253C35.6497 17.4736 36.264 19.0101 36.0739 20.8541L35.9266 22.228C35.7583 23.7148 35.1573 24.9187 34.1369 25.7738C33.3129 26.4643 32.3262 26.8527 31.1416 27.0609L30.9784 27.089C30.6861 27.1383 30.4503 27.1603 29.8943 27.1701L29.834 27.171L29.3752 31.3978H22.2782C21.2421 31.3958 20.3945 31.3958 19.7355 31.3977L19.6694 31.3978L14.231 31.3979C13.4992 31.4967 12.7984 31.5535 12.2079 31.5535L12.0968 31.5532C11.1057 31.5492 10.3722 31.4902 9.69164 31.3285C8.68502 31.0894 7.84967 30.6208 7.22612 29.8551C6.62492 29.1169 6.30549 28.2066 6.18941 27.1038C6.09462 26.2033 6.13015 25.1283 6.28408 23.7732L6.33549 23.3266C6.48374 22.0577 6.59822 21.258 6.74569 20.5277L6.75681 20.4731C6.98551 19.3584 7.28609 18.4925 7.75192 17.7536C8.32177 16.8497 9.11527 16.1958 10.1287 15.8027C10.9765 15.4738 11.9425 15.3353 13.1338 15.3307L13.166 15.3307L13.2769 15.3287C14.254 15.3148 15.4168 15.3495 16.5603 15.4764ZM13.6934 17.4884H13.5265C13.3166 17.4893 13.1946 17.4925 13.1946 17.4925C9.40661 17.4925 9.03662 19.0491 8.47283 24.0128C7.93212 28.7728 9.01459 29.3797 12.1134 29.3914L12.2079 29.3916L12.2612 29.3914C12.8028 29.3875 13.4557 29.3257 14.1193 29.2294L14.2297 29.2131C14.7247 29.1385 15.2225 29.0455 15.6813 28.9438L15.7669 28.9246L16.4011 23.2691H12.4194L12.2256 24.9294H13.7584L13.4941 27.4026L13.1927 27.4137C12.8409 27.4259 12.508 27.4334 12.2608 27.4199C11.3189 27.3514 10.8605 26.91 11.125 24.5854L11.1332 24.5143L11.1685 24.082L11.2435 23.4375C11.618 20.2405 11.7592 19.5478 13.0303 19.5336L13.1078 19.533C13.253 19.5308 13.6088 19.5186 14.1157 19.518L14.2381 19.5181C14.529 19.5189 14.8638 19.5236 15.2329 19.5359L15.3165 19.5388C15.7163 19.5532 16.1543 19.5766 16.6185 19.6132L16.7007 19.6198L16.8945 17.7001L16.8426 17.6924C16.4458 17.6343 16.0373 17.5925 15.6437 17.5624L15.5126 17.5527L15.38 17.5438C14.7063 17.5001 14.0966 17.4894 13.6934 17.4884ZM30.3197 17.7001H26.0208L24.7347 29.2359H27.3951L27.8532 25.0159L28.877 25.0154C30.08 25.0134 30.3588 25.0027 30.6721 24.9467C31.2352 24.8536 31.7597 24.7069 32.2113 24.4634L32.255 24.4394L32.2643 24.4342C33.0345 24.0002 33.5831 23.2723 33.7333 22.0271L33.7377 21.9893L33.8787 20.6748L33.886 20.6043C34.1072 18.3165 32.4808 17.7121 30.3834 17.7002L30.3197 17.7001ZM21.04 17.6828H17.7137L16.41 29.2359H19.6694L19.7567 29.2357C20.9141 29.2307 21.8243 29.1243 22.5152 28.8456L22.5666 28.8244C23.5427 28.412 24.0687 27.641 24.2279 26.3019L24.2326 26.2612L24.3207 25.5694L24.3234 25.5415C24.3848 24.8689 24.1546 23.936 23.6159 23.3902C24.217 22.9518 24.6507 22.382 24.7701 21.4884L24.7746 21.4534L24.8668 20.6748L24.8757 20.5936C25.1421 17.9636 23.2443 17.6881 21.04 17.6828ZM20.8674 24.4798C21.4136 24.4798 21.7836 24.67 21.6955 25.5521L21.6074 26.1574C21.5193 27.0913 21.026 27.4199 20.0922 27.4199H19.9513L19.2465 27.4026L19.5637 24.4798H20.8674ZM30.0907 19.4988C30.7602 19.4988 31.4121 19.6371 31.2711 20.6921L31.1302 21.9893C31.0255 22.9995 30.3856 23.1452 29.7061 23.148L28.0822 23.148L28.4874 19.4988H30.0907ZM22.2064 20.8132L22.1536 21.3839C22.0479 22.2314 21.6603 22.4562 21.0965 22.4562H19.7927L20.1275 19.4642H20.8498C21.8188 19.4642 22.3474 19.5506 22.2064 20.8132ZM12.1633 11.5607L10.6908 14.0666L4.41775 14.0666L6.03843 16.8224C5.97408 16.9082 5.91194 16.9959 5.85215 17.0858C5.36003 17.8256 5.01087 18.6434 4.74596 19.6333L0 11.5607L12.1633 11.5607ZM23.4874 11.5571L23.4875 11.562H29.4191L29.4191 11.5607L41.6744 11.5607L37.6034 18.4853C37.3079 17.5712 36.797 16.7515 36.0794 16.0695L37.257 14.0671L30.7139 14.0671C30.5059 14.0577 30.2936 14.0526 30.0767 14.0517L30.0078 14.0516H21.856L21.8551 14.0578L21.7879 14.0548C21.4765 14.0414 21.1422 14.0354 20.7701 14.0354C19.8639 14.0233 19.0104 14.0153 18.2097 14.0111L19.6517 11.5571H23.4874ZM21.1642 0L26.8548 9.682H23.7865L21.164 5.00999L18.4837 9.78475L16.0006 14.0104C14.8155 14.0165 13.7828 14.0341 12.9024 14.0631L15.275 10.0254L15.2707 10.023L21.1642 0Z" fill="#001032"/>
</svg>
