<svg width="289" height="289" viewBox="0 0 289 289" fill="none" xmlns="http://www.w3.org/2000/svg">
<path d="M234 144C234 193.706 193.706 234 144 234C94.2944 234 54 193.706 54 144C54 94.2944 94.2944 54 144 54C193.706 54 234 94.2944 234 144ZM82.2703 144C82.2703 178.092 109.908 205.73 144 205.73C178.092 205.73 205.73 178.092 205.73 144C205.73 109.908 178.092 82.2703 144 82.2703C109.908 82.2703 82.2703 109.908 82.2703 144Z" fill="#1448B6"/>
<ellipse cx="144.5" cy="144.5" rx="29.5" ry="29.5" fill="#DCAF54"/>
<path d="M142.559 143.263L192.953 99L199 106.042C188.682 114.899 166.17 131.135 147.599 148.293C144.052 150.854 140.625 145.824 142.559 143.263Z" fill="#001032"/>
<path fill-rule="evenodd" clip-rule="evenodd" d="M208 58L185 84V112H212L240 84H217L200 97L211 80L208 58Z" fill="#DCAF54"/>
<circle cx="144.5" cy="144.5" r="144.144" stroke="#1448B6" stroke-width="0.71179"/>
</svg>
