<svg width="262" height="258" viewBox="0 0 262 258" fill="none" xmlns="http://www.w3.org/2000/svg">
<path opacity="0.1" d="M-145.299 226.262C-130.964 255.869 -102.413 276.279 -72.2424 289.335C-48.0863 299.72 -22.2971 306.317 3.81662 309.359C8.81805 309.953 13.7945 310.032 18.8283 310.36C31.6911 311.199 44.9977 311.228 57.8586 310.36C65.5946 309.845 73.1944 309.488 80.8764 308.358C107.569 304.46 133.326 296.385 157.936 285.331C165.039 282.129 172.138 279.108 178.953 275.319C190.335 269.005 200.635 262.201 210.977 254.295C213.266 252.545 215.752 250.114 217.983 248.288H218.984C220.738 246.84 222.223 244.719 223.988 243.282C226.921 240.823 230.727 238.267 233.995 236.274C234.217 236.144 233.769 236.398 233.995 236.274C234.6 235.923 235.371 235.586 235.997 235.273C237.287 234.622 238.65 233.786 240 233.27V150.174H139.922V168.195H95.8881V32.0371H43.8477V87.101H18.8283V54.0627H-2.18803V20.0232H-12.1958V0C-13.0378 0.307901 -13.3608 0.682456 -14.1974 1.00116V20.0232H-24.2051V54.0627H-45.2214V87.101H-76.2455V210.244H-126.284V120.139H-141.296C-155.798 153.992 -161.28 193.268 -145.299 226.262Z" fill="#3C76F2"/>
<path opacity="0.1" d="M57 52H81V76H57V52Z" fill="#3C76F2"/>
<path opacity="0.1" d="M57 100H81V123H57V100Z" fill="#3C76F2"/>
<path opacity="0.1" d="M57 148H81V171H57V148Z" fill="#3C76F2"/>
<path opacity="0.1" d="M57 196H81V219H57V196Z" fill="#3C76F2"/>
<path opacity="0.1" d="M57 244H81V267H57V244Z" fill="#3C76F2"/>
<path opacity="0.1" d="M151 179H232V190H151V179Z" fill="#3C76F2"/>
<path opacity="0.1" d="M151 211H232V222H151V211Z" fill="#3C76F2"/>
<path opacity="0.1" d="M151 243V253H211C213.295 251.33 215.762 249.742 218 248L219 247C220.759 245.619 222.23 244.371 224 243H151Z" fill="#3C76F2"/>
<path opacity="0.1" d="M4 115H19V130H4V115Z" fill="#3C76F2"/>
</svg>
