<svg width="307" height="244" viewBox="0 0 307 244" fill="none" xmlns="http://www.w3.org/2000/svg">
<path d="M229.257 241.763C225.01 238.158 222.431 232.465 223.107 226.923C223.784 221.38 227.974 216.285 233.408 215.108C238.843 213.931 245.039 217.189 246.689 222.521C247.598 212.241 248.645 201.53 254.087 192.775C259.014 184.848 267.549 179.176 276.798 178.161C286.048 177.146 295.786 180.979 301.555 188.311C307.323 195.644 308.736 206.303 304.696 214.722C301.719 220.923 296.236 225.538 290.491 229.293C271.926 241.323 249.661 246.216 227.79 243.07" fill="#DCAF54"/>
<path d="M292.471 180.209C284.847 186.389 277.852 193.302 271.589 200.846C261.786 212.612 253.854 225.804 248.068 239.962C247.644 240.995 249.33 241.445 249.748 240.423C259.215 217.413 274.327 197.132 293.704 181.436C294.574 180.73 293.334 179.51 292.471 180.209Z" fill="white"/>
<path d="M74.9531 243H51.0469C50.2391 242.999 49.4646 242.677 48.8934 242.103C48.3222 241.53 48.0009 240.752 48 239.941V190.059C48.0009 189.248 48.3222 188.47 48.8934 187.897C49.4646 187.324 50.2391 187.001 51.0469 187H74.9531C75.7609 187.001 76.5354 187.324 77.1066 187.897C77.6778 188.47 77.9991 189.248 78 190.059V239.941C77.9991 240.752 77.6778 241.53 77.1066 242.103C76.5354 242.677 75.7609 242.999 74.9531 243Z" fill="#1448B6"/>
<path d="M132.477 244H108.523C107.589 243.999 106.693 243.627 106.033 242.965C105.373 242.303 105.001 241.406 105 240.471V143.529C105.001 142.594 105.373 141.697 106.033 141.035C106.693 140.373 107.589 140.001 108.523 140H132.477C133.411 140.001 134.307 140.373 134.967 141.035C135.628 141.697 135.999 142.594 136 143.529V240.471C135.999 241.406 135.628 242.303 134.967 242.965C134.307 243.627 133.411 243.999 132.477 244ZM108.523 140.941C107.838 140.942 107.181 141.215 106.697 141.7C106.213 142.185 105.94 142.843 105.939 143.529V240.471C105.94 241.157 106.213 241.815 106.697 242.3C107.181 242.785 107.838 243.058 108.523 243.059H132.477C133.162 243.058 133.819 242.785 134.303 242.3C134.787 241.815 135.06 241.157 135.061 240.471V143.529C135.06 142.843 134.787 142.185 134.303 141.7C133.819 141.215 133.162 140.942 132.477 140.941H108.523Z" fill="#3F3D56"/>
<path d="M189.477 244H165.523C164.589 243.999 163.693 243.626 163.033 242.963C162.373 242.3 162.001 241.401 162 240.463V81.5369C162.001 80.5992 162.373 79.7002 163.033 79.0371C163.693 78.374 164.589 78.001 165.523 78H189.477C190.411 78.001 191.307 78.374 191.967 79.0371C192.628 79.7002 192.999 80.5992 193 81.5369V240.463C192.999 241.401 192.628 242.3 191.967 242.963C191.307 243.626 190.411 243.999 189.477 244ZM165.523 78.9432C164.838 78.944 164.181 79.2175 163.697 79.7037C163.213 80.19 162.94 80.8493 162.939 81.5369V240.463C162.94 241.151 163.213 241.81 163.697 242.296C164.181 242.783 164.838 243.056 165.523 243.057H189.477C190.162 243.056 190.819 242.783 191.303 242.296C191.787 241.81 192.06 241.151 192.061 240.463V81.5369C192.06 80.8493 191.787 80.19 191.303 79.7037C190.819 79.2175 190.162 78.944 189.477 78.9432H165.523Z" fill="#3F3D56"/>
<path d="M246.953 244H223.047C222.239 243.999 221.465 243.675 220.893 243.098C220.322 242.521 220.001 241.739 220 240.923V16.0768C220.001 15.2611 220.322 14.479 220.893 13.9022C221.465 13.3254 222.239 13.0009 223.047 13H246.953C247.761 13.0009 248.535 13.3254 249.107 13.9022C249.678 14.479 249.999 15.2611 250 16.0768V240.923C249.999 241.739 249.678 242.521 249.107 243.098C248.535 243.675 247.761 243.999 246.953 244Z" fill="#1448B6"/>
<path d="M306.439 244H0.561022C0.412078 244 0.269379 243.947 0.164212 243.853C0.0590458 243.759 0 243.632 0 243.5C0 243.368 0.0590458 243.241 0.164212 243.147C0.269379 243.053 0.412078 243 0.561022 243H306.439C306.588 243 306.731 243.053 306.836 243.147C306.941 243.241 307 243.368 307 243.5C307 243.632 306.941 243.759 306.836 243.853C306.731 243.947 306.588 244 306.439 244Z" fill="#3F3D56"/>
</svg>
