<svg width="375" height="342" viewBox="0 0 375 342" fill="none" xmlns="http://www.w3.org/2000/svg">
<path d="M505.242 75.7524C492.436 49.2756 466.42 31.5713 439.468 19.8956C417.889 10.6093 395.079 4.51068 371.751 1.79034C367.283 1.25897 362.801 0.846741 358.304 0.55368C346.814 -0.196686 335.286 -0.183746 323.797 0.592346C316.886 1.05286 310 1.7887 303.137 2.79993C279.292 6.28525 256.045 13.0677 234.06 22.9534C227.715 25.8164 221.499 28.9418 215.411 32.3297C205.243 37.9764 195.5 44.3602 186.261 51.4301C184.216 52.9952 182.198 54.5942 180.205 56.2269L179.385 56.8984C177.818 58.193 176.266 59.5166 174.689 60.8015C172.069 63.0009 169.287 65 166.367 66.7819C166.17 66.8978 165.972 67.0138 165.77 67.1249C165.23 67.4389 164.68 67.7335 164.121 68.0137C162.969 68.5956 161.787 69.1181 160.582 69.5789C155.013 71.7043 149.049 72.4772 143.003 72.3468C142 72.3468 140.997 72.2791 139.989 72.2115C138.582 72.1149 137.169 71.97 135.761 71.7865L135.24 71.714C130.754 71.0779 126.318 70.1239 121.967 68.8591C115.246 66.9268 108.645 64.5115 102.001 62.3329C99.1807 61.4005 96.3554 60.5117 93.5059 59.7146L92.8791 59.5407C88.8265 58.3986 84.7011 57.5336 80.5314 56.9515C71.0561 55.7379 61.4323 56.5143 52.273 59.2316L51.9548 59.3234L51.3665 59.4973L50.5614 59.7484C49.2114 60.1736 47.8726 60.6389 46.5451 61.1445L45.7399 61.4537C44.4542 61.9496 43.1958 62.4826 41.9647 63.0526L41.1596 63.4198C39.8738 64.0188 38.6154 64.6516 37.3844 65.3182C36.9408 65.5501 36.502 65.8013 36.0681 66.038C34.7567 66.7722 33.471 67.5419 32.211 68.347C30.8738 69.2004 29.5656 70.0909 28.2863 71.0184C27.6949 71.4435 27.1099 71.8799 26.5313 72.3275C23.1961 74.8834 20.0728 77.7057 17.1922 80.7666C17.0331 80.926 16.8836 81.0903 16.7341 81.2497C15.9675 82.0806 15.2154 82.9259 14.4874 83.7906C14.2174 84.1094 13.9474 84.4283 13.6822 84.7567C12.8175 85.813 11.9834 86.8935 11.1798 87.9981C11.0593 88.1575 10.9436 88.3218 10.8279 88.4812C7.53358 93.0458 4.80248 97.9929 2.69412 103.215C2.62662 103.374 2.56394 103.538 2.50608 103.698C1.86322 105.356 1.27662 107.042 0.746258 108.755C0.529293 109.47 0.32197 110.205 0.138755 110.92C0.0760765 111.132 0.018219 111.349 -0.0348167 111.562C-2.69625 122.059 -3 132.971 -3 143.821C-3 145.087 -3 146.351 -3 147.613C-2.92286 165.163 -2.65286 183.012 -0.0685668 200.32C-0.0685668 200.441 -0.0348163 200.562 -0.0155306 200.678C0.849416 206.505 2.02594 212.281 3.50894 217.981C5.06106 223.963 7.04467 229.823 9.44413 235.516C15.389 249.525 24.0338 262.273 33.6333 274.089C45.2047 288.306 58.4637 301.426 73.2318 312.251C75.3532 313.807 77.5035 315.317 79.6828 316.782L80.6905 317.444C81.0425 317.681 81.3944 317.927 81.7464 318.135C82.4696 318.618 83.1928 319.072 83.9257 319.531L84.7454 320.043L86.3075 321.009L86.7896 321.285L87.6237 321.768L88.4482 322.251C89.4125 322.821 90.388 323.378 91.3748 323.922C95.5888 326.276 99.9024 328.428 104.316 330.376C105.617 330.952 106.927 331.508 108.245 332.043C114.228 334.484 120.374 336.503 126.639 338.086C128.953 338.672 131.282 339.187 133.625 339.631C136.389 340.166 139.168 340.609 141.961 340.96C146.406 341.52 150.877 341.854 155.355 341.96C186.849 342.728 218.661 332.458 243.342 312.773C253.177 304.928 262.015 295.639 273.061 289.625C282.704 284.388 293.991 282.219 304.318 286.34C312.852 289.745 318.407 291.436 327.992 290.919C347.826 289.8 367.379 285.703 385.998 278.765C386.751 278.49 387.503 278.205 388.25 277.92C436.807 259.298 478.556 222.319 500.242 174.8C500.815 173.544 501.372 172.278 501.915 171.003C514.851 140.739 519.518 105.258 505.242 75.7524Z" fill="#F8FBFF"/>
<path opacity="0.1" d="M94 242.955V59.3281L93.37 59.1538C89.2966 58.0087 85.1501 57.1415 80.9591 56.5579C71.4352 55.3412 61.7622 56.1197 52.556 58.8438L52.2361 58.9359L51.6449 59.1102L50.8356 59.362C49.4787 59.7882 48.1331 60.2547 46.7988 60.7616L45.9895 61.0716C44.6972 61.5688 43.4323 62.1031 42.195 62.6746L41.3856 63.0427C40.0933 63.6432 38.8285 64.2777 37.5911 64.946C37.1453 65.1785 36.7043 65.4303 36.2681 65.6676C34.95 66.4037 33.6577 67.1754 32.3912 67.9826C31.0472 68.8382 29.7323 69.7309 28.4465 70.6607C27.852 71.0869 27.264 71.5244 26.6825 71.9732C23.3302 74.5356 20.1909 77.3651 17.2956 80.4339C17.1356 80.5937 16.9854 80.7583 16.8352 80.9182C16.0646 81.7511 15.3087 82.5987 14.5769 83.4656C14.3055 83.7852 14.0341 84.1048 13.7676 84.4342C12.8985 85.4932 12.0601 86.5764 11.2524 87.6838C11.1313 87.8436 11.015 88.0083 10.8987 88.1681C7.58751 92.7444 4.84243 97.7041 2.72327 102.939C2.65543 103.099 2.59243 103.264 2.53427 103.424C1.88812 105.086 1.29851 106.776 0.765438 108.494C0.547362 109.211 0.338978 109.947 0.154825 110.664C0.0918257 110.877 0.0336721 111.095 -0.0196354 111.308C-2.6947 121.832 -3 132.772 -3 143.649C-3 144.918 -3 146.185 -3 147.451C-2.92246 165.046 -2.65108 182.941 -0.0535581 200.293C-0.0535581 200.414 -0.019635 200.535 -0.00025034 200.651C0.869125 206.493 2.05166 212.284 3.54226 217.999H53.0309V242.955H62.8976V263H84.1333V242.955H94Z" fill="#3C76F2"/>
<path opacity="0.1" d="M505.255 75.5441C492.464 49.14 466.478 31.4842 439.558 19.8406C418.004 10.5798 395.221 4.49786 371.921 1.785C367.458 1.2551 362.981 0.843994 358.489 0.551758C347.012 -0.196564 335.498 -0.183685 324.023 0.590302C317.12 1.04956 310.242 1.78339 303.388 2.79181C279.571 6.26758 256.351 13.0314 234.392 22.89C228.055 25.7451 221.846 28.862 215.765 32.2406C205.608 37.8718 195.877 44.2381 186.649 51.2886C184.607 52.8494 182.591 54.444 180.6 56.0722L179.781 56.7419C178.216 58.0329 176.666 59.3529 175.091 60.6343C172.473 62.8276 169.695 64.8212 166.779 66.5982C166.581 66.7138 166.384 66.8295 166.182 66.9403C165.642 67.2534 165.093 67.5472 164.535 67.8267C163.384 68.407 162.204 68.928 161 69.3875V144.11H250.376V127.476H289.6V249.153H335.769V200.498H358.605V229.306H377.473V260.079H386.142V278C386.893 277.725 387.644 277.441 388.391 277.157V260.079H396.828V229.286H415.681V200.478H443.483V90.7238H487.672V170.543H501.912C514.852 140.353 519.514 104.969 505.255 75.5441Z" fill="#3C76F2"/>
<path opacity="0.1" d="M324 232H303V211H324V232Z" fill="#3C76F2"/>
<path opacity="0.1" d="M324 189H303V168H324V189Z" fill="#3C76F2"/>
<path opacity="0.1" d="M324 146H303V125H324V146Z" fill="#3C76F2"/>
<path opacity="0.1" d="M324 103H303V82H324V103Z" fill="#3C76F2"/>
<path opacity="0.1" d="M324 60H303V39H324V60Z" fill="#3C76F2"/>
<path opacity="0.1" d="M324 17V1C316.975 1.45075 309.976 2.171 303 3.16076V17H324Z" fill="#3C76F2"/>
<path opacity="0.1" d="M240 118H168V108H240V118Z" fill="#3C76F2"/>
<path opacity="0.1" d="M240 90H168V80H240V90Z" fill="#3C76F2"/>
<path opacity="0.1" d="M240 61V52H186.569C184.525 53.5031 182.507 55.0387 180.515 56.6067L179.695 57.2516C178.129 58.4949 176.576 59.766 175 61H240Z" fill="#3C76F2"/>
<path opacity="0.1" d="M240 32V23H234.194C227.664 25.7481 221.266 28.7481 215 32H240Z" fill="#3C76F2"/>
<path opacity="0.1" d="M371 175H358V162H371V175Z" fill="#3C76F2"/>
<path opacity="0.1" d="M80 238H67V225H80V238Z" fill="#3C76F2"/>
<path opacity="0.1" d="M80 207H67V194H80V207Z" fill="#3C76F2"/>
<path opacity="0.1" d="M80 175H67V162H80V175Z" fill="#3C76F2"/>
<path opacity="0.1" d="M80 144H67V131H80V144Z" fill="#3C76F2"/>
<path opacity="0.1" d="M80 113H67V100H80V113Z" fill="#3C76F2"/>
<path opacity="0.1" d="M80 81H67V68H80V81Z" fill="#3C76F2"/>
<path opacity="0.1" d="M371 142H358V129H371V142Z" fill="#3C76F2"/>
<path opacity="0.1" d="M371 109H358V96H371V109Z" fill="#3C76F2"/>
<path opacity="0.1" d="M371 76H358V63H371V76Z" fill="#3C76F2"/>
<path opacity="0.1" d="M371 43H358V29H371V43Z" fill="#3C76F2"/>
<path opacity="0.1" d="M358 1V9H371V2.13841L358 1Z" fill="#3C76F2"/>
<path opacity="0.1" d="M0 201V193H52V201H0ZM4.6311 193.5H0.814099V200.5H4.6311V193.5ZM9.26221 193.5H5.4452V200.5H9.26221V193.5ZM13.8933 193.5H10.0763V200.5H13.8933V193.5ZM18.5244 193.5H14.7074V200.5H18.5244V193.5ZM23.1555 193.5H19.3385V200.5H23.1555V193.5ZM27.7866 193.5H23.9696V200.5H27.7866V193.5ZM32.4177 193.5H28.6007V200.5H32.4177V193.5ZM37.0488 193.5H33.2318V200.5H37.0488V193.5ZM41.6799 193.5H37.8629V200.5H41.6799V193.5ZM46.311 193.5H42.494V200.5H46.311V193.5ZM51.1859 193.5H47.1252V200.5H51.1859V193.5Z" fill="#3C76F2"/>
<path opacity="0.1" d="M0 178V170H52V178H0ZM4.6311 170.502H0.814099V177.498H4.6311V170.502ZM9.26221 170.502H5.4452V177.498H9.26221V170.502ZM13.8933 170.502H10.0763V177.498H13.8933V170.502ZM18.5244 170.502H14.7074V177.498H18.5244V170.502ZM23.1555 170.502H19.3385V177.498H23.1555V170.502ZM27.7866 170.502H23.9696V177.498H27.7866V170.502ZM32.4177 170.502H28.6007V177.498H32.4177V170.502ZM37.0488 170.502H33.2318V177.498H37.0488V170.502ZM41.6799 170.502H37.8629V177.498H41.6799V170.502ZM46.311 170.502H42.494V177.498H46.311V170.502ZM51.1859 170.502H47.1252V177.498H51.1859V170.502Z" fill="#3C76F2"/>
<path opacity="0.1" d="M0 156V148H52V156H0ZM4.6311 148.502H0.814099V155.498H4.6311V148.502ZM9.26221 148.502H5.4452V155.498H9.26221V148.502ZM13.8933 148.502H10.0763V155.498H13.8933V148.502ZM18.5244 148.502H14.7074V155.498H18.5244V148.502ZM23.1555 148.502H19.3385V155.498H23.1555V148.502ZM27.7866 148.502H23.9696V155.498H27.7866V148.502ZM32.4177 148.502H28.6007V155.498H32.4177V148.502ZM37.0488 148.502H33.2318V155.498H37.0488V148.502ZM41.6799 148.502H37.8629V155.498H41.6799V148.502ZM46.311 148.502H42.494V155.498H46.311V148.502ZM51.1859 148.502H47.1252V155.498H51.1859V148.502Z" fill="#3C76F2"/>
<path opacity="0.1" d="M0 133V125H52V133H0ZM4.6311 125.5H0.814099V132.5H4.6311V125.5ZM9.26221 125.5H5.4452V132.5H9.26221V125.5ZM13.8933 125.5H10.0763V132.5H13.8933V125.5ZM18.5244 125.5H14.7074V132.5H18.5244V125.5ZM23.1555 125.5H19.3385V132.5H23.1555V125.5ZM27.7866 125.5H23.9696V132.5H27.7866V125.5ZM32.4177 125.5H28.6007V132.5H32.4177V125.5ZM37.0488 125.5H33.2318V132.5H37.0488V125.5ZM41.6799 125.5H37.8629V132.5H41.6799V125.5ZM46.311 125.5H42.494V132.5H46.311V125.5ZM51.1859 125.5H47.1252V132.5H51.1859V125.5Z" fill="#3C76F2"/>
<path opacity="0.1" d="M1 111C1.18231 110.25 1.38862 109.5 1.60452 108.76V110.5H5.36115V103.5H3.35569C3.41327 103.335 3.47564 103.165 3.5428 103H52V111H1ZM9.919 103.5H6.16237V110.5H9.919V103.5ZM14.4769 103.5H10.7202V110.5H14.4769V103.5ZM19.0347 103.5H15.2781V110.5H19.0347V103.5ZM23.5926 103.5H19.8359V110.5H23.5926V103.5ZM28.1504 103.5H24.3938V110.5H28.1504V103.5ZM32.7083 103.5H28.9517V110.5H32.7083V103.5ZM37.2661 103.5H33.5095V110.5H37.2661V103.5ZM41.824 103.5H38.0674V110.5H41.824V103.5ZM46.3818 103.5H42.6252V110.5H46.3818V103.5ZM51.1796 103.5H47.1831V110.5H51.1796V103.5Z" fill="#3C76F2"/>
<path opacity="0.1" d="M10 89C10.117 88.8351 10.234 88.6652 10.3559 88.5003H12.8864V85.1474C13.1546 84.8126 13.4276 84.4828 13.7007 84.148V88.4953H17.5184V81.4997H15.9728C16.1239 81.3348 16.2751 81.1649 16.436 81H51V88.995L10 89ZM22.1503 81.5047H18.3326V88.5003H22.1503V81.5047ZM26.7823 81.5047H22.9646V88.5003H26.7823V81.5047ZM31.4142 81.5047H27.5965V88.5003H31.4142V81.5047ZM36.0461 81.5047H32.2284V88.5003H36.0461V81.5047ZM40.6781 81.5047H36.8604V88.5003H40.6781V81.5047ZM45.31 81.5047H41.4923V88.5003H45.31V81.5047ZM50.1857 81.5047H46.1243V88.5003H50.1857V81.5047Z" fill="#3C76F2"/>
<path opacity="0.1" d="M36 66C36.4255 65.7737 36.8557 65.5562 37.2906 65.3388V65.5562H40.9921V63.5947L41.7816 63.2574V65.5562H45.4831V61.7885L46.2726 61.5044V65.5562H50.2105V60.2308L51 60V66H36Z" fill="#3C76F2"/>
</svg>
