<svg width="580" height="407" viewBox="0 0 580 407" fill="none" xmlns="http://www.w3.org/2000/svg">
<path opacity="0.1" d="M34 407C15.2223 407 0 403.59 0 400C0 396.41 15.2223 394 34 394C52.7777 394 68 396.41 68 400C68 403.59 52.7777 407 34 407Z" fill="#3C76F2"/>
<path d="M570.308 296.511C555.975 325.979 527.433 345.406 497.268 358.4C473.117 368.736 447.336 375.337 421.227 378.365C416.226 378.956 411.252 379.037 406.219 379.363C393.358 380.198 380.056 380.227 367.198 379.363C359.463 378.85 351.866 378.492 344.185 377.366C317.498 373.487 291.749 365.41 267.144 354.408C260.042 351.221 252.946 348.196 246.132 344.425C234.752 338.141 224.456 331.332 214.115 323.463C211.827 321.721 209.341 319.291 207.111 317.474L206.11 316.476C204.357 315.035 202.872 313.913 201.108 312.483C198.175 310.035 194.37 307.478 191.102 305.495C190.881 305.366 191.329 305.619 191.102 305.495C190.498 305.146 189.727 304.809 189.101 304.497C187.812 303.849 186.448 303.014 185.099 302.501C178.866 300.135 171.855 300.359 165.088 300.504C163.966 300.504 163.214 300.429 162.087 300.504C160.511 300.612 158.66 301.298 157.084 301.502V301.502C152.063 302.21 146.946 302.091 142.076 303.499C134.553 305.649 126.499 308.062 119.063 310.486C115.907 311.524 113.248 312.594 110.058 313.481H109.058C104.522 314.752 99.7171 315.828 95.0504 316.476C84.4455 317.826 74.2849 317.503 64.0336 314.479H63.033V314.479L62.0325 313.481C60.5216 313.008 58.5155 313.046 57.0298 312.483L56.0292 311.485C54.5903 310.933 53.4049 311.121 52.0271 310.486L51.0265 309.488C49.5875 308.821 48.4022 308.234 47.0244 307.492C46.5279 307.234 46.5095 306.757 46.0238 306.494C44.5561 305.676 42.4313 305.393 41.0211 304.497C39.5246 303.547 38.4508 303.533 37.019 302.501C36.357 302.028 35.6654 301.002 35.0179 300.504C31.285 297.66 28.2365 294.927 25.0125 291.52C24.8344 291.343 24.1792 290.7 24.0119 290.522C23.1539 289.597 22.8257 288.49 22.0108 287.528C21.7086 287.173 21.3071 286.895 21.0103 286.529C20.0426 285.354 18.908 284.764 18.0087 283.535C17.8738 283.357 17.1376 282.714 17.0081 282.536C13.3211 277.456 10.363 272.377 8.00325 266.565C7.9277 266.388 8.068 265.744 8.00325 265.567C7.28375 263.721 6.59575 262.483 6.00217 260.576C5.75934 259.78 6.20722 258.377 6.00217 257.581C5.93202 257.345 5.06098 256.82 5.00162 256.583C2.02291 244.9 2 232.723 2 220.647C2 219.239 2 218.06 2 216.655C2.08634 197.122 2.10925 177.024 5.00162 157.76C5.00162 157.626 4.98004 157.889 5.00162 157.76C5.96968 151.275 7.34399 145.139 9.00379 138.794C10.7409 132.137 13.3221 125.167 16.0076 118.83C22.6611 103.239 32.2783 89.0576 43.0222 75.9071C55.9731 60.0845 70.5174 45.0324 87.046 32.984C89.4204 31.2529 91.6107 29.6238 94.0498 27.993L96.0509 26.9948C96.4448 26.7313 96.6575 27.226 97.0514 26.9948C97.8609 26.4571 98.2323 25.5091 99.0525 24.9984H100.053L102.054 23.0019V23.0019H103.055L104.055 22.0037C105.134 21.3693 106.953 20.613 108.057 20.0073C112.774 17.3872 117.126 15.1883 122.065 13.0198C123.522 12.3783 124.592 11.6184 126.067 11.0234C132.764 8.30615 140.067 5.79707 147.079 4.03595C149.669 3.38362 152.46 3.53237 155.083 3.03775C158.177 2.44276 160.962 1.43201 164.088 1.04133C169.062 0.417707 174.083 0.160955 179.096 0.0431156C214.344 -0.811724 249.526 11.0754 277.149 32.984C288.157 41.7152 298.805 52.2439 311.167 58.9375C321.96 64.7655 334.628 66.5182 346.186 61.9321C355.738 58.1418 361.473 56.3658 372.2 56.9411C394.399 58.1869 416.397 63.1947 437.236 70.916C438.077 71.2225 438.4 71.597 439.237 71.9142C493.582 92.64 541.033 133.821 565.305 186.708C565.945 188.106 565.697 189.282 566.305 190.701C580.783 224.384 586.286 263.673 570.308 296.511Z" fill="#F8FBFF"/>
<path opacity="0.1" d="M110 110.022V315.229H109C104.465 316.509 99.6663 317.579 95 318.232C84.3961 319.592 74.2503 319.276 64 316.23V316.23H63L62 315.229C60.4892 314.752 58.4856 314.794 57 314.228V313.227C55.5612 312.671 53.3777 312.865 52 312.226L51 311.225C49.5612 310.553 48.3777 309.97 47 309.223C46.5036 308.963 46.4856 308.487 46 308.222C44.5324 307.398 42.4101 307.122 41 306.22C39.5036 305.263 38.4317 304.256 37 303.216C36.3381 302.74 35.6475 301.716 35 301.214C31.2675 298.349 28.2237 295.637 25 292.205C24.8219 292.027 24.1673 291.383 24 291.204C23.1421 290.273 22.8147 289.171 22 288.201C21.6978 287.844 21.2968 287.569 21 287.2C20.0324 286.016 18.8993 285.436 18 284.197C17.8651 284.019 17.1295 283.375 17 283.196C13.3133 278.079 10.3595 273.034 8 267.18C7.92446 267.002 8.06475 266.358 8 266.179C7.28058 264.32 6.59353 262.094 6 260.173C5.75719 259.372 6.20504 258.973 6 258.171C5.92986 257.933 5.05935 257.408 5 257.17C2.02158 245.402 2 233.297 2 221.134C2 219.715 2 218.545 2 217.13C2.08633 197.456 2.10791 177.474 5 158.07C5 157.935 4.97842 158.2 5 158.07C5.96796 151.538 7.34036 144.441 9 138.05H64V110.022H75V88H99V110.022H110Z" fill="#3C76F2"/>
<path opacity="0.1" d="M570.299 296.535C555.964 325.952 527.413 345.435 497.242 358.407C473.086 368.725 447.297 375.344 421.183 378.366C416.182 378.956 411.206 379.038 406.172 379.364C393.309 380.198 380.002 380.226 367.141 379.364C359.405 378.852 351.806 378.492 344.124 377.368C317.431 373.496 291.674 365.399 267.064 354.415C259.961 351.235 252.862 348.2 246.047 344.436C234.665 338.162 224.365 331.334 214.023 323.479C211.734 321.74 209.248 319.306 207.017 317.492H206.016C204.262 316.053 202.777 314.927 201.012 313.5C198.079 311.056 194.273 308.494 191.005 306.514C190.783 306.385 191.231 306.638 191.005 306.514C190.4 306.165 189.629 305.828 189.003 305.516C187.713 304.87 186.35 304.032 185 303.52V220.691H285.078V238.654H329.112V102.934H381.152V157.821H406.172V124.889H427.188V90.9588H437.196V71C438.038 71.3059 438.361 71.6813 439.197 71.9979V90.9588H449.205V124.889H470.221V157.821H501.245V280.568H551.284V190.753H566.296C580.798 224.389 586.28 263.753 570.299 296.535Z" fill="#3C76F2"/>
<path opacity="0.1" d="M368 123H344V147H368V123Z" fill="#3C76F2"/>
<path opacity="0.1" d="M368 171H344V194H368V171Z" fill="#3C76F2"/>
<path opacity="0.1" d="M368 219H344V242H368V219Z" fill="#3C76F2"/>
<path opacity="0.1" d="M368 267H344V290H368V267Z" fill="#3C76F2"/>
<path opacity="0.1" d="M368 315H344V338H368V315Z" fill="#3C76F2"/>
<path opacity="0.1" d="M368 363V381C359.972 380.493 351.972 380.113 344 379V363H368Z" fill="#3C76F2"/>
<path opacity="0.1" d="M274 250H193V261H274V250Z" fill="#3C76F2"/>
<path opacity="0.1" d="M274 282H193V293H274V282Z" fill="#3C76F2"/>
<path opacity="0.1" d="M274 314V324H214C211.705 322.33 209.238 320.742 207 319L206 318C204.241 316.619 202.77 315.371 201 314H274Z" fill="#3C76F2"/>
<path opacity="0.1" d="M274 346V356H267C259.686 352.947 253.018 349.613 246 346H274Z" fill="#3C76F2"/>
<path opacity="0.1" d="M421 186H406V201H421V186Z" fill="#3C76F2"/>
<path opacity="0.1" d="M95 116H80V131H95V116Z" fill="#3C76F2"/>
<path opacity="0.1" d="M95 151H80V166H95V151Z" fill="#3C76F2"/>
<path opacity="0.1" d="M95 186H80V201H95V186Z" fill="#3C76F2"/>
<path opacity="0.1" d="M95 221H80V236H95V221Z" fill="#3C76F2"/>
<path opacity="0.1" d="M95 256H80V271H95V256Z" fill="#3C76F2"/>
<path opacity="0.1" d="M95 291H80V306H95V291Z" fill="#3C76F2"/>
<path opacity="0.1" d="M479 186H464V201H479V186Z" fill="#3C76F2"/>
<path opacity="0.1" d="M421 223H406V238H421V223Z" fill="#3C76F2"/>
<path opacity="0.1" d="M479 223H464V238H479V223Z" fill="#3C76F2"/>
<path opacity="0.1" d="M421 260H406V275H421V260Z" fill="#3C76F2"/>
<path opacity="0.1" d="M479 260H464V275H479V260Z" fill="#3C76F2"/>
<path opacity="0.1" d="M421 297H406V312H421V297Z" fill="#3C76F2"/>
<path opacity="0.1" d="M479 297H464V312H479V297Z" fill="#3C76F2"/>
<path opacity="0.1" d="M421 334H406V350H421V334Z" fill="#3C76F2"/>
<path opacity="0.1" d="M479 334H464V350H479V334Z" fill="#3C76F2"/>
<path opacity="0.1" d="M406 381V372H421V380L406 381Z" fill="#3C76F2"/>
<path opacity="0.1" d="M5 158V167H63V158H5ZM10 166H6V159H10V166ZM15 166H11V159H15V166ZM20 166H16V159H20V166ZM26 166H21V159H26V166ZM31 166H27V159H31V166ZM36 166H32V159H36V166ZM41 166H37V159H41V166ZM46 166H42V159H46V166ZM51 166H47V159H51V166ZM57 166H52V159H57V166ZM62 166H58V159H62V166Z" fill="#3C76F2"/>
<path opacity="0.1" d="M5 183V192H63V183H5ZM10 191H6V184H10V191ZM15 191H11V184H15V191ZM20 191H16V184H20V191ZM26 191H21V184H26V191ZM31 191H27V184H31V191ZM36 191H32V184H36V191ZM41 191H37V184H41V191ZM46 191H42V184H46V191ZM51 191H47V184H51V191ZM57 191H52V184H57V191ZM62 191H58V184H62V191Z" fill="#3C76F2"/>
<path opacity="0.1" d="M5 208V217H63V208H5ZM10 216H6V209H10V216ZM15 216H11V209H15V216ZM20 216H16V209H20V216ZM26 216H21V209H26V216ZM31 216H27V209H31V216ZM36 216H32V209H36V216ZM41 216H37V209H41V216ZM46 216H42V209H46V216ZM51 216H47V209H51V216ZM57 216H52V209H57V216ZM62 216H58V209H62V216Z" fill="#3C76F2"/>
<path opacity="0.1" d="M5 233V242H63V233H5ZM10 241H6V234H10V241ZM15 241H11V234H15V241ZM20 241H16V234H20V241ZM26 241H21V234H26V241ZM31 241H27V234H31V241ZM36 241H32V234H36V241ZM41 241H37V234H41V241ZM46 241H42V234H46V241ZM51 241H47V234H51V241ZM57 241H52V234H57V241ZM62 241H58V234H62V241Z" fill="#3C76F2"/>
<path opacity="0.1" d="M6 258C6.20376 258.844 6.7587 260.168 7 261V259H11V266H9C9.06435 266.186 8.92493 266.814 9 267H63V258H6ZM16 266H12V259H16V266ZM21 266H17V259H21V266ZM26 266H22V259H26V266ZM31 266H27V259H31V266ZM36 266H32V259H36V266ZM41 266H37V259H41V266ZM47 266H42V259H47V266ZM52 266H47V259H52V266ZM57 266H53V259H57V266ZM62 266H58V259H62V266Z" fill="#3C76F2"/>
<path opacity="0.1" d="M17.04 283C17.1711 283.186 16.9035 283.814 17.04 284H20.0374V287C20.3377 287.377 20.7307 287.623 21.0365 288V284H25.033V291H24.0339C24.2032 291.186 23.8537 291.814 24.0339 292H63V283H17.04ZM31.0278 291H26.0322V284H31.0278V291ZM36.0235 291H32.027V284H36.0235V291ZM41.0191 291H37.0226V284H41.0191V291ZM46.0148 291H42.0183V284H46.0148V291ZM51.0104 291H47.0139V284H51.0104V291ZM57.0052 291H52.0096V284H57.0052V291ZM62.0009 291H58.0043V284H62.0009V291Z" fill="#3C76F2"/>
<path opacity="0.1" d="M46 308C46.4822 308.264 46.5071 308.746 47 309V309H52V311H53V309H57V313H58V309H62V315H63V308H46Z" fill="#3C76F2"/>
<path d="M56.2486 332.099C55.6665 332.893 54.5764 333.168 54.2454 334.094C54.1544 334.318 54.3303 334.844 54.2454 335.092C54.0911 335.021 54.4099 335.134 54.2454 335.092C53.5383 334.914 51.9675 335.034 51.2405 335.092C51.2405 334.808 51.1981 334.409 51.2405 334.094C51.3255 330.906 51.2808 326.227 48.2357 328.109C45.3059 329.924 47.3508 333.156 49.2373 335.092H50.2389C48.5223 336.302 47.5253 339.105 47.2341 342.075C46.943 345.045 44.9019 348.21 43.2277 350.056C43.0579 350.249 42.3717 350.896 42.2261 351.053C41.5505 350.517 41.0589 350.271 40.2229 350.056C39.3869 349.84 39.0714 349.913 38.2197 350.056L37.2181 349.058C35.8593 344.164 33.804 334.954 30.2069 333.097C30.3585 332.909 30.0431 333.321 30.2069 333.097C31.7355 331.106 33.7501 327.867 31.2085 327.111C28.6668 326.355 28.0641 329.613 28.2037 332.099C28.2037 332.414 28.1551 332.818 28.2037 333.097C27.6947 333.12 27.66 332.874 27.202 333.097C26.7441 333.319 26.5321 333.709 26.2004 334.094H25.1988C23.1364 331.674 19.328 328.192 18.1876 331.102C17.12 333.812 20.8542 337.043 23.1956 339.082V339.082C21.6185 345.44 28.5159 350.78 32.2101 353.048V353.048C27.1147 359.037 24.1972 370.007 24.1972 370.007L38.2197 373C38.2197 373 48.4413 364.685 47.2341 357.039V357.039C56.6848 355.151 58.7242 345.047 57.2502 339.082V339.082C58.9704 338.378 60.1104 337.55 61.2566 336.089C63.871 332.429 58.96 328.5 56.2486 332.099Z" fill="#1448B6"/>
<path opacity="0.1" d="M56.2486 332.099C55.6665 332.893 54.5764 333.168 54.2454 334.094C54.1544 334.318 54.3303 334.844 54.2454 335.092C54.0911 335.021 54.4099 335.134 54.2454 335.092C53.5383 334.914 51.9675 335.034 51.2405 335.092C51.2405 334.808 51.1981 334.409 51.2405 334.094C51.3255 330.906 51.2808 326.227 48.2357 328.109C45.3059 329.924 47.3508 333.156 49.2373 335.092H50.2389C48.5223 336.302 47.5253 339.105 47.2341 342.075C46.943 345.045 44.9019 348.21 43.2277 350.056C43.0579 350.249 42.3717 350.896 42.2261 351.053C41.5505 350.517 41.0589 350.271 40.2229 350.056C39.3869 349.84 39.0714 349.913 38.2197 350.056L37.2181 349.058C35.8593 344.164 33.804 334.954 30.2069 333.097C30.3585 332.909 30.0431 333.321 30.2069 333.097C31.7355 331.106 33.7501 327.867 31.2085 327.111C28.6668 326.355 28.0641 329.613 28.2037 332.099C28.2037 332.414 28.1551 332.818 28.2037 333.097C27.6947 333.12 27.66 332.874 27.202 333.097C26.7441 333.319 26.5321 333.709 26.2004 334.094H25.1988C23.1364 331.674 19.328 328.192 18.1876 331.102C17.12 333.812 20.8542 337.043 23.1956 339.082V339.082C21.6185 345.44 28.5159 350.78 32.2101 353.048V353.048C27.1147 359.037 24.1972 370.007 24.1972 370.007L38.2197 373C38.2197 373 48.4413 364.685 47.2341 357.039V357.039C56.6848 355.151 58.7242 345.047 57.2502 339.082V339.082C58.9704 338.378 60.1104 337.55 61.2566 336.089C63.871 332.429 58.96 328.5 56.2486 332.099Z" fill="black"/>
<path d="M27 333.041L25.0431 338C25.0431 338 24.262 337.027 23.0863 336.016C20.7347 334.013 17.1219 330.745 18.1941 328.082C19.3394 325.223 23.9503 328.668 26.0216 331.057C26.8562 332.009 27 333.041 27 333.041Z" fill="#1448B6"/>
<path d="M30.9671 330.028C30.5018 330.702 29.5794 331.385 29.0499 332C28.9168 331.146 29.0974 329.907 29.0499 329.042C28.9227 326.54 29.6414 323.363 31.9257 324.111C34.2099 324.86 32.3498 328.026 30.9671 330.028Z" fill="#1448B6"/>
<path d="M51.9953 331.119C51.9531 332.741 51.9953 334 51.9953 334C51.4274 333.421 50.5564 332.752 50.0523 332.079C48.5927 330.108 46.814 326.227 49.0809 324.396C51.451 322.492 52.061 327.893 51.9953 331.119Z" fill="#1448B6"/>
<path d="M62.2067 333.116C60.9247 334.569 60.0272 335.329 58.1033 336.029C57.5699 336.238 56.6116 336.856 56.0517 337L54 334.087C54.2308 333.183 54.6514 332.04 55.0258 331.175C55.3961 330.253 55.4006 329.052 56.0517 328.262C59.091 324.682 65.1713 329.489 62.2067 333.116Z" fill="#1448B6"/>
<path opacity="0.1" d="M26 331C26.8839 332.028 27 333 27 333L25 338C25 338 24.2452 337.093 23 336C23.2742 334.343 23.9659 333.326 25 332C25.1806 331.756 25.8258 331.206 26 331Z" fill="black"/>
<path opacity="0.1" d="M31 330C30.5008 330.784 29.6217 331.285 29.0535 332C28.9108 331.007 29.1045 330.006 29.0535 329C29.7344 329.011 30.4492 329.523 31 330V330Z" fill="black"/>
<path d="M39 349.021L35.0143 351C34.2439 350.63 32.7526 350.454 32.0251 350.011C27.5841 347.39 19.0897 339.979 25.0502 332.201C31.0107 324.423 36.0085 339.229 38.0036 346.053C38.6089 348.098 39 349.021 39 349.021Z" fill="#1448B6"/>
<path opacity="0.1" d="M50 332C50.5293 331.356 51.2437 331.044 52 331C51.9524 332.667 52 334 52 334C51.3597 333.405 50.5683 332.691 50 332Z" fill="black"/>
<path opacity="0.1" d="M58 336C57.4443 336.232 56.5832 336.84 56 337L54 334C54.2404 332.994 54.6099 331.963 55 331C56.477 331.829 57.5124 333.451 58 336Z" fill="black"/>
<path d="M47.0897 354.672C46.8489 354.718 47.3369 354.638 47.0897 354.672C32.556 356.68 42.0405 348.806 42.0405 348.806C42.0405 348.806 43.1538 348.728 44.0602 347.828C45.8096 346.097 47.8017 342.856 48.0996 340.006C48.5559 335.718 48.5999 331.006 54.1586 332.183C59.6159 333.349 60.8439 352.168 47.0897 354.672Z" fill="#1448B6"/>
<path d="M47 392H20V399H47V392Z" fill="#D4DFEC"/>
<path d="M51 369H16V394H51V369Z" fill="#D4DFEC"/>
<path opacity="0.1" d="M47 392H20V399H47V392Z" fill="black"/>
<path opacity="0.1" d="M51 369H16V394H51V369Z" fill="black"/>
<path d="M49 392H22V399H49V392Z" fill="#D4DFEC"/>
<path opacity="0.1" d="M38 346C38.6679 347.955 39 349 39 349L34 351C33.1669 350.645 32.7867 350.425 32 350C33.8034 348.062 35.8092 346.438 38 346Z" fill="black"/>
<path opacity="0.1" d="M47 353.686C46.7852 353.734 46.2272 354.604 46.0068 354.641C33.0474 356.746 42.034 348.91 42.034 348.91C42.034 348.91 42.219 347.944 43.0272 347C45.4461 349.087 46.87 351.326 47 353.686Z" fill="black"/>
<path d="M25 371.055C25 371.055 32.9166 345.566 43.952 353.548C54.9874 361.53 39.9621 373 39.9621 373L25 371.055Z" fill="#1448B6"/>
<path opacity="0.1" d="M29 338C29.5523 338 30 337.552 30 337C30 336.448 29.5523 336 29 336C28.4477 336 28 336.448 28 337C28 337.552 28.4477 338 29 338Z" fill="black"/>
<path opacity="0.1" d="M28.9015 342C29.1232 342 28.9015 341.552 28.9015 341C28.9015 340.448 29.1232 340 28.9015 340C28.6797 340 28 340.448 28 341C28 341.552 28.6797 342 28.9015 342Z" fill="black"/>
<path opacity="0.1" d="M54 339C54.5523 339 55 338.552 55 338C55 337.448 54.5523 337 54 337C53.4477 337 53 337.448 53 338C53 338.552 53.4477 339 54 339Z" fill="black"/>
<path opacity="0.1" d="M33.0985 360C33.3203 360 34 359.552 34 359C34 358.448 33.3203 358 33.0985 358C32.8768 358 33.0985 358.448 33.0985 359C33.0985 359.552 32.8768 360 33.0985 360Z" fill="black"/>
<path opacity="0.1" d="M52 344.901C52.5523 344.901 53 345.123 53 344.901C53 344.68 52.5523 344 52 344C51.4477 344 51 344.68 51 344.901C51 345.123 51.4477 344.901 52 344.901Z" fill="black"/>
<path opacity="0.1" d="M43 355C43.5523 355 44 354.552 44 354C44 353.448 43.5523 353 43 353C42.4477 353 42 353.448 42 354C42 354.552 42.4477 355 43 355Z" fill="black"/>
<path opacity="0.1" d="M32 340C32.5523 340 33 339.552 33 339C33 338.448 32.5523 338 32 338C31.4477 338 31 338.448 31 339C31 339.552 31.4477 340 32 340Z" fill="black"/>
<path opacity="0.1" d="M52 341C52.5523 341 53 340.552 53 340C53 339.448 52.5523 339 52 339C51.4477 339 51 339.448 51 340C51 340.552 51.4477 341 52 341Z" fill="black"/>
<path opacity="0.1" d="M49 348C49.5523 348 50 347.552 50 347C50 346.448 49.5523 346 49 346C48.4477 346 48 346.448 48 347C48 347.552 48.4477 348 49 348Z" fill="black"/>
<path opacity="0.1" d="M39.9015 359C40.1232 359 39.9015 358.552 39.9015 358C39.9015 357.448 40.1232 357 39.9015 357C39.6797 357 39 357.448 39 358C39 358.552 39.6797 359 39.9015 359Z" fill="black"/>
<path opacity="0.1" d="M37.9015 355C38.1232 355 37.9015 354.552 37.9015 354C37.9015 353.448 38.1232 353 37.9015 353C37.6797 353 37 353.448 37 354C37 354.552 37.6797 355 37.9015 355Z" fill="black"/>
<path opacity="0.1" d="M33 345C33.5523 345 34 344.552 34 344C34 343.448 33.5523 343 33 343C32.4477 343 32 343.448 32 344C32 344.552 32.4477 345 33 345Z" fill="black"/>
<path opacity="0.1" d="M49 392H22V395H49V392Z" fill="black"/>
<path d="M53 369H18V394H53V369Z" fill="#D4DFEC"/>
<path opacity="0.1" d="M40.9015 363C41.1232 363 40.9015 362.552 40.9015 362C40.9015 361.448 41.1232 361 40.9015 361C40.6797 361 40 361.448 40 362C40 362.552 40.6797 363 40.9015 363Z" fill="black"/>
<path opacity="0.1" d="M35 364C35.5523 364 36 363.552 36 363C36 362.448 35.5523 362 35 362C34.4477 362 34 362.448 34 363C34 363.552 34.4477 364 35 364Z" fill="black"/>
</svg>
