<svg width="260" height="200" viewBox="0 0 260 200" fill="none" xmlns="http://www.w3.org/2000/svg">
<mask id="mask0" mask-type="alpha" maskUnits="userSpaceOnUse" x="0" y="0" width="260" height="200">
<rect width="260" height="200" rx="30" fill="#EBF1FE"/>
</mask>
<g mask="url(#mask0)">
<path opacity="0.2" d="M27 40L443.145 38.7254" stroke="#5A5773" stroke-miterlimit="10"/>
<path opacity="0.2" d="M27 71L443.144 69.7207" stroke="#5A5773" stroke-miterlimit="10"/>
<path opacity="0.2" d="M27 102L443.144 100.721" stroke="#5A5773" stroke-miterlimit="10"/>
<path opacity="0.2" d="M27 133L443.144 131.721" stroke="#5A5773" stroke-miterlimit="10"/>
<path opacity="0.2" d="M64.9996 124.973L65.1586 163.983" stroke="#5A5773" stroke-miterlimit="10" stroke-dasharray="12 12"/>
<path opacity="0.2" d="M27 164L443.144 162.721" stroke="#5A5773" stroke-miterlimit="10"/>
<path opacity="0.2" d="M111.753 163.974L111.999 104.946" stroke="#5A5773" stroke-miterlimit="10" stroke-dasharray="12 12"/>
<path d="M385.873 93.2443C378.469 94.0589 371.207 89.816 366.642 85.766C361.914 81.5616 357.607 77.1961 354.231 72.103C353.161 70.4928 352.198 68.7902 351.083 67.1885C345.21 58.8414 340.09 53.2638 333.555 49.6644C331.161 48.3459 328.098 46.6063 325.439 45.8845C325.203 46.4643 324.938 47.45 324.499 47.91C323.556 48.9012 321.932 48.951 320.53 49.0175C319.271 49.0194 318.461 48.8769 317.502 48.0997C316.542 47.3225 315.615 46.3415 315.413 45.1564C313.034 45.3288 310.656 45.4889 308.445 46.3453C301.912 48.8982 297.25 54.6154 292.837 59.768C287.495 65.993 282.177 72.5503 277.407 79.1857C276.438 80.5263 275.497 81.9088 274.527 83.2637C269.354 90.5816 334.191 97.8468 327.161 103.836C317.726 111.919 306.317 115.574 296.44 113.669C284.591 111.383 275.089 101.61 268.826 93.4179C268.038 92.3562 269.805 31.4983 268.955 30.4166C263.106 22.632 239.994 62.6986 184.996 66.6918C171.996 66.6923 149.172 65.857 139.191 73.9335C134.326 77.8709 131.086 83.1559 127.611 88.247C126.421 89.9979 125.034 91.6126 123.761 93.3512C117.212 102.259 110.553 106.684 103.184 107.909C100.26 108.299 97.1307 108.383 94.1877 108.153C92.232 108.076 90.1629 108.211 88.1899 108.315C83.2696 108.649 78.4248 110.091 74.3138 112.691C70.2028 115.292 66.8514 118.761 64.6144 122.954L64.862 164.946L391.979 164.076L391.93 95.08C391.378 95.386 390.595 96.0688 389.96 96.1334C389.325 96.198 388.538 95.3764 387.931 95.1885C387.324 95.0005 387.406 95.6234 386.932 95.2156C386.458 94.8077 386.131 93.8011 385.873 93.2443Z" fill="#B4CCFF"/>
<path opacity="0.2" d="M160.999 65.9187L160.911 163.957" stroke="#5A5773" stroke-miterlimit="10" stroke-dasharray="12 12"/>
<path d="M65 124C67.1667 118.696 75.4 108.398 89 108C106 107.503 109.5 110.383 127 89C144.5 67.6175 146.5 66.4973 190 66C220 62.0219 243 50.4044 261 33" stroke="#1448B6" stroke-width="1.5"/>
<path opacity="0.5" d="M40.9999 33.9613L28 33.9972C27.6345 33.9982 27.002 34.6686 27.003 35L27.0152 39C27.0162 39.3313 27.6527 39.9982 28.0182 39.9972L41.0182 39.9613C41.3836 39.9603 42.0161 39.2899 42.0151 38.9585L42.003 34.9585C42.002 34.6272 41.3654 33.9603 40.9999 33.9613Z" fill="#1448B6"/>
<path d="M40.9999 64.9613L28 64.9972C27.6345 64.9982 27.002 65.6686 27.003 66L27.0152 70C27.0162 70.3313 27.6527 70.9982 28.0182 70.9972L41.0181 70.9612C41.3836 70.9602 42.0161 70.2898 42.0151 69.9585L42.003 65.9585C42.002 65.6271 41.3654 64.9602 40.9999 64.9613Z" fill="#1448B6"/>
<path opacity="0.5" d="M40.9999 95.9613L28 95.9972C27.6345 95.9982 27.002 96.6686 27.003 97L27.0152 101C27.0162 101.331 27.6527 101.998 28.0182 101.997L41.0181 101.961C41.3836 101.96 42.0161 101.29 42.0151 100.958L42.003 96.9585C42.002 96.6271 41.3654 95.9602 40.9999 95.9613Z" fill="#1448B6"/>
<path opacity="0.5" d="M40.9999 126.961L28 126.997C27.6345 126.998 27.002 127.669 27.003 128L27.0152 132C27.0162 132.331 27.6527 132.998 28.0182 132.997L41.0181 132.961C41.3836 132.96 42.0161 132.29 42.0151 131.958L42.003 127.958C42.002 127.627 41.3654 126.96 40.9999 126.961Z" fill="#1448B6"/>
<path opacity="0.5" d="M40.9999 157.961L28 157.997C27.6345 157.998 27.002 158.669 27.003 159L27.0152 163C27.0162 163.331 27.6527 163.998 28.0182 163.997L41.0181 163.961C41.3836 163.96 42.0161 163.29 42.0151 162.958L42.003 158.958C42.002 158.627 41.3654 157.96 40.9999 157.961Z" fill="#1448B6"/>
<path opacity="0.5" d="M69.9999 170.961L57 170.997C56.6345 170.998 56.002 171.669 56.003 172L56.0152 176C56.0162 176.331 56.6527 176.998 57.0182 176.997L70.0181 176.961C70.3836 176.96 71.0161 176.29 71.0151 175.958L71.003 171.958C71.002 171.627 70.3654 170.96 69.9999 170.961Z" fill="#1448B6"/>
<path opacity="0.5" d="M118 170.961L105 170.997C104.635 170.998 104.002 171.669 104.003 172L104.015 176C104.016 176.331 104.653 176.998 105.018 176.997L118.018 176.961C118.384 176.96 119.016 176.29 119.015 175.958L119.003 171.958C119.002 171.627 118.365 170.96 118 170.961Z" fill="#1448B6"/>
<path d="M165 172.022L152 172.002C151.635 172.001 150.999 172.613 150.998 173L150.99 178C150.989 178.387 151.623 179.001 151.988 179.002L164.988 179.022C165.354 179.022 165.989 178.41 165.99 178.023L165.998 173.023C165.999 172.636 165.365 172.022 165 172.022Z" fill="#1448B6"/>
</g>
</svg>
