<svg width="260" height="186" viewBox="0 0 260 186" fill="none" xmlns="http://www.w3.org/2000/svg">
<g clip-path="url(#clip0)">
<path d="M248.068 185.616C252.15 185.616 255.459 184.928 255.459 184.08C255.459 183.232 252.15 182.545 248.068 182.545C243.986 182.545 240.677 183.232 240.677 184.08C240.677 184.928 243.986 185.616 248.068 185.616Z" fill="#DCAF54"/>
<path d="M256.691 37.4163H256.075V53.5416H256.691V37.4163Z" fill="#DCAF54"/>
<path d="M249.916 27.0499H246.22V186H249.916V27.0499Z" fill="#DCAF54"/>
<path d="M264.986 39.5279H231.15C230.779 39.5279 230.412 39.4295 230.074 39.2393C229.736 39.049 229.434 38.7712 229.188 38.4243C228.942 38.0774 228.759 37.6693 228.649 37.2271C228.54 36.785 228.507 36.3189 228.553 35.8597L232.864 -7.14128C232.944 -7.93011 233.252 -8.65555 233.73 -9.18176C234.208 -9.70797 234.824 -9.99888 235.462 -10H260.675C261.313 -9.99888 261.928 -9.70797 262.406 -9.18176C262.884 -8.65555 263.192 -7.93011 263.272 -7.14128L267.583 35.8597C267.629 36.3189 267.597 36.785 267.487 37.2271C267.378 37.6693 267.194 38.0774 266.948 38.4243C266.703 38.7712 266.401 39.049 266.062 39.2393C265.724 39.4295 265.357 39.5279 264.986 39.5279Z" fill="#DCAF54"/>
<path d="M256.382 56.2291C257.573 56.2291 258.538 55.0259 258.538 53.5416C258.538 52.0573 257.573 50.854 256.382 50.854C255.192 50.854 254.227 52.0573 254.227 53.5416C254.227 55.0259 255.192 56.2291 256.382 56.2291Z" fill="#DCAF54"/>
<path d="M29.6658 143.331C28.11 150.06 23.5673 154.77 18.8287 158.772C18.1671 159.33 17.5052 159.876 16.8432 160.41C16.8387 160.412 16.8341 160.417 16.8295 160.42C16.7977 160.445 16.7658 160.471 16.7361 160.496C16.5994 160.606 16.4627 160.716 16.3272 160.825L16.4017 160.866C16.4017 160.866 16.4748 160.915 16.3948 160.874C16.371 160.862 16.3461 160.851 16.3223 160.838C13.5695 159.454 10.7678 157.968 8.65813 155.375C6.4697 152.682 5.19079 148.458 6.3758 144.921C6.53156 144.457 6.72831 144.017 6.96239 143.608C7.05851 143.437 7.16203 143.272 7.26982 143.111C7.92348 142.117 8.77783 141.357 9.74502 140.911C10.7122 140.464 11.7574 140.347 12.773 140.571C13.7886 140.795 14.738 141.352 15.5236 142.185C16.3092 143.018 16.9026 144.097 17.2429 145.311C17.591 141.27 14.9182 137.885 12.3461 135.387C9.77281 132.891 6.84885 130.172 6.35137 126.153C6.07355 123.917 6.69721 121.75 7.83328 120.011C7.86845 119.958 7.90358 119.905 7.9398 119.854C9.32273 117.828 11.2678 116.527 13.3865 116.211C17.3323 115.699 21.165 118.303 24.0316 121.724C28.6452 127.227 31.4344 135.68 29.6658 143.331Z" fill="#DCAF54"/>
<path d="M22.2491 134.529C23.0064 135.998 23.5878 137.597 23.975 139.275C24.3024 140.775 24.4482 142.327 24.4074 143.881C24.3017 147.078 23.5819 150.197 22.3083 152.974C21.349 155.082 20.1798 157.03 18.8287 158.772C18.1671 159.33 17.5052 159.876 16.8432 160.409C16.8387 160.412 16.8341 160.417 16.8295 160.42C16.7977 160.445 16.7658 160.471 16.7361 160.496C16.5994 160.606 16.4627 160.716 16.3272 160.825C16.3272 160.825 16.4748 160.915 16.3948 160.874C16.371 160.862 16.3461 160.851 16.3223 160.838C16.569 158.316 16.3273 155.757 15.6175 153.376C14.9076 150.994 13.7502 148.859 12.2423 147.15C10.7308 145.467 8.92167 144.254 6.9624 143.608C7.05852 143.437 7.16205 143.272 7.26983 143.111C8.02654 143.376 8.763 143.723 9.47062 144.15C12.0001 145.664 14.0713 148.154 15.3776 151.25C16.5498 154.061 17.0543 157.232 16.8319 160.388C16.945 160.26 17.0582 160.13 17.1681 160C19.2599 157.569 21.1179 154.778 22.3753 151.557C23.4662 148.829 24.0024 145.809 23.9366 142.762C23.8339 139.44 22.7722 136.362 21.235 133.683C19.5501 130.825 17.5598 128.268 15.3192 126.082C13.0611 123.827 10.5902 121.925 7.96163 120.419C7.90234 120.384 7.85596 120.323 7.83208 120.247C7.8082 120.171 7.80864 120.086 7.83331 120.011C7.85085 119.943 7.88913 119.887 7.93984 119.854C7.96593 119.84 7.99422 119.833 8.02261 119.835C8.051 119.836 8.07875 119.846 8.10379 119.862C8.42834 120.049 8.75063 120.238 9.07034 120.434C11.7332 122.075 14.2223 124.122 16.4803 126.529C18.6614 128.847 20.7148 131.496 22.2491 134.529Z" fill="#DCAF54"/>
<path d="M7.20564 160.276H24.2547C24.4417 160.276 24.6266 160.326 24.7971 160.422C24.9675 160.518 25.1197 160.658 25.2435 160.832C25.3673 161.007 25.4598 161.213 25.5149 161.436C25.5701 161.658 25.5866 161.893 25.5634 162.125L23.3911 183.792C23.3508 184.189 23.1957 184.555 22.9548 184.82C22.7139 185.085 22.4037 185.232 22.0824 185.232H9.37798C9.05664 185.232 8.74648 185.085 8.50558 184.82C8.26468 184.555 8.10955 184.189 8.06925 183.792L5.89691 162.125C5.87371 161.893 5.89023 161.658 5.9454 161.436C6.00056 161.213 6.09309 161.007 6.21686 160.832C6.34063 160.658 6.4928 160.518 6.66327 160.422C6.83375 160.326 7.01863 160.276 7.20564 160.276Z" fill="#DCAF54"/>
<path d="M62.7938 185.399C63.9722 185.399 64.9275 184.208 64.9275 182.738C64.9275 181.269 63.9722 180.078 62.7938 180.078C61.6154 180.078 60.6602 181.269 60.6602 182.738C60.6602 184.208 61.6154 185.399 62.7938 185.399Z" fill="#1448B6"/>
<path d="M197.572 185.399C198.75 185.399 199.705 184.208 199.705 182.738C199.705 181.269 198.75 180.078 197.572 180.078C196.393 180.078 195.438 181.269 195.438 182.738C195.438 184.208 196.393 185.399 197.572 185.399Z" fill="#1448B6"/>
<path d="M101.912 145.717H68.4843C66.9287 145.715 65.4372 144.944 64.3372 143.572C63.2372 142.201 62.6185 140.341 62.6167 138.402V110.026C62.6185 108.087 63.2372 106.227 64.3372 104.856C65.4372 103.485 66.9287 102.713 68.4843 102.711H101.912C103.468 102.713 104.959 103.485 106.059 104.856C107.159 106.227 107.778 108.087 107.78 110.026V138.402C107.778 140.341 107.159 142.201 106.059 143.572C104.959 144.944 103.468 145.715 101.912 145.717Z" fill="#B4CCFF"/>
<path d="M146.896 145.939H113.469C111.913 145.937 110.422 145.165 109.322 143.794C108.222 142.423 107.603 140.563 107.601 138.624V110.248C107.603 108.309 108.222 106.449 109.322 105.078C110.422 103.706 111.913 102.935 113.469 102.933H146.896C148.452 102.935 149.943 103.706 151.043 105.078C152.143 106.449 152.762 108.309 152.764 110.248V138.624C152.762 140.563 152.143 142.423 151.043 143.794C149.943 145.165 148.452 145.937 146.896 145.939Z" fill="#B4CCFF"/>
<path d="M191.882 146.161H158.454C156.898 146.159 155.407 145.387 154.307 144.016C153.207 142.644 152.588 140.785 152.586 138.845V110.47C152.588 108.53 153.207 106.671 154.307 105.3C155.407 103.928 156.898 103.157 158.454 103.154H191.882C193.437 103.157 194.929 103.928 196.029 105.3C197.129 106.671 197.748 108.53 197.749 110.47V138.845C197.748 140.785 197.129 142.644 196.029 144.016C194.929 145.387 193.437 146.159 191.882 146.161Z" fill="#B4CCFF"/>
<path d="M204.683 144.166H57.4595V182.517H204.683V144.166Z" fill="#B4CCFF"/>
<path d="M62.7945 182.738H56.3935C53.1581 182.738 50.5259 179.012 50.5259 174.432V134.412H62.7945V182.738Z" fill="#B4CCFF"/>
<path d="M203.972 182.739H197.571V128.205H209.84V173.366C209.84 178.534 207.208 182.739 203.972 182.739Z" fill="#B4CCFF"/>
<path d="M107.957 152.146H62.7939V140.175C77.8483 129.409 92.9026 129.409 107.957 140.175V152.146Z" fill="#1448B6"/>
<path d="M152.942 152.368H107.779V140.397C122.833 129.631 137.887 129.631 152.942 140.397V152.368Z" fill="#1448B6"/>
<path d="M197.927 152.59H152.764V140.619C167.818 129.852 182.873 129.852 197.927 140.619V152.59Z" fill="#1448B6"/>
<path d="M54.0819 144.609C59.8757 144.609 64.5725 138.753 64.5725 131.53C64.5725 124.306 59.8757 118.45 54.0819 118.45C48.2881 118.45 43.5913 124.306 43.5913 131.53C43.5913 138.753 48.2881 144.609 54.0819 144.609Z" fill="#1448B6"/>
<path d="M207.706 144.166C213.5 144.166 218.197 138.31 218.197 131.086C218.197 123.863 213.5 118.007 207.706 118.007C201.913 118.007 197.216 123.863 197.216 131.086C197.216 138.31 201.913 144.166 207.706 144.166Z" fill="#1448B6"/>
<path d="M269.692 186H-8.69205C-8.77373 186 -8.85205 185.96 -8.9098 185.888C-8.96756 185.816 -9 185.718 -9 185.616C-9 185.514 -8.96756 185.417 -8.9098 185.345C-8.85205 185.273 -8.77373 185.232 -8.69205 185.232H269.692C269.774 185.232 269.852 185.273 269.91 185.345C269.968 185.417 270 185.514 270 185.616C270 185.718 269.968 185.816 269.91 185.888C269.852 185.96 269.774 186 269.692 186Z" fill="#DCAF54"/>
<path d="M139.055 58.1489H107.952C107.217 58.1478 106.513 57.7834 105.993 57.1356C105.474 56.4878 105.182 55.6095 105.181 54.6934V21.2909C105.182 20.3748 105.474 19.4965 105.993 18.8487C106.513 18.2009 107.217 17.8365 107.952 17.8354H139.055C139.79 17.8365 140.494 18.2009 141.014 18.8487C141.533 19.4965 141.826 20.3748 141.826 21.2909V54.6934C141.826 55.6095 141.533 56.4878 141.014 57.1356C140.494 57.7834 139.79 58.1478 139.055 58.1489ZM107.952 18.6033C107.381 18.6041 106.833 18.8875 106.429 19.3914C106.025 19.8952 105.797 20.5783 105.797 21.2909V54.6934C105.797 55.406 106.025 56.0891 106.429 56.5929C106.833 57.0968 107.381 57.3802 107.952 57.381H139.055C139.626 57.3802 140.174 57.0968 140.578 56.5929C140.983 56.0891 141.21 55.406 141.21 54.6934V21.2909C141.21 20.5783 140.983 19.8952 140.578 19.3914C140.174 18.8875 139.626 18.6041 139.055 18.6033H107.952Z" fill="#DCAF54"/>
<path d="M134.507 52.9657H112.499C111.805 52.9647 111.14 52.6206 110.649 52.0087C110.158 51.3969 109.882 50.5674 109.881 49.7022V26.282C109.882 25.4168 110.158 24.5873 110.649 23.9755C111.14 23.3637 111.805 23.0195 112.499 23.0186H134.507C135.201 23.0195 135.866 23.3637 136.357 23.9755C136.847 24.5873 137.123 25.4168 137.124 26.282V49.7022C137.123 50.5674 136.847 51.3969 136.357 52.0087C135.866 52.6206 135.201 52.9647 134.507 52.9657Z" fill="#B4CCFF"/>
<path d="M123.657 12.8443C124.507 12.8443 125.197 11.9848 125.197 10.9246C125.197 9.86436 124.507 9.00488 123.657 9.00488C122.807 9.00488 122.117 9.86436 122.117 10.9246C122.117 11.9848 122.807 12.8443 123.657 12.8443Z" fill="#DCAF54"/>
<path d="M126.895 18.4168L123.658 11.6737L120.44 18.4156L119.911 18.0232L123.657 10.1755L127.423 18.0221L126.895 18.4168Z" fill="#DCAF54"/>
<path d="M127.199 35.3046C127.198 34.7235 127.147 34.1443 127.046 33.5769H122.426C122.099 33.5769 121.786 33.7387 121.555 34.0267C121.324 34.3147 121.194 34.7054 121.194 35.1127V43.3382C122.824 43.194 124.35 42.285 125.464 40.7944C126.578 39.3038 127.198 37.3422 127.199 35.3046Z" fill="#DCAF54"/>
<path d="M120.732 43.7512C119.454 43.7517 118.202 43.3017 117.121 42.4531C116.039 41.6045 115.172 40.3919 114.62 38.9553C114.068 37.5187 113.853 35.9166 113.999 34.334C114.146 32.7514 114.649 31.2529 115.45 30.0114C116.251 28.7699 117.317 27.836 118.525 27.3176C119.733 26.7992 121.034 26.7174 122.278 27.0816C123.522 27.4459 124.658 28.2413 125.555 29.3761C126.452 30.5109 127.073 31.9388 127.347 33.4949L127.429 33.9608H122.426C122.181 33.9611 121.946 34.0826 121.773 34.2985C121.599 34.5144 121.502 34.8072 121.502 35.1126V43.6959L121.162 43.7259C121.019 43.7388 120.877 43.7512 120.732 43.7512ZM120.732 27.6258C119.098 27.6258 117.532 28.4348 116.377 29.8748C115.222 31.3149 114.573 33.268 114.573 35.3045C114.573 37.3411 115.222 39.2942 116.377 40.7342C117.532 42.1743 119.098 42.9833 120.732 42.9833C120.783 42.9833 120.835 42.9814 120.886 42.9784V35.1126C120.886 34.6036 121.049 34.1157 121.337 33.7558C121.626 33.3959 122.017 33.1935 122.426 33.1929H126.651C126.278 31.5931 125.5 30.1866 124.433 29.1832C123.367 28.1799 122.068 27.6336 120.732 27.6258Z" fill="#DCAF54"/>
<path d="M129.816 46.2467H122.425C122.017 46.2462 121.626 46.0437 121.337 45.6838C121.049 45.3239 120.886 44.836 120.886 44.3271V42.9805L121.172 42.9552C122.054 42.8793 122.912 42.5671 123.688 42.0399C124.464 41.5127 125.139 40.7829 125.668 39.9004C126.197 39.0179 126.568 38.0034 126.753 36.9263C126.939 35.8491 126.936 34.7346 126.745 33.6589L126.663 33.1929H129.816C130.224 33.1935 130.616 33.3959 130.904 33.7558C131.193 34.1157 131.355 34.6036 131.356 35.1126V44.3271C131.355 44.836 131.193 45.3239 130.904 45.6838C130.616 46.0437 130.224 46.2462 129.816 46.2467ZM121.502 43.6882V44.3271C121.502 44.6324 121.599 44.9252 121.773 45.1411C121.946 45.3571 122.181 45.4785 122.425 45.4789H129.816C130.061 45.4785 130.296 45.3571 130.469 45.1411C130.642 44.9252 130.74 44.6324 130.74 44.3271V35.1126C130.74 34.8072 130.642 34.5144 130.469 34.2985C130.296 34.0826 130.061 33.9611 129.816 33.9607H127.418C127.477 34.405 127.506 34.8544 127.507 35.3045C127.501 37.3756 126.887 39.3724 125.78 40.9172C124.674 42.462 123.152 43.4478 121.502 43.6882Z" fill="#DCAF54"/>
</g>
<defs>
<clipPath id="clip0">
<rect width="279" height="196" fill="white" transform="translate(-9 -10)"/>
</clipPath>
</defs>
</svg>
