<svg width="1360" height="1969" viewBox="0 0 1360 1969" fill="none" xmlns="http://www.w3.org/2000/svg">
<path d="M2094.39 1054.4C2226.34 1015.35 2353.7 956.126 2416.4 867.56C2486.29 768.863 2463.44 650.178 2400.11 548.943C2397.45 544.678 2394.72 540.444 2391.92 536.243C2285.75 377.29 2081.36 253.595 1843.65 191.303C1839.99 190.35 1836.31 189.397 1832.63 188.476C1741.48 165.269 1645.75 151.565 1548.65 147.82C1501.73 146.091 1474.54 151.747 1432.76 163.139C1382.2 176.922 1522.47 62.147 1475.27 44.6309C1421.19 24.5134 1417.27 100.953 1134.25 74.7184C917.266 52.1124 797.682 -2.48158 643.503 0.0876459C621.578 0.441814 599.693 1.55821 577.932 3.43251C564.258 4.6067 550.655 6.08792 537.122 7.87614C525.65 9.36274 514.25 11.0863 502.92 13.0469C472.253 18.34 442.163 25.0946 412.872 33.2614C406.421 35.0497 400.008 36.9079 393.635 38.8362C372.03 45.3535 355.266 51.4534 317.766 57.4534C254.966 66.2534 202.147 69.7974 159.266 66.4534C-58.7344 49.4534 -48.0854 100.265 -104.734 147.82C-151.729 187.344 18.2904 286.284 -10.8129 333.144C-22.5596 352.189 -32.2705 371.793 -39.8689 391.8C-47.1291 410.868 -52.8888 430.19 -57.1232 449.681C-57.2176 450.068 -57.3829 450.473 -57.3829 450.876C-70.0344 508.773 -71.3562 1418.48 -71.7339 1477.18V1489.87C-71.7339 1526.16 -70.2468 1562.66 -57.2176 1597.78C-56.958 1598.49 -56.6747 1599.21 -56.3679 1599.93C-55.471 1602.32 -54.456 1604.77 -53.3938 1607.16C-50.7974 1612.9 -47.9257 1618.53 -44.7785 1624.08C-44.4953 1624.62 -44.1884 1625.17 -43.858 1625.7C-33.5364 1643.17 -20.1661 1659.71 -4.03864 1674.98C-3.47215 1675.52 -2.90565 1676.06 -2.31557 1676.6C1.61837 1680.29 5.70177 1683.91 9.93469 1687.44C11.2329 1688.54 12.5547 1689.61 13.8765 1690.67C17.4406 1693.56 21.1228 1696.39 24.8758 1699.17C25.6075 1699.71 26.3392 1700.25 27.1181 1700.79C41.2204 1711.03 56.5105 1720.47 72.8383 1729.02C75.6708 1730.51 78.5347 1731.97 81.4301 1733.4C87.6929 1736.5 94.0973 1739.48 100.643 1742.33C106.812 1745.02 113.106 1747.6 119.526 1750.06C121.651 1750.85 123.799 1751.69 125.97 1752.46C131.997 1754.69 138.157 1756.81 144.452 1758.81L148.393 1760.04C154.42 1761.95 160.581 1763.73 166.875 1765.39L170.817 1766.42C177.316 1768.12 183.87 1769.67 190.479 1771.09L194.421 1771.93L197.3 1772.52L198.858 1772.82C243.698 1781.91 290.812 1784.51 337.199 1780.45C357.612 1778.5 377.808 1775.61 397.648 1771.79L400.716 1771.21C414.666 1768.54 428.498 1765.57 442.306 1762.45C474.831 1755.16 507.145 1747.08 540.048 1740.62C561.352 1736.39 583.066 1733.2 605.029 1731.07L607.578 1730.83C614.471 1730.21 621.386 1729.73 628.279 1729.4L628.365 1729.4C633.269 1729.18 638.15 1728.95 643.031 1728.95C672.63 1728.52 701.827 1731.1 729.09 1738.21C734.992 1739.75 740.774 1741.5 746.415 1743.45C749.153 1744.38 751.844 1745.37 754.487 1746.42C755.479 1746.79 756.446 1747.18 757.414 1747.57C771.706 1753.53 785.325 1760.21 798.154 1767.57C805.872 1771.87 813.473 1776.3 821.144 1780.63L825.156 1782.87C834.913 1788.34 844.795 1793.68 854.802 1798.92C900.034 1822.57 947.73 1843.92 997.51 1862.81C1027.31 1874.14 1057.75 1884.6 1088.81 1894.17C1196.44 1927.24 1310.24 1949.93 1426.98 1961.59C1460.57 1964.97 1494.29 1967.43 1528.12 1968.97C1584.36 1971.57 1640.8 1121.61 1697.05 1119.1C1719.06 1118.12 1741.01 1116.74 1762.88 1114.97C1877.08 1105.87 1988.75 1085.47 2094.39 1054.4Z" fill="#EBF1FE"/>
</svg>
