<svg width="300" height="279" viewBox="0 0 300 279" fill="none" xmlns="http://www.w3.org/2000/svg">
<mask id="mask0" mask-type="alpha" maskUnits="userSpaceOnUse" x="0" y="0" width="300" height="279">
<rect width="300" height="279" rx="30" fill="white"/>
</mask>
<g mask="url(#mask0)">
<g clip-path="url(#clip0)">
<path d="M93.4764 117.686C93.0425 117.687 92.6266 117.859 92.3198 118.166C92.013 118.473 91.8403 118.889 91.8398 119.323V175.141C91.8404 175.575 92.013 175.991 92.3198 176.297C92.6266 176.604 93.0425 176.777 93.4764 176.777H283.806C284.24 176.777 284.656 176.604 284.963 176.297C285.27 175.991 285.442 175.575 285.443 175.141V119.323C285.442 118.889 285.27 118.473 284.963 118.166C284.656 117.859 284.24 117.687 283.806 117.686L93.4764 117.686Z" fill="#E6E6E6"/>
<path d="M95.9399 172.676H281.34V121.787H95.9399V172.676Z" fill="white"/>
<path d="M257.939 162.119C257.22 162.119 256.531 162.405 256.023 162.913C255.514 163.421 255.229 164.111 255.229 164.83C255.229 165.549 255.514 166.238 256.023 166.747C256.531 167.255 257.22 167.541 257.939 167.541H268.783C269.502 167.541 270.192 167.255 270.7 166.747C271.208 166.238 271.494 165.549 271.494 164.83C271.494 164.111 271.208 163.421 270.7 162.913C270.192 162.405 269.502 162.119 268.783 162.119H257.939Z" fill="#1448B6"/>
<path d="M271.493 156.861H146.316V157.574H271.493V156.861Z" fill="#E6E6E6"/>
<path d="M120.15 163.021C128.871 163.021 135.94 155.952 135.94 147.232C135.94 138.511 128.871 131.442 120.15 131.442C111.43 131.442 104.361 138.511 104.361 147.232C104.361 155.952 111.43 163.021 120.15 163.021Z" fill="#1448B6"/>
<path d="M146.514 152.878L146.119 152.284L159.126 143.613L168.046 147.894L180.876 139.697L181.05 139.771L206.398 150.584L226.723 140.6L246.458 148.601L271.257 126.637L271.73 127.171L246.6 149.429L226.75 141.381L206.419 151.369L180.943 140.501L168.096 148.709L159.184 144.432L146.514 152.878Z" fill="#3F3D56"/>
<path d="M148.634 162.492C148.02 162.492 147.43 162.736 146.995 163.171C146.561 163.606 146.316 164.195 146.316 164.81C146.316 165.425 146.561 166.014 146.995 166.449C147.43 166.884 148.02 167.128 148.634 167.128H172.885C173.5 167.128 174.09 166.884 174.524 166.449C174.959 166.014 175.203 165.425 175.203 164.81C175.203 164.195 174.959 163.606 174.524 163.171C174.09 162.736 173.5 162.492 172.885 162.492H148.634Z" fill="#E6E6E6"/>
<path d="M120.148 157.638L126.54 148.636L120.148 152.41L113.76 148.636L120.148 157.638H120.148Z" fill="white"/>
<path d="M120.148 151.201H120.148L126.536 147.425L120.148 136.825H120.148L113.76 147.425L120.148 151.201Z" fill="white"/>
<path d="M19.0482 36.7708C18.6143 36.7713 18.1983 36.9439 17.8915 37.2507C17.5847 37.5575 17.4121 37.9734 17.4116 38.4073V94.2254C17.4121 94.6593 17.5847 95.0753 17.8915 95.3821C18.1983 95.6889 18.6143 95.8614 19.0482 95.8619H209.378C209.812 95.8614 210.228 95.6889 210.535 95.3821C210.842 95.0753 211.014 94.6593 211.015 94.2254V38.4073C211.014 37.9734 210.842 37.5575 210.535 37.2507C210.228 36.9439 209.812 36.7713 209.378 36.7708L19.0482 36.7708Z" fill="#E6E6E6"/>
<path d="M21.5137 91.7608H206.914V40.872H21.5137V91.7608Z" fill="white"/>
<path d="M183.513 81.2037C182.794 81.2037 182.105 81.4893 181.596 81.9977C181.088 82.5061 180.802 83.1956 180.802 83.9146C180.802 84.6336 181.088 85.3231 181.596 85.8315C182.105 86.3399 182.794 86.6255 183.513 86.6255H194.357C195.076 86.6255 195.765 86.3399 196.274 85.8315C196.782 85.3231 197.068 84.6336 197.068 83.9146C197.068 83.1956 196.782 82.5061 196.274 81.9977C195.765 81.4893 195.076 81.2037 194.357 81.2037H183.513Z" fill="#1448B6"/>
<path d="M197.067 75.9453H71.8901V76.6586H197.067V75.9453Z" fill="#E6E6E6"/>
<path d="M45.7257 82.106C54.446 82.106 61.5153 75.0368 61.5153 66.3164C61.5153 57.596 54.446 50.5268 45.7257 50.5268C37.0053 50.5268 29.936 57.596 29.936 66.3164C29.936 75.0368 37.0053 82.106 45.7257 82.106Z" fill="#1448B6"/>
<path d="M72.0878 71.9624L71.6924 71.3689L84.6999 62.6972L93.6197 66.9788L106.45 58.7819L106.623 58.8556L131.972 69.6689L152.296 59.685L172.032 67.6861L196.83 45.7214L197.303 46.2553L172.174 68.5132L152.324 60.4659L131.993 70.4532L106.516 59.5858L93.6693 67.7937L84.7575 63.5159L72.0878 71.9624Z" fill="#3F3D56"/>
<path d="M74.2092 81.5766C73.5949 81.5774 73.006 81.822 72.5719 82.2566C72.1379 82.6913 71.894 83.2804 71.894 83.8947C71.894 84.509 72.1379 85.0981 72.5719 85.5328C73.006 85.9674 73.5949 86.212 74.2092 86.2128H98.4599C99.0747 86.2128 99.6643 85.9685 100.099 85.5338C100.534 85.0991 100.778 84.5095 100.778 83.8947C100.778 83.2799 100.534 82.6903 100.099 82.2556C99.6643 81.8208 99.0747 81.5766 98.4599 81.5766H74.2092Z" fill="#E6E6E6"/>
<path d="M52.0768 64.4734C52.3719 62.4975 50.8675 61.4353 48.8104 60.7267L49.4777 58.0501L47.848 57.6441L47.1983 60.2502C46.7704 60.1434 46.3305 60.0427 45.8934 59.943L46.5477 57.3197L44.9194 56.9137L44.2516 59.5894C43.8971 59.5086 43.5491 59.4288 43.2112 59.3448L43.2131 59.3365L40.9662 58.7754L40.5328 60.5156C40.5328 60.5156 41.7416 60.7926 41.7161 60.8098C41.9416 60.8368 42.1474 60.9512 42.2894 61.1284C42.4313 61.3056 42.4981 61.5315 42.4753 61.7574L41.7152 64.8066C41.7728 64.8209 41.8293 64.8391 41.8845 64.8609L41.7128 64.8182L40.6469 69.0897C40.6235 69.1643 40.5856 69.2335 40.5353 69.2933C40.4851 69.3532 40.4235 69.4025 40.3541 69.4385C40.2847 69.4744 40.2089 69.4963 40.131 69.5029C40.0531 69.5095 39.9747 69.5006 39.9003 69.4767C39.9165 69.5004 38.7161 69.1811 38.7161 69.1811L37.9072 71.0466L40.0279 71.5751C40.4223 71.674 40.8089 71.7775 41.1889 71.8749L40.5147 74.5826L42.1421 74.9886L42.8103 72.3102C43.2544 72.4308 43.686 72.5422 44.1082 72.6471L43.4428 75.313L45.0721 75.719L45.7463 73.0169C48.5245 73.5427 50.6141 73.3306 51.4926 70.8183C52.2011 68.795 51.4578 67.628 49.996 66.8665C51.0605 66.6201 51.8624 65.9198 52.0763 64.4734L52.0768 64.4734ZM48.3538 69.6934C47.8498 71.7167 44.4437 70.6234 43.3388 70.3487L44.2335 66.7621C45.3379 67.0377 48.8791 67.5835 48.3542 69.6934H48.3538ZM48.8572 64.4442C48.3978 66.2846 45.5625 65.3495 44.6423 65.1203L45.4535 61.8674C46.3737 62.0966 49.3361 62.5244 48.8572 64.4442Z" fill="white"/>
<path d="M262.219 191.558C283.299 191.558 300.387 174.469 300.387 153.39C300.387 132.311 283.299 115.222 262.219 115.222C241.14 115.222 224.052 132.311 224.052 153.39C224.052 174.469 241.14 191.558 262.219 191.558Z" fill="#DCAF54"/>
<path d="M260.646 172.759V167.982C258.231 167.935 255.733 167.083 254.276 165.9L255.275 162.731C257.007 164.029 259.107 164.741 261.271 164.765C264.227 164.765 266.226 162.826 266.226 160.13C266.226 157.528 264.602 155.92 261.521 154.501C257.274 152.609 254.651 150.433 254.651 146.318C254.651 142.391 257.107 139.411 260.938 138.702V133.924H263.52V138.513C265.444 138.539 267.322 139.113 268.933 140.168L267.891 143.29C266.347 142.233 264.517 141.672 262.645 141.682C259.439 141.682 258.231 143.858 258.231 145.75C258.231 148.21 259.772 149.439 263.395 151.142C267.683 153.129 269.849 155.589 269.849 159.798C269.849 163.535 267.558 167.036 263.27 167.839V172.759H260.646Z" fill="#1448B6"/>
</g>
</g>
<defs>
<clipPath id="clip0">
<rect width="299.386" height="280" fill="white" transform="translate(1 7)"/>
</clipPath>
</defs>
</svg>
