<svg width="185" height="210" viewBox="0 0 185 210" fill="none" xmlns="http://www.w3.org/2000/svg">
<g opacity="0.5">
<path opacity="0.5" d="M113.531 0.00292041L0.251953 51.8767L71.6469 209.004L184.926 157.131L113.531 0.00292041Z" fill="url(#paint0_linear)"/>
</g>
<path d="M112.614 1.82038L2.2168 52.3743L72.0339 206.029L182.431 155.475L112.614 1.82038Z" fill="white"/>
<path d="M83.1005 10.4317L28.334 35.5107L34.3853 48.8286L89.1518 23.7496L83.1005 10.4317Z" fill="url(#paint1_linear)"/>
<path d="M49.8007 9.95543C45.5736 11.8919 43.7467 16.9842 45.7218 21.3302C47.6969 25.6763 52.7257 27.6298 56.9528 25.6934C61.18 23.7569 63.0069 18.6646 61.0318 14.3185C59.0567 9.9725 54.0279 8.01898 49.8007 9.95543ZM55.4393 22.3643C54.5499 22.7975 53.552 22.9547 52.5731 22.8159C51.5942 22.6771 50.6788 22.2485 49.9436 21.5849C49.2085 20.9213 48.6871 20.0529 48.4459 19.0904C48.2048 18.1279 48.2549 17.1151 48.5898 16.1813C48.9248 15.2475 49.5294 14.4352 50.3263 13.848C51.1233 13.2607 52.0766 12.9253 53.0644 12.8846C54.0521 12.8438 55.0296 13.0995 55.8719 13.619C56.7143 14.1386 57.3832 14.8984 57.7934 15.8014C58.0683 16.3876 58.2254 17.0225 58.2559 17.6697C58.2864 18.317 58.1895 18.9639 57.9709 19.5735C57.7523 20.1832 57.4162 20.7437 56.9819 21.2229C56.5475 21.7022 56.0233 22.0909 55.4393 22.3668V22.3643Z" fill="url(#paint2_linear)"/>
<path d="M82.5268 10.7059L28.9141 35.2566L34.6992 47.9887L88.312 23.438L82.5268 10.7059Z" fill="#1448B6"/>
<path d="M50.0644 10.5359C48.5818 11.2145 47.3331 12.3192 46.476 13.7104C45.6189 15.1016 45.192 16.7166 45.2492 18.3514C45.3065 19.9861 45.8454 21.5671 46.7977 22.8943C47.75 24.2216 49.073 25.2355 50.5994 25.8079C52.1258 26.3804 53.7869 26.4855 55.3728 26.1101C56.9587 25.7347 58.3981 24.8956 59.509 23.6989C60.6198 22.5022 61.3522 21.0017 61.6135 19.3871C61.8749 17.7726 61.6534 16.1165 60.9772 14.6283C60.0705 12.6329 58.4114 11.0809 56.3649 10.3134C54.3184 9.54596 52.0521 9.62598 50.0644 10.5359ZM55.4552 22.4009C54.6001 22.7922 53.6487 22.9203 52.7211 22.7688C51.7936 22.6173 50.9316 22.1932 50.2441 21.55C49.5567 20.9067 49.0747 20.0733 48.859 19.1551C48.6433 18.2369 48.7037 17.2751 49.0324 16.3913C49.3612 15.5076 49.9436 14.7415 50.7061 14.19C51.4685 13.6385 52.3767 13.3263 53.3158 13.2929C54.255 13.2595 55.1829 13.5064 55.9823 14.0024C56.7816 14.4984 57.4166 15.2212 57.8068 16.0794C58.3295 17.2304 58.3755 18.5428 57.9344 19.7278C57.4934 20.9128 56.6016 21.8734 55.4552 22.3984V22.4009Z" fill="#1448B6"/>
<path d="M42.3497 64.0603L18.7129 74.8843L29.4948 98.6133L53.1316 87.7894L42.3497 64.0603Z" fill="url(#paint3_linear)"/>
<path d="M63.797 111.047L40.1602 121.871L50.942 145.6L74.5789 134.776L63.797 111.047Z" fill="url(#paint4_linear)"/>
<path d="M41.8788 65.3248L19.9727 75.3562L29.9651 97.3478L51.8713 87.3164L41.8788 65.3248Z" fill="#DCAF54"/>
<path d="M63.0468 111.911L41.1406 121.943L51.1331 143.934L73.0392 133.903L63.0468 111.911Z" fill="#1448B6"/>
<path d="M89.4018 51.7646L59.375 65.5146L60.3308 67.6182L90.3576 53.8681L89.4018 51.7646Z" fill="#E0E0E0"/>
<path d="M110.39 45.9659L60.8105 68.6694L61.7663 70.773L111.345 48.0694L110.39 45.9659Z" fill="#E0E0E0"/>
<path d="M108.327 50.7199L62.2402 71.8242L63.196 73.9277L109.283 52.8234L108.327 50.7199Z" fill="#E0E0E0"/>
<path d="M110.572 98.3534L80.5449 112.104L81.5007 114.207L111.528 100.457L110.572 98.3534Z" fill="#E0E0E0"/>
<path d="M131.559 92.5526L81.9805 115.256L82.9363 117.36L132.515 94.6561L131.559 92.5526Z" fill="#E0E0E0"/>
<path d="M129.497 97.3088L83.4102 118.413L84.3659 120.517L130.453 99.4123L129.497 97.3088Z" fill="#E0E0E0"/>
<path d="M30.3551 82.3015L35.9961 84.1404L37.8522 73.2412L40.5974 73.9948L37.5096 87.4695L29.002 83.7258L30.3551 82.3015Z" fill="url(#paint5_linear)"/>
<path d="M31.0728 82.1578L35.9777 83.7552L37.5908 74.2778L39.9765 74.9339L37.292 86.6501L29.8945 83.3967L31.0728 82.1578Z" fill="white"/>
<path d="M52.3736 129.035L57.2785 130.632L58.8916 121.155L61.2772 121.811L58.5928 133.527L51.1953 130.274L52.3736 129.035Z" fill="white"/>
<path d="M146.544 130.134L76.5 162.209L87.1498 185.648L157.194 153.573L146.544 130.134Z" fill="#E0E0E0"/>
<path d="M136.389 148.814C133.697 148.043 130.942 148.19 130.085 151.28C129.796 152.321 129.762 153.938 128.649 154.474C127.012 155.265 125.037 153.684 123.615 153.04C120.967 151.841 118.249 152.658 116.716 155.179C115.939 156.457 115.606 157.928 115.341 159.384C115.227 160.016 115.212 160.796 114.947 161.391C114.44 162.53 112.851 162.428 111.809 162.384C111.58 162.384 111.347 162.357 111.114 162.332C111.938 161.193 112.349 159.805 112.28 158.399C112.212 156.089 110.718 153.562 108.106 153.845C105.767 154.089 104.12 156.357 104.382 158.652C104.605 160.603 105.871 162.115 107.494 163.042C106.697 163.396 105.847 163.671 105.094 164.037C104.742 164.208 104.401 164.4 104.071 164.61C101.795 163.508 98.8041 163.301 96.7562 164.425C95.765 164.969 96.4889 166.586 97.485 166.037C99.0446 165.181 100.765 165.396 102.395 165.94L102.531 165.988C102.37 166.195 102.227 166.417 102.106 166.649C101.185 168.444 102.106 171.283 104.346 171.478C107.504 171.749 107.652 167.559 105.937 165.891C105.864 165.82 105.791 165.752 105.713 165.686C106.423 165.342 107.19 165.083 107.868 164.793C108.459 164.542 109.021 164.228 109.544 163.857L109.666 163.888C112.078 164.437 115.844 164.608 116.711 161.674C117.454 159.128 117.525 153.721 121.533 154.221C123.168 154.423 124.509 155.684 126.064 156.14C127.456 156.557 129.067 156.574 130.209 155.545C131.151 154.696 131.363 153.443 131.652 152.272C131.8 151.667 131.946 150.945 132.436 150.514C133.323 149.736 134.788 150.194 135.777 150.477C136.858 150.784 137.485 149.126 136.389 148.814ZM105.05 169.444C104.518 169.973 103.954 169.554 103.67 169C103.325 168.327 103.473 167.664 103.913 167.071C103.985 166.974 104.062 166.882 104.144 166.793C105.196 167.476 106.056 168.454 105.06 169.444H105.05ZM106.916 156.274C108.009 155.255 109.532 155.479 110.183 156.879C110.834 158.279 110.548 160.255 109.634 161.489C109.513 161.651 109.379 161.802 109.233 161.942C108.597 161.729 108.008 161.391 107.501 160.95C106.209 159.779 105.478 157.616 106.926 156.267L106.916 156.274Z" fill="#1448B6"/>
<defs>
<linearGradient id="paint0_linear" x1="128.288" y1="183.067" x2="56.4314" y2="26.1506" gradientUnits="userSpaceOnUse">
<stop stop-color="#808080" stop-opacity="0.25"/>
<stop offset="0.54" stop-color="#808080" stop-opacity="0.12"/>
<stop offset="1" stop-color="#808080" stop-opacity="0.1"/>
</linearGradient>
<linearGradient id="paint1_linear" x1="34540" y1="-13309.1" x2="34174.5" y2="-14107.4" gradientUnits="userSpaceOnUse">
<stop stop-color="#808080" stop-opacity="0.25"/>
<stop offset="0.54" stop-color="#808080" stop-opacity="0.12"/>
<stop offset="1" stop-color="#808080" stop-opacity="0.1"/>
</linearGradient>
<linearGradient id="paint2_linear" x1="10194.6" y1="-2644.21" x2="9685.91" y2="-3755.02" gradientUnits="userSpaceOnUse">
<stop stop-color="#808080" stop-opacity="0.25"/>
<stop offset="0.54" stop-color="#808080" stop-opacity="0.12"/>
<stop offset="1" stop-color="#808080" stop-opacity="0.1"/>
</linearGradient>
<linearGradient id="paint3_linear" x1="13979.3" y1="3159.03" x2="12818.9" y2="625.095" gradientUnits="userSpaceOnUse">
<stop stop-color="#808080" stop-opacity="0.25"/>
<stop offset="0.54" stop-color="#808080" stop-opacity="0.12"/>
<stop offset="1" stop-color="#808080" stop-opacity="0.1"/>
</linearGradient>
<linearGradient id="paint4_linear" x1="16311.6" y1="8217.59" x2="15151.2" y2="5683.42" gradientUnits="userSpaceOnUse">
<stop stop-color="#808080" stop-opacity="0.25"/>
<stop offset="0.54" stop-color="#808080" stop-opacity="0.12"/>
<stop offset="1" stop-color="#808080" stop-opacity="0.1"/>
</linearGradient>
<linearGradient id="paint5_linear" x1="6406.19" y1="1893.48" x2="6095.46" y2="1214.91" gradientUnits="userSpaceOnUse">
<stop stop-color="#808080" stop-opacity="0.25"/>
<stop offset="0.54" stop-color="#808080" stop-opacity="0.12"/>
<stop offset="1" stop-color="#808080" stop-opacity="0.1"/>
</linearGradient>
</defs>
</svg>
