<svg width="438" height="177" viewBox="0 0 438 177" fill="none" xmlns="http://www.w3.org/2000/svg">
<g clip-path="url(#clip0)">
<path d="M220.826 146.47L213.781 135.239L220.829 147.694L220.833 148.973C221.336 148.967 221.833 148.948 222.326 148.915L221.751 132.475L221.759 132.348L221.746 132.324L221.691 130.771L229.057 118.461L221.684 129.607L221.661 129.936L221.227 117.515L227.56 104.779L221.178 115.333L220.881 89.5873L220.88 89.5016L220.879 89.586L220.734 109.884L214.683 101.763L220.739 111.633L220.768 122.75L215.153 112.013L220.771 124.385L220.786 130.567L212.63 115.616L220.793 132.723L220.826 146.47Z" fill="#E2E2E2"/>
<path d="M281.284 146.47L274.239 135.239L281.287 147.694L281.291 148.973C281.793 148.967 282.291 148.948 282.783 148.915L282.209 132.475L282.216 132.348L282.203 132.324L282.149 130.771L289.515 118.461L282.141 129.607L282.119 129.936L281.685 117.515L288.018 104.779L281.635 115.333L281.339 89.5873L281.337 89.5016L281.336 89.586L281.192 109.884L275.14 101.763L281.197 111.633L281.225 122.75L275.61 112.013L281.228 124.385L281.244 130.567L273.088 115.616L281.25 132.723L281.284 146.47Z" fill="#E2E2E2"/>
<path d="M160.312 147.192L155.225 139.082L160.315 148.076L160.317 149C160.68 148.996 161.04 148.982 161.395 148.958L160.98 137.087L160.986 136.995L160.976 136.978L160.937 135.856L166.256 126.967L160.931 135.016L160.915 135.253L160.602 126.284L165.175 117.088L160.566 124.708L160.352 106.118L160.351 106.056L160.35 106.117L160.246 120.774L155.876 114.909L160.25 122.036L160.27 130.064L156.216 122.311L160.272 131.245L160.283 135.709L154.394 124.913L160.288 137.266L160.312 147.192Z" fill="#E2E2E2"/>
<path d="M428.319 146.47L421.274 135.239L428.322 147.694L428.326 148.973C428.829 148.967 429.326 148.948 429.819 148.915L429.244 132.475L429.251 132.348L429.239 132.324L429.184 130.771L436.55 118.461L429.176 129.607L429.154 129.936L428.72 117.515L435.053 104.779L428.671 115.333L428.374 89.5873L428.372 89.5016L428.371 89.586L428.227 109.884L422.176 101.763L428.232 111.633L428.26 122.75L422.646 112.013L428.263 124.385L428.279 130.567L420.123 115.616L428.285 132.723L428.319 146.47Z" fill="#E2E2E2"/>
<path d="M237.256 129.513H275.26V127.895H237.256V129.513Z" fill="#1448B6"/>
<path d="M235.323 127.895H273.328V126.277H235.323V127.895Z" fill="#1448B6"/>
<path d="M237.578 126.277H275.583V124.66H237.578V126.277Z" fill="#1448B6"/>
<path d="M241.443 124.66H279.447V123.042H241.443V124.66Z" fill="#1448B6"/>
<path d="M209.106 125.305H210.426V115.893H209.106V125.305Z" fill="#3F3D56"/>
<path d="M209.103 115.774L209.6 117.002L258.429 97.0926L257.932 95.8644L209.103 115.774Z" fill="#3F3D56"/>
<path d="M184.695 139.355H196.175V134.849H184.695V139.355Z" fill="#3F3D56"/>
<path d="M185.751 143.862H242.359V138.825H185.751V143.862Z" fill="#3F3D56"/>
<path d="M195.054 141.344H208.645V124.178H198.485L195.054 132.836V141.344Z" fill="#E2E2E2"/>
<path d="M200.728 131.071H206.534V125.238H200.728V131.071Z" fill="white"/>
<path d="M196.373 131.137H200.068V125.305H198.484L196.373 131.137Z" fill="white"/>
<path d="M204.951 136.903H206.27V134.385H204.951V136.903Z" fill="#3F3D56"/>
<path d="M198.946 131.535H198.88C198.548 131.535 198.229 131.402 197.994 131.166C197.759 130.93 197.627 130.609 197.627 130.275C197.627 129.941 197.759 129.621 197.994 129.385C198.229 129.149 198.548 129.016 198.88 129.016H198.946V131.535Z" fill="#3F3D56"/>
<path d="M248.032 141.344H247.966C247.634 141.344 247.315 141.211 247.08 140.975C246.845 140.739 246.713 140.419 246.713 140.085C246.713 139.751 246.845 139.43 247.08 139.194C247.315 138.958 247.634 138.825 247.966 138.825H248.032V141.344V141.344Z" fill="#3F3D56"/>
<path d="M189.776 138.806C188.795 138.819 187.829 139.054 186.951 139.493C186.072 139.932 185.303 140.565 184.702 141.344H182.123L184.63 134.328L196.308 132.014L195.978 141.344H194.851C194.249 140.565 193.48 139.932 192.602 139.493C191.723 139.054 190.758 138.819 189.776 138.806Z" fill="#E2E2E2"/>
<path d="M189.644 148.767C192.814 148.767 195.384 146.185 195.384 143.001C195.384 139.816 192.814 137.235 189.644 137.235C186.474 137.235 183.904 139.816 183.904 143.001C183.904 146.185 186.474 148.767 189.644 148.767Z" fill="#3F3D56"/>
<path d="M189.644 146.036C191.313 146.036 192.665 144.677 192.665 143.001C192.665 141.325 191.313 139.966 189.644 139.966C187.976 139.966 186.623 141.325 186.623 143.001C186.623 144.677 187.976 146.036 189.644 146.036Z" fill="#E2E2E2"/>
<path d="M241.501 148.701C244.27 148.701 246.515 146.445 246.515 143.663C246.515 140.882 244.27 138.626 241.501 138.626C238.732 138.626 236.487 140.882 236.487 143.663C236.487 146.445 238.732 148.701 241.501 148.701Z" fill="#3F3D56"/>
<path d="M241.501 146.315C242.958 146.315 244.14 145.128 244.14 143.663C244.14 142.199 242.958 141.012 241.501 141.012C240.043 141.012 238.862 142.199 238.862 143.663C238.862 145.128 240.043 146.315 241.501 146.315Z" fill="#E2E2E2"/>
<path d="M208.249 141.874H211.02V121.792H208.249V141.874Z" fill="#3F3D56"/>
<path d="M208.249 139.422H248.099V138.229H208.249V139.422Z" fill="#3F3D56"/>
<path d="M198.155 131.932H199.475V131.402H198.155V131.932Z" fill="#3F3D56"/>
<path d="M256.478 129.503C256.465 129.489 256.456 129.473 256.45 129.455C256.444 129.437 256.442 129.419 256.444 129.4L258.264 112.112C258.267 112.08 258.283 112.05 258.307 112.028C258.331 112.006 258.362 111.994 258.395 111.994H258.395C258.428 111.994 258.459 112.006 258.483 112.027C258.507 112.049 258.523 112.079 258.526 112.111L260.494 129.363C260.497 129.381 260.495 129.4 260.489 129.418C260.484 129.436 260.474 129.452 260.462 129.466C260.45 129.48 260.435 129.491 260.418 129.499C260.401 129.506 260.383 129.51 260.365 129.511L256.577 129.546H256.575C256.557 129.546 256.539 129.543 256.522 129.535C256.505 129.528 256.49 129.517 256.478 129.503ZM258.4 113.337L256.722 129.28L260.216 129.247L258.4 113.337Z" fill="#3F3D56"/>
<path d="M184.654 134.43L184.716 134.454C185.027 134.572 185.278 134.809 185.415 135.114C185.552 135.418 185.563 135.765 185.445 136.077C185.327 136.39 185.091 136.642 184.788 136.78C184.485 136.917 184.14 136.928 183.829 136.81L183.767 136.786L184.654 134.43Z" fill="#3F3D56"/>
<path d="M257.797 115.23H259.117V95.8775H257.797V115.23Z" fill="#3F3D56"/>
<path d="M209.766 118.014C210.787 118.014 211.614 117.183 211.614 116.158C211.614 115.133 210.787 114.303 209.766 114.303C208.746 114.303 207.919 115.133 207.919 116.158C207.919 117.183 208.746 118.014 209.766 118.014Z" fill="#3F3D56"/>
<path d="M212.456 138.249H250.46V136.631H212.456V138.249Z" fill="#1448B6"/>
<path d="M214.711 136.631H252.715V135.013H214.711V136.631Z" fill="#1448B6"/>
<path d="M213.1 135.337H251.105V133.719H213.1V135.337Z" fill="#1448B6"/>
<path d="M215.355 133.719H253.359V132.101H215.355V133.719Z" fill="#1448B6"/>
<path d="M275.139 39.5506C276.35 39.5493 277.521 39.9875 278.436 40.7847C279.159 40.5864 279.917 40.5529 280.654 40.6868C281.265 39.7968 282.143 39.1262 283.159 38.7731C284.176 38.4199 285.279 38.4027 286.306 38.7239C287.333 39.0451 288.232 39.6878 288.869 40.5583C289.507 41.4288 289.851 42.4813 289.851 43.5621H270.206C270.446 42.4271 271.068 41.4095 271.966 40.6794C272.864 39.9492 273.984 39.5508 275.139 39.5506Z" fill="#E2E2E2"/>
<path d="M245.584 55.5169C246.729 55.5156 247.836 55.9299 248.701 56.6836C249.384 56.4961 250.101 56.4644 250.798 56.591C251.375 55.7496 252.205 55.1157 253.166 54.7818C254.127 54.4479 255.17 54.4316 256.141 54.7353C257.112 55.0389 257.961 55.6466 258.564 56.4695C259.167 57.2925 259.492 58.2875 259.492 59.3093H240.919C241.147 58.2363 241.735 57.2742 242.584 56.584C243.432 55.8937 244.492 55.517 245.584 55.5169Z" fill="#E2E2E2"/>
<path d="M216.034 29.183C217.225 29.1816 218.377 29.6127 219.277 30.3969C219.988 30.2018 220.734 30.1689 221.459 30.3006C222.06 29.4252 222.923 28.7656 223.923 28.4182C224.923 28.0708 226.008 28.0538 227.019 28.3698C228.029 28.6857 228.913 29.318 229.54 30.1742C230.167 31.0304 230.506 32.0658 230.505 33.1289H211.181C211.418 32.0124 212.029 31.0115 212.913 30.2933C213.796 29.5751 214.898 29.1832 216.034 29.183Z" fill="#E2E2E2"/>
<path d="M343.632 79.3281V119.741H359.276V78.7668L355.645 78.8971V70.6282H353.01L352.576 52.3144C353.639 51.6187 354.387 49.9661 354.387 48.0366C354.389 47.4826 354.324 46.9304 354.196 46.3917C354.699 45.8449 355.008 45.1459 355.073 44.4042C355.138 43.6626 354.957 42.9201 354.557 42.2931C354.891 42.5865 355.28 42.8104 355.701 42.9516C356.122 43.0928 356.567 43.1485 357.01 43.1156C357.452 43.0828 357.884 42.9619 358.28 42.76C358.676 42.5581 359.028 42.2793 359.315 41.9396C359.603 41.6 359.821 41.2064 359.956 40.7816C360.091 40.3567 360.14 39.9092 360.102 39.465C360.063 39.0208 359.937 38.5886 359.731 38.1937C359.525 37.7988 359.243 37.4489 358.901 37.1645C359.476 36.9514 359.981 36.5841 360.363 36.1026C360.745 35.6211 360.988 35.0438 361.066 34.4333C361.144 33.8228 361.053 33.2025 360.805 32.6398C360.557 32.0772 360.16 31.5936 359.657 31.2417C359.154 30.8897 358.565 30.6829 357.954 30.6436C357.343 30.6044 356.732 30.7342 356.189 31.0189C355.646 31.3037 355.191 31.7326 354.873 32.2589C354.555 32.7852 354.387 33.3889 354.387 34.0044C354.387 34.0538 354.389 34.1027 354.391 34.1514C353.931 34.0102 353.446 33.9701 352.969 34.0339C352.491 34.0977 352.034 34.2639 351.626 34.5211C351.219 34.7784 350.871 35.1208 350.607 35.5249C350.343 35.9291 350.168 36.3856 350.095 36.8636C349.677 36.6137 349.21 36.4582 348.726 36.4079C348.242 36.3576 347.753 36.4137 347.293 36.5723C346.833 36.7309 346.413 36.9882 346.062 37.3264C345.71 37.6645 345.437 38.0754 345.259 38.5305C345.082 38.9856 345.005 39.4739 345.035 39.9617C345.064 40.4495 345.199 40.925 345.43 41.3553C345.661 41.7855 345.982 42.1601 346.371 42.4531C346.76 42.7461 347.209 42.9505 347.684 43.052C347.684 43.0765 347.683 43.1007 347.683 43.1253C347.994 44.0692 348.39 44.9826 348.867 45.8543C348.634 46.5579 348.517 47.2951 348.521 48.0365C348.521 49.9661 349.269 51.6187 350.332 52.3144L349.898 70.6282H347.264V79.1978L343.632 79.3281ZM353.401 40.7396L353.41 40.7398C353.458 40.7398 353.506 40.7383 353.554 40.7362C353.584 40.8357 353.619 40.9332 353.657 41.0285C353.577 40.9274 353.492 40.8309 353.401 40.7396Z" fill="#E2E2E2"/>
<path d="M335.018 148.506H382.51V93.3135H335.018V148.506Z" fill="#3F3D56"/>
<path d="M352.361 148.506H365.166V137.281H352.361V148.506Z" fill="#E2E2E2"/>
<path d="M319.19 20.6921C319.189 20.7329 319.186 20.7733 319.186 20.8143C319.186 21.5649 319.335 22.308 319.626 22.9993C319.917 23.6906 320.344 24.3161 320.881 24.8383C320.964 25.0179 321.058 25.1929 321.16 25.3626C320.772 26.5353 320.577 27.7638 320.583 28.9997C320.583 33.262 322.772 36.7173 325.472 36.7173C328.172 36.7173 330.361 33.262 330.361 28.9997C330.363 28.0764 330.256 27.1561 330.042 26.2581C330.881 25.3468 331.395 24.1819 331.503 22.9458C331.612 21.7097 331.31 20.4723 330.644 19.4273C331.201 19.9163 331.849 20.2893 332.551 20.5246C333.253 20.7599 333.994 20.8528 334.732 20.798C335.469 20.7431 336.189 20.5416 336.849 20.2052C337.508 19.8687 338.095 19.404 338.574 18.838C339.054 18.2719 339.416 17.6159 339.641 16.9079C339.866 16.1999 339.949 15.4541 339.885 14.7137C339.821 13.9733 339.611 13.2531 339.267 12.595C338.923 11.9368 338.453 11.3537 337.883 10.8796C338.841 10.5244 339.684 9.91233 340.32 9.10981C340.956 8.30729 341.361 7.34502 341.491 6.32754C341.621 5.31005 341.471 4.27625 341.057 3.33845C340.643 2.40064 339.982 1.59469 339.144 1.00814C338.306 0.421586 337.324 0.0768714 336.305 0.0114343C335.286 -0.0540029 334.269 0.162341 333.364 0.636967C332.458 1.11159 331.7 1.82635 331.17 2.70359C330.641 3.58083 330.361 4.58702 330.361 5.61284C330.361 5.69502 330.364 5.77655 330.367 5.85785C329.6 5.62244 328.791 5.55562 327.996 5.66193C327.201 5.76824 326.438 6.04519 325.759 6.47398C325.08 6.90276 324.5 7.47335 324.06 8.14698C323.62 8.82061 323.329 9.58152 323.208 10.378C322.511 9.96157 321.732 9.70242 320.926 9.61859C320.119 9.53477 319.304 9.62826 318.537 9.8926C317.77 10.1569 317.07 10.5858 316.485 11.1493C315.899 11.7129 315.443 12.3977 315.147 13.1562C314.852 13.9147 314.724 14.7287 314.773 15.5417C314.823 16.3547 315.047 17.1472 315.432 17.8642C315.816 18.5813 316.352 19.2056 317.001 19.6939C317.65 20.1823 318.396 20.5229 319.19 20.6921ZM328.731 16.8385C328.812 16.8385 328.892 16.8358 328.972 16.8324C329.022 16.9983 329.08 17.1607 329.144 17.3197C329.011 17.1511 328.869 16.9903 328.717 16.8382L328.731 16.8385Z" fill="#E2E2E2"/>
<path d="M322.678 75.0718H328.266L328.067 66.6532V66.6499L327.335 35.7807C326.774 36.125 326.13 36.3072 325.472 36.3072C324.815 36.3072 324.17 36.125 323.609 35.7807L322.878 66.6499V66.6532L322.678 75.0718Z" fill="#1448B6"/>
<path d="M312.436 81.1511V148.506H338.508V80.2161L332.456 80.4329V66.6532H318.488V80.9344L312.436 81.1511Z" fill="#1448B6"/>
<path d="M385.772 20.6921C385.771 20.7329 385.769 20.7733 385.769 20.8143C385.768 21.5649 385.917 22.308 386.208 22.9993C386.499 23.6906 386.926 24.3161 387.463 24.8383C387.546 25.0179 387.64 25.1929 387.742 25.3626C387.354 26.5353 387.159 27.7638 387.165 28.9997C387.165 33.262 389.354 36.7173 392.054 36.7173C394.754 36.7173 396.943 33.262 396.943 28.9997C396.945 28.0764 396.838 27.1561 396.625 26.2581C397.463 25.3468 397.977 24.1819 398.086 22.9458C398.194 21.7097 397.892 20.4723 397.226 19.4273C397.783 19.9163 398.431 20.2893 399.133 20.5246C399.835 20.7599 400.576 20.8528 401.314 20.798C402.052 20.7432 402.771 20.5417 403.431 20.2052C404.09 19.8688 404.677 19.404 405.156 18.838C405.636 18.272 405.999 17.6159 406.224 16.9079C406.449 16.1999 406.531 15.4541 406.467 14.7137C406.403 13.9733 406.193 13.2531 405.849 12.595C405.506 11.9368 405.035 11.3537 404.466 10.8796C405.424 10.5244 406.266 9.91233 406.902 9.10981C407.539 8.30729 407.944 7.34503 408.073 6.32754C408.203 5.31005 408.053 4.27625 407.639 3.33845C407.226 2.40064 406.564 1.59469 405.726 1.00814C404.888 0.421586 403.907 0.0768716 402.887 0.0114343C401.868 -0.054003 400.851 0.162341 399.946 0.636967C399.04 1.11159 398.282 1.82635 397.753 2.70359C397.223 3.58083 396.943 4.58702 396.943 5.61284C396.943 5.69502 396.946 5.77655 396.949 5.85785C396.182 5.62244 395.374 5.55562 394.578 5.66193C393.783 5.76824 393.02 6.04519 392.341 6.47398C391.662 6.90276 391.082 7.47335 390.642 8.14698C390.202 8.82061 389.911 9.58152 389.79 10.378C389.093 9.96157 388.314 9.70242 387.508 9.61859C386.701 9.53477 385.886 9.62826 385.119 9.8926C384.352 10.1569 383.652 10.5858 383.067 11.1493C382.481 11.7129 382.025 12.3977 381.729 13.1562C381.434 13.9147 381.306 14.7287 381.355 15.5417C381.405 16.3547 381.629 17.1472 382.014 17.8642C382.398 18.5813 382.934 19.2056 383.583 19.6939C384.232 20.1823 384.978 20.5229 385.772 20.6921ZM395.314 16.8385C395.394 16.8385 395.474 16.8358 395.554 16.8324C395.604 16.9983 395.662 17.1607 395.727 17.3197C395.593 17.1511 395.451 16.9903 395.299 16.8382L395.314 16.8385Z" fill="#E2E2E2"/>
<path d="M389.261 75.0717H394.849L393.917 35.7819C392.713 36.2164 391.396 36.2164 390.192 35.7819L389.261 75.0717Z" fill="#1448B6"/>
<path d="M379.019 81.1511V148.506H405.094V80.2161L402.952 80.2937L399.039 80.4329V66.6532H385.07V80.9344L379.019 81.1511Z" fill="#1448B6"/>
<path d="M365.85 106.446H372.292V99.9749H365.85V106.446Z" fill="white"/>
<path d="M355.543 106.446H361.985V99.9749H355.543V106.446Z" fill="white"/>
<path d="M345.237 106.446H351.679V99.9749H345.237V106.446Z" fill="white"/>
<path d="M365.85 116.799H372.292V110.328H365.85V116.799Z" fill="white"/>
<path d="M355.543 116.799H361.985V110.328H355.543V116.799Z" fill="white"/>
<path d="M345.237 116.799H351.679V110.328H345.237V116.799Z" fill="white"/>
<path d="M365.85 127.153H372.292V120.682H365.85V127.153Z" fill="white"/>
<path d="M355.543 127.153H361.985V120.682H355.543V127.153Z" fill="white"/>
<path d="M345.237 127.153H351.679V120.682H345.237V127.153Z" fill="white"/>
<path d="M322.252 103.857H328.694V97.3866H322.252V103.857Z" fill="white"/>
<path d="M322.252 114.211H328.694V107.74H322.252V114.211Z" fill="white"/>
<path d="M322.252 124.564H328.694V118.093H322.252V124.564Z" fill="white"/>
<path d="M322.252 134.918H328.694V128.447H322.252V134.918Z" fill="white"/>
<path d="M388.78 103.857H395.222V97.3866H388.78V103.857Z" fill="white"/>
<path d="M388.78 114.211H395.222V107.74H388.78V114.211Z" fill="white"/>
<path d="M388.78 124.564H395.222V118.093H388.78V124.564Z" fill="white"/>
<path d="M388.78 134.918H395.222V128.447H388.78V134.918Z" fill="white"/>
<path d="M437.999 148.278H151.999V148.926H437.999V148.278Z" fill="#3F3D56"/>
</g>
<path d="M111.787 76.6795L114.861 77.7948L114.773 80.9045L20.664 75.6041L20.7486 74.3833L111.787 76.6795Z" fill="#7B728F"/>
<path d="M114.863 77.7947L108.44 75.4676L9.26532 74.0035L20.0425 76.16L114.863 77.7947Z" fill="#7B728F"/>
<path opacity="0.1" d="M114.863 77.7947L108.44 75.4676L9.26532 74.0035L20.0425 76.16L114.863 77.7947Z" fill="black"/>
<path d="M0.0177057 168.53L13.137 168.219L17.7404 168.115L22.7634 95.6145L22.7227 78.7002L22.7157 74.9353L9.26654 74.0035L0.0177057 168.53Z" fill="#7B728F"/>
<path opacity="0.1" d="M3.76032 166.202L14.2373 165.772L17.9132 165.624L22.6756 96.8844L22.8198 80.864L22.8557 77.2925L12.1287 76.5493L3.76032 166.202Z" fill="black"/>
<path d="M81.6868 75.4961C81.6868 75.4961 76.1835 60.8116 73.4921 60.181C70.8006 59.5504 65.7748 59.6463 65.7748 59.6463L65.9309 63.8022C65.9309 63.8022 72.5594 64.7901 73.8927 76.0699L81.6868 75.4961Z" fill="#7B728F"/>
<path opacity="0.1" d="M81.6868 75.4961C81.6868 75.4961 76.1835 60.8116 73.4921 60.181C70.8006 59.5504 65.7748 59.6463 65.7748 59.6463L65.9309 63.8022C65.9309 63.8022 72.5594 64.7901 73.8927 76.0699L81.6868 75.4961Z" fill="black"/>
<path d="M57.6359 57.588C57.6359 57.588 39.5865 65.0576 41.1618 75.3884L50.6695 75.5184C50.6695 75.5184 56.2806 60.6663 59.9276 60.1224C63.5745 59.5785 57.6359 57.588 57.6359 57.588Z" fill="#7B728F"/>
<path opacity="0.1" d="M15.4216 75.4168L13.1372 168.219L17.7406 168.115L22.7635 95.6144L22.7229 78.7001L15.4216 75.4168Z" fill="black"/>
<path d="M111.135 117.951L110.474 168.188L14.509 169.534L16.8214 75.5139L111.135 117.951Z" fill="#7B728F"/>
<path opacity="0.1" d="M112.867 123.478L114.063 79.1493L16.0225 76.8685L17.4368 123.915L112.867 123.478Z" fill="black"/>
<path d="M113.666 122.123L114.862 77.7947L16.8218 75.514L18.2361 122.561L113.666 122.123Z" fill="#7B728F"/>
<path d="M60.8107 118.518L72.562 119.332L71.6142 133.013L59.8629 132.198L60.8107 118.518Z" fill="#C3BBC8"/>
<defs>
<clipPath id="clip0">
<rect width="286" height="149" fill="white" transform="translate(151.999)"/>
</clipPath>
</defs>
</svg>
