<svg width="375" height="464" viewBox="0 0 375 464" fill="none" xmlns="http://www.w3.org/2000/svg">
<g opacity="0.4">
<path d="M556 235.993V318.203H419.047V235.993H556ZM556 320.747V391.35C555.217 391.499 554.446 391.648 553.669 391.772C552.626 391.963 551.577 392.135 550.51 392.283L549.878 392.367C549.461 392.432 549.037 392.486 548.614 392.533C547.559 392.676 546.504 392.783 545.455 392.878C544.962 392.925 544.45 392.961 543.951 393.003L542.732 393.086C542.068 393.133 541.411 393.169 540.754 393.193C540.35 393.193 539.946 393.223 539.535 393.234C539.124 393.246 538.903 393.234 538.574 393.234H537.38C536.837 393.234 536.294 393.234 535.757 393.234H535.062C534.518 393.234 533.975 393.234 533.438 393.187H533.406C533.027 393.187 532.654 393.187 532.275 393.145C532.168 393.151 532.06 393.151 531.953 393.145C531.637 393.145 531.321 393.145 531.018 393.11C530.946 393.104 530.875 393.104 530.803 393.11C530.102 393.068 529.394 393.014 528.68 392.955C527.966 392.896 527.29 392.824 526.576 392.753L525.142 392.587C519.281 391.815 513.486 390.655 507.799 389.116C495.017 385.764 482.526 381.075 469.751 377.646C453.248 373.218 435.001 371.037 419.054 376.427V320.747H556ZM419.047 144.458V35.01C434.04 34.8549 448.992 36.5026 463.54 39.913C498.22 48.1085 529.363 65.8843 556 88.5868V144.452H549.107V146.989H556V233.449H419.047V146.989H520.909V144.446L419.047 144.458ZM243.099 107.486C251.679 107.2 260.209 104.651 267.93 100.699C282.676 93.157 294.466 81.4967 307.633 71.6669C334.991 51.1811 368.919 38.8136 403.726 35.747V144.458H208.235L207.749 143.976L243.099 107.486ZM225.288 104.514L206.403 124.013V99.3853C212.759 100.14 218.294 101.893 225.288 104.49V104.514ZM206.403 408.882V320.747H246.675C246.776 320.372 246.89 319.992 247.016 319.612C246.896 319.992 246.789 320.372 246.682 320.747H403.726V384.48C402.235 385.52 400.763 386.62 399.303 387.725C397.728 388.938 396.163 390.164 394.609 391.404L393.042 392.622C392.29 393.217 391.526 393.811 390.767 394.375C389.247 395.528 387.716 396.669 386.174 397.799C385.403 398.369 384.628 398.93 383.849 399.481C371.508 408.352 358.491 416.359 344.904 423.437C341.858 425.036 338.781 426.575 335.686 428.079C333.626 429.077 331.551 430.056 329.462 431.014C326.328 432.453 323.169 433.839 319.985 435.175C290.627 447.571 259.583 456.075 227.74 460.444C220.672 461.423 213.572 462.196 206.441 462.762V408.871H205.809L206.403 408.882ZM403.726 146.989V233.449H206.403V146.989H403.726ZM403.726 235.981V318.203H206.403V235.993L403.726 235.981ZM191.088 99.2665V126.783L166.991 101.899C174.977 100.659 183.009 99.7815 191.088 99.2665ZM191.088 235.993V318.203H-0.826294V235.993H191.088ZM-0.150269 415.402L-0.826294 320.747H191.088V463.719C178.726 464.203 166.346 464.062 154 463.297H153.786C147.889 462.941 142.019 462.433 136.177 461.776H136.044C104.867 458.362 74.383 450.703 45.549 439.038L-0.150269 415.402ZM-37.8508 249.495C-37.1221 247.911 -36.3744 246.326 -35.6078 244.741C-34.1799 241.769 -32.6762 238.881 -31.1219 235.999H-16.1478V318.203H-54C-53.9684 294.918 -47.7008 271.146 -37.8508 249.495ZM-16.1478 320.747V402.167C-26.8066 392.557 -35.8227 381.556 -42.3051 368.981C-50.108 353.832 -53.6777 337.441 -53.9747 320.741L-16.1478 320.747ZM-16.1478 212.036V233.431H-29.7193C-25.6053 226.076 -21.075 218.935 -16.1478 212.036ZM114.006 115.402C115.005 115.039 116.009 114.677 117.014 114.332C127.606 110.65 138.431 107.589 149.426 105.168L186.311 143.239L187.032 143.97L186.558 144.452H55.279C73.5638 132.617 93.2775 122.865 114.006 115.402ZM51.425 146.989H188.397L191.088 149.301V233.449H167.49H-0.826294V192.68C14.3932 175.367 31.96 160.006 51.425 146.989Z" fill="#F8FBFF"/>
<path opacity="0.1" d="M206 151H246V234H206V151Z" fill="#3C76F2"/>
<path opacity="0.24" d="M207 236V318H404V282.631H299.069V303.496H246.695V236H207Z" fill="#3C76F2"/>
<path opacity="0.1" d="M206 409.172C206.209 409.172 206.417 409.172 206.632 409.137V463C213.757 462.45 220.856 461.68 227.93 460.691C259.792 456.329 290.857 447.84 320.237 435.466C328.718 431.873 337.027 427.958 345.162 423.72C358.749 416.648 371.767 408.651 384.112 399.795C387.221 397.563 390.284 395.282 393.301 392.951C395.392 391.325 397.465 389.663 399.576 388.055C401.03 386.945 402.502 385.847 404 384.802V321.134H246.915C247.028 320.754 247.129 320.38 247.243 320C247.123 320.38 247.009 320.754 246.908 321.134H206.626V409.131C206.417 409.137 206.209 409.155 206 409.172Z" fill="#3C76F2"/>
<path opacity="0.1" d="M103 29H129V23.722H117.351V8C116.34 8.24305 115.334 8.49162 114.332 8.74571V23.722H103.006L103 29Z" fill="#3C76F2"/>
<path opacity="0.1" d="M40.0063 232.998H167.369C167.356 233.001 167.343 233.001 167.331 232.998H167.388H191V150.624H184.306V211.51H153.721V175.451H128.445V147H102.504V175.469H77.2407V211.528H40L40.0063 232.998Z" fill="#3C76F2"/>
<path opacity="0.24" d="M191 236V318.208H40.1433V236H191ZM-0.78511 414.97L-1.00002 349.895H40.1433V320.775H191V463.719C178.633 464.203 166.247 464.062 153.896 463.297H153.681C147.781 462.941 141.909 462.433 136.064 461.776H135.932C104.74 458.362 74.2429 450.703 45.3961 439.038" fill="#3C76F2"/>
<path opacity="0.1" d="M207 174H228V200H207V174Z" fill="#3C76F2"/>
<path opacity="0.1" d="M207 228H228V234H207V228Z" fill="#3C76F2"/>
<path opacity="0.1" d="M207 236H228V253H207V236Z" fill="#3C76F2"/>
<path opacity="0.1" d="M207 281H228V307H207V281Z" fill="#3C76F2"/>
<path opacity="0.1" d="M207 335H228V361H207V335Z" fill="#3C76F2"/>
<path opacity="0.1" d="M206.634 408.954C206.425 408.954 206.215 408.954 206 408.995C206.209 408.995 206.418 408.995 206.634 408.96V415H228V389H206.634V408.954Z" fill="#3C76F2"/>
<path opacity="0.1" d="M207 443V463C214.027 462.451 221.027 461.682 228 460.694V443H207Z" fill="#3C76F2"/>
<path opacity="0.1" d="M313 316H404V318H313V316Z" fill="#3C76F2"/>
<path opacity="0.1" d="M313 321H404V328H313V321Z" fill="#3C76F2"/>
<path opacity="0.1" d="M313 352H404V364H313V352Z" fill="#3C76F2"/>
<path opacity="0.1" d="M312 388V400H383.514C386.627 397.727 389.695 395.393 392.716 392.999C394.817 391.343 396.893 389.644 399 388H312Z" fill="#3C76F2"/>
<path opacity="0.1" d="M313 423V435H320.432C328.791 431.337 336.981 427.345 345 423.024L313 423Z" fill="#3C76F2"/>
<path opacity="0.1" d="M136 244H154V261H136V244Z" fill="#3C76F2"/>
<path opacity="0.1" d="M67 244H85V261H67V244Z" fill="#3C76F2"/>
<path opacity="0.1" d="M67 286H85V303H67V286Z" fill="#3C76F2"/>
<path opacity="0.1" d="M136 327H154V344H136V327Z" fill="#3C76F2"/>
<path opacity="0.1" d="M67 327H85V344H67V327Z" fill="#3C76F2"/>
<path opacity="0.1" d="M136 369H154V386H136V369Z" fill="#3C76F2"/>
<path opacity="0.1" d="M67 369H85V386H67V369Z" fill="#3C76F2"/>
<path opacity="0.1" d="M136 411H154V428H136V411Z" fill="#3C76F2"/>
<path opacity="0.1" d="M67 411H85V428H67V411Z" fill="#3C76F2"/>
<path opacity="0.1" d="M154 463V452H136V461.435L154 463Z" fill="#3C76F2"/>
<path opacity="0.1" d="M206.637 409H206.006H206.637ZM247.205 319.892C247.085 320.272 246.977 320.652 246.87 321.026C246.965 320.652 247.078 320.272 247.205 319.892ZM549 145.012V147.54H520.804V145L549 145.012ZM206.631 409H206H206.631ZM247.205 319.892C247.085 320.272 246.977 320.652 246.87 321.026C246.965 320.652 247.078 320.272 247.205 319.892ZM206.637 409H206.006H206.637ZM247.205 319.892C247.085 320.272 246.977 320.652 246.87 321.026C246.965 320.652 247.078 320.272 247.205 319.892Z" fill="#3C76F2"/>
<g opacity="0.1">
<path opacity="0.1" d="M356.443 228.09C357.65 230.901 358.167 233.954 357.953 237C357.82 234.822 357.31 232.683 356.443 230.675C355.052 227.471 352.803 224.682 351.43 221.473C350.307 218.793 349.835 215.892 350.051 213C350.173 215.027 350.639 217.019 351.43 218.894C352.803 222.103 355.052 224.886 356.443 228.09Z" fill="black"/>
</g>
<path opacity="0.1" d="M366.01 339.319L371 339L371.289 342.99L366.299 343.309L366.01 339.319Z" fill="black"/>
<g opacity="0.1">
<path opacity="0.1" d="M367.033 218.329C368.71 219.203 370.847 218.473 372.272 217.253C373.696 216.033 374.66 214.388 375.919 213C376.012 213.251 376.025 213.524 375.956 213.782C375.887 214.041 375.739 214.272 375.532 214.447C375.655 214.447 375.772 214.388 375.889 214.358C374.66 215.733 373.684 217.348 372.272 218.545C370.859 219.741 368.71 220.495 367.033 219.621C365.357 218.748 364.878 216.702 365.025 214.711C365.136 216.278 365.713 217.636 367.033 218.329Z" fill="black"/>
</g>
<g opacity="0.1">
<path opacity="0.1" d="M110.432 215.246C111.214 215.888 112.22 216.338 112.742 217.184C113.187 217.911 113.2 218.811 113.556 219.585C113.912 220.359 114.95 221.001 115.675 220.509C115.841 215.108 118.659 210.036 122.127 205.715C123.097 204.413 124.276 203.261 125.621 202.3C126.982 201.332 128.677 200.879 130.374 201.028C132.283 201.274 133.963 202.498 135.891 202.654C138.436 202.852 140.721 201.19 143.247 201.112C144.273 201.119 145.286 201.334 146.217 201.742C147.148 202.15 147.975 202.741 148.643 203.477C149.971 204.954 150.958 206.678 151.538 208.536C152.538 211.356 153.083 214.302 153.155 217.274C153.193 218.949 153.358 221.037 155 221.662C154.962 222.107 154.962 222.555 155 223C153.339 222.4 153.174 220.281 153.136 218.601C153.064 215.628 152.519 212.682 151.519 209.862C150.939 208.004 149.952 206.281 148.624 204.803C147.956 204.068 147.128 203.476 146.198 203.067C145.267 202.658 144.255 202.442 143.228 202.432C140.683 202.516 138.392 204.179 135.872 203.975C133.963 203.825 132.27 202.6 130.355 202.354C128.659 202.203 126.964 202.655 125.602 203.621C124.256 204.583 123.078 205.737 122.108 207.042C118.64 211.363 115.821 216.416 115.656 221.836C114.931 222.328 113.893 221.68 113.537 220.911C113.181 220.143 113.168 219.243 112.723 218.511C112.201 217.665 111.195 217.208 110.413 216.572C108.427 214.958 107.931 212.239 108.007 209.772C108.007 209.694 108.007 209.622 108.007 209.544C108.135 211.693 108.739 213.871 110.432 215.246Z" fill="black"/>
<path opacity="0.1" d="M157.401 214.636C158.839 213.188 160.812 212.215 162.137 210.681C163.257 209.328 163.895 207.694 163.965 206C164.162 208.118 163.513 210.23 162.137 211.946C160.812 213.48 158.839 214.447 157.401 215.895C156.011 217.311 155.176 219.106 155.026 221C154.932 219.848 155.093 218.691 155.501 217.597C155.909 216.504 156.555 215.497 157.401 214.636Z" fill="black"/>
<path opacity="0.1" d="M107.266 197.084C107.682 198.461 108.423 199.77 108.762 201.157C108.965 202.096 109.039 203.049 108.981 204C108.958 203.463 108.884 202.928 108.762 202.399C108.423 201.011 107.682 199.702 107.266 198.326C107.027 197.566 106.948 196.78 107.033 196C107.079 196.365 107.157 196.728 107.266 197.084Z" fill="black"/>
</g>
</g>
</svg>
