<svg width="713" height="458" viewBox="0 0 713 458" fill="none" xmlns="http://www.w3.org/2000/svg">
<g opacity="0.4">
<path opacity="0.1" d="M689.499 211.067H625.376V293.308H684.811C684.962 294.159 685.114 295.003 685.285 295.853H625.376V362.167C625.477 362.167 625.578 362.095 625.673 362.06C627.358 361.429 629.043 360.761 630.728 360.056C631.088 359.901 631.442 359.741 631.809 359.592C633.494 358.843 635.179 358.05 636.864 357.214C637.451 356.923 638.039 356.62 638.614 356.31C647.969 351.399 656.471 345.172 663.826 337.844C664.047 337.648 664.249 337.434 664.458 337.25C665.482 336.204 666.486 335.145 667.459 334.063C667.826 333.665 668.18 333.261 668.54 332.874C669.69 331.554 670.802 330.187 671.876 328.814C672.04 328.605 672.192 328.403 672.35 328.219C676.75 322.49 680.4 316.282 683.218 309.729C683.307 309.533 683.389 309.319 683.471 309.135C684.343 307.054 685.133 304.943 685.815 302.791C686.106 301.893 686.39 301.008 686.63 300.074C686.719 299.807 686.788 299.533 686.864 299.266C690.415 286.097 690.826 272.411 690.826 258.79C690.826 257.205 690.826 255.619 690.826 254.034C690.776 248.473 690.706 242.918 690.618 237.369C690.584 235.942 690.552 234.51 690.523 233.071C690.434 229.428 690.308 225.778 690.144 222.12C690.106 221.109 690.055 220.092 689.998 219.088C689.973 218.505 689.942 217.922 689.904 217.34C689.79 215.235 689.655 213.144 689.499 211.067Z" fill="#3C76F2"/>
<path opacity="0.1" d="M625.376 119.498H660.553C654.832 111.083 648.584 102.995 641.843 95.2772C636.611 89.2368 631.101 83.351 625.376 77.6792V119.498Z" fill="#3C76F2"/>
<path opacity="0.1" d="M625.377 122.031V208.523H689.298C689.298 208.273 689.26 208.017 689.235 207.768C689.178 207.084 689.121 206.406 689.058 205.722C688.995 204.926 688.912 204.129 688.83 203.344C688.748 202.56 688.666 201.608 688.565 200.746C688.464 199.884 688.382 199.01 688.281 198.148C688.179 197.286 688.078 196.424 687.965 195.568C687.851 194.712 687.75 193.844 687.623 192.988C687.529 192.28 687.434 191.567 687.326 190.853C687.181 189.849 687.029 188.844 686.871 187.845C686.871 187.69 686.821 187.542 686.796 187.393C685.641 180.082 684.071 172.834 682.094 165.681C680.018 158.178 677.368 150.826 674.164 143.683C670.76 136.199 666.773 128.962 662.235 122.031H625.377Z" fill="#3C76F2"/>
<path d="M610.059 201.067V283.308H473.093V201.067H610.059ZM610.059 285.853V356.483C609.275 356.631 608.504 356.78 607.727 356.905C606.684 357.095 605.635 357.268 604.568 357.416L603.936 357.499C603.519 357.565 603.095 357.618 602.672 357.666C601.617 357.809 600.561 357.916 599.513 358.011C599.02 358.058 598.508 358.094 598.009 358.136L596.789 358.219C596.126 358.266 595.469 358.302 594.811 358.326C594.407 358.326 594.003 358.356 593.592 358.367C593.181 358.379 592.96 358.367 592.631 358.367H591.437C590.894 358.367 590.35 358.367 589.813 358.367H589.118C588.575 358.367 588.031 358.367 587.494 358.32H587.463C587.084 358.32 586.711 358.32 586.332 358.278C586.224 358.284 586.117 358.284 586.009 358.278C585.693 358.278 585.377 358.278 585.074 358.243C585.003 358.237 584.931 358.237 584.859 358.243C584.158 358.201 583.45 358.147 582.736 358.088C582.022 358.029 581.346 357.957 580.632 357.886L579.198 357.719C573.336 356.947 567.54 355.787 561.853 354.247C549.07 350.894 536.578 346.203 523.801 342.773C507.296 338.344 489.048 336.162 473.099 341.554V285.853H610.059ZM473.093 109.498V0.0100217C488.087 -0.145193 503.04 1.50311 517.59 4.91487C552.273 13.1134 583.419 30.8957 610.059 53.6067V109.492H603.165V112.031H610.059V198.523H473.093V112.031H574.964V109.486L473.093 109.498ZM297.127 72.5127C305.708 72.2273 314.239 69.6768 321.96 65.7232C336.708 58.1786 348.499 46.514 361.667 36.6805C389.028 16.1871 422.96 3.815 457.77 0.747236V109.498H262.26L261.774 109.017L297.127 72.5127ZM279.315 69.54L260.428 89.0465V64.4093C266.785 65.1643 272.32 66.9182 279.315 69.5163V69.54ZM260.428 374.021V285.853H300.704C300.805 285.478 300.919 285.098 301.045 284.717C300.925 285.098 300.818 285.478 300.71 285.853H457.77V349.61C456.278 350.651 454.806 351.75 453.347 352.856C451.771 354.069 450.206 355.296 448.652 356.536L447.085 357.755C446.333 358.35 445.568 358.944 444.81 359.509C443.289 360.662 441.758 361.804 440.216 362.933C439.445 363.504 438.67 364.065 437.891 364.616C425.549 373.491 412.531 381.501 398.942 388.581C395.896 390.181 392.819 391.72 389.723 393.225C387.663 394.223 385.588 395.202 383.499 396.162C380.365 397.6 377.205 398.988 374.021 400.323C344.66 412.724 313.612 421.231 281.766 425.603C274.698 426.582 267.598 427.354 260.466 427.921V374.009H259.834L260.428 374.021ZM457.77 112.031V198.523H260.428V112.031H457.77ZM457.77 201.055V283.308H260.428V201.067L457.77 201.055ZM245.111 64.2903V91.817L221.011 66.9241C228.998 65.6835 237.032 64.8056 245.111 64.2903ZM245.111 201.067V283.308H53.1783V201.067H245.111ZM53.8544 380.543L53.1783 285.853H245.111V428.878C232.748 429.362 220.367 429.221 208.02 428.456H207.805C201.908 428.1 196.038 427.592 190.195 426.934H190.062C158.882 423.519 128.395 415.857 99.5582 404.188L53.8544 380.543ZM16.1503 214.575C16.879 212.99 17.6268 211.404 18.3935 209.819C19.8215 206.846 21.3254 203.957 22.8798 201.073H37.8553V283.308H-0.000549316C0.0310669 260.015 6.29932 236.234 16.1503 214.575ZM37.8553 285.853V367.303C27.1956 357.69 18.1786 346.685 11.6955 334.105C3.89185 318.95 0.321777 302.553 0.0247803 285.847L37.8553 285.853ZM37.8553 177.102V198.505H24.2826C28.397 191.147 32.9277 184.003 37.8553 177.102ZM168.022 80.4318C169.02 80.0691 170.025 79.7065 171.03 79.3616C181.623 75.678 192.449 72.6162 203.445 70.194L240.334 108.279L241.055 109.011L240.581 109.492H109.289C127.576 97.6529 147.291 87.8978 168.022 80.4318ZM105.435 112.031H242.419L245.111 114.344V198.523H221.511H53.1783V157.738C68.3994 140.419 85.9678 125.053 105.435 112.031Z" fill="#F8FBFF"/>
<path opacity="0.1" d="M625.377 165.663V208.523H689.298C689.298 208.273 689.26 208.017 689.235 207.768C689.178 207.084 689.121 206.406 689.058 205.722C688.995 204.926 688.912 204.129 688.83 203.344C688.748 202.559 688.666 201.608 688.565 200.746C688.464 199.884 688.382 199.01 688.281 198.148C688.179 197.286 688.078 196.424 687.965 195.568C687.851 194.712 687.75 193.844 687.623 192.988C687.529 192.28 687.434 191.567 687.326 190.853C687.181 189.848 687.029 188.844 686.871 187.845C686.871 187.69 686.821 187.542 686.796 187.393C685.641 180.082 684.071 172.834 682.094 165.681L625.377 165.663Z" fill="#3C76F2"/>
<path opacity="0.1" d="M689.499 211.067H625.376V293.308H684.811C684.962 294.159 685.114 295.003 685.285 295.853H625.376V362.167C625.477 362.167 625.578 362.095 625.673 362.06C627.358 361.429 629.043 360.761 630.728 360.056C631.088 359.901 631.442 359.741 631.809 359.592C633.494 358.843 635.179 358.05 636.864 357.214C637.451 356.923 638.039 356.62 638.614 356.31C647.969 351.399 656.471 345.172 663.826 337.844C664.047 337.648 664.249 337.434 664.458 337.25C665.482 336.204 666.486 335.145 667.459 334.063C667.826 333.665 668.18 333.261 668.54 332.874C669.69 331.554 670.802 330.187 671.876 328.814C672.04 328.605 672.192 328.403 672.35 328.219C676.75 322.49 680.4 316.282 683.218 309.729C683.307 309.533 683.389 309.319 683.471 309.135C684.343 307.054 685.133 304.943 685.815 302.791C686.106 301.893 686.39 301.008 686.63 300.074C686.719 299.807 686.788 299.533 686.864 299.266C690.415 286.097 690.826 272.411 690.826 258.79C690.826 257.205 690.826 255.619 690.826 254.034C690.776 248.473 690.706 242.918 690.618 237.369C690.584 235.942 690.552 234.51 690.523 233.071C690.434 229.428 690.308 225.778 690.144 222.12C690.106 221.109 690.055 220.092 689.998 219.088C689.973 218.505 689.942 217.922 689.904 217.34C689.79 215.235 689.655 213.144 689.499 211.067Z" fill="#3C76F2"/>
<path opacity="0.24" d="M561.848 134.421V208.523H610.066V134.421H603.192V109.332H574.972V134.421H561.848Z" fill="#3C76F2"/>
<path opacity="0.24" d="M562.378 210.998H610.59V293.239H562.378V210.998Z" fill="#3C76F2"/>
<path opacity="0.24" d="M610.06 295.853H561.847V364.223C567.534 365.764 573.331 366.922 579.192 367.69C579.673 367.755 580.146 367.808 580.627 367.856C581.334 367.933 582.036 368.005 582.737 368.064L584.854 368.225H585.069L586.004 368.272H586.326C586.705 368.272 587.078 368.314 587.457 368.32H587.489C588.032 368.32 588.569 368.355 589.113 368.367H589.808C590.345 368.367 590.882 368.367 591.432 368.367H592.62H593.587C593.997 368.367 594.402 368.367 594.812 368.32C595.461 368.296 596.118 368.26 596.784 368.213L598.003 368.13C598.509 368.094 599.014 368.046 599.514 367.999C600.575 367.912 601.628 367.799 602.673 367.66L603.937 367.493L604.569 367.41C605.624 367.261 606.673 367.095 607.728 366.905C608.511 366.774 609.282 366.625 610.06 366.471V295.853Z" fill="#3C76F2"/>
<path opacity="0.1" d="M260.436 115.669H300.193V198.517H260.436V115.669Z" fill="#3C76F2"/>
<path opacity="0.24" d="M260.43 201.061V283.308H457.771V247.833H352.659V268.76H300.194V201.061H260.43Z" fill="#3C76F2"/>
<path opacity="0.1" d="M259.804 374.039C260.013 374.039 260.221 374.039 260.436 374.003V427.957C267.559 427.406 274.658 426.635 281.73 425.644C313.587 421.274 344.647 412.771 374.022 400.377C382.502 396.778 390.809 392.856 398.944 388.611C412.528 381.527 425.544 373.517 437.886 364.646C440.995 362.41 444.058 360.125 447.074 357.791C449.165 356.162 451.238 354.497 453.348 352.886C454.802 351.774 456.274 350.674 457.771 349.628V285.853H300.712C300.826 285.472 300.927 285.098 301.041 284.717C300.92 285.098 300.807 285.472 300.706 285.853H260.43V373.998C260.221 374.003 260.013 374.021 259.804 374.039Z" fill="#3C76F2"/>
<path opacity="0.1" d="M156.738 109.498H182.645V101.924H171.037V79.3616C170.03 79.7104 169.028 80.0671 168.029 80.4317V101.924H156.744L156.738 109.498Z" fill="#3C76F2"/>
<path opacity="0.1" d="M94.3156 198.523H221.513C221.5 198.525 221.487 198.525 221.475 198.523H221.532H245.113V115.675H238.428V176.912H207.883V140.645H182.64V112.031H156.733V140.663H131.502V176.929H94.3093L94.3156 198.523Z" fill="#3C76F2"/>
<path opacity="0.24" d="M245.113 201.067V283.308H94.3093V201.067H245.113ZM53.3952 380.109L53.1804 315.009H94.3093V285.877H245.113V428.878C232.75 429.362 220.369 429.221 208.022 428.456H207.807C201.91 428.1 196.04 427.592 190.197 426.934H190.064C158.884 423.519 128.397 415.857 99.5603 404.188" fill="#3C76F2"/>
<path opacity="0.1" d="M35.2036 285.853H0.0268288C0.330128 302.553 3.89391 318.956 11.6976 334.105C18.1807 346.691 27.1976 357.696 37.8574 367.309V314.991H35.2036V285.853Z" fill="#3C76F2"/>
<path opacity="0.1" d="M0.00113297 283.308H35.2031V214.575H16.152C6.30099 236.234 0.0327263 260.015 0.00113297 283.308Z" fill="#3C76F2"/>
<path opacity="0.1" d="M260.43 138.701H281.73V164.676H260.43V138.701Z" fill="#3C76F2"/>
<path opacity="0.1" d="M260.43 192.542H281.73V198.523H260.43V192.542Z" fill="#3C76F2"/>
<path opacity="0.1" d="M260.43 201.061H281.73V218.511H260.43V201.061Z" fill="#3C76F2"/>
<path opacity="0.1" d="M260.43 246.382H281.73V272.357H260.43V246.382Z" fill="#3C76F2"/>
<path opacity="0.1" d="M260.43 300.223H281.73V326.198H260.43V300.223Z" fill="#3C76F2"/>
<path opacity="0.1" d="M260.43 373.998C260.221 373.998 260.013 373.998 259.798 374.039C260.006 374.039 260.215 374.039 260.43 374.003V380.038H281.73V354.063H260.43V373.998Z" fill="#3C76F2"/>
<path opacity="0.1" d="M260.43 407.897V427.957C267.557 427.406 274.658 426.635 281.73 425.644V407.897H260.43Z" fill="#3C76F2"/>
<path opacity="0.1" d="M366.484 281.4H457.771V283.308H366.484V281.4Z" fill="#3C76F2"/>
<path opacity="0.1" d="M366.484 285.847H457.771V293.16H366.484V285.847Z" fill="#3C76F2"/>
<path opacity="0.1" d="M366.484 317.131H457.771V328.891H366.484V317.131Z" fill="#3C76F2"/>
<path opacity="0.1" d="M366.483 352.862V364.622H437.886C440.994 362.394 444.057 360.107 447.073 357.761C449.171 356.138 451.244 354.473 453.348 352.862H366.483Z" fill="#3C76F2"/>
<path opacity="0.1" d="M366.484 388.587V400.377H374.022C382.502 396.778 390.809 392.856 398.943 388.611L366.484 388.587Z" fill="#3C76F2"/>
<path opacity="0.1" d="M190.051 209.034H208.021V225.942H190.051V209.034Z" fill="#3C76F2"/>
<path opacity="0.1" d="M579.149 140.253H597.119V157.162H579.149V140.253Z" fill="#3C76F2"/>
<path opacity="0.1" d="M579.149 179.528H597.119V196.436H579.149V179.528Z" fill="#3C76F2"/>
<path opacity="0.1" d="M579.149 218.802H597.119V235.71H579.149V218.802Z" fill="#3C76F2"/>
<path opacity="0.1" d="M579.149 258.071H597.119V274.979H579.149V258.071Z" fill="#3C76F2"/>
<path opacity="0.1" d="M579.149 297.345H597.119V314.253H579.149V297.345Z" fill="#3C76F2"/>
<path opacity="0.1" d="M579.149 336.62H597.119V353.528H579.149V336.62Z" fill="#3C76F2"/>
<path opacity="0.1" d="M121.447 209.034H139.418V225.942H121.447V209.034Z" fill="#3C76F2"/>
<path opacity="0.1" d="M121.447 250.74H139.418V267.648H121.447V250.74Z" fill="#3C76F2"/>
<path opacity="0.1" d="M190.051 292.44H208.021V309.349H190.051V292.44Z" fill="#3C76F2"/>
<path opacity="0.1" d="M121.447 292.44H139.418V309.349H121.447V292.44Z" fill="#3C76F2"/>
<path opacity="0.1" d="M190.051 334.146H208.021V351.055H190.051V334.146Z" fill="#3C76F2"/>
<path opacity="0.1" d="M121.447 334.146H139.418V351.055H121.447V334.146Z" fill="#3C76F2"/>
<path opacity="0.1" d="M190.051 375.853H208.021V392.761H190.051V375.853Z" fill="#3C76F2"/>
<path opacity="0.1" d="M121.447 375.853H139.418V392.761H121.447V375.853Z" fill="#3C76F2"/>
<path opacity="0.1" d="M208.021 428.456V417.552H190.057V426.904L208.021 428.456Z" fill="#3C76F2"/>
<path opacity="0.1" d="M686.871 187.375V197.048H625.377V187.375H686.871ZM680.748 196.442H685.803V187.988H680.748V196.442ZM674.625 196.442H679.68V187.988H674.625V196.442ZM668.515 196.442H673.57V187.988H668.515V196.442ZM662.392 196.442H667.447V187.988H662.392V196.442ZM656.276 196.442H661.331V187.988H656.276V196.442ZM650.153 196.442H655.208V187.988H650.153V196.442ZM644.03 196.442H649.085V187.988H644.03V196.442ZM637.913 196.442H642.968V187.988H637.913V196.442ZM631.797 196.442H636.852V187.988H631.797V196.442ZM625.674 196.442H630.729V187.988H625.674V196.442Z" fill="#3C76F2"/>
<path opacity="0.1" d="M686.871 215.532V225.205H625.377V215.532H686.871ZM680.748 224.599H685.803V216.145H680.748V224.599ZM674.625 224.599H679.68V216.145H674.625V224.599ZM668.515 224.599H673.57V216.145H668.515V224.599ZM662.392 224.599H667.447V216.145H662.392V224.599ZM656.276 224.599H661.331V216.145H656.276V224.599ZM650.153 224.599H655.208V216.145H650.153V224.599ZM644.03 224.599H649.085V216.145H644.03V224.599ZM637.913 224.599H642.968V216.145H637.913V224.599ZM631.797 224.599H636.852V216.145H631.797V224.599ZM625.674 224.599H630.729V216.145H625.674V224.599Z" fill="#3C76F2"/>
<path opacity="0.1" d="M686.871 243.695V253.362H625.377V243.695H686.871ZM680.748 252.75H685.803V244.296H680.748V252.75ZM674.625 252.75H679.68V244.296H674.625V252.75ZM668.515 252.75H673.57V244.296H668.515V252.75ZM662.392 252.75H667.447V244.296H662.392V252.75ZM656.276 252.75H661.331V244.296H656.276V252.75ZM650.153 252.75H655.208V244.296H650.153V252.75ZM644.03 252.75H649.085V244.296H644.03V252.75ZM637.913 252.75H642.968V244.296H637.913V252.75ZM631.797 252.75H636.852V244.296H631.797V252.75ZM625.674 252.75H630.729V244.296H625.674V252.75Z" fill="#3C76F2"/>
<path opacity="0.1" d="M686.871 271.852V281.519H625.377V271.852H686.871ZM680.748 280.912H685.803V272.446H680.748V280.912ZM674.625 280.912H679.68V272.446H674.625V280.912ZM668.515 280.912H673.57V272.446H668.515V280.912ZM662.392 280.912H667.447V272.446H662.392V280.912ZM656.276 280.912H661.331V272.446H656.276V280.912ZM650.153 280.912H655.208V272.446H650.153V280.912ZM644.03 280.912H649.085V272.446H644.03V280.912ZM637.913 280.912H642.968V272.446H637.913V280.912ZM631.797 280.912H636.852V272.446H631.797V280.912ZM625.674 280.912H630.729V272.446H625.674V280.912Z" fill="#3C76F2"/>
<path opacity="0.1" d="M686.574 299.997C686.334 300.912 686.05 301.816 685.759 302.714V300.609H680.704V309.057H683.415C683.339 309.259 683.257 309.467 683.168 309.652H625.352V299.997H686.574ZM674.569 309.057H679.624V300.609H674.569V309.057ZM668.458 309.057H673.513V300.609H668.458V309.057ZM662.335 309.057H667.39V300.609H662.335V309.057ZM656.219 309.057H661.274V300.609H656.219V309.057ZM650.096 309.057H655.151V300.609H650.096V309.057ZM643.973 309.057H649.028V300.609H643.973V309.057ZM637.856 309.057H642.911V300.609H637.856V309.057ZM631.74 309.057H636.795V300.609H631.74V309.057ZM625.617 309.057H630.672V300.609H625.617V309.057Z" fill="#3C76F2"/>
<path opacity="0.1" d="M672.332 328.154C672.168 328.344 672.016 328.558 671.858 328.748H668.515V332.809L667.435 333.998V328.724H662.38V337.25H664.459C664.257 337.446 664.061 337.654 663.827 337.844H625.39V328.154H672.332ZM656.244 337.25H661.299V328.76H656.244V337.25ZM650.122 337.25H655.177V328.76H650.122V337.25ZM643.999 337.25H649.054V328.76H643.999V337.25ZM637.882 337.25H642.937V328.76H637.882V337.25ZM631.765 337.25H636.82V328.76H631.765V337.25ZM625.643 337.25H630.698V328.76H625.643V337.25Z" fill="#3C76F2"/>
<path opacity="0.1" d="M638.596 356.31C638.014 356.619 637.427 356.905 636.839 357.208V356.911H631.784V359.592C631.418 359.741 631.07 359.901 630.71 360.056V356.911H625.655V362.059C625.559 362.1 625.459 362.134 625.358 362.16V356.31H638.596Z" fill="#3C76F2"/>
<path opacity="0.1" d="M260.435 373.998H259.804H260.435ZM301.046 284.717C300.926 285.098 300.819 285.478 300.711 285.853C300.806 285.478 300.92 285.098 301.046 284.717ZM603.166 109.498V112.031H574.94V109.486L603.166 109.498ZM260.429 373.998H259.797H260.429ZM301.046 284.717C300.926 285.098 300.819 285.478 300.711 285.853C300.806 285.478 300.92 285.098 301.046 284.717ZM260.435 373.998H259.804H260.435ZM301.046 284.717C300.926 285.098 300.819 285.478 300.711 285.853C300.806 285.478 300.92 285.098 301.046 284.717Z" fill="#3C76F2"/>
<g opacity="0.1">
<path opacity="0.1" d="M410.407 193.82C411.695 196.685 412.247 199.795 412.018 202.898C411.876 200.679 411.331 198.5 410.407 196.454C408.922 193.19 406.52 190.348 405.055 187.078C403.856 184.348 403.352 181.392 403.582 178.446C403.713 180.511 404.21 182.54 405.055 184.45C406.52 187.72 408.922 190.556 410.407 193.82Z" fill="black"/>
<path opacity="0.1" d="M475.837 198.41C475.799 200.74 475.761 203.077 475.755 205.407C475.755 202.197 475.787 198.992 475.837 195.788C475.888 192.465 475.951 189.099 476.905 185.895C477.537 183.862 478.472 181.799 478.801 179.748C479.363 182.661 477.765 185.616 476.905 188.523C475.951 191.698 475.888 195.086 475.837 198.41Z" fill="black"/>
</g>
<path opacity="0.1" d="M420.285 304.172L425.271 303.853L425.582 308.147L420.595 308.467L420.285 304.172Z" fill="black"/>
<g opacity="0.1">
<path opacity="0.1" d="M439.82 176.537C439.788 176.133 439.738 175.728 439.675 175.348L439.605 173.707C439.795 174.639 439.867 175.589 439.82 176.537Z" fill="black"/>
<path opacity="0.1" d="M420.649 183.63C422.374 184.498 424.573 183.772 426.039 182.56C427.505 181.347 428.497 179.712 429.792 178.333C429.888 178.582 429.901 178.853 429.83 179.11C429.759 179.367 429.607 179.597 429.394 179.771C429.52 179.771 429.64 179.712 429.76 179.682C428.497 181.05 427.492 182.655 426.039 183.844C424.585 185.033 422.374 185.782 420.649 184.914C418.924 184.046 418.431 182.013 418.582 180.033C418.696 181.591 419.29 182.94 420.649 183.63Z" fill="black"/>
<path opacity="0.1" d="M429.798 179.67C431.911 179.128 433.798 177.992 435.205 176.413C436.612 174.834 437.473 172.888 437.671 170.835C438.032 175.502 434.291 180.181 429.394 181.079C429.602 180.909 429.752 180.684 429.824 180.433C429.896 180.182 429.887 179.916 429.798 179.67Z" fill="black"/>
</g>
<g opacity="0.1">
<path opacity="0.1" d="M164.964 180.455C165.741 181.091 166.74 181.537 167.258 182.375C167.7 183.095 167.713 183.987 168.067 184.753C168.42 185.52 169.45 186.157 170.171 185.669C170.335 180.318 173.134 175.294 176.578 171.014C177.541 169.724 178.711 168.583 180.047 167.631C181.398 166.672 183.082 166.223 184.767 166.371C186.663 166.614 188.331 167.827 190.245 167.982C192.773 168.178 195.041 166.531 197.55 166.454C198.569 166.461 199.575 166.674 200.499 167.078C201.424 167.482 202.245 168.068 202.908 168.796C204.227 170.26 205.207 171.967 205.783 173.808C206.776 176.602 207.317 179.52 207.388 182.465C207.426 184.123 207.59 186.192 209.221 186.811C209.183 187.252 209.183 187.695 209.221 188.136C207.572 187.542 207.407 185.443 207.369 183.778C207.298 180.834 206.757 177.916 205.764 175.122C205.188 173.281 204.208 171.574 202.889 170.11C202.226 169.382 201.404 168.796 200.48 168.391C199.556 167.986 198.55 167.771 197.531 167.762C195.003 167.845 192.729 169.492 190.226 169.29C188.331 169.141 186.65 167.928 184.748 167.685C183.064 167.535 181.38 167.982 180.028 168.939C178.692 169.893 177.522 171.036 176.559 172.328C173.115 176.608 170.316 181.614 170.152 186.983C169.431 187.47 168.401 186.828 168.048 186.067C167.694 185.306 167.681 184.415 167.239 183.689C166.721 182.851 165.722 182.399 164.945 181.769C162.974 180.17 162.481 177.476 162.557 175.033C162.557 174.956 162.557 174.884 162.557 174.807C162.683 176.935 163.283 179.094 164.964 180.455Z" fill="black"/>
<path opacity="0.1" d="M211.616 180.039C213.063 178.535 215.047 177.524 216.38 175.931C217.506 174.524 218.148 172.827 218.219 171.068C218.417 173.268 217.764 175.461 216.38 177.245C215.047 178.838 213.063 179.843 211.616 181.347C210.218 182.817 209.378 184.682 209.228 186.65C209.132 185.454 209.295 184.251 209.705 183.115C210.116 181.979 210.766 180.933 211.616 180.039Z" fill="black"/>
<path opacity="0.1" d="M161.331 162.084C161.704 163.541 162.367 164.926 162.671 166.395C162.853 167.388 162.919 168.396 162.867 169.403C162.846 168.834 162.78 168.268 162.671 167.708C162.367 166.24 161.704 164.855 161.331 163.398C161.117 162.594 161.046 161.762 161.123 160.937C161.163 161.323 161.233 161.707 161.331 162.084Z" fill="black"/>
</g>
</g>
<path opacity="0.1" d="M633.109 457.737C601.123 457.737 575.193 453.571 575.193 448.433C575.193 443.294 601.123 439.128 633.109 439.128C665.095 439.128 691.025 443.294 691.025 448.433C691.025 453.571 665.095 457.737 633.109 457.737Z" fill="#3C76F2"/>
<path d="M631.242 270.188H634.969V354.117H631.242V270.188Z" fill="#535461"/>
<path d="M607.818 353.867L608.056 357.649L608.383 362.999L608.52 365.223L608.852 370.574L608.995 372.797L609.322 378.148L613.084 438.831C613.245 441.442 614.395 443.894 616.3 445.686C618.205 447.478 620.722 448.475 623.337 448.475H642.875C645.497 448.476 648.02 447.473 649.927 445.672C651.834 443.871 652.979 441.409 653.128 438.79L656.89 378.106L657.217 372.756L657.354 370.532L657.692 365.181L657.829 362.958L658.156 357.607L658.394 353.826C658.435 353.101 658.328 352.376 658.08 351.693C657.832 351.011 657.448 350.387 656.951 349.858C656.453 349.329 655.854 348.906 655.189 348.617C654.523 348.327 653.806 348.176 653.08 348.172H613.126C612.397 348.176 611.677 348.329 611.009 348.622C610.341 348.915 609.741 349.341 609.244 349.874C608.746 350.407 608.364 351.037 608.119 351.724C607.873 352.41 607.771 353.14 607.818 353.867Z" fill="#3F3D56"/>
<path d="M608.056 357.643L608.389 362.981H657.829L658.162 357.643H608.056Z" fill="#9D9CB5"/>
<path d="M608.525 365.205L608.851 370.544H657.359L657.691 365.205H608.525Z" fill="#9D9CB5"/>
<path d="M608.995 372.773L609.322 378.106H656.89L657.223 372.773H608.995Z" fill="#9D9CB5"/>
<path d="M663.826 301.65C642.119 317.358 633.079 341.923 633.079 341.923C633.079 341.923 659.231 341.026 680.944 325.318C702.657 309.611 711.709 285.063 711.709 285.063C711.709 285.063 685.556 285.943 663.826 301.65Z" fill="#1448B6"/>
<path d="M711.709 285.063C711.709 285.063 684.564 300.134 675.856 312.613C667.149 325.092 633.103 341.935 633.103 341.935" stroke="#535461" stroke-width="2" stroke-miterlimit="10"/>
<path d="M649.841 270.009C638.025 278.553 633.103 291.924 633.103 291.924C633.103 291.924 647.368 291.436 659.155 282.893C670.941 274.349 675.893 260.972 675.893 260.972C675.893 260.972 661.651 261.46 649.841 270.009Z" fill="#1448B6"/>
<path d="M675.893 260.972C675.893 260.972 661.116 269.177 656.373 275.966C651.63 282.756 633.103 291.924 633.103 291.924" stroke="#535461" stroke-width="2" stroke-miterlimit="10"/>
<path d="M615.936 291.246C629.506 306.163 632.377 325.657 632.377 325.657C632.377 325.657 613.244 320.96 599.686 306.038C586.129 291.115 583.246 271.626 583.246 271.626C583.246 271.626 602.367 276.329 615.936 291.246Z" fill="#1448B6"/>
<path d="M583.234 271.632C583.234 271.632 600.911 286.924 605.404 297.459C609.898 307.994 632.377 325.657 632.377 325.657" stroke="#535461" stroke-width="2" stroke-miterlimit="10"/>
<path d="M244 300H343L377 374H424L430 382H282L244 300Z" fill="#BAE4FD"/>
<rect width="481" height="10" transform="matrix(-1 0 0 1 592 380)" fill="#9A552C"/>
<rect width="399" height="4" transform="matrix(-1 0 0 1 608 412)" fill="#DCAF54"/>
<rect width="261" height="4" transform="matrix(-1 0 0 1 649 432)" fill="#3C76F2"/>
</svg>
