<svg width="706" height="513" viewBox="0 0 706 513" fill="none" xmlns="http://www.w3.org/2000/svg">
<g clip-path="url(#clip0)">
<path opacity="0.1" d="M660.577 201.069H600.26V283.31H656.167C656.31 284.161 656.453 285.005 656.613 285.855H600.26V352.169C600.355 352.169 600.45 352.097 600.539 352.061C602.124 351.431 603.71 350.763 605.295 350.058C605.633 349.903 605.966 349.743 606.311 349.594C607.896 348.845 609.481 348.052 611.066 347.216C611.619 346.925 612.171 346.622 612.712 346.312C621.512 341.401 629.509 335.174 636.428 327.846C636.636 327.65 636.826 327.436 637.022 327.252C637.985 326.205 638.93 325.147 639.846 324.065C640.19 323.667 640.523 323.263 640.862 322.876C641.944 321.556 642.99 320.189 644 318.816C644.155 318.607 644.298 318.405 644.446 318.221C648.585 312.492 652.018 306.284 654.669 299.731C654.753 299.535 654.83 299.321 654.907 299.137C655.727 297.056 656.47 294.945 657.112 292.793C657.386 291.895 657.653 291.009 657.879 290.076C657.962 289.809 658.028 289.535 658.099 289.267C661.439 276.099 661.826 262.413 661.826 248.792C661.826 247.207 661.826 245.621 661.826 244.036C661.778 238.475 661.713 232.92 661.63 227.371C661.598 225.944 661.568 224.512 661.54 223.073C661.457 219.43 661.338 215.78 661.184 212.122C661.148 211.111 661.101 210.094 661.047 209.09C661.023 208.507 660.994 207.924 660.958 207.342C660.851 205.237 660.724 203.146 660.577 201.069Z" fill="#3C76F2"/>
<path opacity="0.1" d="M600.26 109.5H633.349C627.968 101.085 622.091 92.9967 615.75 85.2792C610.828 79.2388 605.645 73.3529 600.26 67.6812V109.5Z" fill="#3C76F2"/>
<path opacity="0.1" d="M600.261 112.033V198.525H660.388C660.388 198.275 660.352 198.019 660.328 197.77C660.275 197.086 660.221 196.408 660.162 195.724C660.102 194.928 660.025 194.131 659.948 193.346C659.871 192.561 659.793 191.61 659.698 190.748C659.603 189.886 659.526 189.012 659.431 188.15C659.336 187.288 659.241 186.426 659.134 185.57C659.027 184.714 658.931 183.846 658.813 182.99C658.723 182.282 658.634 181.569 658.533 180.855C658.397 179.85 658.254 178.846 658.105 177.847C658.105 177.692 658.058 177.544 658.034 177.395C656.948 170.084 655.472 162.836 653.612 155.683C651.659 148.18 649.166 140.828 646.152 133.685C642.95 126.201 639.199 118.964 634.931 112.033H600.261Z" fill="#3C76F2"/>
<path d="M585.853 201.069V283.31H457.015V201.069H585.853ZM585.853 285.855V356.485C585.116 356.633 584.39 356.782 583.659 356.907C582.679 357.097 581.692 357.27 580.687 357.418L580.093 357.501C579.701 357.567 579.303 357.62 578.904 357.668C577.912 357.811 576.919 357.918 575.932 358.013C575.469 358.06 574.987 358.096 574.518 358.138L573.371 358.221C572.747 358.268 572.128 358.304 571.51 358.328C571.13 358.328 570.749 358.358 570.363 358.369C569.977 358.381 569.769 358.369 569.46 358.369H568.336C567.825 358.369 567.314 358.369 566.809 358.369H566.155C565.644 358.369 565.133 358.369 564.627 358.322H564.598C564.241 358.322 563.89 358.322 563.534 358.28C563.433 358.286 563.332 358.286 563.231 358.28C562.933 358.28 562.636 358.28 562.351 358.245C562.284 358.239 562.216 358.239 562.149 358.245C561.489 358.203 560.823 358.149 560.152 358.09C559.48 358.031 558.844 357.959 558.172 357.888L556.823 357.721C551.31 356.949 545.858 355.789 540.508 354.249C528.483 350.896 516.732 346.205 504.714 342.775C489.189 338.346 472.023 336.164 457.021 341.556V285.855H585.853ZM457.015 109.5V0.0119749C471.119 -0.143239 485.185 1.50506 498.871 4.91683C531.497 13.1154 560.794 30.8977 585.853 53.6086V109.494H579.368V112.033H585.853V198.525H457.015V112.033H552.841V109.488L457.015 109.5ZM291.493 72.5146C299.565 72.2292 307.589 69.6787 314.852 65.7251C328.725 58.1806 339.816 46.5159 352.203 36.6824C377.94 16.1891 409.858 3.81695 442.602 0.749189V109.5H258.696L258.238 109.019L291.493 72.5146ZM274.738 69.542L256.972 89.0484V64.4112C262.952 65.1663 268.158 66.9201 274.738 69.5182V69.542ZM256.972 374.023V285.855H294.858C294.953 285.48 295.06 285.1 295.179 284.719C295.066 285.1 294.965 285.48 294.864 285.855H442.602V349.612C441.199 350.652 439.814 351.752 438.441 352.858C436.959 354.071 435.487 355.298 434.025 356.538L432.551 357.757C431.844 358.352 431.124 358.946 430.411 359.511C428.981 360.664 427.54 361.806 426.09 362.935C425.365 363.506 424.636 364.067 423.903 364.618C412.293 373.493 400.048 381.503 387.265 388.583C384.4 390.183 381.506 391.722 378.593 393.227C376.656 394.225 374.704 395.204 372.739 396.164C369.791 397.602 366.819 398.99 363.823 400.325C336.205 412.726 307 421.233 277.044 425.605C270.395 426.584 263.716 427.356 257.008 427.923V374.011H256.413L256.972 374.023ZM442.602 112.033V198.525H256.972V112.033H442.602ZM442.602 201.057V283.31H256.972V201.069L442.602 201.057ZM242.564 64.2923V91.8189L219.895 66.9261C227.408 65.6855 234.964 64.8076 242.564 64.2923ZM242.564 201.069V283.31H62.0225V201.069H242.564ZM62.6585 380.545L62.0225 285.855H242.564V428.88C230.935 429.364 219.289 429.223 207.674 428.458H207.472C201.925 428.102 196.403 427.594 190.907 426.936H190.782C161.453 423.521 132.775 415.859 105.65 404.19L62.6585 380.545ZM27.192 214.577C27.8775 212.992 28.5809 211.406 29.3021 209.821C30.6454 206.848 32.06 203.959 33.5222 201.075H47.6089V283.31H11.9998C12.0295 260.017 17.9257 236.236 27.192 214.577ZM47.6089 285.855V367.305C37.5817 357.692 29.1 346.687 23.0016 334.107C15.6611 318.952 12.3029 302.555 12.0236 285.849L47.6089 285.855ZM47.6089 177.104V198.507H34.8417C38.7119 191.149 42.9738 184.005 47.6089 177.104ZM170.05 80.4337C170.99 80.0711 171.935 79.7084 172.88 79.3636C182.844 75.6799 193.028 72.6182 203.371 70.196L238.071 108.281L238.749 109.013L238.303 109.494H114.803C132.004 97.6549 150.55 87.8998 170.05 80.4337ZM111.177 112.033H240.032L242.564 114.346V198.525H220.364H62.0225V157.74C76.3402 140.421 92.866 125.055 111.177 112.033Z" fill="#F8FBFF"/>
<path opacity="0.1" d="M600.261 155.665V198.525H660.388C660.388 198.275 660.352 198.019 660.328 197.769C660.275 197.086 660.221 196.408 660.162 195.724C660.102 194.928 660.025 194.131 659.948 193.346C659.871 192.561 659.793 191.61 659.698 190.748C659.603 189.886 659.526 189.012 659.431 188.15C659.336 187.288 659.241 186.426 659.134 185.57C659.027 184.714 658.931 183.846 658.813 182.99C658.723 182.282 658.634 181.569 658.533 180.855C658.397 179.85 658.254 178.846 658.105 177.847C658.105 177.692 658.058 177.544 658.034 177.395C656.948 170.084 655.472 162.836 653.612 155.683L600.261 155.665Z" fill="#3C76F2"/>
<path opacity="0.1" d="M660.577 201.069H600.26V283.31H656.167C656.31 284.161 656.453 285.005 656.613 285.855H600.26V352.169C600.355 352.169 600.45 352.097 600.539 352.061C602.124 351.431 603.71 350.763 605.295 350.058C605.633 349.903 605.966 349.743 606.311 349.594C607.896 348.845 609.481 348.052 611.066 347.216C611.619 346.925 612.171 346.622 612.712 346.312C621.512 341.401 629.509 335.174 636.428 327.846C636.636 327.65 636.826 327.436 637.022 327.252C637.985 326.205 638.93 325.147 639.846 324.065C640.19 323.667 640.523 323.263 640.862 322.876C641.944 321.556 642.99 320.189 644 318.816C644.155 318.607 644.298 318.405 644.446 318.221C648.585 312.492 652.018 306.284 654.669 299.731C654.753 299.535 654.83 299.321 654.907 299.137C655.727 297.056 656.47 294.945 657.112 292.793C657.386 291.895 657.653 291.009 657.879 290.076C657.962 289.809 658.028 289.535 658.099 289.267C661.439 276.099 661.826 262.413 661.826 248.792C661.826 247.207 661.826 245.621 661.826 244.036C661.778 238.475 661.713 232.92 661.63 227.371C661.598 225.944 661.568 224.512 661.54 223.073C661.457 219.43 661.338 215.78 661.184 212.122C661.148 211.111 661.101 210.094 661.047 209.09C661.023 208.507 660.994 207.924 660.958 207.342C660.851 205.237 660.724 203.146 660.577 201.069Z" fill="#3C76F2"/>
<path opacity="0.24" d="M540.502 124.423V198.525H585.859V124.423H579.392V99.3337H552.847V124.423H540.502Z" fill="#3C76F2"/>
<path opacity="0.24" d="M540.508 201.063H585.859V283.304H540.508V201.063Z" fill="#3C76F2"/>
<path opacity="0.24" d="M585.853 285.855H540.502V354.225C545.851 355.766 551.303 356.924 556.817 357.692C557.269 357.757 557.715 357.81 558.166 357.858C558.832 357.935 559.492 358.007 560.152 358.066L562.143 358.227H562.345L563.225 358.274H563.528C563.884 358.274 564.235 358.316 564.592 358.322H564.621C565.133 358.322 565.638 358.357 566.149 358.369H566.803C567.308 358.369 567.813 358.369 568.33 358.369H569.448H570.357C570.743 358.369 571.124 358.369 571.51 358.322C572.12 358.298 572.739 358.262 573.365 358.215L574.512 358.131C574.987 358.096 575.463 358.048 575.932 358.001C576.931 357.913 577.922 357.801 578.904 357.662L580.093 357.495L580.687 357.412C581.68 357.263 582.667 357.097 583.659 356.907C584.396 356.776 585.121 356.627 585.853 356.473V285.855Z" fill="#3C76F2"/>
<path opacity="0.1" d="M256.978 115.671H294.376V198.519H256.978V115.671Z" fill="#3C76F2"/>
<path opacity="0.24" d="M256.972 201.063V283.31H442.602V247.835H343.728V268.762H294.376V201.063H256.972Z" fill="#3C76F2"/>
<path opacity="0.1" d="M256.384 374.041C256.58 374.041 256.776 374.041 256.978 374.005V427.959C263.679 427.408 270.356 426.637 277.009 425.646C306.975 421.276 336.191 412.773 363.823 400.379C371.8 396.78 379.614 392.858 387.266 388.613C400.044 381.529 412.287 373.519 423.897 364.648C426.821 362.412 429.702 360.127 432.539 357.793C434.507 356.164 436.456 354.499 438.441 352.888C439.808 351.776 441.193 350.676 442.602 349.63V285.855H294.864C294.971 285.474 295.066 285.1 295.173 284.719C295.06 285.1 294.953 285.474 294.858 285.855H256.972V373.999C256.776 374.005 256.58 374.023 256.384 374.041Z" fill="#3C76F2"/>
<path opacity="0.1" d="M159.435 109.5H183.805V101.926H172.886V79.3635C171.939 79.7123 170.996 80.069 170.057 80.4337V101.926H159.441L159.435 109.5Z" fill="#3C76F2"/>
<path opacity="0.1" d="M100.716 198.525H220.365C220.353 198.527 220.341 198.527 220.329 198.525H220.382H242.564V115.677H236.276V176.914H207.544V140.647H183.798V112.033H159.429V140.665H135.696V176.931H100.711L100.716 198.525Z" fill="#3C76F2"/>
<path opacity="0.24" d="M242.564 201.069V283.31H100.711V201.069H242.564ZM62.2247 380.111L62.0226 315.011H100.711V285.879H242.564V428.88C230.935 429.364 219.289 429.223 207.675 428.458H207.472C201.925 428.102 196.403 427.594 190.907 426.936H190.782C161.453 423.521 132.775 415.859 105.65 404.19" fill="#3C76F2"/>
<path opacity="0.1" d="M45.113 285.855H12.024C12.3093 302.555 15.6616 318.958 23.0021 334.107C29.1004 346.693 37.5822 357.697 47.6094 367.311V314.993H45.113V285.855Z" fill="#3C76F2"/>
<path opacity="0.1" d="M12 283.31H45.1128V214.577H27.1923C17.926 236.236 12.0297 260.017 12 283.31Z" fill="#3C76F2"/>
<path opacity="0.1" d="M256.972 138.703H277.009V164.678H256.972V138.703Z" fill="#3C76F2"/>
<path opacity="0.1" d="M256.972 192.544H277.009V198.525H256.972V192.544Z" fill="#3C76F2"/>
<path opacity="0.1" d="M256.972 201.063H277.009V218.513H256.972V201.063Z" fill="#3C76F2"/>
<path opacity="0.1" d="M256.972 246.384H277.009V272.359H256.972V246.384Z" fill="#3C76F2"/>
<path opacity="0.1" d="M256.972 300.225H277.009V326.2H256.972V300.225Z" fill="#3C76F2"/>
<path opacity="0.1" d="M256.972 373.999C256.776 373.999 256.58 373.999 256.378 374.041C256.574 374.041 256.77 374.041 256.972 374.005V380.04H277.009V354.065H256.972V373.999Z" fill="#3C76F2"/>
<path opacity="0.1" d="M256.972 407.899V427.959C263.677 427.408 270.356 426.637 277.009 425.646V407.899H256.972Z" fill="#3C76F2"/>
<path opacity="0.1" d="M356.732 281.402H442.602V283.31H356.732V281.402Z" fill="#3C76F2"/>
<path opacity="0.1" d="M356.732 285.849H442.602V293.162H356.732V285.849Z" fill="#3C76F2"/>
<path opacity="0.1" d="M356.732 317.133H442.602V328.893H356.732V317.133Z" fill="#3C76F2"/>
<path opacity="0.1" d="M356.732 352.864V364.624H423.897C426.821 362.396 429.702 360.109 432.539 357.763C434.513 356.14 436.462 354.475 438.441 352.864H356.732Z" fill="#3C76F2"/>
<path opacity="0.1" d="M356.733 388.589V400.379H363.823C371.8 396.78 379.614 392.858 387.266 388.613L356.733 388.589Z" fill="#3C76F2"/>
<path opacity="0.1" d="M190.771 209.036H207.675V225.944H190.771V209.036Z" fill="#3C76F2"/>
<path opacity="0.1" d="M556.776 130.255H573.68V147.163H556.776V130.255Z" fill="#3C76F2"/>
<path opacity="0.1" d="M556.776 169.53H573.68V186.438H556.776V169.53Z" fill="#3C76F2"/>
<path opacity="0.1" d="M556.776 208.804H573.68V225.712H556.776V208.804Z" fill="#3C76F2"/>
<path opacity="0.1" d="M556.776 248.073H573.68V264.981H556.776V248.073Z" fill="#3C76F2"/>
<path opacity="0.1" d="M556.776 287.347H573.68V304.255H556.776V287.347Z" fill="#3C76F2"/>
<path opacity="0.1" d="M556.776 326.622H573.68V343.53H556.776V326.622Z" fill="#3C76F2"/>
<path opacity="0.1" d="M126.239 209.036H143.143V225.944H126.239V209.036Z" fill="#3C76F2"/>
<path opacity="0.1" d="M126.239 250.742H143.143V267.65H126.239V250.742Z" fill="#3C76F2"/>
<path opacity="0.1" d="M190.771 292.442H207.675V309.35H190.771V292.442Z" fill="#3C76F2"/>
<path opacity="0.1" d="M126.239 292.442H143.143V309.35H126.239V292.442Z" fill="#3C76F2"/>
<path opacity="0.1" d="M190.771 334.148H207.675V351.057H190.771V334.148Z" fill="#3C76F2"/>
<path opacity="0.1" d="M126.239 334.148H143.143V351.057H126.239V334.148Z" fill="#3C76F2"/>
<path opacity="0.1" d="M190.771 375.854H207.675V392.763H190.771V375.854Z" fill="#3C76F2"/>
<path opacity="0.1" d="M126.239 375.854H143.143V392.763H126.239V375.854Z" fill="#3C76F2"/>
<path opacity="0.1" d="M207.675 428.458V417.554H190.777V426.906L207.675 428.458Z" fill="#3C76F2"/>
<path opacity="0.1" d="M658.105 177.377V187.05H600.26V177.377H658.105ZM652.345 186.444H657.1V177.99H652.345V186.444ZM646.586 186.444H651.341V177.99H646.586V186.444ZM640.838 186.444H645.593V177.99H640.838V186.444ZM635.079 186.444H639.834V177.99H635.079V186.444ZM629.325 186.444H634.08V177.99H629.325V186.444ZM623.566 186.444H628.321V177.99H623.566V186.444ZM617.806 186.444H622.561V177.99H617.806V186.444ZM612.053 186.444H616.808V177.99H612.053V186.444ZM606.299 186.444H611.054V177.99H606.299V186.444ZM600.54 186.444H605.295V177.99H600.54V186.444Z" fill="#3C76F2"/>
<path opacity="0.1" d="M658.105 205.534V215.207H600.26V205.534H658.105ZM652.345 214.601H657.1V206.147H652.345V214.601ZM646.586 214.601H651.341V206.147H646.586V214.601ZM640.838 214.601H645.593V206.147H640.838V214.601ZM635.079 214.601H639.834V206.147H635.079V214.601ZM629.325 214.601H634.08V206.147H629.325V214.601ZM623.566 214.601H628.321V206.147H623.566V214.601ZM617.806 214.601H622.561V206.147H617.806V214.601ZM612.053 214.601H616.808V206.147H612.053V214.601ZM606.299 214.601H611.054V206.147H606.299V214.601ZM600.54 214.601H605.295V206.147H600.54V214.601Z" fill="#3C76F2"/>
<path opacity="0.1" d="M658.105 233.697V243.364H600.26V233.697H658.105ZM652.345 242.752H657.1V234.297H652.345V242.752ZM646.586 242.752H651.341V234.297H646.586V242.752ZM640.838 242.752H645.593V234.297H640.838V242.752ZM635.079 242.752H639.834V234.297H635.079V242.752ZM629.325 242.752H634.08V234.297H629.325V242.752ZM623.566 242.752H628.321V234.297H623.566V242.752ZM617.806 242.752H622.561V234.297H617.806V242.752ZM612.053 242.752H616.808V234.297H612.053V242.752ZM606.299 242.752H611.054V234.297H606.299V242.752ZM600.54 242.752H605.295V234.297H600.54V242.752Z" fill="#3C76F2"/>
<path opacity="0.1" d="M658.105 261.854V271.521H600.26V261.854H658.105ZM652.345 270.914H657.1V262.448H652.345V270.914ZM646.586 270.914H651.341V262.448H646.586V270.914ZM640.838 270.914H645.593V262.448H640.838V270.914ZM635.079 270.914H639.834V262.448H635.079V270.914ZM629.325 270.914H634.08V262.448H629.325V270.914ZM623.566 270.914H628.321V262.448H623.566V270.914ZM617.806 270.914H622.561V262.448H617.806V270.914ZM612.053 270.914H616.808V262.448H612.053V270.914ZM606.299 270.914H611.054V262.448H606.299V270.914ZM600.54 270.914H605.295V262.448H600.54V270.914Z" fill="#3C76F2"/>
<path opacity="0.1" d="M657.826 289.999C657.6 290.914 657.332 291.818 657.059 292.716V290.611H652.304V299.059H654.854C654.782 299.261 654.705 299.469 654.622 299.654H600.237V289.999H657.826ZM646.533 299.059H651.288V290.611H646.533V299.059ZM640.785 299.059H645.54V290.611H640.785V299.059ZM635.025 299.059H639.78V290.611H635.025V299.059ZM629.272 299.059H634.027V290.611H629.272V299.059ZM623.512 299.059H628.267V290.611H623.512V299.059ZM617.753 299.059H622.508V290.611H617.753V299.059ZM611.999 299.059H616.754V290.611H611.999V299.059ZM606.246 299.059H611.001V290.611H606.246V299.059ZM600.486 299.059H605.241V290.611H600.486V299.059Z" fill="#3C76F2"/>
<path opacity="0.1" d="M644.429 318.156C644.274 318.346 644.132 318.56 643.983 318.75H640.839V322.811L639.822 324V318.726H635.067V327.252H637.023C636.833 327.448 636.648 327.656 636.428 327.846H600.272V318.156H644.429ZM629.296 327.252H634.051V318.762H629.296V327.252ZM623.536 327.252H628.291V318.762H623.536V327.252ZM617.777 327.252H622.532V318.762H617.777V327.252ZM612.023 327.252H616.778V318.762H612.023V327.252ZM606.27 327.252H611.025V318.762H606.27V327.252ZM600.51 327.252H605.265V318.762H600.51V327.252Z" fill="#3C76F2"/>
<path opacity="0.1" d="M612.695 346.312C612.148 346.621 611.595 346.907 611.042 347.21V346.913H606.287V349.594C605.943 349.743 605.616 349.903 605.277 350.058V346.913H600.522V352.061C600.432 352.102 600.338 352.136 600.243 352.162V346.312H612.695Z" fill="#3C76F2"/>
<path opacity="0.1" d="M256.978 374H256.384H256.978ZM295.179 284.719C295.066 285.1 294.965 285.48 294.864 285.855C294.953 285.48 295.06 285.1 295.179 284.719ZM579.368 109.5V112.033H552.817V109.488L579.368 109.5ZM256.972 374H256.378H256.972ZM295.179 284.719C295.066 285.1 294.965 285.48 294.864 285.855C294.953 285.48 295.06 285.1 295.179 284.719ZM256.978 374H256.384H256.978ZM295.179 284.719C295.066 285.1 294.965 285.48 294.864 285.855C294.953 285.48 295.06 285.1 295.179 284.719Z" fill="#3C76F2"/>
<g opacity="0.1">
<path opacity="0.1" d="M398.048 193.822C399.26 196.687 399.779 199.797 399.563 202.9C399.43 200.681 398.918 198.502 398.048 196.456C396.651 193.192 394.392 190.35 393.013 187.08C391.886 184.35 391.412 181.394 391.628 178.448C391.751 180.512 392.219 182.542 393.013 184.452C394.392 187.722 396.651 190.558 398.048 193.822Z" fill="black"/>
<path opacity="0.1" d="M459.595 198.412C459.56 200.742 459.524 203.079 459.518 205.409C459.518 202.199 459.548 198.994 459.595 195.79C459.643 192.466 459.702 189.101 460.6 185.897C461.194 183.864 462.074 181.801 462.383 179.75C462.912 182.663 461.408 185.618 460.6 188.525C459.702 191.7 459.643 195.088 459.595 198.412Z" fill="black"/>
</g>
<path opacity="0.1" d="M407.34 304.174L412.031 303.855L412.323 308.149L407.632 308.468L407.34 304.174Z" fill="black"/>
<g opacity="0.1">
<path opacity="0.1" d="M425.716 176.539C425.686 176.135 425.639 175.73 425.579 175.35L425.514 173.709C425.692 174.641 425.76 175.591 425.716 176.539Z" fill="black"/>
<path opacity="0.1" d="M407.683 183.632C409.305 184.5 411.374 183.774 412.753 182.562C414.132 181.349 415.065 179.714 416.283 178.334C416.373 178.584 416.386 178.855 416.319 179.112C416.252 179.369 416.109 179.599 415.909 179.773C416.028 179.773 416.141 179.714 416.253 179.684C415.065 181.051 414.12 182.657 412.753 183.846C411.386 185.035 409.305 185.784 407.683 184.916C406.06 184.048 405.596 182.015 405.739 180.035C405.846 181.592 406.405 182.942 407.683 183.632Z" fill="black"/>
<path opacity="0.1" d="M416.289 179.672C418.276 179.13 420.051 177.994 421.375 176.415C422.698 174.836 423.508 172.89 423.695 170.837C424.034 175.504 420.515 180.183 415.908 181.081C416.105 180.911 416.246 180.686 416.313 180.435C416.381 180.184 416.373 179.918 416.289 179.672Z" fill="black"/>
</g>
<g opacity="0.1">
<path opacity="0.1" d="M167.174 180.457C167.905 181.093 168.844 181.539 169.332 182.377C169.748 183.097 169.76 183.988 170.092 184.755C170.425 185.522 171.394 186.158 172.072 185.671C172.226 180.32 174.859 175.296 178.099 171.016C179.005 169.726 180.105 168.585 181.362 167.633C182.633 166.674 184.217 166.225 185.802 166.373C187.585 166.616 189.154 167.829 190.955 167.984C193.333 168.18 195.466 166.533 197.826 166.456C198.785 166.463 199.731 166.676 200.6 167.08C201.47 167.484 202.243 168.07 202.866 168.798C204.107 170.262 205.028 171.969 205.571 173.81C206.505 176.604 207.014 179.522 207.081 182.466C207.116 184.125 207.271 186.194 208.804 186.812C208.769 187.254 208.769 187.697 208.804 188.138C207.253 187.544 207.098 185.445 207.063 183.78C206.996 180.836 206.487 177.918 205.553 175.124C205.011 173.283 204.089 171.576 202.849 170.112C202.224 169.384 201.452 168.798 200.582 168.393C199.713 167.988 198.767 167.773 197.808 167.764C195.431 167.847 193.291 169.494 190.937 169.292C189.154 169.143 187.573 167.93 185.784 167.686C184.199 167.537 182.616 167.984 181.344 168.941C180.087 169.895 178.987 171.038 178.081 172.33C174.842 176.61 172.208 181.616 172.054 186.985C171.376 187.472 170.408 186.83 170.075 186.069C169.742 185.308 169.73 184.417 169.314 183.691C168.826 182.853 167.887 182.401 167.156 181.771C165.302 180.172 164.838 177.478 164.91 175.035C164.91 174.958 164.91 174.886 164.91 174.809C165.028 176.937 165.593 179.095 167.174 180.457Z" fill="black"/>
<path opacity="0.1" d="M211.057 180.041C212.418 178.537 214.284 177.526 215.538 175.933C216.598 174.526 217.201 172.829 217.268 171.069C217.455 173.27 216.84 175.463 215.538 177.246C214.284 178.84 212.418 179.845 211.057 181.349C209.742 182.819 208.952 184.684 208.81 186.652C208.721 185.455 208.874 184.253 209.26 183.117C209.646 181.981 210.257 180.935 211.057 180.041Z" fill="black"/>
<path opacity="0.1" d="M163.756 162.086C164.107 163.543 164.731 164.928 165.016 166.396C165.188 167.389 165.249 168.398 165.201 169.405C165.181 168.836 165.119 168.27 165.016 167.71C164.731 166.242 164.107 164.857 163.756 163.4C163.555 162.596 163.488 161.764 163.56 160.939C163.598 161.325 163.664 161.709 163.756 162.086Z" fill="black"/>
</g>
<path opacity="0.1" d="M627.109 498.737C595.123 498.737 569.193 494.571 569.193 489.433C569.193 484.294 595.123 480.128 627.109 480.128C659.095 480.128 685.025 484.294 685.025 489.433C685.025 494.571 659.095 498.737 627.109 498.737Z" fill="#3C76F2"/>
<path d="M625.242 311.188H628.969V395.117H625.242V311.188Z" fill="#535461"/>
<path d="M601.818 394.867L602.056 398.649L602.382 403.999L602.519 406.223L602.852 411.574L602.995 413.797L603.322 419.148L607.084 479.831C607.244 482.442 608.394 484.894 610.3 486.686C612.205 488.478 614.722 489.475 617.337 489.475H636.874C639.496 489.476 642.02 488.473 643.926 486.672C645.833 484.871 646.978 482.409 647.127 479.79L650.889 419.106L651.216 413.756L651.353 411.532L651.692 406.181L651.829 403.958L652.156 398.607L652.393 394.826C652.434 394.101 652.328 393.376 652.08 392.693C651.831 392.011 651.447 391.387 650.95 390.858C650.453 390.329 649.853 389.906 649.188 389.617C648.523 389.327 647.805 389.176 647.08 389.172H607.126C606.397 389.176 605.676 389.329 605.009 389.622C604.341 389.915 603.74 390.341 603.243 390.874C602.746 391.407 602.363 392.037 602.118 392.724C601.873 393.41 601.771 394.14 601.818 394.867Z" fill="#3F3D56"/>
<path d="M602.055 398.643L602.388 403.981H651.828L652.161 398.643H602.055Z" fill="#9D9CB5"/>
<path d="M602.525 406.205L602.852 411.544H651.359L651.692 406.205H602.525Z" fill="#9D9CB5"/>
<path d="M602.994 413.773L603.321 419.106H650.889L651.222 413.773H602.994Z" fill="#9D9CB5"/>
<path d="M657.826 342.65C636.119 358.358 627.079 382.923 627.079 382.923C627.079 382.923 653.231 382.026 674.944 366.318C696.657 350.611 705.709 326.063 705.709 326.063C705.709 326.063 679.556 326.943 657.826 342.65Z" fill="#1448B6"/>
<path d="M705.709 326.063C705.709 326.063 678.564 341.134 669.856 353.613C661.149 366.092 627.103 382.935 627.103 382.935" stroke="#535461" stroke-width="2" stroke-miterlimit="10"/>
<path d="M643.84 311.009C632.024 319.553 627.102 332.924 627.102 332.924C627.102 332.924 641.367 332.436 653.154 323.893C664.94 315.349 669.892 301.972 669.892 301.972C669.892 301.972 655.65 302.46 643.84 311.009Z" fill="#1448B6"/>
<path d="M669.892 301.972C669.892 301.972 655.115 310.177 650.372 316.966C645.629 323.756 627.102 332.924 627.102 332.924" stroke="#535461" stroke-width="2" stroke-miterlimit="10"/>
<path d="M609.937 332.246C623.507 347.163 626.377 366.657 626.377 366.657C626.377 366.657 607.244 361.96 593.687 347.038C580.129 332.115 577.246 312.626 577.246 312.626C577.246 312.626 596.367 317.329 609.937 332.246Z" fill="#1448B6"/>
<path d="M577.234 312.632C577.234 312.632 594.911 327.924 599.405 338.459C603.898 348.994 626.377 366.657 626.377 366.657" stroke="#535461" stroke-width="2" stroke-miterlimit="10"/>
</g>
<path d="M238 351H337L371 425H418L424 433H276L238 351Z" fill="#BAE4FD"/>
<path d="M112.343 428.496L110.26 427.421C137.303 375.139 122.842 307.244 105.95 259.493C94.4802 227.398 79.8503 196.521 62.2759 167.318L64.2564 166.066C81.922 195.418 96.6282 226.452 108.159 258.711C125.206 306.898 139.769 375.471 112.343 428.496Z" fill="#3F3D56"/>
<path d="M132.399 166.486L117.198 249.675L119.502 250.096L134.703 166.907L132.399 166.486Z" fill="#3F3D56"/>
<path d="M31.32 237.361L29.604 238.958L108.101 323.313L109.817 321.717L31.32 237.361Z" fill="#3F3D56"/>
<path d="M172.438 330.023L132.622 385.101L134.521 386.474L174.337 331.396L172.438 330.023Z" fill="#3F3D56"/>
<path d="M139.42 171.799C145.891 171.799 151.136 166.083 151.136 159.033C151.136 151.983 145.891 146.267 139.42 146.267C132.95 146.267 127.704 151.983 127.704 159.033C127.704 166.083 132.95 171.799 139.42 171.799Z" fill="#DCAF54"/>
<path d="M11.716 234.645C18.1865 234.645 23.432 229.4 23.432 222.929C23.432 216.459 18.1865 211.213 11.716 211.213C5.24542 211.213 0 216.459 0 222.929C0 229.4 5.24542 234.645 11.716 234.645Z" fill="#3F3D56"/>
<path d="M63.2663 246.361C69.7368 246.361 74.9822 241.115 74.9822 234.645C74.9822 228.174 69.7368 222.929 63.2663 222.929C56.7957 222.929 51.5503 228.174 51.5503 234.645C51.5503 241.115 56.7957 246.361 63.2663 246.361Z" fill="#3F3D56"/>
<path d="M39.8341 292.053C46.3047 292.053 51.5501 286.808 51.5501 280.337C51.5501 273.867 46.3047 268.621 39.8341 268.621C33.3636 268.621 28.1182 273.867 28.1182 280.337C28.1182 286.808 33.3636 292.053 39.8341 292.053Z" fill="#DCAF54"/>
<path d="M186.284 321.343C192.754 321.343 198 316.098 198 309.627C198 303.157 192.754 297.911 186.284 297.911C179.813 297.911 174.568 303.157 174.568 309.627C174.568 316.098 179.813 321.343 186.284 321.343Z" fill="#3F3D56"/>
<path d="M147.621 334.231C154.092 334.231 159.337 328.985 159.337 322.515C159.337 316.044 154.092 310.799 147.621 310.799C141.151 310.799 135.905 316.044 135.905 322.515C135.905 328.985 141.151 334.231 147.621 334.231Z" fill="#3F3D56"/>
<path d="M174.568 371.722C181.039 371.722 186.284 366.477 186.284 360.006C186.284 353.535 181.039 348.29 174.568 348.29C168.097 348.29 162.852 353.535 162.852 360.006C162.852 366.477 168.097 371.722 174.568 371.722Z" fill="#3F3D56"/>
<path d="M51.5504 187.118C58.021 187.118 63.2664 181.402 63.2664 174.352C63.2664 167.302 58.021 161.586 51.5504 161.586C45.0799 161.586 39.8345 167.302 39.8345 174.352C39.8345 181.402 45.0799 187.118 51.5504 187.118Z" fill="#3F3D56"/>
<rect width="481" height="10" transform="matrix(-1 0 0 1 586 431)" fill="#9A552C"/>
<rect width="399" height="4" transform="matrix(-1 0 0 1 602 463)" fill="#DCAF54"/>
<rect width="261" height="4" transform="matrix(-1 0 0 1 394 490)" fill="#3C76F2"/>
<defs>
<clipPath id="clip0">
<rect width="694" height="513" fill="white" transform="matrix(-1 0 0 1 706 0)"/>
</clipPath>
</defs>
</svg>
