<svg width="691" height="430" viewBox="0 0 691 430" fill="none" xmlns="http://www.w3.org/2000/svg">
<g opacity="0.4">
<path opacity="0.1" d="M689.499 201.067H625.376V283.308H684.81C684.962 284.159 685.114 285.003 685.284 285.853H625.376V352.167C625.477 352.167 625.578 352.095 625.673 352.06C627.358 351.429 629.043 350.761 630.728 350.056C631.088 349.901 631.442 349.741 631.808 349.592C633.493 348.843 635.178 348.05 636.863 347.214C637.451 346.923 638.039 346.62 638.614 346.31C647.968 341.399 656.47 335.172 663.826 327.844C664.047 327.648 664.249 327.434 664.457 327.25C665.481 326.204 666.486 325.145 667.459 324.063C667.825 323.665 668.179 323.261 668.539 322.874C669.689 321.554 670.801 320.187 671.876 318.814C672.04 318.605 672.192 318.403 672.35 318.219C676.75 312.49 680.399 306.282 683.218 299.729C683.306 299.533 683.388 299.319 683.471 299.135C684.343 297.054 685.132 294.943 685.815 292.791C686.106 291.893 686.39 291.008 686.63 290.074C686.718 289.807 686.788 289.533 686.864 289.266C690.415 276.097 690.826 262.411 690.826 248.79C690.826 247.205 690.826 245.619 690.826 244.034C690.775 238.473 690.706 232.918 690.617 227.369C690.583 225.942 690.552 224.51 690.522 223.071C690.434 219.428 690.308 215.778 690.143 212.12C690.105 211.109 690.055 210.092 689.998 209.088C689.973 208.505 689.941 207.922 689.903 207.34C689.789 205.235 689.655 203.144 689.499 201.067Z" fill="#3C76F2"/>
<path opacity="0.1" d="M625.376 109.498H660.553C654.832 101.083 648.584 92.9947 641.843 85.2772C636.611 79.2368 631.101 73.351 625.376 67.6792V109.498Z" fill="#3C76F2"/>
<path opacity="0.1" d="M625.376 112.031V198.523H689.297C689.297 198.273 689.259 198.017 689.234 197.768C689.177 197.084 689.12 196.406 689.057 195.722C688.994 194.926 688.911 194.129 688.829 193.344C688.747 192.56 688.665 191.608 688.564 190.746C688.463 189.884 688.381 189.01 688.28 188.148C688.178 187.286 688.077 186.424 687.964 185.568C687.85 184.712 687.749 183.844 687.622 182.988C687.528 182.28 687.433 181.567 687.325 180.853C687.18 179.849 687.028 178.844 686.87 177.845C686.87 177.69 686.82 177.542 686.795 177.393C685.64 170.082 684.071 162.834 682.093 155.681C680.017 148.178 677.367 140.826 674.163 133.683C670.759 126.199 666.772 118.962 662.234 112.031H625.376Z" fill="#3C76F2"/>
<path d="M610.059 201.067V283.308H473.093V201.067H610.059ZM610.059 285.853V356.483C609.276 356.631 608.505 356.78 607.727 356.905C606.685 357.095 605.636 357.268 604.568 357.416L603.936 357.499C603.519 357.565 603.096 357.618 602.672 357.666C601.617 357.809 600.562 357.916 599.513 358.011C599.02 358.058 598.508 358.094 598.009 358.136L596.79 358.219C596.126 358.266 595.469 358.302 594.812 358.326C594.407 358.326 594.003 358.356 593.592 358.367C593.182 358.379 592.96 358.367 592.632 358.367H591.438C590.894 358.367 590.351 358.367 589.814 358.367H589.119C588.575 358.367 588.032 358.367 587.495 358.32H587.463C587.084 358.32 586.711 358.32 586.332 358.278C586.225 358.284 586.117 358.284 586.01 358.278C585.694 358.278 585.378 358.278 585.075 358.243C585.003 358.237 584.931 358.237 584.86 358.243C584.158 358.201 583.451 358.147 582.737 358.088C582.023 358.029 581.347 357.957 580.633 357.886L579.198 357.719C573.337 356.947 567.541 355.787 561.853 354.247C549.07 350.894 536.578 346.203 523.801 342.773C507.297 338.344 489.048 336.162 473.1 341.554V285.853H610.059ZM473.093 109.498V0.0100217C488.087 -0.145193 503.04 1.50311 517.59 4.91487C552.274 13.1134 583.419 30.8957 610.059 53.6067V109.492H603.165V112.031H610.059V198.523H473.093V112.031H574.965V109.486L473.093 109.498ZM297.128 72.5127C305.709 72.2273 314.239 69.6768 321.961 65.7232C336.709 58.1786 348.5 46.514 361.668 36.6805C389.028 16.1871 422.96 3.815 457.77 0.747236V109.498H262.261L261.774 109.017L297.128 72.5127ZM279.315 69.54L260.428 89.0465V64.4093C266.785 65.1643 272.32 66.9182 279.315 69.5163V69.54ZM260.428 374.021V285.853H300.704C300.805 285.478 300.919 285.098 301.046 284.717C300.926 285.098 300.818 285.478 300.711 285.853H457.77V349.61C456.279 350.651 454.807 351.75 453.347 352.856C451.772 354.069 450.207 355.296 448.652 356.536L447.085 357.755C446.333 358.35 445.569 358.944 444.81 359.509C443.29 360.662 441.758 361.804 440.217 362.933C439.446 363.504 438.671 364.065 437.891 364.616C425.549 373.491 412.531 381.501 398.942 388.581C395.897 390.181 392.82 391.72 389.723 393.225C387.663 394.223 385.589 395.202 383.499 396.162C380.365 397.6 377.206 398.988 374.021 400.323C344.66 412.724 313.613 421.231 281.767 425.603C274.698 426.582 267.598 427.354 260.466 427.921V374.009H259.835L260.428 374.021ZM457.77 112.031V198.523H260.428V112.031H457.77ZM457.77 201.055V283.308H260.428V201.067L457.77 201.055ZM245.112 64.2903V91.817L221.012 66.9241C228.999 65.6835 237.032 64.8056 245.112 64.2903ZM245.112 201.067V283.308H53.1788V201.067H245.112ZM53.8549 380.543L53.1788 285.853H245.112V428.878C232.749 429.362 220.367 429.221 208.021 428.456H207.806C201.908 428.1 196.038 427.592 190.195 426.934H190.062C158.882 423.519 128.395 415.857 99.5587 404.188L53.8549 380.543ZM16.1508 214.575C16.8795 212.99 17.6273 211.404 18.394 209.819C19.822 206.846 21.3259 203.957 22.8803 201.073H37.8558V283.308H-6.10352e-05C0.0315552 260.015 6.2998 236.234 16.1508 214.575ZM37.8558 285.853V367.303C27.196 357.69 18.1791 346.685 11.696 334.105C3.89233 318.95 0.322266 302.553 0.0252686 285.847L37.8558 285.853ZM37.8558 177.102V198.505H24.2831C28.3975 191.147 32.9282 184.003 37.8558 177.102ZM168.023 80.4318C169.021 80.0691 170.026 79.7065 171.03 79.3616C181.624 75.678 192.449 72.6162 203.446 70.194L240.335 108.279L241.055 109.011L240.581 109.492H109.29C127.576 97.6529 147.292 87.8978 168.023 80.4318ZM105.435 112.031H242.42L245.112 114.344V198.523H221.511H53.1788V157.738C68.3998 140.419 85.9683 125.053 105.435 112.031Z" fill="#F8FBFF"/>
<path opacity="0.1" d="M625.376 155.663V198.523H689.297C689.297 198.273 689.259 198.017 689.234 197.768C689.177 197.084 689.12 196.406 689.057 195.722C688.994 194.926 688.911 194.129 688.829 193.344C688.747 192.559 688.665 191.608 688.564 190.746C688.463 189.884 688.381 189.01 688.28 188.148C688.178 187.286 688.077 186.424 687.964 185.568C687.85 184.712 687.749 183.844 687.622 182.988C687.528 182.28 687.433 181.567 687.325 180.853C687.18 179.848 687.028 178.844 686.87 177.845C686.87 177.69 686.82 177.542 686.795 177.393C685.64 170.082 684.071 162.834 682.093 155.681L625.376 155.663Z" fill="#3C76F2"/>
<path opacity="0.1" d="M689.499 201.067H625.376V283.308H684.81C684.962 284.159 685.114 285.003 685.284 285.853H625.376V352.167C625.477 352.167 625.578 352.095 625.673 352.06C627.358 351.429 629.043 350.761 630.728 350.056C631.088 349.901 631.442 349.741 631.808 349.592C633.493 348.843 635.178 348.05 636.863 347.214C637.451 346.923 638.039 346.62 638.614 346.31C647.968 341.399 656.47 335.172 663.826 327.844C664.047 327.648 664.249 327.434 664.457 327.25C665.481 326.204 666.486 325.145 667.459 324.063C667.825 323.665 668.179 323.261 668.539 322.874C669.689 321.554 670.801 320.187 671.876 318.814C672.04 318.605 672.192 318.403 672.35 318.219C676.75 312.49 680.399 306.282 683.218 299.729C683.306 299.533 683.388 299.319 683.471 299.135C684.343 297.054 685.132 294.943 685.815 292.791C686.106 291.893 686.39 291.008 686.63 290.074C686.718 289.807 686.788 289.533 686.864 289.266C690.415 276.097 690.826 262.411 690.826 248.79C690.826 247.205 690.826 245.619 690.826 244.034C690.775 238.473 690.706 232.918 690.617 227.369C690.583 225.942 690.552 224.51 690.522 223.071C690.434 219.428 690.308 215.778 690.143 212.12C690.105 211.109 690.055 210.092 689.998 209.088C689.973 208.505 689.941 207.922 689.903 207.34C689.789 205.235 689.655 203.144 689.499 201.067Z" fill="#3C76F2"/>
<path opacity="0.24" d="M561.847 124.421V198.523H610.066V124.421H603.191V99.3318H574.971V124.421H561.847Z" fill="#3C76F2"/>
<path opacity="0.24" d="M562.377 200.998H610.589V283.239H562.377V200.998Z" fill="#3C76F2"/>
<path opacity="0.24" d="M610.059 285.853H561.847V354.223C567.534 355.764 573.33 356.922 579.192 357.69C579.672 357.755 580.146 357.808 580.626 357.856C581.334 357.933 582.035 358.005 582.737 358.064L584.853 358.225H585.068L586.003 358.272H586.326C586.705 358.272 587.078 358.314 587.457 358.32H587.488C588.032 358.32 588.569 358.355 589.112 358.367H589.807C590.344 358.367 590.882 358.367 591.431 358.367H592.619H593.586C593.997 358.367 594.401 358.367 594.812 358.32C595.461 358.296 596.118 358.26 596.783 358.213L598.003 358.13C598.508 358.094 599.014 358.046 599.513 357.999C600.575 357.912 601.628 357.799 602.672 357.66L603.936 357.493L604.568 357.41C605.623 357.261 606.672 357.095 607.727 356.905C608.511 356.774 609.282 356.625 610.059 356.471V285.853Z" fill="#3C76F2"/>
<path opacity="0.1" d="M260.435 115.669H300.193V198.517H260.435V115.669Z" fill="#3C76F2"/>
<path opacity="0.24" d="M260.429 201.061V283.308H457.771V247.833H352.658V268.76H300.193V201.061H260.429Z" fill="#3C76F2"/>
<path opacity="0.1" d="M259.803 374.039C260.012 374.039 260.22 374.039 260.435 374.003V427.957C267.558 427.406 274.657 426.635 281.729 425.644C313.586 421.274 344.646 412.771 374.021 400.377C382.501 396.778 390.808 392.856 398.943 388.611C412.527 381.527 425.543 373.517 437.885 364.646C440.994 362.41 444.057 360.125 447.073 357.791C449.164 356.162 451.237 354.497 453.347 352.886C454.801 351.774 456.273 350.674 457.771 349.628V285.853H300.711C300.825 285.472 300.926 285.098 301.04 284.717C300.919 285.098 300.806 285.472 300.705 285.853H260.429V373.998C260.22 374.003 260.012 374.021 259.803 374.039Z" fill="#3C76F2"/>
<path opacity="0.1" d="M156.738 109.498H182.645V101.924H171.037V79.3616C170.03 79.7104 169.028 80.0671 168.029 80.4317V101.924H156.744L156.738 109.498Z" fill="#3C76F2"/>
<path opacity="0.1" d="M94.3141 198.523H221.511C221.499 198.525 221.486 198.525 221.473 198.523H221.53H245.112V115.675H238.427V176.912H207.882V140.645H182.638V112.031H156.731V140.663H131.5V176.929H94.3078L94.3141 198.523Z" fill="#3C76F2"/>
<path opacity="0.24" d="M245.112 201.067V283.308H94.3078V201.067H245.112ZM53.3938 380.109L53.1789 315.009H94.3078V285.877H245.112V428.878C232.749 429.362 220.367 429.221 208.021 428.456H207.806C201.908 428.1 196.038 427.592 190.195 426.934H190.063C158.882 423.519 128.396 415.857 99.5588 404.188" fill="#3C76F2"/>
<path opacity="0.1" d="M35.2026 285.853H0.0258522C0.329151 302.553 3.89293 318.956 11.6966 334.105C18.1797 346.691 27.1966 357.696 37.8564 367.309V314.991H35.2026V285.853Z" fill="#3C76F2"/>
<path opacity="0.1" d="M0.000156403 283.308H35.2021V214.575H16.151C6.30002 236.234 0.0317497 260.015 0.000156403 283.308Z" fill="#3C76F2"/>
<path opacity="0.1" d="M260.428 138.701H281.729V164.676H260.428V138.701Z" fill="#3C76F2"/>
<path opacity="0.1" d="M260.428 192.542H281.729V198.523H260.428V192.542Z" fill="#3C76F2"/>
<path opacity="0.1" d="M260.428 201.061H281.729V218.511H260.428V201.061Z" fill="#3C76F2"/>
<path opacity="0.1" d="M260.428 246.382H281.729V272.357H260.428V246.382Z" fill="#3C76F2"/>
<path opacity="0.1" d="M260.428 300.223H281.729V326.198H260.428V300.223Z" fill="#3C76F2"/>
<path opacity="0.1" d="M260.428 373.998C260.22 373.998 260.011 373.998 259.796 374.039C260.005 374.039 260.214 374.039 260.428 374.003V380.038H281.729V354.063H260.428V373.998Z" fill="#3C76F2"/>
<path opacity="0.1" d="M260.428 407.897V427.957C267.556 427.406 274.656 426.635 281.729 425.644V407.897H260.428Z" fill="#3C76F2"/>
<path opacity="0.1" d="M366.483 281.4H457.771V283.308H366.483V281.4Z" fill="#3C76F2"/>
<path opacity="0.1" d="M366.483 285.847H457.771V293.16H366.483V285.847Z" fill="#3C76F2"/>
<path opacity="0.1" d="M366.483 317.131H457.771V328.891H366.483V317.131Z" fill="#3C76F2"/>
<path opacity="0.1" d="M366.483 352.862V364.622H437.885C440.994 362.394 444.056 360.107 447.073 357.761C449.17 356.138 451.243 354.473 453.347 352.862H366.483Z" fill="#3C76F2"/>
<path opacity="0.1" d="M366.483 388.587V400.377H374.022C382.501 396.778 390.809 392.856 398.943 388.611L366.483 388.587Z" fill="#3C76F2"/>
<path opacity="0.1" d="M190.05 209.034H208.021V225.942H190.05V209.034Z" fill="#3C76F2"/>
<path opacity="0.1" d="M579.148 130.253H597.118V147.162H579.148V130.253Z" fill="#3C76F2"/>
<path opacity="0.1" d="M579.148 169.528H597.118V186.436H579.148V169.528Z" fill="#3C76F2"/>
<path opacity="0.1" d="M579.148 208.802H597.118V225.71H579.148V208.802Z" fill="#3C76F2"/>
<path opacity="0.1" d="M579.148 248.071H597.118V264.979H579.148V248.071Z" fill="#3C76F2"/>
<path opacity="0.1" d="M579.148 287.345H597.118V304.253H579.148V287.345Z" fill="#3C76F2"/>
<path opacity="0.1" d="M579.148 326.62H597.118V343.528H579.148V326.62Z" fill="#3C76F2"/>
<path opacity="0.1" d="M121.447 209.034H139.417V225.942H121.447V209.034Z" fill="#3C76F2"/>
<path opacity="0.1" d="M121.447 250.74H139.417V267.648H121.447V250.74Z" fill="#3C76F2"/>
<path opacity="0.1" d="M190.05 292.44H208.021V309.349H190.05V292.44Z" fill="#3C76F2"/>
<path opacity="0.1" d="M121.447 292.44H139.417V309.349H121.447V292.44Z" fill="#3C76F2"/>
<path opacity="0.1" d="M190.05 334.146H208.021V351.055H190.05V334.146Z" fill="#3C76F2"/>
<path opacity="0.1" d="M121.447 334.146H139.417V351.055H121.447V334.146Z" fill="#3C76F2"/>
<path opacity="0.1" d="M190.05 375.853H208.021V392.761H190.05V375.853Z" fill="#3C76F2"/>
<path opacity="0.1" d="M121.447 375.853H139.417V392.761H121.447V375.853Z" fill="#3C76F2"/>
<path opacity="0.1" d="M208.021 428.456V417.552H190.057V426.904L208.021 428.456Z" fill="#3C76F2"/>
<path opacity="0.1" d="M686.87 177.375V187.048H625.376V177.375H686.87ZM680.747 186.442H685.802V177.988H680.747V186.442ZM674.624 186.442H679.679V177.988H674.624V186.442ZM668.514 186.442H673.569V177.988H668.514V186.442ZM662.391 186.442H667.446V177.988H662.391V186.442ZM656.275 186.442H661.33V177.988H656.275V186.442ZM650.152 186.442H655.207V177.988H650.152V186.442ZM644.029 186.442H649.084V177.988H644.029V186.442ZM637.912 186.442H642.967V177.988H637.912V186.442ZM631.796 186.442H636.851V177.988H631.796V186.442ZM625.673 186.442H630.728V177.988H625.673V186.442Z" fill="#3C76F2"/>
<path opacity="0.1" d="M686.87 205.532V215.205H625.376V205.532H686.87ZM680.747 214.599H685.802V206.145H680.747V214.599ZM674.624 214.599H679.679V206.145H674.624V214.599ZM668.514 214.599H673.569V206.145H668.514V214.599ZM662.391 214.599H667.446V206.145H662.391V214.599ZM656.275 214.599H661.33V206.145H656.275V214.599ZM650.152 214.599H655.207V206.145H650.152V214.599ZM644.029 214.599H649.084V206.145H644.029V214.599ZM637.912 214.599H642.967V206.145H637.912V214.599ZM631.796 214.599H636.851V206.145H631.796V214.599ZM625.673 214.599H630.728V206.145H625.673V214.599Z" fill="#3C76F2"/>
<path opacity="0.1" d="M686.87 233.695V243.362H625.376V233.695H686.87ZM680.747 242.75H685.802V234.296H680.747V242.75ZM674.624 242.75H679.679V234.296H674.624V242.75ZM668.514 242.75H673.569V234.296H668.514V242.75ZM662.391 242.75H667.446V234.296H662.391V242.75ZM656.275 242.75H661.33V234.296H656.275V242.75ZM650.152 242.75H655.207V234.296H650.152V242.75ZM644.029 242.75H649.084V234.296H644.029V242.75ZM637.912 242.75H642.967V234.296H637.912V242.75ZM631.796 242.75H636.851V234.296H631.796V242.75ZM625.673 242.75H630.728V234.296H625.673V242.75Z" fill="#3C76F2"/>
<path opacity="0.1" d="M686.87 261.852V271.519H625.376V261.852H686.87ZM680.747 270.912H685.802V262.446H680.747V270.912ZM674.624 270.912H679.679V262.446H674.624V270.912ZM668.514 270.912H673.569V262.446H668.514V270.912ZM662.391 270.912H667.446V262.446H662.391V270.912ZM656.275 270.912H661.33V262.446H656.275V270.912ZM650.152 270.912H655.207V262.446H650.152V270.912ZM644.029 270.912H649.084V262.446H644.029V270.912ZM637.912 270.912H642.967V262.446H637.912V270.912ZM631.796 270.912H636.851V262.446H631.796V270.912ZM625.673 270.912H630.728V262.446H625.673V270.912Z" fill="#3C76F2"/>
<path opacity="0.1" d="M686.573 289.997C686.333 290.912 686.049 291.816 685.758 292.714V290.609H680.703V299.057H683.414C683.338 299.259 683.256 299.467 683.167 299.652H625.351V289.997H686.573ZM674.568 299.057H679.623V290.609H674.568V299.057ZM668.457 299.057H673.512V290.609H668.457V299.057ZM662.334 299.057H667.389V290.609H662.334V299.057ZM656.218 299.057H661.273V290.609H656.218V299.057ZM650.095 299.057H655.15V290.609H650.095V299.057ZM643.972 299.057H649.027V290.609H643.972V299.057ZM637.855 299.057H642.91V290.609H637.855V299.057ZM631.739 299.057H636.794V290.609H631.739V299.057ZM625.616 299.057H630.671V290.609H625.616V299.057Z" fill="#3C76F2"/>
<path opacity="0.1" d="M672.331 318.154C672.167 318.344 672.015 318.558 671.857 318.748H668.515V322.809L667.434 323.998V318.724H662.379V327.25H664.458C664.256 327.446 664.06 327.654 663.826 327.844H625.389V318.154H672.331ZM656.243 327.25H661.298V318.76H656.243V327.25ZM650.121 327.25H655.176V318.76H650.121V327.25ZM643.998 327.25H649.053V318.76H643.998V327.25ZM637.881 327.25H642.936V318.76H637.881V327.25ZM631.764 327.25H636.82V318.76H631.764V327.25ZM625.642 327.25H630.697V318.76H625.642V327.25Z" fill="#3C76F2"/>
<path opacity="0.1" d="M638.595 346.31C638.013 346.619 637.426 346.905 636.838 347.208V346.911H631.783V349.592C631.417 349.741 631.069 349.901 630.709 350.056V346.911H625.654V352.059C625.558 352.1 625.458 352.134 625.357 352.16V346.31H638.595Z" fill="#3C76F2"/>
<path opacity="0.1" d="M260.435 373.998H259.803H260.435ZM301.046 284.717C300.926 285.098 300.818 285.478 300.711 285.853C300.806 285.478 300.919 285.098 301.046 284.717ZM603.166 109.498V112.031H574.94V109.486L603.166 109.498ZM260.429 373.998H259.797H260.429ZM301.046 284.717C300.926 285.098 300.818 285.478 300.711 285.853C300.806 285.478 300.919 285.098 301.046 284.717ZM260.435 373.998H259.803H260.435ZM301.046 284.717C300.926 285.098 300.818 285.478 300.711 285.853C300.806 285.478 300.919 285.098 301.046 284.717Z" fill="#3C76F2"/>
<g opacity="0.1">
<path opacity="0.1" d="M410.405 193.82C411.693 196.685 412.245 199.795 412.016 202.898C411.875 200.679 411.33 198.5 410.405 196.454C408.92 193.19 406.519 190.348 405.053 187.078C403.855 184.348 403.351 181.392 403.581 178.446C403.711 180.511 404.209 182.54 405.053 184.45C406.519 187.72 408.92 190.556 410.405 193.82Z" fill="black"/>
<path opacity="0.1" d="M475.836 198.41C475.798 200.74 475.76 203.077 475.754 205.407C475.754 202.197 475.785 198.992 475.836 195.788C475.886 192.465 475.95 189.099 476.904 185.895C477.536 183.862 478.471 181.799 478.799 179.748C479.362 182.661 477.763 185.616 476.904 188.523C475.95 191.698 475.886 195.086 475.836 198.41Z" fill="black"/>
</g>
<path opacity="0.1" d="M420.283 304.172L425.27 303.853L425.58 308.147L420.594 308.467L420.283 304.172Z" fill="black"/>
<g opacity="0.1">
<path opacity="0.1" d="M439.819 176.537C439.787 176.133 439.737 175.728 439.674 175.348L439.604 173.707C439.794 174.639 439.866 175.589 439.819 176.537Z" fill="black"/>
<path opacity="0.1" d="M420.648 183.63C422.373 184.498 424.572 183.772 426.038 182.56C427.504 181.347 428.496 179.712 429.791 178.333C429.887 178.582 429.9 178.853 429.829 179.11C429.758 179.367 429.606 179.597 429.393 179.771C429.519 179.771 429.639 179.712 429.759 179.682C428.496 181.05 427.491 182.655 426.038 183.844C424.584 185.033 422.373 185.782 420.648 184.914C418.923 184.046 418.43 182.013 418.581 180.033C418.695 181.591 419.289 182.94 420.648 183.63Z" fill="black"/>
<path opacity="0.1" d="M429.797 179.67C431.91 179.128 433.797 177.992 435.204 176.413C436.611 174.834 437.472 172.888 437.67 170.835C438.031 175.502 434.29 180.181 429.393 181.079C429.601 180.909 429.751 180.684 429.823 180.433C429.895 180.182 429.886 179.916 429.797 179.67Z" fill="black"/>
</g>
<g opacity="0.1">
<path opacity="0.1" d="M164.965 180.455C165.742 181.091 166.741 181.537 167.259 182.375C167.701 183.095 167.714 183.987 168.068 184.753C168.421 185.52 169.451 186.157 170.172 185.669C170.336 180.318 173.135 175.294 176.579 171.014C177.542 169.724 178.712 168.583 180.048 167.631C181.399 166.672 183.083 166.223 184.768 166.371C186.664 166.614 188.332 167.827 190.246 167.982C192.774 168.178 195.042 166.531 197.551 166.454C198.57 166.461 199.576 166.674 200.5 167.078C201.425 167.482 202.246 168.068 202.909 168.796C204.228 170.26 205.208 171.967 205.784 173.808C206.777 176.602 207.318 179.52 207.389 182.465C207.427 184.123 207.591 186.192 209.222 186.811C209.184 187.252 209.184 187.695 209.222 188.136C207.572 187.542 207.408 185.443 207.37 183.778C207.299 180.834 206.758 177.916 205.765 175.122C205.189 173.281 204.209 171.574 202.89 170.11C202.227 169.382 201.405 168.796 200.481 168.391C199.557 167.986 198.551 167.771 197.532 167.762C195.004 167.845 192.73 169.492 190.227 169.29C188.332 169.141 186.651 167.928 184.749 167.685C183.065 167.535 181.381 167.982 180.029 168.939C178.693 169.893 177.523 171.036 176.56 172.328C173.116 176.608 170.317 181.614 170.153 186.983C169.432 187.47 168.402 186.828 168.049 186.067C167.695 185.306 167.682 184.415 167.24 183.689C166.722 182.851 165.723 182.399 164.946 181.769C162.975 180.17 162.482 177.476 162.558 175.033C162.558 174.956 162.558 174.884 162.558 174.807C162.684 176.935 163.284 179.094 164.965 180.455Z" fill="black"/>
<path opacity="0.1" d="M211.617 180.039C213.063 178.535 215.048 177.524 216.381 175.931C217.507 174.524 218.149 172.827 218.22 171.067C218.418 173.268 217.765 175.461 216.381 177.245C215.048 178.838 213.063 179.843 211.617 181.347C210.219 182.817 209.379 184.682 209.228 186.65C209.133 185.453 209.296 184.251 209.706 183.115C210.116 181.979 210.766 180.933 211.617 180.039Z" fill="black"/>
<path opacity="0.1" d="M161.332 162.084C161.704 163.541 162.368 164.926 162.671 166.395C162.853 167.388 162.919 168.396 162.867 169.403C162.846 168.834 162.781 168.268 162.671 167.708C162.368 166.24 161.704 164.855 161.332 163.398C161.117 162.594 161.047 161.762 161.123 160.937C161.164 161.323 161.233 161.707 161.332 162.084Z" fill="black"/>
</g>
</g>
</svg>
