<svg width="196" height="162" viewBox="0 0 196 162" fill="none" xmlns="http://www.w3.org/2000/svg">
<mask id="mask0" mask-type="alpha" maskUnits="userSpaceOnUse" x="8" y="30" width="177" height="99">
<path d="M81.8285 83.2348C81.8285 87.4475 81.2753 91.5112 80.1689 95.4261C79.1051 99.2984 77.5732 102.937 75.5733 106.341C73.5733 109.702 71.1903 112.787 68.4244 115.596C65.6585 118.362 62.5735 120.745 59.1693 122.745C55.7651 124.745 52.1055 126.298 48.1907 127.404C44.3184 128.468 40.2759 129 36.0632 129H8.48922V37.4696H36.0632C40.2759 37.4696 44.3184 38.0227 48.1907 39.1291C52.1055 40.1929 55.7651 41.7248 59.1693 43.7248C62.5735 45.7247 65.6585 48.129 68.4244 50.9374C71.1903 53.7033 73.5733 56.7884 75.5733 60.1926C77.5732 63.5542 79.1051 67.1925 80.1689 71.1073C81.2753 74.9796 81.8285 79.0221 81.8285 83.2348ZM63.5096 83.2348C63.5096 79.4476 62.7862 75.8945 61.3394 72.5754C59.9352 69.2563 57.9778 66.3627 55.4672 63.8947C52.9991 61.3841 50.0843 59.4054 46.7227 57.9586C43.4036 56.5118 39.8504 55.7884 36.0632 55.7884H26.9357V110.681H36.0632C39.8504 110.681 43.4036 109.979 46.7227 108.575C50.0843 107.128 52.9991 105.171 55.4672 102.703C57.9778 100.192 59.9352 97.2771 61.3394 93.958C62.7862 90.5964 63.5096 87.022 63.5096 83.2348ZM112.722 42.0652C112.722 43.6822 112.402 45.1928 111.764 46.5971C111.168 48.0013 110.339 49.2353 109.275 50.2991C108.211 51.3204 106.956 52.1502 105.509 52.7885C104.105 53.3842 102.594 53.6821 100.977 53.6821C99.3601 53.6821 97.8282 53.3842 96.3814 52.7885C94.9772 52.1502 93.7432 51.3204 92.6794 50.2991C91.6581 49.2353 90.8283 48.0013 90.19 46.5971C89.5943 45.1928 89.2964 43.6822 89.2964 42.0652C89.2964 40.4908 89.5943 39.0014 90.19 37.5972C90.8283 36.1504 91.6581 34.9164 92.6794 33.8951C93.7432 32.8313 94.9772 32.0016 96.3814 31.4058C97.8282 30.7675 99.3601 30.4484 100.977 30.4484C102.594 30.4484 104.105 30.7675 105.509 31.4058C106.956 32.0016 108.211 32.8313 109.275 33.8951C110.339 34.9164 111.168 36.1504 111.764 37.5972C112.402 39.0014 112.722 40.4908 112.722 42.0652ZM109.722 129H92.1687V60.6394H109.722V129ZM140.487 129H123.062V60.6394H127.275L133.019 67.2776C135.828 64.7244 138.998 62.767 142.53 61.4053C146.104 60.0011 149.827 59.299 153.7 59.299C157.87 59.299 161.806 60.1075 165.508 61.7245C169.21 63.2989 172.444 65.4904 175.21 68.2989C177.976 71.0648 180.146 74.32 181.72 78.0647C183.337 81.7667 184.146 85.7241 184.146 89.9368V129H166.721V89.9368C166.721 88.1496 166.38 86.4688 165.699 84.8943C165.019 83.2773 164.082 81.8731 162.891 80.6816C161.7 79.4902 160.317 78.554 158.742 77.8732C157.168 77.1923 155.487 76.8519 153.7 76.8519C151.87 76.8519 150.147 77.1923 148.53 77.8732C146.913 78.554 145.508 79.4902 144.317 80.6816C143.125 81.8731 142.189 83.2773 141.508 84.8943C140.828 86.4688 140.487 88.1496 140.487 89.9368V129Z" fill="black"/>
</mask>
<g mask="url(#mask0)">
<rect width="239" height="122" transform="matrix(-1 0 0 1 217 31)" fill="#DCAF54"/>
<path d="M135.333 91.4231C138.011 81.2388 119.489 75.1565 109.893 73.3884C104.984 71.2666 94.2276 69.9936 90.4785 81.8753C85.7923 96.7275 102.529 108.927 109.893 106.275C117.257 103.623 131.986 104.154 135.333 91.4231Z" fill="#CE7929"/>
<path d="M145.367 97.8346C141.618 102.927 122.828 109.858 113.902 112.687C109.885 114.016 107.207 116.93 113.902 127.539C120.597 138.148 160.765 151.939 175.493 144.513C190.221 137.087 164.112 93.5911 156.748 87.2259C149.384 80.8607 150.053 91.4694 145.367 97.8346Z" fill="#DB9823"/>
<path d="M83.1068 146.635C99.8435 139.209 95.1572 115.339 88.4625 106.322C86.7835 103.669 71.0564 106.322 67.709 113.748C64.3617 121.174 34.9051 114.809 21.5158 113.748C8.12641 112.687 14.8211 142.922 28.2104 143.452C41.5998 143.982 66.3701 154.061 83.1068 146.635Z" fill="#DB9823"/>
<path d="M82.4376 93.5912C86.1866 90.1964 78.1976 85.8114 73.7345 84.0433C67.6108 80.8607 59.0062 84.0433 37.5832 93.5912C16.1603 103.139 58.3367 112.687 59.0062 104.2C59.6757 95.7129 77.7513 97.8346 82.4376 93.5912Z" fill="#CE7929"/>
<path d="M65.0309 70.2521C91.8096 70.2521 89.1317 61.7652 89.1317 57.5217C83.1065 47.4434 142.689 51.6869 148.045 43.1999C153.401 34.713 65.0309 37.8956 44.2774 40.5478C23.5239 43.1999 38.2522 70.2521 65.0309 70.2521Z" fill="#CE7929"/>
<path d="M115.91 61.7652C108.412 63.8869 135.102 68.6608 149.384 70.7826C168.129 70.7826 170.806 37.8956 145.367 48.5043C119.927 59.113 125.283 59.113 115.91 61.7652Z" fill="#DB9823"/>
</g>
</svg>
