<svg width="36" height="26" viewBox="0 0 36 26" fill="none" xmlns="http://www.w3.org/2000/svg">
<path d="M35.999 12.888C35.999 12.7999 35.999 12.6999 35.995 12.5839C35.991 12.2598 35.983 11.8957 35.9749 11.5075C35.9428 10.3912 35.8865 9.27885 35.7981 8.23053C35.6776 6.78609 35.5008 5.58172 35.2597 4.67744C35.0053 3.73375 34.5067 2.87308 33.8136 2.18146C33.1205 1.48984 32.2573 0.991489 31.3102 0.736226C30.1731 0.432133 27.9472 0.244075 24.8133 0.128039C23.3227 0.072022 21.7276 0.0360108 20.1325 0.0160047C19.574 0.00800222 19.0557 0.00400123 18.5896 0H17.4084C16.9423 0.00400123 16.424 0.00800222 15.8655 0.0160047C14.2705 0.0360108 12.6754 0.072022 11.1847 0.128039C8.05081 0.248076 5.8209 0.436134 4.68786 0.736226C3.74046 0.990862 2.87689 1.489 2.18371 2.18072C1.49053 2.87244 0.992077 3.73344 0.738309 4.67744C0.49322 5.58172 0.320452 6.78609 0.199916 8.23053C0.111523 9.27885 0.0552734 10.3912 0.0231305 11.5075C0.0110769 11.8957 0.00705909 12.2598 0.00304123 12.5839C0.00304123 12.6999 -0.000976562 12.7999 -0.000976562 12.888V13.112C-0.000976562 13.2001 -0.000976624 13.3001 0.00304123 13.4161C0.00705909 13.7402 0.0150948 14.1043 0.0231305 14.4925C0.0552734 15.6088 0.111523 16.7211 0.199916 17.7695C0.320452 19.2139 0.497238 20.4183 0.738309 21.3226C1.25259 23.2391 2.76331 24.7516 4.68786 25.2638C5.8209 25.5679 8.05081 25.7559 11.1847 25.872C12.6754 25.928 14.2705 25.964 15.8655 25.984C16.424 25.992 16.9423 25.996 17.4084 26H18.5896C19.0557 25.996 19.574 25.992 20.1325 25.984C21.7276 25.964 23.3227 25.928 24.8133 25.872C27.9472 25.7519 30.1771 25.5639 31.3102 25.2638C33.2347 24.7516 34.7454 23.2432 35.2597 21.3226C35.5048 20.4183 35.6776 19.2139 35.7981 17.7695C35.8865 16.7211 35.9428 15.6088 35.9749 14.4925C35.987 14.1043 35.991 13.7402 35.995 13.4161C35.995 13.3001 35.999 13.2001 35.999 13.112V12.888ZM33.1062 13.096C33.1062 13.1801 33.1062 13.2721 33.1021 13.3801C33.0981 13.6922 33.0901 14.0363 33.0821 14.4084C33.0539 15.4728 32.9977 16.5371 32.9133 17.5254C32.8048 18.8138 32.6521 19.8701 32.4633 20.5783C32.2142 21.5026 31.483 22.2348 30.5588 22.4789C29.7151 22.703 27.5896 22.883 24.7008 22.9911C23.2383 23.0471 21.6633 23.0831 20.0923 23.1031C19.5419 23.1111 19.0316 23.1151 18.5736 23.1151H17.4245L15.9057 23.1031C14.3347 23.0831 12.7638 23.0471 11.2972 22.9911C8.4084 22.879 6.27893 22.703 5.4392 22.4789C4.51509 22.2308 3.78384 21.5026 3.53474 20.5783C3.3459 19.8701 3.19322 18.8138 3.08474 17.5254C3.00036 16.5371 2.94813 15.4728 2.91599 14.4084C2.90393 14.0363 2.89992 13.6882 2.8959 13.3801C2.8959 13.2721 2.89188 13.1761 2.89188 13.096V12.904C2.89188 12.8199 2.89188 12.7279 2.8959 12.6199C2.89992 12.3078 2.90795 11.9637 2.91599 11.5916C2.94411 10.5272 3.00036 9.46291 3.08474 8.47461C3.19322 7.18621 3.3459 6.12989 3.53474 5.42167C3.78384 4.49738 4.51509 3.76516 5.4392 3.52108C6.28295 3.29701 8.4084 3.11696 11.2972 3.00892C12.7597 2.95291 14.3347 2.9169 15.9057 2.89689C16.4562 2.88889 16.9664 2.88489 17.4245 2.88489H18.5736L20.0923 2.89689C21.6633 2.9169 23.2343 2.95291 24.7008 3.00892C27.5896 3.12096 29.7191 3.29701 30.5588 3.52108C31.483 3.76916 32.2142 4.49738 32.4633 5.42167C32.6521 6.12989 32.8048 7.18621 32.9133 8.47461C32.9977 9.46291 33.0499 10.5272 33.0821 11.5916C33.0941 11.9637 33.0981 12.3118 33.1021 12.6199C33.1021 12.7279 33.1062 12.8239 33.1062 12.904V13.096ZM14.4231 18.3616L23.7446 12.96L14.4231 7.63835V18.3616Z" fill="white"/>
</svg>
