<svg width="320" height="240" viewBox="0 0 320 240" fill="none" xmlns="http://www.w3.org/2000/svg">
<mask id="mask0" mask-type="alpha" maskUnits="userSpaceOnUse" x="0" y="0" width="320" height="240">
<rect width="320" height="240" rx="30" fill="white"/>
</mask>
<g mask="url(#mask0)">
<g clip-path="url(#clip0)">
<path d="M303.378 231.178C301.095 233.964 298.602 236.21 295.966 237.856C295.283 238.293 294.59 238.694 293.893 239.055H262.997C262.864 238.653 262.731 238.258 262.598 237.856C259.927 229.758 257.481 221.339 256.798 212.182C255.996 201.411 258.246 189.215 263.81 183.923C264.539 183.231 265.312 182.678 266.112 182.275C266.443 182.106 266.782 181.967 267.123 181.844C269.209 181.055 271.38 181.227 273.413 182.343C275.447 183.458 277.27 185.477 278.694 188.191C280.118 190.905 281.092 194.217 281.517 197.785C281.941 201.354 281.801 205.051 281.109 208.497C285.826 200.253 284.945 186.886 283.319 175.714C281.69 164.536 279.716 152.107 283.032 142.07C284.873 136.487 288.114 133.017 291.748 131.625C291.861 131.585 291.973 131.544 292.083 131.503C296.416 130.01 300.919 131.355 304.696 135.27C311.646 142.739 315.219 156.898 316.377 170.771C318.245 193.092 314.112 217.998 303.378 231.178Z" fill="#F2F2F2"/>
<path d="M269.641 188.953C272.207 197.844 273.027 207.908 271.977 217.654C271.159 225.014 269.329 231.937 266.635 237.856C266.451 238.257 266.263 238.659 266.068 239.055H264.791C264.996 238.659 265.197 238.263 265.392 237.856C267.807 232.875 269.565 227.067 270.546 220.826C271.527 214.585 271.709 208.057 271.079 201.685C270.342 194.639 268.641 187.989 266.113 182.275C266.444 182.106 266.782 181.967 267.124 181.844C268.085 184.082 268.927 186.461 269.641 188.953Z" fill="white"/>
<path d="M300.331 195.403C300.056 200.326 299.362 205.154 298.271 209.736C297.264 213.79 295.908 217.565 294.248 220.937C290.794 227.827 286.421 233.201 281.495 236.609C280.876 237.052 280.248 237.471 279.62 237.855C278.923 238.286 278.221 238.686 277.516 239.055H273.711C274.643 238.699 275.565 238.304 276.481 237.855C278.742 236.764 280.943 235.34 283.059 233.6C287.636 229.902 291.609 224.344 294.63 217.415C297.871 209.794 299.302 200.625 299.545 191.304C299.735 181.264 299.118 171.228 297.711 161.473C296.348 151.526 294.276 141.901 291.539 132.813C291.478 132.607 291.466 132.369 291.504 132.148C291.543 131.927 291.63 131.74 291.748 131.625C291.796 131.568 291.85 131.528 291.908 131.507C291.965 131.486 292.025 131.484 292.082 131.503C292.139 131.53 292.192 131.578 292.237 131.643C292.281 131.709 292.317 131.79 292.342 131.881C292.68 133.005 293.011 134.128 293.329 135.264C295.982 144.728 297.935 154.717 299.145 165.001C300.317 174.922 300.945 185.296 300.331 195.403Z" fill="white"/>
<path d="M242.037 179.17H164.057C162.149 179.17 160.318 180.463 158.969 182.763C157.619 185.063 156.861 188.183 156.861 191.436C156.861 194.689 157.619 197.809 158.969 200.109C160.318 202.41 162.149 203.702 164.057 203.702H234.009L239.712 218.643C239.834 218.975 240.004 219.25 240.205 219.44C240.407 219.63 240.633 219.731 240.863 219.732C241.002 219.732 241.139 219.699 241.272 219.632C241.563 219.493 241.818 219.194 241.998 218.783C242.179 218.371 242.275 217.869 242.271 217.355V203.694C244.158 203.59 245.945 202.225 247.248 199.895C248.55 197.564 249.262 194.454 249.232 191.236C249.201 188.018 248.43 184.95 247.084 182.692C245.738 180.435 243.925 179.17 242.037 179.17V179.17ZM242.037 202.123H241.34V217.355C241.341 217.526 241.309 217.692 241.249 217.829C241.19 217.966 241.106 218.067 241.01 218.115C240.914 218.164 240.811 218.158 240.717 218.098C240.623 218.038 240.544 217.928 240.49 217.784L234.517 202.123H164.057C162.395 202.123 160.801 200.997 159.626 198.994C158.45 196.99 157.79 194.273 157.79 191.44C157.79 188.607 158.45 185.89 159.626 183.886C160.801 181.883 162.395 180.757 164.057 180.757H242.037C243.699 180.757 245.293 181.883 246.468 183.886C247.644 185.89 248.304 188.607 248.304 191.44C248.304 194.273 247.644 196.99 246.468 198.994C245.293 200.997 243.699 202.123 242.037 202.123Z" fill="#3F3D56"/>
<path d="M207.69 126.957H81.4357C79.5279 126.957 77.6982 128.249 76.3491 130.548C75.0001 132.848 74.2422 135.967 74.2422 139.219C74.2422 142.471 75.0001 145.59 76.3491 147.889C77.6982 150.189 79.5279 151.481 81.4357 151.481H82.5961V165.924C82.5914 166.437 82.6863 166.938 82.866 167.35C83.0457 167.762 83.3003 168.061 83.59 168.2C83.7244 168.267 83.8637 168.3 84.0037 168.3C84.2336 168.301 84.4598 168.202 84.6611 168.013C84.8625 167.824 85.0324 167.551 85.155 167.219L91.1545 151.481H207.69C209.598 151.481 211.428 150.189 212.777 147.889C214.126 145.59 214.884 142.471 214.884 139.219C214.884 135.967 214.126 132.848 212.777 130.548C211.428 128.249 209.598 126.957 207.69 126.957ZM207.69 149.902H90.6509L84.377 166.353C84.3226 166.496 84.2425 166.606 84.1485 166.666C84.0545 166.725 83.9518 166.731 83.8557 166.683C83.7595 166.634 83.6751 166.534 83.6151 166.398C83.555 166.261 83.5226 166.094 83.5225 165.924V149.902H81.4357C79.7736 149.902 78.1795 148.776 77.0042 146.773C75.8289 144.769 75.1686 142.052 75.1686 139.219C75.1686 136.386 75.8289 133.669 77.0042 131.665C78.1795 129.662 79.7736 128.536 81.4357 128.536H207.69C209.352 128.536 210.946 129.662 212.122 131.665C213.297 133.669 213.957 136.386 213.957 139.219C213.957 142.052 213.297 144.769 212.122 146.773C210.946 148.776 209.352 149.902 207.69 149.902Z" fill="#CCCCCC"/>
<path d="M159.415 22.5146H81.4357C79.5279 22.5146 77.6982 23.8065 76.3491 26.1061C75.0001 28.4056 74.2422 31.5245 74.2422 34.7765C74.2422 38.0286 75.0001 41.1474 76.3491 43.447C77.6982 45.7465 79.5279 47.0384 81.4357 47.0384H82.5961V61.4812C82.5914 61.9944 82.6863 62.4958 82.866 62.9076C83.0457 63.3193 83.3003 63.6183 83.59 63.758C83.7242 63.8268 83.8635 63.8629 84.0037 63.8654C84.2339 63.8644 84.4602 63.764 84.6616 63.5737C84.8629 63.3833 85.0326 63.1092 85.155 62.7768L91.1545 47.0384H159.415C161.323 47.0384 163.153 45.7465 164.502 43.447C165.851 41.1474 166.609 38.0286 166.609 34.7765C166.609 31.5245 165.851 28.4056 164.502 26.1061C163.153 23.8065 161.323 22.5146 159.415 22.5146ZM159.415 45.4592H90.6509L84.377 61.9182C84.3217 62.0602 84.2411 62.1681 84.147 62.2261C84.053 62.284 83.9505 62.2888 83.8547 62.2398C83.7589 62.1908 83.6749 62.0906 83.6151 61.954C83.5553 61.8174 83.5229 61.6517 83.5225 61.4812V45.4592H81.4357C79.7736 45.4592 78.1795 44.3337 77.0042 42.3303C75.8289 40.3269 75.1686 37.6097 75.1686 34.7765C75.1686 31.9433 75.8289 29.2261 77.0042 27.2227C78.1795 25.2193 79.7736 24.0939 81.4357 24.0939H159.415C161.078 24.0939 162.672 25.2193 163.847 27.2227C165.022 29.2261 165.683 31.9433 165.683 34.7765C165.683 37.6097 165.022 40.3269 163.847 42.3303C162.672 44.3337 161.078 45.4592 159.415 45.4592Z" fill="#CCCCCC"/>
<path d="M242.036 74.7358H132.957C131.049 74.7358 129.22 76.0277 127.871 78.3273C126.522 80.6268 125.764 83.7457 125.764 86.9977C125.764 90.2497 126.522 93.3686 127.871 95.6681C129.22 97.9677 131.049 99.2596 132.957 99.2596H232.2L239.711 118.954C239.833 119.286 240.003 119.56 240.204 119.751C240.406 119.941 240.632 120.041 240.862 120.042C241.001 120.04 241.139 120.004 241.271 119.935C241.562 119.797 241.818 119.499 241.998 119.087C242.179 118.675 242.275 118.172 242.27 117.658V99.2596C244.157 99.1552 245.945 97.7905 247.247 95.46C248.549 93.1294 249.262 90.0197 249.231 86.8016C249.2 83.5835 248.429 80.515 247.083 78.2578C245.737 76.0006 243.924 74.7356 242.036 74.7358ZM242.036 97.6804H241.339V117.658C241.343 117.829 241.312 117.997 241.252 118.135C241.193 118.273 241.108 118.372 241.011 118.417C240.915 118.47 240.812 118.466 240.718 118.408C240.623 118.35 240.543 118.24 240.489 118.095L232.704 97.6804H132.957C131.295 97.6804 129.701 96.5549 128.526 94.5515C127.35 92.5481 126.69 89.8309 126.69 86.9977C126.69 84.1645 127.35 81.4473 128.526 79.4439C129.701 77.4405 131.295 76.315 132.957 76.315H242.036C243.698 76.315 245.292 77.4405 246.468 79.4439C247.643 81.4473 248.303 84.1645 248.303 86.9977C248.303 89.8309 247.643 92.5481 246.468 94.5515C245.292 96.5549 243.698 97.6804 242.036 97.6804Z" fill="#3F3D56"/>
<path d="M166.147 198.163C168.198 198.163 169.86 195.329 169.86 191.834C169.86 188.338 168.198 185.504 166.147 185.504C164.096 185.504 162.434 188.338 162.434 191.834C162.434 195.329 164.096 198.163 166.147 198.163Z" fill="#6C63FF"/>
<path d="M177.286 198.163C179.336 198.163 180.999 195.329 180.999 191.834C180.999 188.338 179.336 185.504 177.286 185.504C175.235 185.504 173.572 188.338 173.572 191.834C173.572 195.329 175.235 198.163 177.286 198.163Z" fill="#6C63FF"/>
<path d="M188.426 198.163C190.477 198.163 192.14 195.329 192.14 191.834C192.14 188.338 190.477 185.504 188.426 185.504C186.375 185.504 184.713 188.338 184.713 191.834C184.713 195.329 186.375 198.163 188.426 198.163Z" fill="#6C63FF"/>
<path d="M195.322 136.087H93.8028C93.2983 136.088 92.8145 136.429 92.4578 137.038C92.1011 137.646 91.9006 138.47 91.9004 139.33V139.897C91.9006 140.757 92.1011 141.582 92.4578 142.19C92.8145 142.798 93.2983 143.14 93.8028 143.14H195.322C195.826 143.139 196.309 142.796 196.666 142.189C197.022 141.581 197.223 140.757 197.224 139.897V139.33C197.223 138.471 197.022 137.647 196.666 137.039C196.309 136.431 195.826 136.089 195.322 136.087Z" fill="#CCCCCC"/>
<path d="M156.101 30.8555H84.75C84.2458 30.8571 83.7625 31.1992 83.4059 31.807C83.0493 32.4148 82.8486 33.2387 82.8477 34.0982V34.6655C82.8486 35.525 83.0493 36.3489 83.4059 36.9567C83.7624 37.5645 84.2458 37.9067 84.75 37.9083H156.101C156.605 37.9067 157.088 37.5645 157.445 36.9567C157.801 36.3489 158.002 35.525 158.003 34.6655V34.0982C158.002 33.2387 157.801 32.4148 157.445 31.807C157.088 31.1992 156.605 30.8571 156.101 30.8555Z" fill="#CCCCCC"/>
<path d="M223.175 83.8662H151.824C151.32 83.8678 150.837 84.2099 150.48 84.8177C150.124 85.4255 149.923 86.2494 149.922 87.109V87.6762C149.923 88.5358 150.124 89.3597 150.48 89.9674C150.837 90.5752 151.32 90.9174 151.824 90.919H223.175C223.679 90.9171 224.161 90.5746 224.517 89.9667C224.873 89.3587 225.073 88.535 225.073 87.6762V87.109C225.073 86.2502 224.873 85.4265 224.517 84.8185C224.161 84.2106 223.679 83.8681 223.175 83.8662Z" fill="#6C63FF"/>
</g>
</g>
<defs>
<clipPath id="clip0">
<rect width="328.474" height="466.909" fill="white" transform="translate(74.2402 -32.7271)"/>
</clipPath>
</defs>
</svg>
