<svg width="481" height="472" viewBox="0 0 481 472" fill="none" xmlns="http://www.w3.org/2000/svg">
<path d="M383.011 264.33C383.011 264.33 376.594 259.603 370.001 262.585C370.001 262.585 371.873 266.665 380.11 266.565L383.011 264.33Z" fill="#DCAF54"/>
<path d="M383.724 263.55C383.724 263.55 385.496 270.817 380.254 275.571C380.254 275.571 377.313 272.508 380.593 265.322L383.724 263.55Z" fill="#DCAF54"/>
<path d="M392.023 257.266C392.023 257.266 391.768 251.326 377.998 252.86C377.998 252.86 377.806 256.682 382.554 258.644C387.301 260.606 389.562 259.163 392.023 257.266Z" fill="#DCAF54"/>
<path d="M392.37 257.564C392.37 257.564 398.245 259.651 392.523 272.564C392.523 272.564 388.64 271.567 388.117 266.344C387.595 261.121 389.731 259.383 392.37 257.564Z" fill="#DCAF54"/>
<path d="M401.029 248.204C401.029 248.204 402.132 238.065 388.042 238.643C388.042 238.643 386.753 247.811 398.467 250.564L401.029 248.204Z" fill="#DCAF54"/>
<path d="M411.05 236.852C411.05 236.852 409.458 225.101 395 228.11C395 228.11 394.621 238.216 408.601 239.563L411.05 236.852Z" fill="#DCAF54"/>
<path d="M418.048 225.514C418.048 225.514 415.156 214.185 400.998 217.104C400.998 217.104 403.989 227.29 417.046 227.555L418.048 225.514Z" fill="#DCAF54"/>
<path d="M425.048 213.625C425.048 213.625 422.145 202.114 407.998 205.125C407.998 205.125 412.313 216.092 424.07 215.539L425.048 213.625Z" fill="#DCAF54"/>
<path d="M430.066 202.521C430.066 202.521 428.031 188.233 414.997 190.966C414.997 190.966 418.326 204.012 429.057 204.555L430.066 202.521Z" fill="#DCAF54"/>
<path d="M434.065 190.452C434.065 190.452 431.486 175.34 417.999 179.271C417.999 179.271 422.783 193.63 433.068 192.497L434.065 190.452Z" fill="#DCAF54"/>
<path d="M437.084 177.599C437.084 177.599 432.898 162.567 422.995 162.631C422.995 162.631 427.273 178.481 436.165 180.554L437.084 177.599Z" fill="#DCAF54"/>
<path d="M439.091 164.892C439.091 164.892 434.404 147.603 425.996 148.668C425.996 148.668 429.197 161.868 438.705 167.551L439.091 164.892Z" fill="#DCAF54"/>
<path d="M440.085 149.851C440.085 149.851 435.842 135.448 427.995 134.619C427.995 134.619 430.746 148.746 439.794 153.55L440.085 149.851Z" fill="#DCAF54"/>
<path d="M442.087 137.139C442.087 137.139 436.426 122.126 430.995 121.614C430.995 121.614 433.188 136.283 441.464 139.552L442.087 137.139Z" fill="#DCAF54"/>
<path d="M443.1 124.365C443.1 124.365 440.045 108.108 434.995 106.596C434.995 106.596 435.295 119.809 442.555 125.552L443.1 124.365Z" fill="#DCAF54"/>
<path d="M445.083 108.507C445.083 108.507 441.44 95.6758 436.995 93.5959C436.995 93.5959 437.382 108.594 443.949 111.555L445.083 108.507Z" fill="#DCAF54"/>
<path d="M447.376 96.6733L448.995 74.5488C448.995 74.5488 439.803 91.0111 446.603 100.563L447.376 96.6733Z" fill="#DCAF54"/>
<path d="M454.393 75.6798C454.393 75.6798 460.599 59.4198 461.995 58.5488C461.995 58.5488 450.493 68.8731 451.158 82.613L454.393 75.6798Z" fill="#DCAF54"/>
<path d="M401.452 248.618C401.452 248.618 411.808 247.577 411.025 262.518C411.025 262.518 401.661 263.764 399.011 251.297L401.452 248.618Z" fill="#DCAF54"/>
<path d="M411.464 236.611C411.464 236.611 423.402 236.946 421.946 251.511C421.946 251.511 411.867 252.946 409.011 239.289L411.464 236.611Z" fill="#DCAF54"/>
<path d="M418.008 226.422C418.008 226.422 428.715 221.78 435.05 234.871C435.05 234.871 425.176 238.705 417.012 228.478L418.008 226.422Z" fill="#DCAF54"/>
<path d="M424.977 214.617C424.977 214.617 436.047 209.384 442.05 222.892C442.05 222.892 430.563 226.623 424.013 216.682L424.977 214.617Z" fill="#DCAF54"/>
<path d="M428.605 203.79C428.605 203.79 439.744 193.89 448.024 204.535C448.024 204.535 436.71 212.609 428.033 206.055L428.605 203.79Z" fill="#DCAF54"/>
<path d="M433.473 189.675C433.473 189.675 444.188 179.834 452.026 190.742C452.026 190.742 440.095 198.716 433.031 191.788L433.473 189.675Z" fill="#DCAF54"/>
<path d="M436.077 176.56C436.077 176.56 444.571 163.886 453.998 167.085C453.998 167.085 445.174 180.515 436.072 179.605L436.077 176.56Z" fill="#DCAF54"/>
<path d="M438.385 164.917C438.385 164.917 447.238 148.87 454.998 151.955C454.998 151.955 448.601 164.3 438.09 167.649L438.385 164.917Z" fill="#DCAF54"/>
<path d="M440.032 149.092C440.032 149.092 449.024 136.973 456.996 138.733C456.996 138.733 449.564 151.074 439.078 152.654L440.032 149.092Z" fill="#DCAF54"/>
<path d="M441.076 136.258C441.076 136.258 447.846 122.504 452.995 122.549C452.995 122.549 449.516 136.319 441.428 138.617L441.076 136.258Z" fill="#DCAF54"/>
<path d="M443.076 123.367C443.076 123.367 450.648 109.407 455.995 109.55C455.995 109.55 451.96 121.568 443.275 124.624L443.076 123.367Z" fill="#DCAF54"/>
<path d="M445.071 108.437C445.071 108.437 450.646 96.745 454.995 95.5488C454.995 95.5488 451.943 109.92 445.549 111.605L445.071 108.437Z" fill="#DCAF54"/>
<path d="M448.043 97.084L460.995 78.5488C460.995 78.5488 457.232 97.1391 446.125 100.637L448.043 97.084Z" fill="#DCAF54"/>
<path d="M457.094 76.203C457.094 76.203 471.415 67.0825 471.995 65.5488C471.995 65.5488 464.417 78.7317 451.084 80.6721L457.094 76.203Z" fill="#DCAF54"/>
<path d="M458.469 72.6698C458.469 72.6698 474.922 57.394 478.995 57.5504C478.995 57.5504 465.813 57.7241 458.079 71.8185L458.469 72.6698Z" fill="#DCAF54"/>
<path d="M444.23 111.535L444.839 111.633C448.76 87.7558 453.791 73.7355 458.999 72.1444L458.819 71.5499C453.308 73.2261 448.245 87.0441 444.23 111.535Z" fill="#444053"/>
<path d="M438.342 168.482L439.177 168.584C439.42 166.356 439.629 164.068 439.788 161.792C441.179 141.984 442.964 123.811 444.999 110.21L444.533 109.552C442.493 123.176 440.344 141.887 438.947 161.725C438.788 163.989 438.584 166.259 438.342 168.482Z" fill="#444053"/>
<path d="M366.046 273.98C366.206 273.914 382.148 267.408 399.004 251.204C408.876 241.719 417.181 230.731 423.612 218.647C431.65 203.543 436.856 184.824 438.995 166.549L438.049 166.957C433.252 207.978 413.605 235.493 398.234 250.308C381.543 266.369 365.767 272.808 365.619 272.868L366.046 273.98Z" fill="#444053"/>
<g opacity="0.7">
<path opacity="0.7" d="M357.998 225.126C357.998 225.126 351.064 222.977 346.01 227.143C346.01 227.143 348.754 229.972 356.02 227.712L357.998 225.126Z" fill="#DCAF54"/>
<path opacity="0.7" d="M359.3 225.558C359.3 225.558 362.883 232.301 359.768 238.556C359.768 238.556 356.403 236.356 357.128 228.233L359.3 225.558Z" fill="#DCAF54"/>
<path opacity="0.7" d="M365.011 216.241C365.011 216.241 362.911 210.353 350.01 216.09C350.01 216.09 351.007 219.992 356.239 220.51C361.47 221.029 363.201 218.885 365.011 216.241Z" fill="#DCAF54"/>
<path opacity="0.7" d="M365.349 216.574C365.349 216.574 371.327 216.83 369.81 230.549C369.81 230.549 365.957 230.743 363.975 226.007C361.993 221.27 363.453 219.03 365.349 216.574Z" fill="#DCAF54"/>
<path opacity="0.7" d="M371.038 205.362C371.038 205.362 369.137 194.975 356.003 199.939C356.003 199.939 357.449 209.429 369.31 208.503L371.038 205.362Z" fill="#DCAF54"/>
<path opacity="0.7" d="M377.033 191.684C377.033 191.684 372.007 180.84 359.01 188.11C359.01 188.11 361.653 197.97 375.508 195.038L377.033 191.684Z" fill="#DCAF54"/>
<path opacity="0.7" d="M380.031 179.317C380.031 179.317 373.819 168.879 361.011 176.223C361.011 176.223 367.007 185.467 379.672 181.665L380.031 179.317Z" fill="#DCAF54"/>
<path opacity="0.7" d="M384.032 165.452C384.032 165.452 377.963 154.997 366.01 162.044C366.01 162.044 373.198 171.568 383.699 167.619L384.032 165.452Z" fill="#DCAF54"/>
<path opacity="0.7" d="M385.048 153.961C385.048 153.961 378.715 141.006 367.005 147.372C367.005 147.372 374.204 158.77 384.687 156.186L385.048 153.961Z" fill="#DCAF54"/>
<path opacity="0.7" d="M385.045 139.576C385.045 139.576 378.336 126.418 367.009 133.923C367.009 133.923 375.534 145.747 384.71 141.744L385.045 139.576Z" fill="#DCAF54"/>
<path opacity="0.7" d="M384.058 126.557C384.058 126.557 375.623 114.106 365.997 117.093C365.997 117.093 374.777 130.282 384.029 129.521L384.058 126.557Z" fill="#DCAF54"/>
<path opacity="0.7" d="M382.657 114.898C382.657 114.898 373.311 99.7173 365.997 103.128C365.997 103.128 372.8 114.829 383.09 117.549L382.657 114.898Z" fill="#DCAF54"/>
<path opacity="0.7" d="M379.267 100.875C379.267 100.875 370.827 88.1929 362.995 89.7694C362.995 89.7694 369.896 102.638 380.09 104.549L379.267 100.875Z" fill="#DCAF54"/>
<path opacity="0.7" d="M376.954 87.0904C376.954 87.0904 367.238 74.5799 361.995 75.6971C361.995 75.6971 368.362 88.8959 377.083 89.5485L376.954 87.0904Z" fill="#DCAF54"/>
<path opacity="0.7" d="M374.082 74.3024C374.082 74.3024 366.403 60.4982 360.994 60.6199C360.994 60.6199 365.095 72.5224 373.884 75.5496L374.082 74.3024Z" fill="#DCAF54"/>
<path opacity="0.7" d="M371.069 58.355C371.069 58.355 363.777 47.3318 358.994 46.614C358.994 46.614 363.898 60.6017 370.925 61.5494L371.069 58.355Z" fill="#DCAF54"/>
<path opacity="0.7" d="M370.692 48.5722L365.618 26.578C365.618 26.578 362.411 45.1888 371.16 52.5483L370.692 48.5722Z" fill="#DCAF54"/>
<path opacity="0.7" d="M370.65 25.0566C370.65 25.0566 371.904 7.81957 372.994 6.54883C372.994 6.54883 364.896 19.7661 369.547 32.5679L370.65 25.0566Z" fill="#DCAF54"/>
<path opacity="0.7" d="M371.499 205.118C371.499 205.118 380.643 201.207 384.06 214.89C384.06 214.89 375.884 218.703 370.017 208.238L371.499 205.118Z" fill="#DCAF54"/>
<path opacity="0.7" d="M377.541 191.899C377.541 191.899 389.02 188.825 392.066 202.852C392.066 202.852 382.897 207.059 376.016 195.102L377.541 191.899Z" fill="#DCAF54"/>
<path opacity="0.7" d="M381.366 179.151C381.366 179.151 390.164 171.858 400.029 181.977C400.029 181.977 391.784 188.297 381.024 181.302L381.366 179.151Z" fill="#DCAF54"/>
<path opacity="0.7" d="M383.362 165.444C383.362 165.444 392.478 157.718 402.027 167.762C402.027 167.762 392.098 174.308 383.025 167.524L383.362 165.444Z" fill="#DCAF54"/>
<path opacity="0.7" d="M385.039 153.697C385.039 153.697 392.382 141.627 403.009 148.937C403.009 148.937 394.986 159.406 385.17 155.908L385.039 153.697Z" fill="#DCAF54"/>
<path opacity="0.7" d="M385.043 140.211C385.043 140.211 392.344 126.921 403.013 135.436C403.013 135.436 394.006 147.255 385.249 142.489L385.043 140.211Z" fill="#DCAF54"/>
<path opacity="0.7" d="M382.084 126.739C382.084 126.739 386.66 112.333 396.994 112.553C396.994 112.553 392.319 127.776 383.002 129.625L382.084 126.739Z" fill="#DCAF54"/>
<path opacity="0.7" d="M382.104 114.902C382.104 114.902 385.73 96.9176 393.994 97.5685C393.994 97.5685 391.592 111.282 382.628 117.611L382.104 114.902Z" fill="#DCAF54"/>
<path opacity="0.7" d="M378.091 99.8131C378.091 99.8131 382.88 85.1614 390.994 84.5488C390.994 84.5488 387.754 98.9588 378.289 103.618L378.091 99.8131Z" fill="#DCAF54"/>
<path opacity="0.7" d="M375.101 87.4098C375.101 87.4098 377.694 72.0735 382.978 70.5489C382.978 70.5489 383.751 84.899 376.208 89.586L375.101 87.4098Z" fill="#DCAF54"/>
<path opacity="0.7" d="M373.108 75.4022C373.108 75.4022 376.44 59.0729 381.994 57.5488C381.994 57.5488 381.684 70.8251 373.71 76.5941L373.108 75.4022Z" fill="#DCAF54"/>
<path opacity="0.7" d="M371.091 59.7185C371.091 59.7185 373.066 47.0031 376.901 44.5493C376.901 44.5493 378.136 59.0241 372.446 62.5738L371.091 59.7185Z" fill="#DCAF54"/>
<path opacity="0.7" d="M370.939 46.7052L377.859 25.5496C377.859 25.5496 379.792 44.053 370.153 50.5918L370.939 46.7052Z" fill="#DCAF54"/>
<path opacity="0.7" d="M373.639 25.4574C373.639 25.4574 384.92 12.2128 384.994 10.5488C384.994 10.5488 381.614 25.7301 369.128 31.6353L373.639 25.4574Z" fill="#DCAF54"/>
<path opacity="0.7" d="M373.707 20.6321C373.707 20.6321 385.048 1.6183 388.994 0.548828C388.994 0.548828 376.417 4.62881 373.117 19.9424L373.707 20.6321Z" fill="#DCAF54"/>
<path opacity="0.7" d="M371.16 61.5594L371.695 61.4739C368.58 37.7611 369.039 23.0404 372.997 20.0386L372.689 19.5505C368.49 22.7424 367.966 37.2688 371.16 61.5594Z" fill="#444053"/>
<path opacity="0.7" d="M382.455 118.553L383.362 118.388C382.934 116.193 382.457 113.956 381.931 111.738C377.355 92.4823 373.691 74.6613 371.686 61.096L370.994 60.6141C373.006 74.2267 376.455 92.659 381.031 111.944C381.556 114.115 382.033 116.34 382.455 118.553Z" fill="#444053"/>
<path opacity="0.7" d="M344.527 240.77C344.657 240.663 357.971 229.721 369.287 209.242C375.9 197.258 380.564 184.303 383.104 170.859C386.284 154.055 385.679 134.641 382.259 116.564L381.479 117.231C389.137 157.813 378.554 189.916 368.249 208.625C357.086 228.909 343.914 239.737 343.778 239.845L344.527 240.77Z" fill="#444053"/>
</g>
<path d="M112.501 410.691L172.096 433.376L259.205 466.5C262.447 460.385 267.235 452.018 273.163 442.083C293.543 407.805 327.291 354.479 357.33 307.614C391.188 254.81 420.327 210.218 420.327 210.218L399.005 204.165L224.839 154.696L112.501 410.691Z" fill="white"/>
<path opacity="0.1" d="M111.502 410.769L171.156 433.472C204.44 440.208 238.381 443.131 272.324 442.185C292.724 407.88 326.506 354.512 356.575 307.61L398.291 204.079L223.952 154.572L111.502 410.769Z" fill="#001032"/>
<path d="M67.5687 397.31C67.5687 397.31 160.47 451.55 298.613 438.375L407.232 168.986L354.372 160.221L171.643 129.933L69.6055 392.104L67.5687 397.31Z" fill="#1448B6"/>
<path opacity="0.1" d="M69.5361 391.608C91.3369 392.549 116.54 392.3 141.891 389.128C169.32 385.747 196.86 378.922 220.483 366.584C240.21 356.27 257.064 345.095 271.743 331.711C309.909 296.968 333.367 247.453 354.178 159.888L171.514 129.622L69.5361 391.608Z" fill="#001032"/>
<path d="M1.90687 376.887C1.90687 376.887 70.1816 389.844 139.481 381.209C166.89 377.815 194.439 371.015 218.015 358.692C237.728 348.391 254.57 337.228 269.238 323.86C316.461 280.872 341.125 215.344 366.186 83.0967C366.186 83.0967 253.003 111.103 140.665 51.8739C140.665 51.8739 104.28 287.749 1.90687 376.887Z" fill="white"/>
<path opacity="0.1" d="M113.501 414.691L173.096 437.376L260.205 470.5C263.447 464.385 268.235 456.018 274.163 446.083C294.543 411.805 328.291 358.479 358.33 311.614C392.188 258.81 421.327 214.218 421.327 214.218L400.005 208.165L225.839 158.696L113.501 414.691Z" fill="#001032"/>
<path opacity="0.1" d="M139.479 381.312C166.868 377.916 194.398 371.112 217.957 358.782C237.656 348.474 254.485 337.305 269.143 323.929C228.747 320.884 222.811 298.82 222.811 298.82C193.156 346.551 139.479 381.312 139.479 381.312Z" fill="#001032"/>
<path opacity="0.3" d="M307.143 131.795C307.143 131.795 246.188 139.151 188.908 107.243L185.071 119.892C185.071 119.892 239.848 146.944 307.229 146.548L307.143 131.795Z" fill="#DCAF54"/>
<path opacity="0.3" d="M308.216 194.359C308.216 194.359 247.748 189.783 180.272 157.3L178.027 162.573C178.027 162.573 202.975 193.935 308.259 201.548L308.216 194.359Z" fill="#001032"/>
<path opacity="0.3" d="M301.216 218.323C301.216 218.323 240.748 213.751 173.272 181.3L171.027 186.569C171.027 186.569 195.969 217.936 301.259 225.548L301.216 218.323Z" fill="#001032"/>
<path opacity="0.3" d="M294.216 244.323C294.216 244.323 233.748 239.751 166.272 207.3L164.027 212.569C164.027 212.569 189.004 243.918 294.259 251.548L294.216 244.323Z" fill="#001032"/>
<path opacity="0.3" d="M287.216 267.318C287.216 267.318 226.748 262.747 159.272 230.3L157.027 235.569C157.027 235.569 181.969 266.919 287.259 274.548L287.216 267.318Z" fill="#001032"/>
<path opacity="0.1" d="M280.216 291.323C280.216 291.323 219.748 286.751 152.272 254.3L150.027 259.569C150.027 259.569 174.975 290.924 280.259 298.548L280.216 291.323Z" fill="#001032"/>
<path opacity="0.3" d="M152.921 140.848L169.994 146.549L164.294 163.622L147.22 157.922L152.921 140.848Z" fill="#DCAF54"/>
<path opacity="0.3" d="M142.921 166.848L159.994 172.549L154.294 189.622L137.22 183.922L142.921 166.848Z" fill="#DCAF54"/>
<path opacity="0.3" d="M127.921 214.848L144.994 220.549L139.294 237.622L122.22 231.922L127.921 214.848Z" fill="#DCAF54"/>
<path opacity="0.3" d="M118.921 240.848L135.994 246.549L130.294 263.622L113.22 257.922L118.921 240.848Z" fill="#DCAF54"/>
<path opacity="0.3" d="M135.921 192.848L152.994 198.549L147.294 215.622L130.22 209.922L135.921 192.848Z" fill="#DCAF54"/>
<g opacity="0.1">
<path opacity="0.1" d="M1.00828 194.259C1.02289 194.023 1.05477 193.788 1.10354 193.559C1.91099 195.074 2.91233 196.543 3.01815 198.322C3.04118 198.734 3.01555 199.147 2.94201 199.549C2.04412 197.844 0.894956 196.242 1.00828 194.259Z" fill="#001032"/>
</g>
<path d="M117.036 245.282L69.1332 228.154C68.573 227.952 67.9775 227.861 67.381 227.884C66.7844 227.908 66.1984 228.046 65.6565 228.29C65.1146 228.535 64.6274 228.881 64.2229 229.31C63.8184 229.738 63.5044 230.24 63.2989 230.786C63.0934 231.333 63.0004 231.914 63.0251 232.496C63.0498 233.078 63.1917 233.649 63.4428 234.177C63.694 234.705 64.0493 235.18 64.4887 235.574C64.928 235.969 65.4427 236.275 66.0033 236.475L113.906 253.609L124.141 252.546L117.036 245.282Z" fill="#5C5C8E"/>
<path opacity="0.1" d="M64.7268 229.717C64.3117 230.851 64.3635 232.103 64.8708 233.199C65.3781 234.295 66.2993 235.144 67.4321 235.561L115.337 253.147L123.029 252.33L124.141 253.52L113.906 254.609L66.0007 237.016C65.44 236.811 64.9252 236.497 64.4859 236.092C64.0465 235.687 63.691 235.2 63.4398 234.658C63.1886 234.116 63.0465 233.53 63.0218 232.932C62.997 232.335 63.09 231.739 63.2954 231.178C63.6402 230.233 64.2892 229.43 65.1402 228.895C64.9773 229.155 64.8388 229.43 64.7268 229.717Z" fill="white"/>
<path d="M117.102 245.589L114.041 253.607L122.241 252.768L124.036 252.584L121.566 250.096L117.102 245.589Z" fill="#EFC8C4"/>
<path d="M121.584 250.563C121.394 250.716 121.235 250.91 121.115 251.132C121.039 251.263 120.999 251.415 121 251.57C121.001 251.725 121.043 251.876 121.12 252.006C121.253 252.145 121.406 252.261 121.572 252.349C121.759 252.483 121.917 252.661 122.032 252.87C122.147 253.08 122.217 253.316 122.236 253.559L124.011 253.354L121.584 250.563Z" fill="#727A9C"/>
<path d="M158.469 153.501L166.523 149.538C166.637 149.481 166.74 149.403 166.824 149.307C166.909 149.211 166.973 149.099 167.014 148.978C167.055 148.858 167.072 148.73 167.063 148.603C167.055 148.476 167.021 148.352 166.964 148.238L166.097 146.493C166.041 146.378 165.963 146.276 165.866 146.191C165.77 146.107 165.658 146.043 165.536 146.002C165.414 145.961 165.286 145.945 165.157 145.954C165.029 145.963 164.904 145.997 164.79 146.054L159.363 148.723L153.613 137.175C153.498 136.945 153.296 136.768 153.051 136.685C152.806 136.602 152.538 136.618 152.305 136.73L150.55 137.598C150.435 137.654 150.332 137.732 150.247 137.828C150.162 137.924 150.097 138.035 150.056 138.156C150.015 138.277 149.999 138.405 150.008 138.532C150.017 138.659 150.051 138.784 150.109 138.898L157.161 153.062C157.218 153.176 157.297 153.278 157.393 153.362C157.49 153.446 157.602 153.51 157.724 153.551C157.845 153.592 157.973 153.608 158.101 153.6C158.229 153.591 158.354 153.557 158.469 153.501Z" fill="#1448B6"/>
<path d="M141.464 203.514L149.522 199.551C149.637 199.494 149.74 199.416 149.824 199.32C149.909 199.224 149.973 199.112 150.014 198.991C150.055 198.871 150.072 198.743 150.063 198.616C150.055 198.489 150.021 198.365 149.964 198.251L149.097 196.506C148.981 196.275 148.777 196.099 148.531 196.017C148.285 195.934 148.016 195.953 147.783 196.067L142.359 198.736L136.612 187.175C136.497 186.945 136.295 186.769 136.05 186.685C135.805 186.602 135.536 186.618 135.303 186.73L133.553 187.598C133.438 187.654 133.334 187.732 133.249 187.828C133.164 187.923 133.099 188.035 133.058 188.156C133.016 188.276 132.999 188.404 133.007 188.532C133.015 188.659 133.049 188.783 133.106 188.898L140.162 203.064C140.279 203.294 140.483 203.469 140.729 203.551C140.975 203.633 141.243 203.615 141.476 203.503L141.464 203.514Z" fill="#1448B6"/>
<path d="M148.466 179.501L156.52 175.541C156.752 175.427 156.929 175.226 157.013 174.983C157.096 174.74 157.08 174.474 156.967 174.242L156.095 172.499C156.038 172.385 155.96 172.282 155.863 172.198C155.767 172.114 155.655 172.049 155.533 172.009C155.411 171.968 155.283 171.951 155.155 171.96C155.027 171.969 154.901 172.004 154.787 172.061L149.36 174.727L143.61 163.172C143.553 163.058 143.474 162.956 143.377 162.872C143.281 162.788 143.168 162.724 143.047 162.684C142.926 162.643 142.797 162.626 142.669 162.635C142.541 162.643 142.417 162.677 142.302 162.733L140.546 163.594C140.315 163.711 140.139 163.913 140.057 164.157C139.974 164.401 139.991 164.667 140.105 164.899L147.164 179.063C147.221 179.177 147.3 179.279 147.396 179.362C147.493 179.446 147.605 179.51 147.726 179.551C147.848 179.592 147.976 179.608 148.104 179.6C148.232 179.591 148.357 179.558 148.472 179.501L148.466 179.501Z" fill="#1448B6"/>
<path d="M133.469 226.503L141.523 222.539C141.637 222.482 141.74 222.404 141.824 222.308C141.909 222.212 141.973 222.1 142.014 221.98C142.055 221.859 142.072 221.731 142.063 221.604C142.055 221.477 142.021 221.353 141.964 221.239L141.098 219.494C141.041 219.38 140.962 219.278 140.865 219.194C140.769 219.11 140.656 219.046 140.535 219.005C140.414 218.965 140.285 218.948 140.157 218.957C140.029 218.965 139.905 218.999 139.79 219.055L134.363 221.724L128.613 210.175C128.497 209.944 128.294 209.768 128.048 209.685C127.802 209.602 127.533 209.618 127.299 209.731L125.55 210.598C125.435 210.654 125.332 210.732 125.247 210.828C125.162 210.924 125.097 211.036 125.056 211.157C125.015 211.277 124.999 211.405 125.008 211.533C125.017 211.66 125.051 211.784 125.109 211.898L132.155 226.064C132.272 226.294 132.476 226.469 132.722 226.551C132.967 226.633 133.236 226.615 133.469 226.503Z" fill="#1448B6"/>
<path d="M434.067 377.607C434.067 377.607 430.488 382.278 435.796 389.264C441.103 396.25 445.489 402.153 443.776 406.551C443.776 406.551 435.748 393.562 429.281 393.421C422.814 393.279 426.998 385.491 434.067 377.607Z" fill="#1448B6"/>
<path opacity="0.1" d="M433.719 377.603C433.42 378.053 433.185 378.545 433.021 379.064C427.037 386.404 423.841 393.239 429.661 393.408C435.063 393.531 441.601 403.448 443.161 405.952C443.116 406.155 443.057 406.354 442.985 406.549C442.985 406.549 435.313 393.577 429.134 393.435C422.955 393.292 426.968 385.474 433.719 377.603Z" fill="#001032"/>
<path d="M427 383.6C427.01 385.213 427.244 386.553 427.521 386.552C427.799 386.55 428.01 385.237 428 383.594C427.991 381.951 427.718 382.738 427.441 382.74C427.163 382.742 426.991 381.98 427 383.6Z" fill="#FFD037"/>
<path d="M424.944 385.584C426.511 386.271 427.881 386.689 427.998 386.507C428.114 386.326 426.937 385.631 425.383 384.928C423.829 384.225 424.438 384.742 424.322 384.934C424.206 385.126 423.371 384.897 424.944 385.584Z" fill="#FFD037"/>
<path d="M451.925 377.596C451.925 377.596 455.551 382.225 450.327 389.273C445.103 396.321 440.793 402.275 442.552 406.652C442.552 406.652 450.419 393.57 456.889 393.352C463.359 393.135 459.084 385.396 451.925 377.596Z" fill="#1448B6"/>
<path opacity="0.1" d="M452.263 377.594C452.564 378.042 452.802 378.531 452.972 379.046C459.04 386.316 462.306 393.113 456.496 393.35C451.108 393.537 444.696 403.53 443.161 406.051C443.211 406.254 443.274 406.453 443.35 406.647C443.35 406.647 450.854 393.532 457.04 393.317C463.225 393.101 459.098 385.385 452.263 377.594Z" fill="#001032"/>
<path d="M459 383.594C459.01 385.207 458.799 386.55 458.521 386.552C458.244 386.553 458.01 385.243 458 383.6C457.991 381.957 458.273 382.741 458.55 382.739C458.827 382.738 458.991 381.974 459 383.594Z" fill="#FFD037"/>
<path d="M461.056 385.572C459.49 386.277 458.132 386.711 458.014 386.531C457.896 386.351 459.063 385.642 460.609 384.921C462.154 384.199 461.558 384.724 461.677 384.914C461.795 385.105 462.614 384.866 461.056 385.572Z" fill="#FFD037"/>
<path opacity="0.1" d="M443.059 441.766C422.625 441.886 406.046 439.521 406.028 436.484C406.01 433.446 422.561 430.887 442.995 430.766C463.429 430.646 480.009 433.011 480.026 436.049C480.044 439.086 463.494 441.646 443.059 441.766Z" fill="#DCAF54"/>
<path d="M424.016 400.919L424.202 402.352L424.457 404.374L424.569 405.216L424.824 407.238L424.942 408.081L425.197 410.103L428.155 433.091C428.423 435.142 431.807 436.727 435.888 436.703L450.544 436.617C454.618 436.593 457.978 434.969 458.233 432.914L460.921 409.893L461.158 407.868L461.254 407.024L461.497 404.999L461.593 404.155L461.83 402.13L462 400.696C462.129 399.515 460.302 398.559 457.995 398.572L427.989 398.749C425.676 398.762 423.861 399.758 424.016 400.919Z" fill="white"/>
<path d="M423.995 401.772L424.258 403.771L461.76 403.55L461.994 401.549L423.995 401.772Z" fill="#9D9CB5"/>
<path d="M424.995 404.766L425.256 406.765L461.756 406.55L461.994 404.549L424.995 404.766Z" fill="#9D9CB5"/>
<path d="M424.995 407.761L425.254 409.759L460.758 409.55L460.994 407.549L424.995 407.761Z" fill="#9D9CB5"/>
</svg>
