<svg width="613" height="431" viewBox="0 0 613 431" fill="none" xmlns="http://www.w3.org/2000/svg">
<path opacity="0.1" d="M35.9347 430.157C16.0886 430.157 0.000175476 426.552 0.000175476 422.758C0.000175476 418.964 16.0886 416.417 35.9347 416.417C55.7807 416.417 71.8691 418.964 71.8691 422.758C71.8691 426.552 55.7807 430.157 35.9347 430.157Z" fill="#3C76F2"/>
<path d="M602.756 313.382C587.608 344.526 557.442 365.058 525.56 378.792C500.035 389.715 472.787 396.692 445.193 399.892C439.908 400.517 434.65 400.603 429.331 400.947C415.739 401.83 401.68 401.86 388.089 400.947C379.915 400.406 371.885 400.027 363.768 398.837C335.562 394.738 308.348 386.201 282.343 374.572C274.837 371.204 267.337 368.007 260.136 364.022C248.108 357.38 237.226 350.183 226.297 341.867C223.879 340.026 221.252 337.458 218.894 335.537L217.837 334.482C215.983 332.959 214.415 331.773 212.55 330.262C209.45 327.675 205.428 324.973 201.975 322.877C201.741 322.741 202.214 323.008 201.975 322.877C201.336 322.508 200.522 322.151 199.86 321.822C198.497 321.137 197.056 320.254 195.63 319.712C189.043 317.212 181.633 317.448 174.481 317.602C173.294 317.602 172.5 317.522 171.308 317.602C169.643 317.716 167.686 318.441 166.021 318.657V318.657C160.714 319.405 155.306 319.279 150.159 320.767C142.209 323.04 133.696 325.589 125.837 328.152C122.501 329.249 119.691 330.379 116.32 331.317H115.262C110.469 332.66 105.39 333.797 100.458 334.482C89.2496 335.91 78.5109 335.568 67.6764 332.372H66.6189V332.372L65.5614 331.317C63.9645 330.817 61.8444 330.857 60.2741 330.262L59.2166 329.207C57.6957 328.624 56.443 328.822 54.9867 328.152L53.9293 327.097C52.4084 326.392 51.1556 325.771 49.6994 324.987C49.1747 324.714 49.1552 324.21 48.6419 323.932C47.0906 323.068 44.845 322.769 43.3546 321.822C41.7729 320.818 40.638 320.803 39.1247 319.712C38.4251 319.212 37.6941 318.128 37.0098 317.602C33.0645 314.595 29.8425 311.707 26.4351 308.107C26.2469 307.919 25.5544 307.239 25.3776 307.052C24.4708 306.075 24.1239 304.904 23.2627 303.887C22.9433 303.512 22.5189 303.218 22.2052 302.832C21.1824 301.589 19.9833 300.966 19.0328 299.667C18.8902 299.479 18.1122 298.799 17.9753 298.612C14.0785 293.243 10.9521 287.874 8.4581 281.732C8.37825 281.544 8.52653 280.864 8.4581 280.677C7.69766 278.726 6.97051 277.417 6.34316 275.402C6.08651 274.561 6.55988 273.078 6.34316 272.237C6.26902 271.987 5.34842 271.432 5.28569 271.182C2.1375 258.834 2.11328 245.964 2.11328 233.202C2.11328 231.713 2.11328 230.467 2.11328 228.982C2.20453 208.338 2.22875 187.096 5.28569 166.736C5.28569 166.594 5.26288 166.873 5.28569 166.736C6.30883 159.882 7.76133 153.397 9.51556 146.691C11.3515 139.655 14.0795 132.288 16.9178 125.591C23.9499 109.113 34.1144 94.1247 45.4695 80.2259C59.1573 63.5031 74.5291 47.5946 91.9981 34.8607C94.5076 33.031 96.8226 31.3093 99.4004 29.5857L101.515 28.5307C101.932 28.2523 102.157 28.775 102.573 28.5307C103.428 27.9625 103.821 26.9605 104.688 26.4207H105.745L107.86 24.3107V24.3107H108.918L109.975 23.2557C111.116 22.5852 113.038 21.7859 114.205 21.1457C119.19 18.3765 123.789 16.0525 129.01 13.7606C130.549 13.0825 131.681 12.2795 133.239 11.6506C140.317 8.77874 148.036 6.1269 155.446 4.26559C158.184 3.57614 161.134 3.73335 163.906 3.21058C167.176 2.58175 170.119 1.51348 173.423 1.10057C178.681 0.441473 183.988 0.170113 189.285 0.0455687C226.539 -0.857908 263.722 11.7056 292.917 34.8607C304.552 44.0887 315.805 55.2164 328.871 62.2908C340.278 68.4504 353.666 70.3028 365.883 65.4558C375.977 61.4499 382.039 59.5728 393.377 60.1808C416.838 61.4975 440.088 66.7903 462.112 74.9509C463.002 75.2748 463.343 75.6706 464.227 76.0059C521.665 97.9109 571.815 141.435 597.468 197.331C598.145 198.809 597.883 200.051 598.526 201.551C613.828 237.151 619.643 278.675 602.756 313.382Z" fill="#F8FBFF"/>
<path opacity="0.1" d="M116.258 116.282V333.164H115.201C110.408 334.517 105.336 335.648 100.405 336.338C89.1975 337.776 78.4743 337.441 67.6409 334.222V334.222H66.584L65.5271 333.164C63.9303 332.66 61.8127 332.705 60.2426 332.106V331.048C58.7219 330.46 56.4142 330.665 54.9581 329.99L53.9012 328.932C52.3805 328.222 51.1297 327.606 49.6736 326.816C49.149 326.541 49.13 326.039 48.6167 325.758C47.0656 324.888 44.8225 324.596 43.3322 323.642C41.7507 322.631 40.6178 321.567 39.1047 320.468C38.4051 319.965 37.6752 318.883 36.9909 318.352C33.046 315.324 29.829 312.458 26.4219 308.831C26.2337 308.642 25.5418 307.962 25.365 307.773C24.4583 306.788 24.1123 305.623 23.2512 304.599C22.9319 304.221 22.508 303.93 22.1943 303.541C21.1716 302.289 19.9741 301.676 19.0236 300.367C18.8811 300.178 18.1036 299.498 17.9667 299.309C14.0703 293.901 10.9484 288.569 8.45466 282.382C8.37482 282.193 8.52309 281.513 8.45466 281.324C7.6943 279.359 6.96816 277.006 6.34087 274.976C6.08425 274.129 6.55757 273.707 6.34087 272.86C6.26673 272.608 5.3467 272.054 5.28397 271.802C2.13609 259.365 2.11328 246.571 2.11328 233.716C2.11328 232.216 2.11328 230.98 2.11328 229.484C2.20452 208.69 2.22733 187.572 5.28397 167.064C5.28397 166.921 5.26116 167.201 5.28397 167.064C6.30701 160.16 7.75749 152.659 9.51156 145.905H67.6409V116.282H79.2667V93.0068H104.632V116.282H116.258Z" fill="#3C76F2"/>
<path opacity="0.1" d="M602.747 313.406C587.596 344.497 557.42 365.089 525.533 378.799C500.003 389.704 472.746 396.699 445.147 399.894C439.861 400.518 434.601 400.604 429.281 400.948C415.686 401.829 401.623 401.86 388.03 400.948C379.854 400.408 371.822 400.026 363.703 398.839C335.491 394.746 308.269 386.189 282.258 374.58C274.751 371.218 267.249 368.011 260.046 364.033C248.016 357.402 237.13 350.186 226.199 341.884C223.781 340.046 221.153 337.473 218.795 335.556H217.737C215.884 334.035 214.314 332.846 212.449 331.337C209.348 328.754 205.326 326.046 201.872 323.954C201.638 323.818 202.111 324.084 201.872 323.954C201.233 323.585 200.418 323.228 199.756 322.899C198.393 322.216 196.952 321.331 195.525 320.79V233.248H301.297V252.233H347.837V108.791H402.838V166.8H429.281V131.994H451.493V96.134H462.07V75.0396C462.96 75.3629 463.302 75.7596 464.186 76.0943V96.134H474.763V131.994H496.975V166.8H529.764V296.531H582.65V201.606H598.516C613.843 237.155 619.637 278.759 602.747 313.406Z" fill="#3C76F2"/>
<path opacity="0.1" d="M388.938 129.998H363.572V155.364H388.938V129.998Z" fill="#3C76F2"/>
<path opacity="0.1" d="M388.938 180.729H363.572V205.038H388.938V180.729Z" fill="#3C76F2"/>
<path opacity="0.1" d="M388.938 231.46H363.572V255.769H388.938V231.46Z" fill="#3C76F2"/>
<path opacity="0.1" d="M388.938 282.191H363.572V306.5H388.938V282.191Z" fill="#3C76F2"/>
<path opacity="0.1" d="M388.938 332.922H363.572V357.231H388.938V332.922Z" fill="#3C76F2"/>
<path opacity="0.1" d="M388.938 383.653V402.677C380.453 402.142 371.998 401.74 363.572 400.564V383.653H388.938Z" fill="#3C76F2"/>
<path opacity="0.1" d="M289.589 264.224H203.98V275.85H289.589V264.224Z" fill="#3C76F2"/>
<path opacity="0.1" d="M289.589 298.045H203.98V309.671H289.589V298.045Z" fill="#3C76F2"/>
<path opacity="0.1" d="M289.589 331.866V342.435H226.175C223.749 340.67 221.142 338.992 218.777 337.15L217.72 336.093C215.86 334.633 214.307 333.315 212.436 331.866H289.589Z" fill="#3C76F2"/>
<path opacity="0.1" d="M289.589 365.686V376.255H282.191C274.461 373.028 267.413 369.505 259.996 365.686H289.589Z" fill="#3C76F2"/>
<path opacity="0.1" d="M444.953 196.583H429.1V212.436H444.953V196.583Z" fill="#3C76F2"/>
<path opacity="0.1" d="M100.404 122.6H84.5508V138.454H100.404V122.6Z" fill="#3C76F2"/>
<path opacity="0.1" d="M100.404 159.591H84.5508V175.445H100.404V159.591Z" fill="#3C76F2"/>
<path opacity="0.1" d="M100.404 196.583H84.5508V212.436H100.404V196.583Z" fill="#3C76F2"/>
<path opacity="0.1" d="M100.404 233.574H84.5508V249.428H100.404V233.574Z" fill="#3C76F2"/>
<path opacity="0.1" d="M100.404 270.565H84.5508V286.419H100.404V270.565Z" fill="#3C76F2"/>
<path opacity="0.1" d="M100.404 307.557H84.5508V323.41H100.404V307.557Z" fill="#3C76F2"/>
<path opacity="0.1" d="M506.254 196.583H490.4V212.436H506.254V196.583Z" fill="#3C76F2"/>
<path opacity="0.1" d="M444.953 235.688H429.1V251.541H444.953V235.688Z" fill="#3C76F2"/>
<path opacity="0.1" d="M506.254 235.688H490.4V251.541H506.254V235.688Z" fill="#3C76F2"/>
<path opacity="0.1" d="M444.953 274.793H429.1V290.646H444.953V274.793Z" fill="#3C76F2"/>
<path opacity="0.1" d="M506.254 274.793H490.4V290.646H506.254V274.793Z" fill="#3C76F2"/>
<path opacity="0.1" d="M444.953 313.898H429.1V329.752H444.953V313.898Z" fill="#3C76F2"/>
<path opacity="0.1" d="M506.254 313.898H490.4V329.752H506.254V313.898Z" fill="#3C76F2"/>
<path opacity="0.1" d="M444.953 353.003H429.1V369.914H444.953V353.003Z" fill="#3C76F2"/>
<path opacity="0.1" d="M506.254 353.003H490.4V369.914H506.254V353.003Z" fill="#3C76F2"/>
<path opacity="0.1" d="M429.1 402.678V393.166H444.953V401.621L429.1 402.678Z" fill="#3C76F2"/>
<path opacity="0.1" d="M5.28516 166.99V176.502H66.5852V166.99H5.28516ZM10.5696 175.445H6.34205V168.047H10.5696V175.445ZM15.8541 175.445H11.6265V168.047H15.8541V175.445ZM21.1386 175.445H16.911V168.047H21.1386V175.445ZM27.48 175.445H22.1955V168.047H27.48V175.445ZM32.7645 175.445H28.5369V168.047H32.7645V175.445ZM38.0489 175.445H33.8214V168.047H38.0489V175.445ZM43.3334 175.445H39.1058V168.047H43.3334V175.445ZM48.6179 175.445H44.3903V168.047H48.6179V175.445ZM53.9024 175.445H49.6748V168.047H53.9024V175.445ZM60.2438 175.445H54.9593V168.047H60.2438V175.445ZM65.5283 175.445H61.3007V168.047H65.5283V175.445Z" fill="#3C76F2"/>
<path opacity="0.1" d="M5.28516 193.412V202.924H66.5852V193.412H5.28516ZM10.5696 201.867H6.34205V194.469H10.5696V201.867ZM15.8541 201.867H11.6265V194.469H15.8541V201.867ZM21.1386 201.867H16.911V194.469H21.1386V201.867ZM27.48 201.867H22.1955V194.469H27.48V201.867ZM32.7645 201.867H28.5369V194.469H32.7645V201.867ZM38.0489 201.867H33.8214V194.469H38.0489V201.867ZM43.3334 201.867H39.1058V194.469H43.3334V201.867ZM48.6179 201.867H44.3903V194.469H48.6179V201.867ZM53.9024 201.867H49.6748V194.469H53.9024V201.867ZM60.2438 201.867H54.9593V194.469H60.2438V201.867ZM65.5283 201.867H61.3007V194.469H65.5283V201.867Z" fill="#3C76F2"/>
<path opacity="0.1" d="M5.28516 219.834V229.347H66.5852V219.834H5.28516ZM10.5696 228.29H6.34205V220.891H10.5696V228.29ZM15.8541 228.29H11.6265V220.891H15.8541V228.29ZM21.1386 228.29H16.911V220.891H21.1386V228.29ZM27.48 228.29H22.1955V220.891H27.48V228.29ZM32.7645 228.29H28.5369V220.891H32.7645V228.29ZM38.0489 228.29H33.8214V220.891H38.0489V228.29ZM43.3334 228.29H39.1058V220.891H43.3334V228.29ZM48.6179 228.29H44.3903V220.891H48.6179V228.29ZM53.9024 228.29H49.6748V220.891H53.9024V228.29ZM60.2438 228.29H54.9593V220.891H60.2438V228.29ZM65.5283 228.29H61.3007V220.891H65.5283V228.29Z" fill="#3C76F2"/>
<path opacity="0.1" d="M5.28516 246.257V255.769H66.5852V246.257H5.28516ZM10.5696 254.712H6.34205V247.314H10.5696V254.712ZM15.8541 254.712H11.6265V247.314H15.8541V254.712ZM21.1386 254.712H16.911V247.314H21.1386V254.712ZM27.48 254.712H22.1955V247.314H27.48V254.712ZM32.7645 254.712H28.5369V247.314H32.7645V254.712ZM38.0489 254.712H33.8214V247.314H38.0489V254.712ZM43.3334 254.712H39.1058V247.314H43.3334V254.712ZM48.6179 254.712H44.3903V247.314H48.6179V254.712ZM53.9024 254.712H49.6748V247.314H53.9024V254.712ZM60.2438 254.712H54.9593V247.314H60.2438V254.712ZM65.5283 254.712H61.3007V247.314H65.5283V254.712Z" fill="#3C76F2"/>
<path opacity="0.1" d="M6.3418 272.679C6.55715 273.571 7.14367 274.97 7.39869 275.85V273.736H11.6263V281.134H9.51249C9.58049 281.331 9.43314 281.995 9.51249 282.191H66.5849V272.679H6.3418ZM16.9108 281.134H12.6832V273.736H16.9108V281.134ZM22.1952 281.134H17.9677V273.736H22.1952V281.134ZM27.4797 281.134H23.2521V273.736H27.4797V281.134ZM32.7642 281.134H28.5366V273.736H32.7642V281.134ZM38.0487 281.134H33.8211V273.736H38.0487V281.134ZM43.3332 281.134H39.1056V273.736H43.3332V281.134ZM49.6746 281.134H44.3901V273.736H49.6746V281.134ZM54.959 281.134H49.6746V273.736H54.959V281.134ZM60.2435 281.134H56.0159V273.736H60.2435V281.134ZM65.528 281.134H61.3004V273.736H65.528V281.134Z" fill="#3C76F2"/>
<path opacity="0.1" d="M18.0091 299.102C18.1476 299.298 17.8648 299.962 18.0091 300.158H21.177V303.329C21.4944 303.727 21.9098 303.988 22.233 304.386V300.158H26.4569V307.557H25.4009C25.5798 307.753 25.2105 308.418 25.4009 308.614H66.584V299.102H18.0091ZM32.7928 307.557H27.5129V300.158H32.7928V307.557ZM38.0726 307.557H33.8487V300.158H38.0726V307.557ZM43.3525 307.557H39.1286V300.158H43.3525V307.557ZM48.6324 307.557H44.4085V300.158H48.6324V307.557ZM53.9123 307.557H49.6884V300.158H53.9123V307.557ZM60.2482 307.557H54.9683V300.158H60.2482V307.557ZM65.5281 307.557H61.3042V300.158H65.5281V307.557Z" fill="#3C76F2"/>
<path opacity="0.1" d="M48.6172 325.524C49.1268 325.803 49.1531 326.313 49.6741 326.581V326.581H54.9586V328.695H56.0155V326.581H60.243V330.808H61.2999V326.581H65.5275V332.922H66.5844V325.524H48.6172Z" fill="#3C76F2"/>
<path d="M59.4482 350.995C58.833 351.834 57.681 352.124 57.331 353.103C57.2349 353.34 57.4208 353.896 57.331 354.158C57.168 354.083 57.5049 354.202 57.331 354.158C56.5838 353.97 54.9236 354.097 54.1553 354.158C54.1553 353.857 54.1104 353.436 54.1553 353.103C54.245 349.734 54.1978 344.789 50.9795 346.777C47.8829 348.696 50.0442 352.112 52.0381 354.158H53.0967C51.2823 355.437 50.2286 358.399 49.9209 361.538C49.6132 364.677 47.456 368.023 45.6865 369.973C45.507 370.177 44.7818 370.861 44.6279 371.027C43.9139 370.46 43.3944 370.201 42.5107 369.973C41.6271 369.745 41.2937 369.822 40.3936 369.973L39.335 368.919C37.8989 363.746 35.7266 354.012 31.9248 352.049C32.0851 351.851 31.7517 352.286 31.9248 352.049C33.5404 349.946 35.6697 346.522 32.9834 345.723C30.2972 344.924 29.6602 348.367 29.8076 350.995C29.8076 351.327 29.7564 351.755 29.8076 352.049C29.2697 352.073 29.2331 351.814 28.749 352.049C28.265 352.284 28.041 352.696 27.6905 353.103H26.6319C24.4521 350.546 20.427 346.865 19.2217 349.94C18.0934 352.805 22.04 356.22 24.5147 358.375V358.375C22.8478 365.095 30.1377 370.738 34.042 373.136V373.136C28.6567 379.466 25.5733 391.06 25.5733 391.06L40.3936 394.223C40.3936 394.223 51.1967 385.435 49.9209 377.353V377.353C59.9093 375.358 62.0647 364.679 60.5068 358.375V358.375C62.3249 357.631 63.5297 356.756 64.7412 355.212C67.5043 351.344 62.314 347.19 59.4482 350.995Z" fill="#1448B6"/>
<path opacity="0.1" d="M59.4482 350.995C58.833 351.834 57.681 352.124 57.331 353.103C57.2349 353.34 57.4208 353.896 57.331 354.158C57.168 354.083 57.5049 354.202 57.331 354.158C56.5838 353.97 54.9236 354.097 54.1553 354.158C54.1553 353.857 54.1104 353.436 54.1553 353.103C54.245 349.734 54.1978 344.789 50.9795 346.777C47.8829 348.696 50.0442 352.112 52.0381 354.158H53.0967C51.2823 355.437 50.2286 358.399 49.9209 361.538C49.6132 364.677 47.456 368.023 45.6865 369.973C45.507 370.177 44.7818 370.861 44.6279 371.027C43.9139 370.46 43.3944 370.201 42.5107 369.973C41.6271 369.745 41.2937 369.822 40.3936 369.973L39.335 368.919C37.8989 363.746 35.7266 354.012 31.9248 352.049C32.0851 351.851 31.7517 352.286 31.9248 352.049C33.5404 349.946 35.6697 346.522 32.9834 345.723C30.2972 344.924 29.6602 348.367 29.8076 350.995C29.8076 351.327 29.7564 351.755 29.8076 352.049C29.2697 352.073 29.2331 351.814 28.749 352.049C28.265 352.284 28.041 352.696 27.6905 353.103H26.6319C24.4521 350.546 20.427 346.865 19.2217 349.94C18.0934 352.805 22.04 356.22 24.5147 358.375V358.375C22.8478 365.095 30.1377 370.738 34.042 373.136V373.136C28.6567 379.466 25.5733 391.06 25.5733 391.06L40.3936 394.223C40.3936 394.223 51.1967 385.435 49.9209 377.353V377.353C59.9093 375.358 62.0647 364.679 60.5068 358.375V358.375C62.3249 357.631 63.5297 356.756 64.7412 355.212C67.5043 351.344 62.314 347.19 59.4482 350.995Z" fill="black"/>
<path d="M28.5355 351.99L26.4673 357.231C26.4673 357.231 25.6417 356.203 24.3991 355.135C21.9138 353.018 18.0954 349.564 19.2286 346.749C20.439 343.727 25.3123 347.368 27.5014 349.894C28.3835 350.899 28.5355 351.99 28.5355 351.99Z" fill="#1448B6"/>
<path d="M32.7294 348.805C32.2376 349.518 31.2628 350.24 30.7031 350.89C30.5625 349.987 30.7533 348.677 30.7031 347.763C30.5687 345.12 31.3283 341.761 33.7425 342.552C36.1568 343.343 34.1908 346.689 32.7294 348.805Z" fill="#1448B6"/>
<path d="M54.9531 349.959C54.9085 351.673 54.9531 353.004 54.9531 353.004C54.3529 352.391 53.4324 351.684 52.8996 350.974C51.3569 348.89 49.477 344.788 51.8728 342.854C54.3778 340.841 55.0226 346.549 54.9531 349.959Z" fill="#1448B6"/>
<path d="M65.7459 352.07C64.391 353.605 63.4424 354.408 61.4091 355.148C60.8453 355.369 59.8324 356.022 59.2407 356.174L57.0723 353.096C57.3162 352.14 57.7607 350.933 58.1565 350.017C58.5478 349.043 58.5526 347.774 59.2407 346.939C62.4529 343.156 68.8792 348.236 65.7459 352.07Z" fill="#1448B6"/>
<path opacity="0.1" d="M27.4793 349.833C28.4134 350.92 28.5362 351.947 28.5362 351.947L26.4224 357.231C26.4224 357.231 25.6246 356.272 24.3086 355.117C24.5984 353.367 25.3295 352.291 26.4224 350.89C26.6133 350.632 27.2952 350.05 27.4793 349.833Z" fill="black"/>
<path opacity="0.1" d="M32.7642 348.776C32.2366 349.605 31.3074 350.135 30.707 350.89C30.5561 349.841 30.7608 348.782 30.707 347.719C31.4265 347.731 32.1821 348.272 32.7642 348.776V348.776Z" fill="black"/>
<path d="M41.2189 368.879L37.0065 370.971C36.1923 370.579 34.6161 370.393 33.8472 369.925C29.1535 367.156 20.1758 359.323 26.4754 351.102C32.7751 342.882 38.0573 358.53 40.1658 365.742C40.8056 367.904 41.2189 368.879 41.2189 368.879Z" fill="#1448B6"/>
<path opacity="0.1" d="M52.8438 350.89C53.4031 350.21 54.1582 349.879 54.9575 349.833C54.9072 351.595 54.9575 353.004 54.9575 353.004C54.2809 352.375 53.4444 351.62 52.8438 350.89Z" fill="black"/>
<path opacity="0.1" d="M61.2999 355.117C60.7126 355.363 59.8025 356.005 59.1861 356.174L57.0723 353.004C57.3264 351.941 57.7169 350.851 58.1292 349.833C59.6902 350.71 60.7845 352.424 61.2999 355.117Z" fill="black"/>
<path d="M49.7687 374.852C49.5142 374.901 50.03 374.815 49.7687 374.852C34.4081 376.974 44.4322 368.651 44.4322 368.651C44.4322 368.651 45.6089 368.569 46.5668 367.618C48.4158 365.788 50.5212 362.364 50.836 359.351C51.3184 354.819 51.3649 349.839 57.2398 351.083C63.0076 352.315 64.3055 372.205 49.7687 374.852Z" fill="#1448B6"/>
<path d="M49.6749 414.304H21.1387V421.702H49.6749V414.304Z" fill="#D4DFEC"/>
<path d="M53.9015 389.995H16.9102V416.418H53.9015V389.995Z" fill="#D4DFEC"/>
<path opacity="0.1" d="M49.6749 414.304H21.1387V421.702H49.6749V414.304Z" fill="black"/>
<path opacity="0.1" d="M53.9015 389.995H16.9102V416.418H53.9015V389.995Z" fill="black"/>
<path d="M51.7882 414.304H23.252V421.702H51.7882V414.304Z" fill="#D4DFEC"/>
<path opacity="0.1" d="M40.1617 365.687C40.8676 367.752 41.2186 368.857 41.2186 368.857L35.9341 370.971C35.0536 370.596 34.6518 370.363 33.8203 369.914C35.7264 367.866 37.8462 366.149 40.1617 365.687Z" fill="black"/>
<path opacity="0.1" d="M49.6739 373.809C49.4469 373.86 48.8572 374.78 48.6242 374.819C34.9274 377.044 44.4254 368.762 44.4254 368.762C44.4254 368.762 44.6209 367.741 45.4751 366.743C48.0316 368.949 49.5365 371.315 49.6739 373.809Z" fill="black"/>
<path d="M26.4219 392.167C26.4219 392.167 34.7889 365.227 46.4522 373.664C58.1155 382.1 42.2353 394.223 42.2353 394.223L26.4219 392.167Z" fill="#1448B6"/>
<path opacity="0.1" d="M30.6506 357.231C31.2344 357.231 31.7075 356.758 31.7075 356.174C31.7075 355.59 31.2344 355.117 30.6506 355.117C30.0669 355.117 29.5938 355.59 29.5938 356.174C29.5938 356.758 30.0669 357.231 30.6506 357.231Z" fill="black"/>
<path opacity="0.1" d="M30.5465 361.459C30.7808 361.459 30.5465 360.985 30.5465 360.402C30.5465 359.818 30.7808 359.345 30.5465 359.345C30.3122 359.345 29.5938 359.818 29.5938 360.402C29.5938 360.985 30.3122 361.459 30.5465 361.459Z" fill="black"/>
<path opacity="0.1" d="M57.0725 358.288C57.6562 358.288 58.1294 357.815 58.1294 357.231C58.1294 356.648 57.6562 356.174 57.0725 356.174C56.4888 356.174 56.0156 356.648 56.0156 357.231C56.0156 357.815 56.4888 358.288 57.0725 358.288Z" fill="black"/>
<path opacity="0.1" d="M34.9811 380.483C35.2154 380.483 35.9338 380.01 35.9338 379.426C35.9338 378.842 35.2154 378.369 34.9811 378.369C34.7468 378.369 34.9811 378.842 34.9811 379.426C34.9811 380.01 34.7468 380.483 34.9811 380.483Z" fill="black"/>
<path opacity="0.1" d="M54.9592 364.525C55.5429 364.525 56.0161 364.759 56.0161 364.525C56.0161 364.291 55.5429 363.572 54.9592 363.572C54.3755 363.572 53.9023 364.291 53.9023 364.525C53.9023 364.759 54.3755 364.525 54.9592 364.525Z" fill="black"/>
<path opacity="0.1" d="M45.4456 375.198C46.0293 375.198 46.5025 374.725 46.5025 374.141C46.5025 373.558 46.0293 373.084 45.4456 373.084C44.8619 373.084 44.3887 373.558 44.3887 374.141C44.3887 374.725 44.8619 375.198 45.4456 375.198Z" fill="black"/>
<path opacity="0.1" d="M33.8206 359.345C34.4043 359.345 34.8775 358.872 34.8775 358.288C34.8775 357.704 34.4043 357.231 33.8206 357.231C33.2369 357.231 32.7637 357.704 32.7637 358.288C32.7637 358.872 33.2369 359.345 33.8206 359.345Z" fill="black"/>
<path opacity="0.1" d="M54.9592 360.402C55.5429 360.402 56.0161 359.929 56.0161 359.345C56.0161 358.761 55.5429 358.288 54.9592 358.288C54.3755 358.288 53.9023 358.761 53.9023 359.345C53.9023 359.929 54.3755 360.402 54.9592 360.402Z" fill="black"/>
<path opacity="0.1" d="M51.7874 367.8C52.3711 367.8 52.8443 367.327 52.8443 366.743C52.8443 366.16 52.3711 365.687 51.7874 365.687C51.2037 365.687 50.7305 366.16 50.7305 366.743C50.7305 367.327 51.2037 367.8 51.7874 367.8Z" fill="black"/>
<path opacity="0.1" d="M42.1715 379.426C42.4058 379.426 42.1715 378.953 42.1715 378.369C42.1715 377.785 42.4058 377.312 42.1715 377.312C41.9372 377.312 41.2188 377.785 41.2188 378.369C41.2188 378.953 41.9372 379.426 42.1715 379.426Z" fill="black"/>
<path opacity="0.1" d="M40.0582 375.198C40.2926 375.198 40.0582 374.725 40.0582 374.141C40.0582 373.558 40.2926 373.084 40.0582 373.084C39.8239 373.084 39.1055 373.558 39.1055 374.141C39.1055 374.725 39.8239 375.198 40.0582 375.198Z" fill="black"/>
<path opacity="0.1" d="M34.8772 364.629C35.4609 364.629 35.9341 364.156 35.9341 363.573C35.9341 362.989 35.4609 362.516 34.8772 362.516C34.2935 362.516 33.8203 362.989 33.8203 363.573C33.8203 364.156 34.2935 364.629 34.8772 364.629Z" fill="black"/>
<path opacity="0.1" d="M51.7882 414.304H23.252V417.474H51.7882V414.304Z" fill="black"/>
<path d="M56.0148 389.995H19.0234V416.418H56.0148V389.995Z" fill="#D4DFEC"/>
<path opacity="0.1" d="M43.2281 383.653C43.4625 383.653 43.2281 383.18 43.2281 382.596C43.2281 382.013 43.4625 381.54 43.2281 381.54C42.9938 381.54 42.2754 382.013 42.2754 382.596C42.2754 383.18 42.9938 383.653 43.2281 383.653Z" fill="black"/>
<path opacity="0.1" d="M36.9905 384.71C37.5742 384.71 38.0474 384.237 38.0474 383.654C38.0474 383.07 37.5742 382.597 36.9905 382.597C36.4068 382.597 35.9336 383.07 35.9336 383.654C35.9336 384.237 36.4068 384.71 36.9905 384.71Z" fill="black"/>
</svg>
