<svg width="375" height="342" viewBox="0 0 375 342" fill="none" xmlns="http://www.w3.org/2000/svg">
<path d="M451.242 266.248C438.436 292.724 412.42 310.429 385.468 322.104C363.889 331.391 341.079 337.489 317.751 340.21C313.283 340.741 308.801 341.153 304.304 341.446C292.814 342.197 281.286 342.184 269.797 341.408C262.886 340.947 256 340.211 249.137 339.2C225.292 335.715 202.045 328.932 180.06 319.047C173.715 316.184 167.499 313.058 161.411 309.67C151.243 304.024 141.5 297.64 132.261 290.57C130.216 289.005 128.198 287.406 126.205 285.773L125.385 285.102C123.818 283.807 122.266 282.483 120.689 281.198C118.069 278.999 115.287 277 112.367 275.218C112.17 275.102 111.972 274.986 111.77 274.875C111.23 274.561 110.68 274.266 110.121 273.986C108.969 273.404 107.787 272.882 106.582 272.421C101.013 270.296 95.0489 269.523 89.0028 269.653C87.9999 269.653 86.9971 269.721 85.9894 269.788C84.5815 269.885 83.1689 270.03 81.761 270.214L81.2403 270.286C76.754 270.922 72.3184 271.876 67.9669 273.141C61.2458 275.073 54.6452 277.488 48.0013 279.667C45.1807 280.599 42.3554 281.488 39.5059 282.285L38.8791 282.459C34.8265 283.601 30.7011 284.466 26.5314 285.048C17.0561 286.262 7.43233 285.486 -1.72704 282.768L-2.04525 282.677L-2.63346 282.503L-3.43864 282.252C-4.78864 281.826 -6.1274 281.361 -7.4549 280.855L-8.26008 280.546C-9.5458 280.05 -10.8042 279.517 -12.0353 278.947L-12.8404 278.58C-14.1262 277.981 -15.3846 277.348 -16.6156 276.682C-17.0592 276.45 -17.498 276.199 -17.9319 275.962C-19.2433 275.228 -20.529 274.458 -21.789 273.653C-23.1262 272.8 -24.4344 271.909 -25.7137 270.982C-26.3051 270.557 -26.8901 270.12 -27.4687 269.673C-30.8039 267.117 -33.9272 264.294 -36.8078 261.233C-36.9669 261.074 -37.1164 260.91 -37.2659 260.75C-38.0325 259.919 -38.7846 259.074 -39.5126 258.209C-39.7826 257.891 -40.0526 257.572 -40.3178 257.243C-41.1825 256.187 -42.0166 255.106 -42.8202 254.002C-42.9407 253.842 -43.0564 253.678 -43.1721 253.519C-46.4664 248.954 -49.1975 244.007 -51.3059 238.785C-51.3734 238.626 -51.4361 238.462 -51.4939 238.302C-52.1368 236.644 -52.7234 234.958 -53.2537 233.245C-53.4707 232.53 -53.678 231.795 -53.8612 231.08C-53.9239 230.868 -53.9818 230.651 -54.0348 230.438C-56.6963 219.941 -57 209.029 -57 198.179C-57 196.913 -57 195.649 -57 194.387C-56.9229 176.837 -56.6529 158.988 -54.0686 141.68C-54.0686 141.559 -54.0348 141.438 -54.0155 141.322C-53.1506 135.495 -51.9741 129.719 -50.4911 124.019C-48.9389 118.037 -46.9553 112.177 -44.5559 106.484C-38.611 92.4746 -29.9662 79.7265 -20.3667 67.9108C-8.79526 53.6942 4.46369 40.5741 19.2318 29.7486C21.3532 28.1932 23.5035 26.6828 25.6828 25.2175L26.6905 24.5557C27.0425 24.319 27.3944 24.0726 27.7464 23.8649C28.4696 23.3819 29.1928 22.9278 29.9257 22.4689L30.7454 21.9568L32.3075 20.9907L32.7896 20.7153L33.6237 20.2323L34.4482 19.7492C35.4125 19.1792 36.388 18.6221 37.3748 18.0778C41.5888 15.7237 45.9024 13.5724 50.3156 11.6241C51.6174 11.0476 52.9272 10.4921 54.245 9.95748C60.2282 7.51601 66.3745 5.4967 72.6388 3.91434C74.9531 3.32822 77.2819 2.81295 79.6251 2.36853C82.3894 1.83394 85.1681 1.39113 87.9613 1.0401C92.4062 0.47978 96.8766 0.146032 101.355 0.040153C132.849 -0.72792 164.661 9.54205 189.342 29.2269C199.177 37.0719 208.015 46.3613 219.061 52.3754C228.704 57.6118 239.991 59.7808 250.318 55.6603C258.852 52.2547 264.407 50.5639 273.992 51.0808C293.826 52.2001 313.379 56.2971 331.998 63.2347C332.751 63.5101 333.503 63.7951 334.25 64.0801C382.807 82.7022 424.556 119.681 446.242 167.2C446.815 168.456 447.372 169.722 447.915 170.997C460.851 201.261 465.518 236.742 451.242 266.248Z" fill="#F8FBFF"/>
<path opacity="0.1" d="M40 99.0451V282.672L39.37 282.846C35.2966 283.991 31.1501 284.859 26.9591 285.442C17.4352 286.659 7.76221 285.88 -1.44405 283.156L-1.76388 283.064L-2.35511 282.89L-3.16442 282.638C-4.52134 282.212 -5.86694 281.745 -7.20123 281.238L-8.01054 280.928C-9.30284 280.431 -10.5677 279.897 -11.805 279.325L-12.6144 278.957C-13.9067 278.357 -15.1715 277.722 -16.4089 277.054C-16.8547 276.822 -17.2957 276.57 -17.7319 276.332C-19.05 275.596 -20.3423 274.825 -21.6088 274.017C-22.9528 273.162 -24.2677 272.269 -25.5535 271.339C-26.148 270.913 -26.736 270.476 -27.3175 270.027C-30.6698 267.464 -33.8091 264.635 -36.7044 261.566C-36.8644 261.406 -37.0146 261.242 -37.1648 261.082C-37.9354 260.249 -38.6913 259.401 -39.4231 258.534C-39.6945 258.215 -39.9659 257.895 -40.2324 257.566C-41.1015 256.507 -41.9399 255.424 -42.7476 254.316C-42.8687 254.156 -42.985 253.992 -43.1013 253.832C-46.4125 249.256 -49.1576 244.296 -51.2767 239.061C-51.3446 238.901 -51.4076 238.736 -51.4657 238.576C-52.1119 236.914 -52.7015 235.224 -53.2346 233.506C-53.4526 232.789 -53.661 232.053 -53.8452 231.336C-53.9082 231.123 -53.9663 230.905 -54.0196 230.692C-56.6947 220.168 -57 209.228 -57 198.351C-57 197.082 -57 195.815 -57 194.549C-56.9225 176.954 -56.6511 159.059 -54.0536 141.707C-54.0536 141.586 -54.0196 141.465 -54.0003 141.349C-53.1309 135.507 -51.9483 129.716 -50.4577 124.001H-0.96912V99.0451H8.89759V79H30.1333V99.0451H40Z" fill="#3C76F2"/>
<path opacity="0.1" d="M451.255 266.456C438.464 292.86 412.478 310.516 385.558 322.159C364.004 331.42 341.221 337.502 317.921 340.215C313.458 340.745 308.981 341.156 304.489 341.448C293.012 342.197 281.498 342.184 270.023 341.41C263.12 340.95 256.242 340.217 249.388 339.208C225.571 335.732 202.351 328.969 180.392 319.11C174.055 316.255 167.846 313.138 161.765 309.759C151.608 304.128 141.877 297.762 132.649 290.711C130.607 289.151 128.591 287.556 126.6 285.928L125.781 285.258C124.216 283.967 122.666 282.647 121.091 281.366C118.473 279.172 115.695 277.179 112.779 275.402C112.581 275.286 112.384 275.171 112.182 275.06C111.642 274.747 111.093 274.453 110.535 274.173C109.384 273.593 108.204 273.072 107 272.612V197.89H196.376V214.524H235.6V92.8466H281.769V141.502H304.605V112.694H323.473V81.9207H332.142V64C332.893 64.2746 333.644 64.5588 334.391 64.843V81.9207H342.828V112.714H361.681V141.522H389.483V251.276H433.672V171.457H447.912C460.852 201.647 465.514 237.031 451.255 266.456Z" fill="#3C76F2"/>
<path opacity="0.1" d="M270 110H249V131H270V110Z" fill="#3C76F2"/>
<path opacity="0.1" d="M270 153H249V174H270V153Z" fill="#3C76F2"/>
<path opacity="0.1" d="M270 196H249V217H270V196Z" fill="#3C76F2"/>
<path opacity="0.1" d="M270 239H249V260H270V239Z" fill="#3C76F2"/>
<path opacity="0.1" d="M270 282H249V303H270V282Z" fill="#3C76F2"/>
<path opacity="0.1" d="M270 325V341C262.975 340.549 255.976 339.829 249 338.839V325H270Z" fill="#3C76F2"/>
<path opacity="0.1" d="M186 224H114V234H186V224Z" fill="#3C76F2"/>
<path opacity="0.1" d="M186 252H114V262H186V252Z" fill="#3C76F2"/>
<path opacity="0.1" d="M186 281V290H132.569C130.525 288.497 128.507 286.961 126.515 285.393L125.695 284.748C124.129 283.505 122.576 282.234 121 281H186Z" fill="#3C76F2"/>
<path opacity="0.1" d="M186 310V319H180.194C173.664 316.252 167.266 313.252 161 310H186Z" fill="#3C76F2"/>
<path opacity="0.1" d="M317 167H304V180H317V167Z" fill="#3C76F2"/>
<path opacity="0.1" d="M26 104H13V117H26V104Z" fill="#3C76F2"/>
<path opacity="0.1" d="M26 135H13V148H26V135Z" fill="#3C76F2"/>
<path opacity="0.1" d="M26 167H13V180H26V167Z" fill="#3C76F2"/>
<path opacity="0.1" d="M26 198H13V211H26V198Z" fill="#3C76F2"/>
<path opacity="0.1" d="M26 229H13V242H26V229Z" fill="#3C76F2"/>
<path opacity="0.1" d="M26 261H13V274H26V261Z" fill="#3C76F2"/>
<path opacity="0.1" d="M369 66H356V79H369V66Z" fill="#3C76F2"/>
<path opacity="0.1" d="M317 200H304V213H317V200Z" fill="#3C76F2"/>
<path opacity="0.1" d="M369 100H356V113H369V100Z" fill="#3C76F2"/>
<path opacity="0.1" d="M317 233H304V246H317V233Z" fill="#3C76F2"/>
<path opacity="0.1" d="M369 133H356V146H369V133Z" fill="#3C76F2"/>
<path opacity="0.1" d="M317 266H304V279H317V266Z" fill="#3C76F2"/>
<path opacity="0.1" d="M369 166H356V179H369V166Z" fill="#3C76F2"/>
<path opacity="0.1" d="M317 299H304V313H317V299Z" fill="#3C76F2"/>
<path opacity="0.1" d="M369 199H356V213H369V199Z" fill="#3C76F2"/>
<path opacity="0.1" d="M304 341V333H317V339.862L304 341Z" fill="#3C76F2"/>
</svg>
