<svg width="578" height="401" viewBox="0 0 578 401" fill="none" xmlns="http://www.w3.org/2000/svg">
<path opacity="0.1" d="M236 379C217.222 379 202 376.09 202 372.5C202 368.91 217.222 366 236 366C254.778 366 270 368.91 270 372.5C270 376.09 254.778 379 236 379Z" fill="#3C76F2"/>
<path d="M568.209 297.388C553.893 326.962 524.807 346.737 494.675 359.778C470.55 370.15 445.048 376.962 418.968 380.001C413.973 380.594 408.962 381.055 403.934 381.382C391.088 382.22 378.2 382.206 365.356 381.339C357.63 380.824 349.93 380.003 342.258 378.873C315.6 374.98 289.61 367.404 265.031 356.362C257.937 353.165 250.988 349.674 244.181 345.889C232.813 339.582 221.921 332.452 211.592 324.555C209.306 322.807 207.049 321.021 204.821 319.197L203.905 318.447C202.153 317.001 200.417 315.523 198.655 314.088C195.725 311.631 192.615 309.398 189.351 307.408C189.13 307.278 188.909 307.149 188.683 307.025C188.079 306.674 187.464 306.345 186.839 306.032C185.551 305.382 184.23 304.798 182.883 304.284C176.657 301.91 169.989 301.046 163.23 301.192C162.108 301.192 160.987 301.268 159.861 301.343C158.287 301.451 156.707 301.613 155.133 301.818L154.551 301.899C149.536 302.609 144.577 303.675 139.712 305.088C132.198 307.246 124.818 309.944 117.39 312.377C114.237 313.418 111.078 314.411 107.893 315.302L107.192 315.496C102.661 316.772 98.0489 317.738 93.3872 318.388C82.7939 319.743 72.0347 318.876 61.7946 315.841L61.4388 315.739L60.7812 315.544L59.881 315.264C58.3717 314.789 56.875 314.269 55.3909 313.704L54.4907 313.359C53.0533 312.805 51.6464 312.21 50.2701 311.573L49.3699 311.163C47.9325 310.494 46.5256 309.787 45.1493 309.043C44.6534 308.784 44.1629 308.503 43.6777 308.239C42.2116 307.419 40.7742 306.559 39.3655 305.66C37.8706 304.706 36.408 303.712 34.9778 302.676C34.3166 302.201 33.6625 301.714 33.0157 301.214C29.2869 298.359 25.7952 295.206 22.5746 291.787C22.3968 291.609 22.2297 291.426 22.0626 291.248C21.2055 290.32 20.3646 289.375 19.5507 288.41C19.2488 288.054 18.947 287.697 18.6505 287.331C17.6838 286.151 16.7513 284.944 15.8529 283.71C15.7182 283.532 15.5888 283.349 15.4594 283.171C11.7764 278.072 8.72309 272.546 6.36596 266.714C6.2905 266.536 6.22043 266.352 6.15574 266.174C5.43703 264.322 4.78121 262.439 4.18828 260.525C3.94571 259.726 3.71393 258.906 3.5091 258.108C3.43902 257.87 3.37434 257.628 3.31504 257.39C0.339589 245.665 0 233.477 0 221.358C0 219.944 0 218.532 0 217.122C0.0862451 197.52 0.388102 177.583 3.27731 158.251C3.27731 158.116 3.31504 157.981 3.33661 157.851C4.30361 151.343 5.61894 144.891 7.27693 138.524C9.01218 131.843 11.2298 125.297 13.9124 118.938C20.5587 103.291 30.2235 89.0514 40.9556 75.8536C53.8924 59.9743 68.7158 45.3197 85.2263 33.2281C87.598 31.4907 90.0021 29.8036 92.4385 28.167L93.5651 27.4277C93.9586 27.1634 94.3521 26.8882 94.7456 26.6562C95.5541 26.1166 96.3627 25.6094 97.182 25.0968L98.0984 24.5249L99.8448 23.4458L100.384 23.1382L101.316 22.5986L102.238 22.0591C103.316 21.4224 104.407 20.8001 105.51 20.1922C110.221 17.5627 115.044 15.1599 119.978 12.9836C121.433 12.3397 122.897 11.7192 124.371 11.1221C131.06 8.39508 137.931 6.1396 144.935 4.37216C147.522 3.71749 150.126 3.14195 152.745 2.64555C155.836 2.04844 158.942 1.55384 162.065 1.16175C167.035 0.535895 172.032 0.163112 177.04 0.0448493C212.249 -0.813058 247.814 10.6581 275.407 32.6453C286.404 41.4079 296.284 51.7837 308.633 58.5013C319.414 64.3501 332.033 66.7728 343.579 62.1703C353.12 58.3664 359.329 56.4779 370.045 57.0552C392.219 58.3055 414.08 62.8817 434.896 70.6307C435.737 70.9382 436.578 71.2566 437.413 71.5749C491.699 92.3751 538.374 133.679 562.62 186.756C563.259 188.159 563.883 189.572 564.49 190.997C578.952 224.8 584.17 264.431 568.209 297.388Z" fill="#F8FBFF"/>
<path opacity="0.1" d="M108 110.369V315.286L107.299 315.481C102.763 316.758 98.1465 317.726 93.4802 318.377C82.8764 319.735 72.1064 318.866 61.8561 315.826L61.5 315.724L60.8417 315.529L59.9406 315.248C58.4299 314.773 56.9317 314.252 55.446 313.686L54.545 313.34C53.1061 312.786 51.6978 312.189 50.3202 311.552L49.4191 311.141C47.9802 310.471 46.5719 309.763 45.1943 309.017C44.6978 308.757 44.2068 308.476 43.7212 308.212C42.2536 307.39 40.8148 306.529 39.4047 305.628C37.9083 304.673 36.4442 303.677 35.0126 302.64C34.3507 302.164 33.696 301.676 33.0486 301.175C29.3161 298.315 25.8208 295.158 22.5971 291.733C22.4191 291.555 22.2518 291.371 22.0845 291.193C21.2266 290.263 20.3849 289.317 19.5701 288.35C19.268 287.993 18.9658 287.637 18.6691 287.269C17.7014 286.087 16.768 284.879 15.8687 283.643C15.7338 283.464 15.6043 283.281 15.4748 283.102C11.7882 277.995 8.73178 272.461 6.3723 266.619C6.29676 266.44 6.22662 266.256 6.16187 266.078C5.44245 264.223 4.78597 262.336 4.19245 260.42C3.94964 259.62 3.71763 258.798 3.51259 257.998C3.44245 257.761 3.3777 257.517 3.31834 257.28C0.339927 245.536 0 233.327 0 221.188C0 219.772 0 218.358 0 216.946C0.0863309 197.311 0.388488 177.342 3.28057 157.977C3.28057 157.842 3.31834 157.707 3.33993 157.577C4.30789 151.058 5.62453 144.596 7.28417 138.219H62.3849V110.369H73.3705V88H97.0144V110.369H108Z" fill="#3C76F2"/>
<path opacity="0.1" d="M568.214 297.488C553.902 327.027 524.824 346.778 494.701 359.804C470.583 370.164 445.089 376.968 419.016 380.003C414.022 380.596 409.013 381.056 403.987 381.383C391.144 382.22 378.26 382.205 365.42 381.34C357.696 380.826 349.999 380.005 342.329 378.877C315.678 374.988 289.696 367.422 265.124 356.393C258.033 353.199 251.085 349.712 244.281 345.932C232.916 339.633 222.027 332.511 211.7 324.623C209.416 322.877 207.16 321.093 204.932 319.272L204.016 318.523C202.265 317.078 200.53 315.602 198.767 314.168C195.839 311.714 192.729 309.484 189.466 307.496C189.246 307.367 189.025 307.238 188.798 307.114C188.195 306.763 187.58 306.435 186.955 306.122C185.668 305.473 184.347 304.89 183 304.376V220.783H283.01V239.392H326.901V103.271H378.563V157.702H404.116V125.474H425.229V91.048H434.929V71C435.77 71.3072 436.61 71.6252 437.445 71.9431V91.048H446.887V125.496H467.983V157.724H499.093V280.507H548.54V191.212H564.474C578.954 224.987 584.17 264.571 568.214 297.488Z" fill="#3C76F2"/>
<path opacity="0.1" d="M366 123H342V147H366V123Z" fill="#3C76F2"/>
<path opacity="0.1" d="M366 171H342V194H366V171Z" fill="#3C76F2"/>
<path opacity="0.1" d="M366 219H342V242H366V219Z" fill="#3C76F2"/>
<path opacity="0.1" d="M366 267H342V290H366V267Z" fill="#3C76F2"/>
<path opacity="0.1" d="M366 315H342V338H366V315Z" fill="#3C76F2"/>
<path opacity="0.1" d="M366 363V381C357.972 380.493 349.972 379.683 342 378.569V363H366Z" fill="#3C76F2"/>
<path opacity="0.1" d="M272 250H191V261H272V250Z" fill="#3C76F2"/>
<path opacity="0.1" d="M272 282H191V293H272V282Z" fill="#3C76F2"/>
<path opacity="0.1" d="M272 314V324H211.993C209.698 322.33 207.431 320.624 205.193 318.881L204.273 318.165C202.514 316.783 200.77 315.371 199 314H272Z" fill="#3C76F2"/>
<path opacity="0.1" d="M272 346V356H265.497C258.183 352.947 251.018 349.613 244 346H272Z" fill="#3C76F2"/>
<path opacity="0.1" d="M419 186H404V201H419V186Z" fill="#3C76F2"/>
<path opacity="0.1" d="M93 116H78V131H93V116Z" fill="#3C76F2"/>
<path opacity="0.1" d="M93 151H78V166H93V151Z" fill="#3C76F2"/>
<path opacity="0.1" d="M93 186H78V201H93V186Z" fill="#3C76F2"/>
<path opacity="0.1" d="M93 221H78V236H93V221Z" fill="#3C76F2"/>
<path opacity="0.1" d="M93 256H78V271H93V256Z" fill="#3C76F2"/>
<path opacity="0.1" d="M93 291H78V306H93V291Z" fill="#3C76F2"/>
<path opacity="0.1" d="M477 186H462V201H477V186Z" fill="#3C76F2"/>
<path opacity="0.1" d="M419 223H404V238H419V223Z" fill="#3C76F2"/>
<path opacity="0.1" d="M477 223H462V238H477V223Z" fill="#3C76F2"/>
<path opacity="0.1" d="M419 260H404V275H419V260Z" fill="#3C76F2"/>
<path opacity="0.1" d="M477 260H462V275H477V260Z" fill="#3C76F2"/>
<path opacity="0.1" d="M419 297H404V312H419V297Z" fill="#3C76F2"/>
<path opacity="0.1" d="M477 297H462V312H477V297Z" fill="#3C76F2"/>
<path opacity="0.1" d="M419 334H404V350H419V334Z" fill="#3C76F2"/>
<path opacity="0.1" d="M477 334H462V350H477V334Z" fill="#3C76F2"/>
<path opacity="0.1" d="M404 381V372H419V379.719L404 381Z" fill="#3C76F2"/>
<path opacity="0.1" d="M3 158V167H61V158H3ZM8.16546 166.438H3.90803V158.562H8.16546V166.438ZM13.3309 166.438H9.0735V158.562H13.3309V166.438ZM18.4964 166.438H14.239V158.562H18.4964V166.438ZM23.6619 166.438H19.4044V158.562H23.6619V166.438ZM28.8273 166.438H24.5699V158.562H28.8273V166.438ZM33.9928 166.438H29.7354V158.562H33.9928V166.438ZM39.1582 166.438H34.9008V158.562H39.1582V166.438ZM44.3237 166.438H40.0663V158.562H44.3237V166.438ZM49.4892 166.438H45.2317V158.562H49.4892V166.438ZM54.6546 166.438H50.3972V158.562H54.6546V166.438ZM60.092 166.438H55.5627V158.562H60.092V166.438Z" fill="#3C76F2"/>
<path opacity="0.1" d="M3 183V192H61V183H3ZM8.16546 191.436H3.90803V183.564H8.16546V191.436ZM13.3309 191.436H9.0735V183.564H13.3309V191.436ZM18.4964 191.436H14.239V183.564H18.4964V191.436ZM23.6619 191.436H19.4044V183.564H23.6619V191.436ZM28.8273 191.436H24.5699V183.564H28.8273V191.436ZM33.9928 191.436H29.7354V183.564H33.9928V191.436ZM39.1582 191.436H34.9008V183.564H39.1582V191.436ZM44.3237 191.436H40.0663V183.564H44.3237V191.436ZM49.4892 191.436H45.2317V183.564H49.4892V191.436ZM54.6546 191.436H50.3972V183.564H54.6546V191.436ZM60.092 191.436H55.5627V183.564H60.092V191.436Z" fill="#3C76F2"/>
<path opacity="0.1" d="M3 208V217H61V208H3ZM8.16546 216.436H3.90803V208.564H8.16546V216.436ZM13.3309 216.436H9.0735V208.564H13.3309V216.436ZM18.4964 216.436H14.239V208.564H18.4964V216.436ZM23.6619 216.436H19.4044V208.564H23.6619V216.436ZM28.8273 216.436H24.5699V208.564H28.8273V216.436ZM33.9928 216.436H29.7354V208.564H33.9928V216.436ZM39.1582 216.436H34.9008V208.564H39.1582V216.436ZM44.3237 216.436H40.0663V208.564H44.3237V216.436ZM49.4892 216.436H45.2317V208.564H49.4892V216.436ZM54.6546 216.436H50.3972V208.564H54.6546V216.436ZM60.092 216.436H55.5627V208.564H60.092V216.436Z" fill="#3C76F2"/>
<path opacity="0.1" d="M3 233V242H61V233H3ZM8.16546 241.438H3.90803V233.562H8.16546V241.438ZM13.3309 241.438H9.0735V233.562H13.3309V241.438ZM18.4964 241.438H14.239V233.562H18.4964V241.438ZM23.6619 241.438H19.4044V233.562H23.6619V241.438ZM28.8273 241.438H24.5699V233.562H28.8273V241.438ZM33.9928 241.438H29.7354V233.562H33.9928V241.438ZM39.1582 241.438H34.9008V233.562H39.1582V241.438ZM44.3237 241.438H40.0663V233.562H44.3237V241.438ZM49.4892 241.438H45.2317V233.562H49.4892V241.438ZM54.6546 241.438H50.3972V233.562H54.6546V241.438ZM60.092 241.438H55.5627V233.562H60.092V241.438Z" fill="#3C76F2"/>
<path opacity="0.1" d="M4 258C4.20376 258.844 4.43434 259.687 4.67564 260.52V258.562H8.87423V266.438H6.63283C6.69718 266.623 6.76689 266.814 6.84196 267H61V258H4ZM13.9683 266.438H9.76971V258.562H13.9683V266.438ZM19.0624 266.438H14.8638V258.562H19.0624V266.438ZM24.1564 266.438H19.9579V258.562H24.1564V266.438ZM29.2505 266.438H25.0519V258.562H29.2505V266.438ZM34.3446 266.438H30.146V258.562H34.3446V266.438ZM39.4387 266.438H35.2401V258.562H39.4387V266.438ZM44.5327 266.438H40.3342V258.562H44.5327V266.438ZM49.6268 266.438H45.4282V258.562H49.6268V266.438ZM54.7209 266.438H50.5223V258.562H54.7209V266.438ZM60.0831 266.438H55.6164V258.562H60.0831V266.438Z" fill="#3C76F2"/>
<path opacity="0.1" d="M15 283C15.1313 283.186 15.2626 283.377 15.3993 283.562H18.2384V287.334C18.5393 287.711 18.8456 288.082 19.152 288.458V283.568H23.4352V291.438H21.7012C21.8707 291.623 22.0403 291.814 22.2208 292H61V283.006L15 283ZM28.6321 291.432H24.3488V283.562H28.6321V291.432ZM33.8289 291.432H29.5456V283.562H33.8289V291.432ZM39.0257 291.432H34.7424V283.562H39.0257V291.432ZM44.2225 291.432H39.9392V283.562H44.2225V291.432ZM49.4193 291.432H45.136V283.562H49.4193V291.432ZM54.6161 291.432H50.3329V283.562H54.6161V291.432ZM60.0864 291.432H55.5297V283.562H60.0864V291.432Z" fill="#3C76F2"/>
<path opacity="0.1" d="M44 308C44.4822 308.264 44.9698 308.518 45.4627 308.771V308.518H49.6577V310.806L50.5525 311.2V308.518H54.7476V312.913L55.6423 313.245V308.518H60.1053V314.731L61 315V308H44Z" fill="#3C76F2"/>
<path d="M53.6908 333.529C53.1106 334.327 52.6483 335.206 52.3183 336.137C52.2276 336.362 52.149 336.623 52.0644 336.873C51.9106 336.802 51.7507 336.745 51.5867 336.702C50.882 336.523 50.1528 336.462 49.4282 336.52C49.4282 336.234 49.4282 335.943 49.4706 335.627C49.5552 332.423 49.1803 327.961 46.1452 329.851C43.2249 331.675 45.3047 334.715 47.1851 336.66L47.6688 337.14C45.9578 338.356 45.6312 341.231 45.341 344.216C45.0508 347.201 42.5356 350.465 40.8669 352.319C40.6976 352.514 40.5404 352.678 40.3953 352.836C39.7219 352.297 38.9432 351.906 38.1099 351.69C37.2766 351.473 36.4073 351.435 35.5583 351.578L35.3346 350.757C33.9803 345.839 31.1688 337.323 27.5835 335.456C27.7346 335.268 27.8918 335.073 28.0551 334.848C29.5787 332.848 31.2898 329.87 28.7564 329.11C26.2231 328.35 25.9994 331.693 26.1384 334.192C26.1384 334.508 26.1626 334.806 26.211 335.085C25.7037 335.109 25.2064 335.236 24.7499 335.46C24.2934 335.683 23.8873 335.999 23.5567 336.386L23.1698 335.918C21.1141 333.487 17.3413 329.614 16.2046 332.538C15.1405 335.262 18.4598 338.8 20.7937 340.848L20.9388 340.976C19.3668 347.365 26.211 352.575 29.8931 354.854L30.3647 355.146C25.2859 361.164 22.154 372.447 22.154 372.447L36.3746 375C36.3746 375 45.8005 366.818 44.5973 359.134H44.6941C54.114 357.237 56.2603 347.134 54.7911 341.14L54.9604 341.067C56.675 340.359 58.1773 339.216 59.3198 337.748C61.9257 334.07 56.3934 329.912 53.6908 333.529Z" fill="#1448B6"/>
<path opacity="0.1" d="M53.6908 333.529C53.1106 334.327 52.6483 335.206 52.3183 336.137C52.2276 336.362 52.149 336.623 52.0644 336.873C51.9106 336.802 51.7507 336.745 51.5867 336.702C50.882 336.523 50.1528 336.462 49.4282 336.52C49.4282 336.234 49.4282 335.943 49.4706 335.627C49.5552 332.423 49.1803 327.961 46.1452 329.851C43.2249 331.675 45.3047 334.715 47.1851 336.66L47.6688 337.14C45.9578 338.356 45.6312 341.231 45.341 344.216C45.0508 347.201 42.5356 350.465 40.8669 352.319C40.6976 352.514 40.5404 352.678 40.3953 352.836C39.7219 352.297 38.9432 351.906 38.1099 351.69C37.2766 351.473 36.4073 351.435 35.5583 351.578L35.3346 350.757C33.9803 345.839 31.1688 337.323 27.5835 335.456C27.7346 335.268 27.8918 335.073 28.0551 334.848C29.5787 332.848 31.2898 329.87 28.7564 329.11C26.2231 328.35 25.9994 331.693 26.1384 334.192C26.1384 334.508 26.1626 334.806 26.211 335.085C25.7037 335.109 25.2064 335.236 24.7499 335.46C24.2934 335.683 23.8873 335.999 23.5567 336.386L23.1698 335.918C21.1141 333.487 17.3413 329.614 16.2046 332.538C15.1405 335.262 18.4598 338.8 20.7937 340.848L20.9388 340.976C19.3668 347.365 26.211 352.575 29.8931 354.854L30.3647 355.146C25.2859 361.164 22.154 372.447 22.154 372.447L36.3746 375C36.3746 375 45.8005 366.818 44.5973 359.134H44.6941C54.114 357.237 56.2603 347.134 54.7911 341.14L54.9604 341.067C56.675 340.359 58.1773 339.216 59.3198 337.748C61.9257 334.07 56.3934 329.912 53.6908 333.529Z" fill="black"/>
<path d="M25 335.128L23.2482 340C23.2482 340 22.2799 339.346 21.0505 338.318C18.5916 336.278 15.0944 332.756 16.2156 330.045C17.4132 327.134 21.3882 330.977 23.554 333.41C24.4267 334.378 25 335.128 25 335.128Z" fill="#1448B6"/>
<path d="M28.9957 332.009C28.4774 332.703 27.9222 333.368 27.3324 334C27.1842 333.121 27.0834 332.235 27.0306 331.345C26.8889 328.771 27.1538 325.34 29.6979 326.11C32.2421 326.88 30.5357 329.949 28.9957 332.009Z" fill="#1448B6"/>
<path d="M49.9911 332.823C49.9456 334.588 49.8143 336 49.8143 336C49.2032 335.37 48.6245 334.687 48.082 333.955C46.5113 331.81 44.7739 328.486 47.2133 326.494C49.7638 324.423 50.0618 329.312 49.9911 332.823Z" fill="#1448B6"/>
<path d="M60.2604 334.923C59.0475 336.475 57.4529 337.685 55.6328 338.434C55.1281 338.657 54.6093 338.846 54.0796 339L52 336.074C52.2183 335.107 52.5058 334.157 52.8601 333.232C53.2104 332.246 53.7012 331.317 54.3171 330.473C57.1925 326.646 63.0652 331.045 60.2604 334.923Z" fill="#1448B6"/>
<path opacity="0.1" d="M23.5355 333C24.4194 334.028 25 334.826 25 334.826L23.2258 340C23.2258 340 22.2452 339.306 21 338.213C21.2742 336.556 21.9595 334.994 22.9936 333.668C23.1742 333.424 23.3613 333.206 23.5355 333Z" fill="black"/>
<path opacity="0.1" d="M29 331.75C28.4726 332.534 27.9075 333.285 27.3072 334C27.1564 333.007 27.0538 332.006 27 331C27.7193 331.011 28.4181 331.273 29 331.75Z" fill="black"/>
<path d="M37 351.179L32.741 353C31.9643 352.621 31.2079 352.203 30.4745 351.75C25.9976 349.067 16.9939 342.311 23.0026 334.348C29.0113 326.384 34.0673 340.666 36.0785 347.653C36.6887 349.747 37 351.179 37 351.179Z" fill="#1448B6"/>
<path opacity="0.1" d="M48 334.069C48.5293 333.426 49.2437 333.044 50 333C49.9524 334.667 49.8148 336 49.8148 336C49.1746 335.405 48.5683 334.76 48 334.069Z" fill="black"/>
<path opacity="0.1" d="M56 338.411C55.4443 338.643 54.8731 338.84 54.2898 339L52 335.957C52.2404 334.951 52.557 333.963 52.9471 333C54.4241 333.829 55.5124 335.863 56 338.411Z" fill="black"/>
<path d="M45.3881 356.5C45.1563 356.549 44.9245 356.591 44.6866 356.627C30.7006 358.73 40.0755 351.256 40.0755 351.256C40.0755 351.256 40.6854 350.682 41.5576 349.739C43.2411 347.927 45.7845 344.67 46.0712 341.685C46.5104 337.196 47.0227 332.985 52.3719 334.217C57.6235 335.438 58.6239 353.878 45.3881 356.5Z" fill="#1448B6"/>
<path d="M45 394H18V401H45V394Z" fill="#D4DFEC"/>
<path d="M49 371H14V396H49V371Z" fill="#D4DFEC"/>
<path opacity="0.1" d="M45 394H18V401H45V394Z" fill="black"/>
<path opacity="0.1" d="M49 371H14V396H49V371Z" fill="black"/>
<path d="M47 394H20V401H47V394Z" fill="#D4DFEC"/>
<path opacity="0.1" d="M36.0115 348C36.6794 349.955 37 351.295 37 351.295L32.4313 353C31.5982 352.645 30.7867 352.254 30 351.83C31.8034 349.892 33.8206 348.438 36.0115 348Z" fill="black"/>
<path opacity="0.1" d="M45 356.449C44.7789 356.503 44.5579 356.549 44.331 356.589C30.992 358.906 39.9332 350.671 39.9332 350.671C39.9332 350.671 40.5149 350.039 41.3468 349C43.8365 351.297 44.8662 353.853 45 356.449Z" fill="black"/>
<path d="M23 372.505C23 372.505 30.9171 345.182 42.0159 353.616C53.1146 362.051 37.5024 375 37.5024 375L23 372.505Z" fill="#1448B6"/>
<path opacity="0.1" d="M27 340C27.5523 340 28 339.552 28 339C28 338.448 27.5523 338 27 338C26.4477 338 26 338.448 26 339C26 339.552 26.4477 340 27 340Z" fill="black"/>
<path opacity="0.1" d="M26.5 344C26.7761 344 27 343.552 27 343C27 342.448 26.7761 342 26.5 342C26.2239 342 26 342.448 26 343C26 343.552 26.2239 344 26.5 344Z" fill="black"/>
<path opacity="0.1" d="M52 341C52.5523 341 53 340.552 53 340C53 339.448 52.5523 339 52 339C51.4477 339 51 339.448 51 340C51 340.552 51.4477 341 52 341Z" fill="black"/>
<path opacity="0.1" d="M31.5 362C31.7761 362 32 361.552 32 361C32 360.448 31.7761 360 31.5 360C31.2238 360 31 360.448 31 361C31 361.552 31.2238 362 31.5 362Z" fill="black"/>
<path opacity="0.1" d="M50 347C50.5523 347 51 346.776 51 346.5C51 346.224 50.5523 346 50 346C49.4477 346 49 346.224 49 346.5C49 346.776 49.4477 347 50 347Z" fill="black"/>
<path opacity="0.1" d="M41 357C41.5523 357 42 356.552 42 356C42 355.448 41.5523 355 41 355C40.4477 355 40 355.448 40 356C40 356.552 40.4477 357 41 357Z" fill="black"/>
<path opacity="0.1" d="M30 342C30.5523 342 31 341.552 31 341C31 340.448 30.5523 340 30 340C29.4477 340 29 340.448 29 341C29 341.552 29.4477 342 30 342Z" fill="black"/>
<path opacity="0.1" d="M50 343C50.5523 343 51 342.552 51 342C51 341.448 50.5523 341 50 341C49.4477 341 49 341.448 49 342C49 342.552 49.4477 343 50 343Z" fill="black"/>
<path opacity="0.1" d="M47 350C47.5523 350 48 349.552 48 349C48 348.448 47.5523 348 47 348C46.4477 348 46 348.448 46 349C46 349.552 46.4477 350 47 350Z" fill="black"/>
<path opacity="0.1" d="M37.5 361C37.7761 361 38 360.552 38 360C38 359.448 37.7761 359 37.5 359C37.2239 359 37 359.448 37 360C37 360.552 37.2239 361 37.5 361Z" fill="black"/>
<path opacity="0.1" d="M35.5 357C35.7761 357 36 356.552 36 356C36 355.448 35.7761 355 35.5 355C35.2239 355 35 355.448 35 356C35 356.552 35.2239 357 35.5 357Z" fill="black"/>
<path opacity="0.1" d="M31 347C31.5523 347 32 346.552 32 346C32 345.448 31.5523 345 31 345C30.4477 345 30 345.448 30 346C30 346.552 30.4477 347 31 347Z" fill="black"/>
<path opacity="0.1" d="M47 394H20V397H47V394Z" fill="black"/>
<path d="M51 371H16V396H51V371Z" fill="#D4DFEC"/>
<path opacity="0.1" d="M38.5 365C38.7761 365 39 364.552 39 364C39 363.448 38.7761 363 38.5 363C38.2239 363 38 363.448 38 364C38 364.552 38.2239 365 38.5 365Z" fill="black"/>
<path opacity="0.1" d="M33 366C33.5523 366 34 365.552 34 365C34 364.448 33.5523 364 33 364C32.4477 364 32 364.448 32 365C32 365.552 32.4477 366 33 366Z" fill="black"/>
</svg>
