<svg width="14" height="11" viewBox="0 0 14 11" fill="none" xmlns="http://www.w3.org/2000/svg">
<path fill-rule="evenodd" clip-rule="evenodd" d="M12.7101 4.83955e-06C12.3721 0.000925328 12.0481 0.133113 11.8081 0.367991H11.8098C11.7976 0.379682 11.7861 0.392123 11.7755 0.405239L5.81889 7.89709C5.1667 8.42245 4.16782 9.51859 4.57844 10.2652L4.9459 10.628C5.06818 10.7487 5.21387 10.8439 5.37426 10.9078C5.53465 10.9716 5.70643 11.0029 5.87935 10.9998C6.05227 10.9966 6.22277 10.9591 6.38065 10.8894C6.53853 10.8197 6.68055 10.7193 6.79822 10.5942L13.645 2.14572C13.8781 1.90417 14.0056 1.58175 13.9998 1.24817C13.9941 0.914583 13.8555 0.596638 13.6142 0.363072C13.3729 0.129505 13.0481 -0.000915649 12.7101 4.83955e-06Z" fill="#3F78F3"/>
<path d="M0.111358 5.73595C0.181664 5.89171 0.283031 6.0319 0.409413 6.14815L4.57844 10.2652C4.16782 9.51859 5.1667 8.42245 5.81889 7.89709L2.22744 4.35349C2.10967 4.22873 1.96766 4.12867 1.80987 4.05926C1.65208 3.98986 1.48175 3.95254 1.30903 3.94953C1.13631 3.94653 0.964751 3.97789 0.80458 4.04175C0.644408 4.10562 0.498909 4.20068 0.37676 4.32125C0.254612 4.44183 0.158317 4.58546 0.0936211 4.74358C0.0289251 4.90169 -0.0028472 5.07105 0.000200188 5.24154C0.00324758 5.41204 0.0410522 5.58019 0.111358 5.73595Z" fill="#3F78F3"/>
</svg>
