<svg width="11" height="11" viewBox="0 0 11 11" fill="none" xmlns="http://www.w3.org/2000/svg">
<path fill-rule="evenodd" clip-rule="evenodd" d="M8.71015 4.83955e-06C8.37218 0.000925328 8.04815 0.133113 7.80812 0.367991H7.80983C7.79762 0.379682 7.78616 0.392123 7.77553 0.405239L1.81893 7.89709C1.16673 8.42245 0.167854 9.51859 0.578479 10.2652L0.945934 10.628C1.06822 10.7487 1.21391 10.8439 1.3743 10.9078C1.53468 10.9716 1.70647 11.0029 1.87939 10.9998C2.05231 10.9966 2.2228 10.9591 2.38068 10.8894C2.53857 10.8197 2.68059 10.7193 2.79826 10.5942L9.64501 2.14572C9.87814 1.90417 10.0056 1.58175 9.99985 1.24817C9.99409 0.914583 9.85557 0.596638 9.61423 0.363072C9.37289 0.129505 9.04813 -0.000915649 8.71015 4.83955e-06Z" fill="#F5672F"/>
<path fill-rule="evenodd" clip-rule="evenodd" d="M2.28985 4.83955e-06C2.62782 0.000925328 2.95185 0.133113 3.19188 0.367991H3.19017C3.20238 0.379682 3.21384 0.392123 3.22447 0.405239L9.18107 7.89709C9.83327 8.42245 10.8321 9.51859 10.4215 10.2652L10.0541 10.628C9.93178 10.7487 9.78609 10.8439 9.6257 10.9078C9.46532 10.9716 9.29353 11.0029 9.12061 10.9998C8.94769 10.9966 8.7772 10.9591 8.61932 10.8894C8.46143 10.8197 8.31941 10.7193 8.20174 10.5942L1.35499 2.14572C1.12186 1.90417 0.994391 1.58175 1.00015 1.24817C1.00591 0.914583 1.14443 0.596638 1.38577 0.363072C1.62711 0.129505 1.95187 -0.000915649 2.28985 4.83955e-06Z" fill="#F5672F"/>
</svg>
