<svg width="27" height="27" viewBox="0 0 27 27" fill="none" xmlns="http://www.w3.org/2000/svg">
<path d="M13.013 2.41857C9.54208 2.43898 9.1305 2.4544 7.76047 2.5253C6.9363 2.53993 6.12077 2.69607 5.34948 2.9869C4.78996 3.20652 4.28262 3.54086 3.86009 3.96838C3.43757 4.3959 3.10923 4.90714 2.8962 5.4692C2.61446 6.24386 2.46793 7.06117 2.46299 7.88546C2.40821 9.25622 2.39763 9.66796 2.41805 13.14C2.43847 16.612 2.45388 17.0214 2.52477 18.3914C2.5394 19.2156 2.69554 20.0311 2.98637 20.8024C3.206 21.362 3.54033 21.8693 3.96785 22.2918C4.39537 22.7143 4.90661 23.0427 5.46867 23.2557C6.24333 23.5375 7.06064 23.684 7.88493 23.6889C9.25569 23.7437 9.66743 23.7543 13.1384 23.7339C16.6093 23.7135 17.0209 23.698 18.3909 23.6271C19.2151 23.6125 20.0306 23.4564 20.8019 23.1655C21.3614 22.9459 21.8688 22.6116 22.2913 22.1841C22.7138 21.7565 23.0422 21.2453 23.2552 20.6832C23.5369 19.9086 23.6835 19.0913 23.6884 18.267C23.7432 16.8962 23.7538 16.4845 23.7333 13.0135C23.7129 9.54261 23.6975 9.13103 23.6266 7.761C23.612 6.93683 23.4558 6.1213 23.165 5.35001C22.9454 4.79049 22.6111 4.28314 22.1835 3.86062C21.756 3.4381 21.2448 3.10976 20.6827 2.89673C19.9081 2.61499 19.0907 2.46845 18.2665 2.46351C16.8957 2.40874 16.484 2.39816 13.013 2.41857ZM12.9992 0.0764464C16.5298 0.0556848 16.9729 0.0682457 18.3599 0.122924C19.4382 0.138354 20.5061 0.336474 21.5181 0.708862C22.3838 1.03777 23.1712 1.54391 23.8298 2.19486C24.4885 2.84581 25.0038 3.6272 25.3429 4.48894C25.7273 5.49687 25.938 6.5627 25.966 7.64108C26.0369 9.02735 26.0547 9.46817 26.0755 12.9998C26.0962 16.5314 26.0837 16.9735 26.029 18.3605C26.0136 19.4387 25.8154 20.5066 25.4431 21.5186C25.1142 22.3843 24.608 23.1717 23.9571 23.8304C23.3061 24.489 22.5247 25.0044 21.663 25.3434C20.655 25.7278 19.5892 25.9385 18.5108 25.9665C17.1246 26.0375 16.6827 26.0552 13.1521 26.076C9.62162 26.0968 9.17845 26.0842 7.79144 26.0295C6.71281 26.0142 5.64458 25.8161 4.63219 25.4436C3.76652 25.1147 2.97913 24.6085 2.32048 23.9576C1.66183 23.3066 1.14646 22.5253 0.807395 21.6635C0.423379 20.6555 0.213077 19.5897 0.185434 18.5114C0.114447 17.1251 0.0966871 16.6843 0.0759192 13.1527C0.0551513 9.62106 0.0677191 9.17898 0.122398 7.79197C0.137827 6.7137 0.335945 5.64585 0.708334 4.6338C1.03724 3.76814 1.54339 2.98074 2.19433 2.32209C2.84528 1.66344 3.62667 1.14807 4.48841 0.809007C5.49641 0.424989 6.56224 0.214687 7.64055 0.187043C9.02682 0.11389 9.46764 0.0972143 12.9992 0.0764464Z" fill="white"/>
<path d="M16.999 6.39336C16.999 6.29025 16.9607 6.19137 16.8925 6.11846C16.8243 6.04556 16.7318 6.0046 16.6354 6.0046H14.8172C13.9017 5.95584 13.0053 6.29647 12.3239 6.95207C11.6425 7.60767 11.2316 8.52493 11.1808 9.50345V11.6028H9.36266C9.26622 11.6028 9.17373 11.6437 9.10553 11.7166C9.03734 11.7895 8.99902 11.8884 8.99902 11.9915V14.0131C8.99902 14.1162 9.03734 14.2151 9.10553 14.288C9.17373 14.3609 9.26622 14.4018 9.36266 14.4018H11.1808V19.6112C11.1808 19.7143 11.2192 19.8132 11.2873 19.8861C11.3555 19.959 11.448 20 11.5445 20H13.7263C13.8227 20 13.9152 19.959 13.9834 19.8861C14.0516 19.8132 14.0899 19.7143 14.0899 19.6112V14.4018H15.9954C16.0763 14.4031 16.1552 14.3755 16.2197 14.3234C16.2843 14.2713 16.3307 14.1976 16.3518 14.1142L16.8754 12.0926C16.8899 12.0352 16.8918 11.9749 16.8811 11.9166C16.8703 11.8582 16.8472 11.8032 16.8135 11.7559C16.7798 11.7086 16.7364 11.6702 16.6866 11.6436C16.6368 11.6171 16.5819 11.6031 16.5263 11.6028H14.0899V9.50345C14.108 9.31099 14.1926 9.13266 14.327 9.00326C14.4615 8.87387 14.6363 8.80271 14.8172 8.80368H16.6354C16.7318 8.80368 16.8243 8.76272 16.8925 8.68981C16.9607 8.61691 16.999 8.51802 16.999 8.41492V6.39336Z" fill="white"/>
</svg>
