<svg width="26" height="27" viewBox="0 0 26 27" fill="none" xmlns="http://www.w3.org/2000/svg">
<path d="M5.5704 8.13768C4.74199 8.14255 4.06648 7.47493 4.06161 6.64652C4.05674 5.81811 4.72435 5.1426 5.55276 5.13773C6.38117 5.13286 7.05668 5.80047 7.06156 6.62888C7.06643 7.45729 6.39881 8.1328 5.5704 8.13768Z" fill="white"/>
<path d="M12.5577 6.09682C13.8433 6.08926 15.1022 6.46308 16.1753 7.17101C17.2484 7.87894 18.0875 8.88918 18.5864 10.074C19.0854 11.2588 19.2218 12.5649 18.9784 13.8273C18.735 15.0896 18.1228 16.2514 17.2191 17.1658C16.3154 18.0802 15.1609 18.706 13.9015 18.9642C12.6421 19.2225 11.3345 19.1014 10.1439 18.6164C8.95328 18.1315 7.93323 17.3043 7.21273 16.2396C6.49223 15.1749 6.10362 13.9205 6.09607 12.6349C6.08593 10.911 6.76101 9.25375 7.97281 8.02762C9.18461 6.80148 10.8339 6.10695 12.5577 6.09682ZM12.6208 16.816C13.4553 16.8111 14.2696 16.5589 14.9607 16.0912C15.6519 15.6235 16.1888 14.9613 16.5036 14.1884C16.8184 13.4156 16.897 12.5667 16.7294 11.7492C16.5618 10.9317 16.1555 10.1823 15.5619 9.59564C14.9684 9.00902 14.2142 8.61159 13.3948 8.4536C12.5753 8.29561 11.7275 8.38415 10.9584 8.70804C10.1893 9.03193 9.53346 9.5766 9.07392 10.2732C8.61437 10.9698 8.37171 11.787 8.37662 12.6215C8.3832 13.7406 8.83405 14.8111 9.62998 15.5978C10.4259 16.3844 11.5017 16.8226 12.6208 16.816Z" fill="white"/>
<path d="M12.5365 2.43907C9.19901 2.4587 8.80326 2.47402 7.48594 2.5446C6.69347 2.55905 5.90934 2.715 5.16778 3.00566C4.62983 3.22516 4.14207 3.55938 3.7359 3.9868C3.32972 4.41422 3.01413 4.92539 2.80942 5.48741C2.53869 6.262 2.39797 7.07927 2.39341 7.90356C2.34105 9.27431 2.33097 9.68604 2.35139 13.1581C2.37181 16.6301 2.38672 17.0395 2.45519 18.4095C2.46945 19.2337 2.61977 20.0493 2.89959 20.8206C3.11089 21.3802 3.43248 21.8876 3.84365 22.3102C4.25482 22.7329 4.74648 23.0613 5.28697 23.2745C6.0319 23.5564 6.81781 23.7031 7.6104 23.7082C8.92845 23.7633 9.32435 23.774 12.6618 23.7544C15.9992 23.7347 16.395 23.7194 17.7123 23.6488C18.5048 23.6344 19.2889 23.4784 20.0305 23.1878C20.5684 22.9683 21.0562 22.6341 21.4623 22.2066C21.8685 21.7792 22.1841 21.268 22.3888 20.706C22.6596 19.9314 22.8003 19.1142 22.8048 18.2899C22.8572 16.9191 22.8673 16.5074 22.8469 13.0365C22.8265 9.56552 22.8115 9.15393 22.7431 7.78389C22.7288 6.95972 22.5785 6.14415 22.2987 5.3728C22.0874 4.81323 21.7658 4.30581 21.3546 3.88319C20.9434 3.46057 20.4518 3.13212 19.9113 2.91896C19.1663 2.63705 18.3804 2.49032 17.5879 2.4852C16.2698 2.43012 15.8739 2.41944 12.5365 2.43907ZM12.5227 0.0969436C15.9174 0.0769806 16.3435 0.0896417 17.6772 0.144633C18.714 0.160307 19.7408 0.358669 20.714 0.731285C21.5465 1.06038 22.3037 1.56671 22.9372 2.21781C23.5707 2.8689 24.0664 3.65041 24.3926 4.51222C24.7624 5.52024 24.9652 6.58611 24.9924 7.6645C25.061 9.05078 25.0781 9.49161 25.0989 13.0232C25.1197 16.5548 25.1077 16.9969 25.0554 18.3839C25.0408 19.4622 24.8506 20.53 24.4927 21.5419C24.1767 22.4075 23.6902 23.1948 23.0644 23.8533C22.4387 24.5118 21.6874 25.027 20.8589 25.3659C19.8898 25.75 18.865 25.9604 17.8281 25.9882C16.4952 26.0589 16.0703 26.0765 12.6756 26.0965C9.28084 26.1165 8.85471 26.1038 7.52103 26.0488C6.48388 26.0333 5.45669 25.8349 4.48316 25.4622C3.65071 25.1331 2.89348 24.6267 2.26002 23.9756C1.62655 23.3245 1.13082 22.543 0.804609 21.6812C0.435132 20.6731 0.232678 19.6073 0.205854 18.5289C0.137285 17.1427 0.120107 16.7018 0.0993394 13.1702C0.0785715 9.63862 0.0905576 9.19654 0.142818 7.80954C0.157412 6.73128 0.347667 5.66347 0.705504 4.65151C1.02156 3.78592 1.50807 2.99865 2.13383 2.34014C2.7596 1.68164 3.51081 1.16645 4.33933 0.827578C5.30848 0.443789 6.33327 0.233728 7.37011 0.206328C8.70303 0.133489 9.1269 0.116913 12.5227 0.0969436Z" fill="white"/>
</svg>
