<svg width="71" height="71" viewBox="0 0 71 71" fill="none" xmlns="http://www.w3.org/2000/svg">
<path d="M35.5 35.4996L9.017 24.9206L10.65 63.8996H3.55L5.254 23.3941L0 21.2996L35.5 7.09961L71 21.2996L35.5 35.4996ZM35.5 17.7496C33.5475 17.7496 31.95 18.5306 31.95 19.5246C31.95 20.5186 33.5475 21.2996 35.5 21.2996C37.4525 21.2996 39.05 20.5186 39.05 19.5246C39.05 18.5306 37.4525 17.7496 35.5 17.7496ZM35.5 39.0496L55.2735 31.1331C57.794 34.4701 59.5335 38.4816 60.1015 42.8481C59.0365 42.7061 57.936 42.5996 56.8 42.5996C47.7475 42.5996 39.831 47.4631 35.5 54.7051C33.3017 51.0158 30.1829 47.9605 26.4492 45.8385C22.7154 43.7165 18.4946 42.6004 14.2 42.5996C13.064 42.5996 11.9635 42.7061 10.8985 42.8481C11.4665 38.4816 13.206 34.4701 15.7265 31.1331L35.5 39.0496Z" fill="#EBF1FE"/>
</svg>
