<svg width="66" height="74" viewBox="0 0 66 74" fill="none" xmlns="http://www.w3.org/2000/svg">
<path d="M34.7498 16.0333C42.0786 16.0333 44.796 19.5278 45.043 24.6667H54.1422C53.854 17.5956 49.5309 11.1 40.9258 9.00333V0H28.5739V8.88C26.9682 9.20889 25.486 9.74333 24.0449 10.36L30.262 16.5678C31.5795 16.2389 33.1029 16.0333 34.7498 16.0333ZM5.80536 3.78222L0 9.57889L14.1634 23.7211C14.1634 32.2722 20.5864 36.9589 30.262 39.7956L44.7137 54.2256C43.3138 56.24 40.3905 57.9667 34.7498 57.9667C26.2682 57.9667 22.9333 54.1844 22.4804 49.3333H13.4223C13.9164 58.3367 20.6687 63.3933 28.5739 65.0789V74H40.9258V65.1611C44.8784 64.4211 48.4604 62.9 51.0543 60.5567L60.1946 69.6833L66 63.8867L5.80536 3.78222Z" fill="#EBF1FE"/>
</svg>
