<svg width="58" height="58" viewBox="0 0 58 58" fill="none" xmlns="http://www.w3.org/2000/svg">
<path d="M21.9556 5.9206H32.9197V11.4026H23.052L28.534 16.8847H49.3658V37.7164L54.8478 43.1985V16.8847C54.8478 13.8422 52.4083 11.4026 49.3658 11.4026H38.4017V5.9206C38.4017 2.87807 35.9622 0.438563 32.9197 0.438563H21.9556C19.242 0.438563 17.0217 2.35728 16.5832 4.93384L21.9556 10.3062V5.9206ZM3.86484 0L0 3.86484L7.53781 11.4026H5.50945C2.46692 11.4026 0.0548204 13.8422 0.0548204 16.8847L0.0274102 47.0359C0.0274102 50.0785 2.46692 52.518 5.50945 52.518H48.6531L54.1352 58L58 54.1352L3.86484 0ZM5.50945 47.0359V16.8847H13.0198L43.1711 47.0359H5.50945Z" fill="#EBF1FE"/>
</svg>
