<svg width="48" height="47" viewBox="0 0 48 47" fill="none" xmlns="http://www.w3.org/2000/svg">
<path d="M3.29586 0L46.1164 43.0069L42.8229 46.3146L34.0953 37.5495L24.7061 47L4.95427 27.1352C2.65849 24.5488 1.39644 21.2009 1.41106 17.7361C1.42568 14.2712 2.71593 10.9342 5.03347 8.36746L0 3.31002L3.29586 0ZM43.906 7.8692C46.4294 10.403 47.8921 13.8103 47.9943 17.3924C48.0965 20.9746 46.8304 24.4604 44.4557 27.1352L40.6474 30.9622L13.6656 3.86676C15.6463 3.61741 17.6571 3.79809 19.5623 4.39658C21.4674 4.99507 23.2224 5.99742 24.7085 7.33585C27.3698 4.94328 30.8425 3.66528 34.413 3.76448C37.9834 3.86367 41.3805 5.33253 43.906 7.8692Z" fill="#EBF1FE"/>
</svg>
