<svg width="61" height="61" viewBox="0 0 61 61" fill="none" xmlns="http://www.w3.org/2000/svg">
<path d="M46.1206 22.453C46.5126 22.0324 46.7259 21.4761 46.7158 20.9013C46.7056 20.3265 46.4728 19.7781 46.0663 19.3715C45.6598 18.965 45.1113 18.7322 44.5365 18.722C43.9617 18.7119 43.4054 18.9253 42.9848 19.3172L25.3236 36.9784L18.0165 29.6713C17.5959 29.2794 17.0396 29.0661 16.4648 29.0762C15.89 29.0863 15.3415 29.3192 14.935 29.7257C14.5285 30.1322 14.2956 30.6807 14.2855 31.2555C14.2754 31.8303 14.4887 32.3866 14.8806 32.8072L23.7556 41.6822C24.1717 42.0977 24.7356 42.3311 25.3236 42.3311C25.9115 42.3311 26.4755 42.0977 26.8915 41.6822L46.1206 22.453Z" fill="#EBF1FE"/>
<path fill-rule="evenodd" clip-rule="evenodd" d="M6.0931 0.916992C4.72005 0.916992 3.40324 1.46243 2.43235 2.43333C1.46146 3.40422 0.916016 4.72103 0.916016 6.09408V54.9066C0.916016 57.7643 3.23535 60.0837 6.0931 60.0837H54.9056C56.2786 60.0837 57.5955 59.5382 58.5664 58.5673C59.5372 57.5964 60.0827 56.2796 60.0827 54.9066V6.09408C60.0827 4.72103 59.5372 3.40422 58.5664 2.43333C57.5955 1.46243 56.2786 0.916992 54.9056 0.916992H6.0931ZM5.35352 6.09408C5.35352 5.89793 5.43144 5.70981 5.57014 5.57111C5.70883 5.43241 5.89695 5.35449 6.0931 5.35449H54.9056C55.1018 5.35449 55.2899 5.43241 55.4286 5.57111C55.5673 5.70981 55.6452 5.89793 55.6452 6.09408V54.9066C55.6452 55.1027 55.5673 55.2908 55.4286 55.4295C55.2899 55.5682 55.1018 55.6462 54.9056 55.6462H6.0931C5.89695 55.6462 5.70883 55.5682 5.57014 55.4295C5.43144 55.2908 5.35352 55.1027 5.35352 54.9066V6.09408Z" fill="#EBF1FE"/>
</svg>
