<svg width="64" height="63" viewBox="0 0 64 63" fill="none" xmlns="http://www.w3.org/2000/svg">
<path d="M24.583 6.66621H36.4163V12.4995H25.7663L31.683 18.3329H54.1663V40.4995L60.083 46.3329V18.3329C60.083 15.0954 57.4501 12.4995 54.1663 12.4995H42.333V6.66621C42.333 3.42871 39.7001 0.832878 36.4163 0.832878H24.583C21.6542 0.832878 19.258 2.87454 18.7846 5.61621L24.583 11.3329V6.66621ZM5.05797 0.366211L0.886719 4.47871L9.02213 12.4995H6.83297C3.54922 12.4995 0.945885 15.0954 0.945885 18.3329L0.916302 50.4162C0.916302 53.6537 3.54922 56.2495 6.83297 56.2495H53.3971L59.3138 62.0829L63.4851 57.9704L5.05797 0.366211ZM6.83297 50.4162V18.3329H14.9388L47.4805 50.4162H6.83297Z" fill="#EBF1FE"/>
</svg>
