<svg width="65" height="66" viewBox="0 0 65 66" fill="none" xmlns="http://www.w3.org/2000/svg">
<path d="M58.166 0.5H6.83268C5.13088 0.5 3.49877 1.18482 2.29541 2.40381C1.09206 3.62279 0.416016 5.27609 0.416016 7V46C0.416016 47.7239 1.09206 49.3772 2.29541 50.5962C3.49877 51.8152 5.13088 52.5 6.83268 52.5H26.0827V59H16.4577V65.5H48.541V59H38.916V52.5H58.166C59.8678 52.5 61.4999 51.8152 62.7033 50.5962C63.9066 49.3772 64.5827 47.7239 64.5827 46V7C64.5827 5.27609 63.9066 3.62279 62.7033 2.40381C61.4999 1.18482 59.8678 0.5 58.166 0.5ZM58.166 46H6.83268V7H58.166V46ZM47.7389 36.25C47.7389 37.7584 47.1474 39.2051 46.0945 40.2717C45.0415 41.3383 43.6134 41.9375 42.1244 41.9375C40.6353 41.9375 39.2072 41.3383 38.1542 40.2717C37.1013 39.2051 36.5098 37.7584 36.5098 36.25L26.0827 30.92C25.2707 31.5532 24.2999 31.9434 23.2802 32.0463C22.2605 32.1493 21.2328 31.9609 20.3134 31.5025C19.394 31.0442 18.6197 30.3341 18.0782 29.4528C17.5368 28.5716 17.2498 27.5543 17.2498 26.5163C17.2498 25.4782 17.5368 24.4609 18.0782 23.5797C18.6197 22.6984 19.394 21.9883 20.3134 21.53C21.2328 21.0716 22.2605 20.8832 23.2802 20.9862C24.2999 21.0891 25.2707 21.4793 26.0827 22.1125L36.5098 16.75C36.4918 15.4459 36.9118 14.1744 37.7009 13.1439C38.4901 12.1134 39.6014 11.3851 40.8528 11.0785C42.1042 10.7719 43.4213 10.9051 44.5881 11.4563C45.7549 12.0075 46.7022 12.944 47.2746 14.1122C47.847 15.2804 48.0105 16.611 47.7384 17.8857C47.4663 19.1604 46.7746 20.3036 45.7768 21.1278C44.7791 21.952 43.5344 22.4084 42.247 22.4219C40.9596 22.4355 39.7059 22.0055 38.6914 21.2025L28.3606 26.5L38.6914 31.7325C39.5195 31.0683 40.5166 30.6556 41.567 30.5425C42.6173 30.4294 43.6778 30.6205 44.6252 31.0935C45.5726 31.5666 46.3681 32.3022 46.9193 33.215C47.4704 34.1277 47.7547 35.1801 47.7389 36.25Z" fill="#EBF1FE"/>
</svg>
