<svg width="69" height="71" viewBox="0 0 69 71" fill="none" xmlns="http://www.w3.org/2000/svg">
<path d="M57.2046 0.046875H15.2202C13.0633 0.046875 11.3086 1.8117 11.3086 3.98095V62.992C11.3086 65.1613 13.0633 66.9261 15.2202 66.9261H57.2046C59.3615 66.9261 61.1162 65.1613 61.1162 62.992V3.98095C61.1162 1.8117 59.3615 0.046875 57.2046 0.046875ZM57.2046 62.992H15.2202V3.98095H57.2046C57.2071 64.2833 57.2177 62.992 57.2046 62.992Z" fill="#EBF1FE"/>
<path d="M43.5138 26.2734C38.1588 26.2734 33.8404 30.8764 34.2908 36.3571C34.2402 36.6309 34.2564 35.4891 34.2564 54.4676C34.2564 55.8641 35.6669 56.8172 36.9524 56.2883L43.5138 53.5903L50.0752 56.2885C51.3568 56.8152 52.7712 55.8691 52.7712 54.4676V35.5841C52.7712 30.4502 48.6183 26.2734 43.5138 26.2734ZM43.5138 30.2075C46.4614 30.2075 48.8596 32.6195 48.8596 35.5841C48.8596 38.5487 46.4614 40.9606 43.5138 40.9606C40.5662 40.9606 38.168 38.5487 38.168 35.5841C38.168 32.6195 40.5662 30.2075 43.5138 30.2075ZM44.254 49.6445C43.7795 49.4495 43.2481 49.4495 42.7736 49.6445L38.168 51.5383V43.1783C41.3726 45.4669 45.6517 45.4692 48.8596 43.1783V51.5383L44.254 49.6445Z" fill="#EBF1FE"/>
<path d="M43.5138 30.2075C46.4614 30.2075 48.8596 32.6195 48.8596 35.5841C48.8596 38.5487 46.4614 40.9606 43.5138 40.9606C40.5662 40.9606 38.168 38.5487 38.168 35.5841C38.168 32.6195 40.5662 30.2075 43.5138 30.2075Z" fill="#EBF1FE"/>
<path d="M44.254 49.6445C43.7795 49.4495 43.2481 49.4495 42.7736 49.6445L38.168 51.5383V43.1783C41.3726 45.4669 45.6517 45.4692 48.8596 43.1783V51.5383L44.254 49.6445Z" fill="#EBF1FE"/>
<path d="M4.18048 4.125L0.53125 7.3874L65.001 70.5964L68.6502 65.7028L4.18048 4.125Z" fill="#EBF1FE"/>
<path d="M50.8147 9.48828H21.6081C20.528 9.48828 19.6523 10.369 19.6523 11.4553C19.6523 12.5417 20.528 13.4224 21.6081 13.4224H50.8147C51.8948 13.4224 52.7705 12.5417 52.7705 11.4553C52.7705 10.369 51.8948 9.48828 50.8147 9.48828Z" fill="#EBF1FE"/>
<path d="M50.8147 17.8818H21.6081C20.528 17.8818 19.6523 18.7625 19.6523 19.8489C19.6523 20.9352 20.528 21.8159 21.6081 21.8159H50.8147C51.8948 21.8159 52.7705 20.9352 52.7705 19.8489C52.7705 18.7625 51.8948 17.8818 50.8147 17.8818Z" fill="#EBF1FE"/>
<path d="M28.327 26.5361H21.148C20.322 26.5361 19.6523 27.4168 19.6523 28.5032C19.6523 29.5895 20.322 30.4702 21.148 30.4702H28.327C29.153 30.4702 29.8226 29.5895 29.8226 28.5032C29.8226 27.4168 29.153 26.5361 28.327 26.5361Z" fill="#EBF1FE"/>
<path d="M27.8667 34.667H21.6081C20.528 34.667 19.6523 35.5477 19.6523 36.634C19.6523 37.7204 20.528 38.6011 21.6081 38.6011H27.8667C28.9468 38.6011 29.8225 37.7204 29.8225 36.634C29.8225 35.5477 28.9468 34.667 27.8667 34.667Z" fill="#EBF1FE"/>
<path d="M27.8667 43.0605H21.6081C20.528 43.0605 19.6523 43.9413 19.6523 45.0276C19.6523 46.1139 20.528 46.9946 21.6081 46.9946H27.8667C28.9468 46.9946 29.8225 46.1139 29.8225 45.0276C29.8225 43.9413 28.9468 43.0605 27.8667 43.0605Z" fill="#EBF1FE"/>
<path d="M27.8667 51.4521H21.6081C20.528 51.4521 19.6523 52.3329 19.6523 53.4192C19.6523 54.5055 20.528 55.3862 21.6081 55.3862H27.8667C28.9468 55.3862 29.8225 54.5055 29.8225 53.4192C29.8225 52.3329 28.9468 51.4521 27.8667 51.4521Z" fill="#EBF1FE"/>
</svg>
