<svg width="77" height="67" viewBox="0 0 77 67" fill="none" xmlns="http://www.w3.org/2000/svg">
<path d="M62.8428 7C60.2516 9.46388 57.1693 11.3606 53.7947 12.5677C50.2364 13.1916 40.3891 8.65424 35.5368 13.2861C34.7281 14.0896 33.7291 14.8931 32.6825 15.6966C30.3991 14.7041 26.8788 13.1916 24.31 11.7264C21.7411 10.2612 15.2714 7 15.2714 7L1 23.5424C1 23.5424 4.52028 28.2689 6.70856 31.3883C8.1357 33.4679 9.89584 36.6346 11.0376 38.7615L9.42013 40.6521C9.0328 41.4165 8.89344 42.2815 9.02122 43.1279C9.14901 43.9743 9.53766 44.7606 10.1337 45.3785C10.8217 45.8909 11.6588 46.1671 12.5186 46.1654C13.3785 46.1637 14.2144 45.8842 14.9004 45.369C14.646 45.6649 14.4535 46.0081 14.3341 46.3787C14.2147 46.7492 14.1708 47.1397 14.2049 47.5273C14.239 47.9149 14.3504 48.2919 14.5327 48.6362C14.715 48.9806 14.9645 49.2854 15.2667 49.533C15.9931 49.9545 16.8195 50.1759 17.6608 50.1742C18.502 50.1725 19.3276 49.9479 20.0523 49.5235C19.5088 50.1966 19.2114 51.0331 19.2088 51.8961C19.2062 52.759 19.4986 53.5973 20.0381 54.2736C20.7393 54.5148 21.4872 54.5916 22.2233 54.4982C22.9594 54.4047 23.6638 54.1434 24.2814 53.7348C23.9737 54.4584 23.894 55.2577 24.0528 56.0272C24.2116 56.7967 24.6015 57.5004 25.171 58.0453C25.9755 58.4004 26.8575 58.5468 27.7345 58.4708C28.6115 58.3947 29.4547 58.0987 30.185 57.6104L32.6397 55.4032C34.8851 57.6246 37.982 59 41.4024 59L41.6925 58.9953C42.8197 58.8997 43.8995 58.5013 44.8163 57.8427C45.733 57.1841 46.4522 56.2902 46.8968 55.2567C47.5914 55.5214 48.3811 55.701 49.2183 55.701C50.341 55.701 51.3828 55.3796 52.2629 54.8266C55.0458 52.9975 54.3798 51.5795 54.3798 51.5795C55.3694 52.0027 56.4686 52.1031 57.5192 51.8661C58.5698 51.6292 59.5177 51.0671 60.2263 50.2609C60.9628 49.5124 61.4271 48.5414 61.546 47.5014C61.6649 46.4615 61.4315 45.4118 60.8828 44.5183C60.9129 44.5361 60.9478 44.5444 60.9827 44.5419C62.9855 44.5419 64.7266 43.4454 65.6352 41.8289C66.0823 40.6801 66.2334 39.4384 66.0747 38.2168C65.9161 36.9952 65.4526 35.8323 64.7266 34.8338L64.7409 34.8575C68.6417 34.1013 68.499 32.1634 70.4019 29.3276C72.2036 27.0134 74.4454 25.0734 77 23.6181L62.8428 7ZM62.6049 40.3685C60.5118 42.4481 58.8943 41.5501 55.3265 38.856C51.7586 36.162 44.6705 31.1047 44.6705 31.1047C44.9607 32.5463 45.6315 33.7988 46.5781 34.796C48.0956 36.4928 52.6149 40.3685 54.7556 42.3536C56.0876 43.5824 59.5128 46.0402 57.5148 47.9307C55.5168 49.8213 53.9469 47.9307 50.6645 45.284C47.3821 42.6372 40.0561 36.1147 40.0561 36.1147C40.0157 36.7399 40.1093 37.3665 40.3308 37.9532C40.5522 38.5398 40.8963 39.073 41.3405 39.5177C42.1492 40.463 46.6685 44.8113 48.5714 46.7964C50.4742 48.7815 52.1392 49.9631 50.5218 51.5228C48.9044 53.0825 45.6219 50.6248 43.8142 48.7815C41.0075 46.0874 35.4417 41.0774 35.4417 41.0774L35.4369 41.3279C35.4369 42.6702 35.9031 43.8991 36.688 44.8727C38.0581 46.6593 40.7221 48.9753 42.3395 50.7713C43.9569 52.5673 44.9084 54.0798 42.3395 55.4977C39.7707 56.9156 35.9649 53.4181 34.2999 51.7166V51.7071C34.3003 51.2403 34.1314 50.789 33.8242 50.4357C33.2552 49.912 32.5531 49.5525 31.7936 49.3959C31.0341 49.2393 30.2461 49.2916 29.5143 49.5472C29.8154 49.2793 30.0567 48.9519 30.2228 48.5859C30.389 48.2199 30.4762 47.8233 30.4788 47.4218C30.4815 47.0203 30.3996 46.6227 30.2384 46.2545C30.0772 45.8863 29.8403 45.5557 29.5428 45.284C28.9184 44.8139 28.1562 44.5599 27.3728 44.5607C26.5893 44.5616 25.8277 44.8172 25.2043 45.2887C25.5195 44.9895 25.7629 44.6236 25.9162 44.2182C26.0696 43.8128 26.1291 43.3783 26.0902 42.9469C26.0514 42.5155 25.9152 42.0984 25.6918 41.7265C25.4685 41.3545 25.1636 41.0374 24.7999 40.7986C23.9483 40.2669 22.949 40.0172 21.9456 40.0851C20.9422 40.153 19.9862 40.5352 19.2151 41.1767C19.7305 40.5561 19.9846 39.7616 19.9243 38.9592C19.864 38.1569 19.494 37.4087 18.8916 36.8709C18.1429 36.1786 17.1888 35.7455 16.1718 35.6364C15.1549 35.5274 14.1298 35.7482 13.2496 36.266L10.0861 30.9582C7.89785 27.5079 5.32899 23.9158 5.32899 23.9158L16.1753 10.8237C16.1753 10.8237 20.0285 13.1869 23.2158 14.9829C24.7857 15.8809 27.4972 17.0625 29.5428 18.0078C26.308 20.4183 23.5964 22.7342 24.4051 24.3412C25.8463 25.3691 27.5686 25.936 29.3424 25.9664C31.1163 25.9968 32.8572 25.4892 34.3333 24.5114C36.2258 23.2614 38.4495 22.5984 40.7221 22.6066C42.3728 22.6066 43.9427 22.9469 45.3651 23.5661C48.0005 25.3338 52.8528 29.6821 57.2769 32.4234C62.8428 36.4408 63.9369 39.0404 62.6049 40.3638V40.3685Z" fill="#EBF1FE"/>
<path d="M3.64923 0L0 3.2624L64.4697 66.4714L68.119 61.5778L3.64923 0Z" fill="#EBF1FE"/>
</svg>
