<svg width="58" height="64" viewBox="0 0 58 64" fill="none" xmlns="http://www.w3.org/2000/svg">
<path d="M30.5377 13.8667C36.9782 13.8667 39.3662 16.8889 39.5833 21.3333H47.5795C47.3263 15.2178 43.5271 9.6 35.9651 7.78667V0H25.1104V7.68C23.6993 7.96444 22.3968 8.42667 21.1304 8.96L26.5939 14.3289C27.7517 14.0444 29.0905 13.8667 30.5377 13.8667ZM5.10168 3.27111L0 8.28444L12.4467 20.5156C12.4467 27.9111 18.0911 31.9644 26.5939 34.4178L39.2938 46.8978C38.0636 48.64 35.4947 50.1333 30.5377 50.1333C23.0842 50.1333 20.1535 46.8622 19.7555 42.6667H11.7954C12.2296 50.4533 18.1634 54.8267 25.1104 56.2844V64H35.9651V56.3556C39.4386 55.7156 42.5864 54.4 44.8659 52.3733L52.8983 60.2667L58 55.2533L5.10168 3.27111Z" fill="#EBF1FE"/>
</svg>
