<svg width="49" height="65" viewBox="0 0 49 65" fill="none" xmlns="http://www.w3.org/2000/svg">
<path d="M45.1518 0H3.84817C1.72629 0 0 1.71524 0 3.82353V61.1765C0 63.2848 1.72629 65 3.84817 65H45.1518C47.2737 65 49 63.2848 49 61.1765V3.82353C49 1.71524 47.2737 0 45.1518 0ZM45.1518 61.1765H3.84817V3.82353H45.1518C45.1543 62.4315 45.1647 61.1765 45.1518 61.1765Z" fill="#EBF1FE"/>
<path d="M32.0012 25C26.7958 25 22.5981 29.4255 23.0359 34.6949C22.9867 34.9581 23.0024 33.8604 23.0024 52.1071C23.0024 53.4498 24.3735 54.3661 25.6231 53.8576L32.0012 51.2637L38.3793 53.8577C39.6251 54.3642 41 53.4545 41 52.1071V33.9517C41 29.0158 36.9631 25 32.0012 25ZM32.0012 28.7824C34.8665 28.7824 37.1977 31.1014 37.1977 33.9517C37.1977 36.8019 34.8665 39.1209 32.0012 39.1209C29.1359 39.1209 26.8047 36.8019 26.8047 33.9517C26.8047 31.1014 29.1359 28.7824 32.0012 28.7824ZM32.7207 47.4699C32.2595 47.2824 31.7429 47.2824 31.2817 47.4699L26.8047 49.2908V41.2531C29.9198 43.4534 34.0794 43.4557 37.1977 41.2531V49.2908L32.7207 47.4699Z" fill="#EBF1FE"/>
<path d="M32.0012 28.7824C34.8665 28.7824 37.1977 31.1014 37.1977 33.9517C37.1977 36.8019 34.8665 39.1209 32.0012 39.1209C29.1359 39.1209 26.8047 36.8019 26.8047 33.9517C26.8047 31.1014 29.1359 28.7824 32.0012 28.7824Z" fill="#EBF1FE"/>
<path d="M39.0512 9H9.94882C8.87255 9 8 9.89547 8 11C8 12.1045 8.87255 13 9.94882 13H39.0512C40.1274 13 41 12.1045 41 11C41 9.89547 40.1274 9 39.0512 9Z" fill="#EBF1FE"/>
<path d="M39.0512 17H9.94882C8.87255 17 8 17.8955 8 19C8 20.1045 8.87255 21 9.94882 21H39.0512C40.1274 21 41 20.1045 41 19C41 17.8955 40.1274 17 39.0512 17Z" fill="#EBF1FE"/>
<path d="M16.5294 26H9.47062C8.65845 26 8 26.8955 8 28C8 29.1045 8.65845 30 9.47062 30H16.5294C17.3415 30 18 29.1045 18 28C18 26.8955 17.3415 26 16.5294 26Z" fill="#EBF1FE"/>
<path d="M16.0769 34H9.92308C8.86103 34 8 34.8955 8 36C8 37.1045 8.86103 38 9.92308 38H16.0769C17.139 38 18 37.1045 18 36C18 34.8955 17.139 34 16.0769 34Z" fill="#EBF1FE"/>
<path d="M16.0769 42H9.92308C8.86103 42 8 42.8955 8 44C8 45.1045 8.86103 46 9.92308 46H16.0769C17.139 46 18 45.1045 18 44C18 42.8955 17.139 42 16.0769 42Z" fill="#EBF1FE"/>
<path d="M16.0769 50H9.92308C8.86103 50 8 50.8955 8 52C8 53.1045 8.86103 54 9.92308 54H16.0769C17.139 54 18 53.1045 18 52C18 50.8955 17.139 50 16.0769 50Z" fill="#EBF1FE"/>
</svg>
