<svg width="52" height="59" viewBox="0 0 52 59" fill="none" xmlns="http://www.w3.org/2000/svg">
<path d="M27.3787 12.7833C33.1528 12.7833 35.2938 15.5694 35.4885 19.6667H42.6575C42.4304 14.0289 39.0243 8.85 32.2445 7.17833V0H22.5128V7.08C21.2477 7.34222 20.0798 7.76833 18.9445 8.26L23.8428 13.2094C24.8808 12.9472 26.0811 12.7833 27.3787 12.7833ZM4.57392 3.01556L0 7.63722L11.1591 18.9128C11.1591 25.7306 16.2196 29.4672 23.8428 31.7289L35.2289 43.2339C34.126 44.84 31.8228 46.2167 27.3787 46.2167C20.6962 46.2167 18.0686 43.2011 17.7118 39.3333H10.5752C10.9644 46.5117 16.2845 50.5433 22.5128 51.8872V59H32.2445V51.9528C35.3587 51.3628 38.1809 50.15 40.2246 48.2817L47.4261 55.5583L52 50.9367L4.57392 3.01556Z" fill="#EBF1FE"/>
</svg>
