<svg width="31" height="56" viewBox="0 0 31 56" fill="none" xmlns="http://www.w3.org/2000/svg">
<path d="M15.7741 43.8667C9.50098 43.8667 7.03438 41.0044 6.69941 37.3333H0C0.365422 44.1467 5.35953 47.9733 11.2063 49.2489V56H20.3418V49.3111C26.28 48.16 31 44.6444 31 38.2667C31 29.4311 23.6002 26.4133 16.6876 24.5778C9.77505 22.7422 7.55206 20.8444 7.55206 17.8889C7.55206 14.4978 10.6277 12.1333 15.7741 12.1333C21.1945 12.1333 23.2043 14.7778 23.387 18.6667H30.1169C29.9037 13.3156 26.7063 8.4 20.3418 6.81333V0H11.2063V6.72C5.29862 8.02667 0.548133 11.9467 0.548133 17.9511C0.548133 25.1378 6.36444 28.7156 14.8605 30.8C22.4735 32.6667 23.9961 35.4044 23.9961 38.2978C23.9961 40.4444 22.5039 43.8667 15.7741 43.8667Z" fill="#EBF1FE"/>
</svg>
