<svg width="51" height="58" viewBox="0 0 51 58" fill="none" xmlns="http://www.w3.org/2000/svg">
<path d="M26.8522 12.5667C32.5153 12.5667 34.6151 15.3056 34.806 19.3333H41.8372C41.6145 13.7911 38.2739 8.7 31.6245 7.05667V0H22.0798V6.96C20.8391 7.21778 19.6937 7.63667 18.5802 8.12L23.3843 12.9856C24.4024 12.7278 25.5795 12.5667 26.8522 12.5667ZM4.48596 2.96444L0 7.50778L10.9445 18.5922C10.9445 25.2944 15.9077 28.9678 23.3843 31.1911L34.5515 42.5011C33.4697 44.08 31.2109 45.4333 26.8522 45.4333C20.2982 45.4333 17.7211 42.4689 17.3712 38.6667H10.3718C10.7536 45.7233 15.9713 49.6867 22.0798 51.0078V58H31.6245V51.0722C34.6787 50.4922 37.4467 49.3 39.451 47.4633L46.514 54.6167L51 50.0733L4.48596 2.96444Z" fill="#EBF1FE"/>
</svg>
