<svg width="62" height="62" viewBox="0 0 62 62" fill="none" xmlns="http://www.w3.org/2000/svg">
<path fill-rule="evenodd" clip-rule="evenodd" d="M30.8125 0C22.6405 0 14.8032 3.24631 9.02477 9.02477C3.24631 14.8032 0 22.6405 0 30.8125C0 38.9845 3.24631 46.8218 9.02477 52.6002C14.8032 58.3787 22.6405 61.625 30.8125 61.625C38.9845 61.625 46.8218 58.3787 52.6002 52.6002C58.3787 46.8218 61.625 38.9845 61.625 30.8125C61.625 22.6405 58.3787 14.8032 52.6002 9.02477C46.8218 3.24631 38.9845 0 30.8125 0ZM30.8125 56.8846C23.8977 56.8846 17.2662 54.1377 12.3767 49.2483C7.48726 44.3588 4.74038 37.7273 4.74038 30.8125C4.74038 23.8977 7.48726 17.2662 12.3767 12.3767C17.2662 7.48726 23.8977 4.74038 30.8125 4.74038C37.7273 4.74038 44.3588 7.48726 49.2483 12.3767C54.1377 17.2662 56.8846 23.8977 56.8846 30.8125C56.8846 37.7273 54.1377 44.3588 49.2483 49.2483C44.3588 54.1377 37.7273 56.8846 30.8125 56.8846ZM38.1601 16.9706C37.3411 16.1178 36.3573 15.4404 35.2685 14.9796C33.8985 14.4311 32.4296 14.1728 30.9547 14.2212C29.5231 14.1952 28.102 14.4697 26.7832 15.027C25.6502 15.5011 24.65 16.2311 23.8441 17.1602C23.0591 18.014 22.4473 19.0122 22.0428 20.0992C21.6667 21.2035 21.4279 22.3498 21.3317 23.5123H27.1624C27.1893 22.7599 27.4289 22.0306 27.8534 21.4089C28.278 20.7872 28.8701 20.2985 29.561 19.9997C30.019 19.8192 30.5106 19.74 31.0021 19.7674C31.4261 19.7 31.858 19.7 32.282 19.7674C32.6715 19.9147 33.0265 20.1406 33.3249 20.4311C33.6542 20.716 33.9137 21.0728 34.0834 21.4739C34.2776 21.9226 34.3745 22.4072 34.3678 22.8961C34.3678 23.7161 34.1924 24.522 33.8463 25.2662C33.5021 26.0384 33.0728 26.7698 32.5664 27.4468L30.9073 29.4378C30.3385 30.054 29.7696 30.7177 29.2482 31.3813C28.7426 32.0419 28.3132 32.7575 27.9683 33.5145C27.6394 34.2606 27.4776 35.0695 27.4942 35.8847V39.0134H33.1827V36.6906C33.1988 35.9953 33.3773 35.3135 33.7041 34.6996C34.0937 34.0172 34.5376 33.3673 35.0314 32.7561L36.738 30.6703C37.3592 29.9526 37.9295 29.1923 38.4445 28.3949C38.9893 27.5818 39.4349 26.7066 39.7718 25.7877C40.1175 24.8136 40.2939 23.7875 40.2933 22.7538C40.3017 21.6769 40.1418 20.6053 39.8192 19.5778C39.4613 18.599 38.8952 17.7094 38.1601 16.9706ZM27.4942 41.8576H33.0405V47.4038H27.4942V41.8576Z" fill="#EBF1FE"/>
</svg>
