<svg width="66" height="65" viewBox="0 0 66 65" fill="none" xmlns="http://www.w3.org/2000/svg">
<path d="M65.3644 23.42C65.3644 10.8754 55.1298 0.769189 42.5532 0.961689C30.2653 1.15419 20.1269 11.7738 20.4798 24.0296C20.6213 29.2257 22.5644 34.2111 25.9766 38.1325C29.3887 42.0538 34.0577 44.6672 39.1844 45.5254V58.1663H13.4857V48.5413H16.694V32.4996H0.652344V48.5413H3.86068V64.583H55.194V58.1663H45.569V45.7179C51.0251 45.0664 56.053 42.4372 59.701 38.328C63.349 34.2189 65.3639 28.9149 65.3644 23.42ZM8.67318 29.2913C11.3361 29.2913 13.4857 27.1417 13.4857 24.4788C13.4857 21.8159 11.3361 19.6663 8.67318 19.6663C6.01026 19.6663 3.86068 21.8159 3.86068 24.4788C3.86068 27.1417 6.01026 29.2913 8.67318 29.2913Z" fill="#EBF1FE"/>
</svg>
