<svg width="55" height="55" viewBox="0 0 55 55" fill="none" xmlns="http://www.w3.org/2000/svg">
<path fill-rule="evenodd" clip-rule="evenodd" d="M27.5 0C20.2065 0 13.2118 2.89731 8.05456 8.05456C2.89731 13.2118 0 20.2065 0 27.5C0 34.7935 2.89731 41.7882 8.05456 46.9454C13.2118 52.1027 20.2065 55 27.5 55C34.7935 55 41.7882 52.1027 46.9454 46.9454C52.1027 41.7882 55 34.7935 55 27.5C55 20.2065 52.1027 13.2118 46.9454 8.05456C41.7882 2.89731 34.7935 0 27.5 0ZM27.5 50.7692C21.3286 50.7692 15.41 48.3177 11.0462 43.9538C6.68234 39.59 4.23077 33.6714 4.23077 27.5C4.23077 21.3286 6.68234 15.41 11.0462 11.0462C15.41 6.68234 21.3286 4.23077 27.5 4.23077C33.6714 4.23077 39.59 6.68234 43.9538 11.0462C48.3177 15.41 50.7692 21.3286 50.7692 27.5C50.7692 33.6714 48.3177 39.59 43.9538 43.9538C39.59 48.3177 33.6714 50.7692 27.5 50.7692ZM34.0577 15.1462C33.3268 14.385 32.4487 13.7805 31.4769 13.3692C30.2542 12.8797 28.9433 12.6492 27.6269 12.6923C26.3493 12.6691 25.0809 12.9141 23.9038 13.4115C22.8927 13.8346 22 14.4862 21.2808 15.3154C20.5801 16.0774 20.0341 16.9683 19.6731 17.9385C19.3374 18.924 19.1243 19.947 19.0385 20.9846H24.2423C24.2663 20.3131 24.4801 19.6622 24.859 19.1073C25.2379 18.5524 25.7664 18.1164 26.3831 17.8496C26.7918 17.6886 27.2306 17.6179 27.6692 17.6423C28.0476 17.5822 28.4331 17.5822 28.8115 17.6423C29.1592 17.7738 29.476 17.9754 29.7423 18.2346C30.0362 18.489 30.2678 18.8074 30.4192 19.1654C30.5925 19.5658 30.6791 19.9984 30.6731 20.4346C30.6731 21.1665 30.5165 21.8858 30.2077 22.55C29.9004 23.2391 29.5173 23.8919 29.0654 24.4962L27.5846 26.2731C27.0769 26.8231 26.5692 27.4154 26.1038 28.0077C25.6526 28.5973 25.2694 29.2359 24.9615 29.9115C24.668 30.5774 24.5236 31.2994 24.5385 32.0269V34.8192H29.6154V32.7462C29.6297 32.1256 29.7891 31.5171 30.0808 30.9692C30.4285 30.3602 30.8246 29.7801 31.2654 29.2346L32.7885 27.3731C33.3429 26.7325 33.8519 26.0539 34.3115 25.3423C34.7977 24.6167 35.1954 23.8355 35.4962 23.0154C35.8047 22.146 35.9621 21.2302 35.9615 20.3077C35.9691 19.3465 35.8263 18.3901 35.5385 17.4731C35.219 16.5995 34.7138 15.8056 34.0577 15.1462ZM24.5385 37.3577H29.4885V42.3077H24.5385V37.3577Z" fill="#EBF1FE"/>
</svg>
