<svg width="41" height="72" viewBox="0 0 41 72" fill="none" xmlns="http://www.w3.org/2000/svg">
<path d="M20.8625 56.4C12.5658 56.4 9.30354 52.72 8.86051 48H0C0.483301 56.76 7.08841 61.68 14.8212 63.32V72H26.9037V63.4C34.7574 61.92 41 57.4 41 49.2C41 37.84 31.2132 33.96 22.0707 31.6C12.9283 29.24 9.98821 26.8 9.98821 23C9.98821 18.64 14.056 15.6 20.8625 15.6C28.0314 15.6 30.6896 19 30.9312 24H39.832C39.5501 17.12 35.3212 10.8 26.9037 8.76V0H14.8212V8.64C7.00786 10.32 0.72495 15.36 0.72495 23.08C0.72495 32.32 8.41748 36.92 19.6542 39.6C29.723 42 31.7367 45.52 31.7367 49.24C31.7367 52 29.7633 56.4 20.8625 56.4Z" fill="#EBF1FE"/>
</svg>
