<svg width="55" height="55" viewBox="0 0 55 55" fill="none" xmlns="http://www.w3.org/2000/svg">
<path d="M55 16.3281C55 17.832 54.6688 19.2285 54.0063 20.5176C53.3439 21.8066 52.4398 22.8988 51.2939 23.7939C51.473 24.5101 51.5625 25.1725 51.5625 25.7812C51.5625 28.1445 50.721 30.1676 49.0381 31.8506C47.3551 33.5335 45.332 34.375 42.9688 34.375C41.7155 34.375 40.4801 34.0885 39.2627 33.5156C38.3317 34.8405 37.1322 35.8879 35.6641 36.6577C34.196 37.4276 32.6204 37.8125 30.9375 37.8125C29.0397 37.8125 27.2941 37.3291 25.7007 36.3623C24.1073 35.3955 22.863 34.0885 21.9678 32.4414C20.6071 33.7305 19.0137 34.375 17.1875 34.375C15.2897 34.375 13.6694 33.7036 12.3267 32.3608C10.9839 31.0181 10.3125 29.3978 10.3125 27.5C7.44792 27.5 5.01302 26.4974 3.00781 24.4922C1.0026 22.487 0 20.0521 0 17.1875C0 14.3229 1.0026 11.888 3.00781 9.88281C5.01302 7.8776 7.44792 6.875 10.3125 6.875C11.7806 6.875 13.195 7.17936 14.5557 7.78809C15.415 5.49642 16.8652 3.62549 18.9062 2.17529C20.9473 0.725098 23.2389 0 25.7812 0C27.5716 0 29.2546 0.384928 30.8301 1.15479C32.4056 1.92464 33.7663 2.97201 34.9121 4.29688C35.4134 3.00781 36.237 1.9694 37.3828 1.18164C38.5286 0.39388 39.8177 0 41.25 0C43.1478 0 44.7681 0.671387 46.1108 2.01416C47.4536 3.35693 48.125 4.97721 48.125 6.875C48.125 6.91081 48.116 6.97347 48.0981 7.06299C48.0802 7.15251 48.0713 7.21517 48.0713 7.25098C50.1123 7.82389 51.7773 8.94287 53.0664 10.6079C54.3555 12.2729 55 14.1797 55 16.3281ZM10.3125 48.125C11.2793 48.125 12.0939 48.4562 12.7563 49.1187C13.4188 49.7811 13.75 50.5868 13.75 51.5356C13.75 52.4845 13.4098 53.2992 12.7295 53.9795C12.0492 54.6598 11.2345 55 10.2856 55C9.33675 55 8.53109 54.6598 7.86865 53.9795C7.20622 53.2992 6.875 52.4935 6.875 51.5625C6.875 50.6315 7.20622 49.8258 7.86865 49.1455C8.53109 48.4652 9.3457 48.125 10.3125 48.125ZM18.9062 37.8125C20.3385 37.8125 21.556 38.3138 22.5586 39.3164C23.5612 40.319 24.0625 41.5365 24.0625 42.9688C24.0625 44.401 23.5612 45.6185 22.5586 46.6211C21.556 47.6237 20.3385 48.125 18.9062 48.125C17.474 48.125 16.2565 47.6237 15.2539 46.6211C14.2513 45.6185 13.75 44.401 13.75 42.9688C13.75 41.5365 14.2513 40.319 15.2539 39.3164C16.2565 38.3138 17.474 37.8125 18.9062 37.8125Z" fill="#EBF1FE"/>
</svg>
