<svg width="71" height="57" viewBox="0 0 71 57" fill="none" xmlns="http://www.w3.org/2000/svg">
<path d="M35.5 28.5L9.017 17.8837L10.65 57H3.55L5.254 16.3519L0 14.25L35.5 0L71 14.25L35.5 28.5ZM35.5 10.6875C33.5475 10.6875 31.95 11.4712 31.95 12.4688C31.95 13.4663 33.5475 14.25 35.5 14.25C37.4525 14.25 39.05 13.4663 39.05 12.4688C39.05 11.4712 37.4525 10.6875 35.5 10.6875ZM35.5 32.0625L55.2735 24.1181C57.794 27.4669 59.5335 31.4925 60.1015 35.8744C59.0365 35.7319 57.936 35.625 56.8 35.625C47.7475 35.625 39.831 40.5056 35.5 47.7731C33.3017 44.0708 30.1829 41.0048 26.4492 38.8753C22.7154 36.7458 18.4946 35.6258 14.2 35.625C13.064 35.625 11.9635 35.7319 10.8985 35.8744C11.4665 31.4925 13.206 27.4669 15.7265 24.1181L35.5 32.0625Z" fill="#EBF1FE"/>
</svg>
