<svg width="80" height="79" viewBox="0 0 80 79" fill="none" xmlns="http://www.w3.org/2000/svg">
<path d="M65 14.8125C62.2766 17.3864 59.0369 19.3678 55.49 20.6289C51.75 21.2806 41.4 16.5406 36.3 21.3794C35.45 22.2187 34.4 23.0581 33.3 23.8975C30.9 22.8606 27.2 21.2806 24.5 19.75C21.8 18.2194 15 14.8125 15 14.8125L0 32.0938C0 32.0938 3.7 37.0312 6 40.29C7.5 42.4625 9.35 45.7706 10.55 47.9925L8.85 49.9675C8.44289 50.7661 8.29642 51.6697 8.43073 52.5539C8.56503 53.4381 8.97353 54.2595 9.6 54.905C10.3231 55.4403 11.2029 55.7289 12.1067 55.7271C13.0104 55.7253 13.8891 55.4333 14.61 54.8951C14.3427 55.2042 14.1404 55.5628 14.0149 55.9499C13.8894 56.337 13.8432 56.7449 13.879 57.1498C13.9149 57.5547 14.032 57.9485 14.2236 58.3083C14.4152 58.668 14.6774 58.9865 14.995 59.2451C15.7585 59.6854 16.6272 59.9166 17.5114 59.9149C18.3955 59.9132 19.2633 59.6785 20.025 59.2352C19.4537 59.9383 19.1411 60.8122 19.1384 61.7137C19.1357 62.6152 19.443 63.4909 20.01 64.1974C20.7471 64.4493 21.5331 64.5296 22.3068 64.432C23.0805 64.3344 23.8208 64.0614 24.47 63.6345C24.1466 64.3904 24.0628 65.2254 24.2297 66.0293C24.3966 66.8332 24.8064 67.5683 25.405 68.1375C26.2505 68.5085 27.1776 68.6615 28.0994 68.582C29.0211 68.5026 29.9073 68.1933 30.675 67.6833L33.255 65.3774C35.615 67.6981 38.87 69.1349 42.465 69.1349L42.77 69.1299C43.9547 69.0301 45.0896 68.6139 46.0532 67.9259C47.0168 67.2379 47.7727 66.3041 48.24 65.2244C48.97 65.5009 49.8 65.6885 50.68 65.6885C51.86 65.6885 52.955 65.3528 53.88 64.7751C56.805 62.8643 56.105 61.383 56.105 61.383C57.1451 61.8251 58.3004 61.9299 59.4047 61.6824C60.5089 61.4348 61.5052 60.8477 62.25 60.0054C63.024 59.2235 63.5121 58.2092 63.637 57.1228C63.762 56.0363 63.5167 54.9398 62.94 54.0064C62.9716 54.025 63.0083 54.0336 63.045 54.0311C65.15 54.0311 66.98 52.8856 67.935 51.1969C68.405 49.9968 68.5638 48.6996 68.397 47.4235C68.2302 46.1473 67.7431 44.9325 66.98 43.8894L66.995 43.9141C71.095 43.1241 70.945 41.0998 72.945 38.1372C74.8387 35.7197 77.195 33.6931 79.88 32.1727L65 14.8125ZM64.75 49.6713C62.55 51.8438 60.85 50.9056 57.1 48.0912C53.35 45.2769 45.9 39.9938 45.9 39.9938C46.205 41.4997 46.91 42.8081 47.905 43.8499C49.5 45.6225 54.25 49.6712 56.5 51.745C57.9 53.0287 61.5 55.5962 59.4 57.5713C57.3 59.5462 55.65 57.5713 52.2 54.8063C48.75 52.0413 41.05 45.2275 41.05 45.2275C41.0076 45.8806 41.106 46.5352 41.3387 47.1481C41.5714 47.7609 41.9331 48.318 42.4 48.7825C43.25 49.77 48 54.3125 50 56.3862C52 58.46 53.75 59.6944 52.05 61.3237C50.35 62.9531 46.9 60.3856 45 58.46C42.05 55.6456 36.2 50.4119 36.2 50.4119L36.195 50.6736C36.195 52.0758 36.685 53.3596 37.51 54.3767C38.95 56.2431 41.75 58.6624 43.45 60.5387C45.15 62.4149 46.15 63.9949 43.45 65.4762C40.75 66.9574 36.75 63.3037 35 61.5262V61.5163C35.0004 61.0286 34.8229 60.5571 34.5 60.1881C33.9019 59.641 33.164 59.2654 32.3657 59.1019C31.5675 58.9383 30.7391 58.9929 29.97 59.2599C30.2865 58.9801 30.5401 58.638 30.7147 58.2556C30.8893 57.8733 30.981 57.4591 30.9838 57.0396C30.9866 56.6202 30.9006 56.2048 30.7311 55.8202C30.5617 55.4355 30.3127 55.0902 30 54.8063C29.3437 54.3152 28.5426 54.0498 27.7192 54.0507C26.8957 54.0516 26.0952 54.3187 25.44 54.8112C25.7713 54.4987 26.0271 54.1165 26.1883 53.6929C26.3495 53.2694 26.412 52.8155 26.3712 52.3648C26.3303 51.9142 26.1872 51.4784 25.9524 51.0899C25.7176 50.7013 25.3972 50.37 25.015 50.1206C24.1199 49.5652 23.0696 49.3042 22.0149 49.3752C20.9603 49.4462 19.9555 49.8454 19.145 50.5156C19.6867 49.8672 19.9538 49.0373 19.8904 48.1991C19.8271 47.3609 19.4382 46.5792 18.805 46.0175C18.0181 45.2942 17.0153 44.8418 15.9464 44.7279C14.8776 44.614 13.8001 44.8447 12.875 45.3855L9.55 39.8407C7.25 36.2363 4.55 32.4838 4.55 32.4838L15.95 18.8069C15.95 18.8069 20 21.2757 23.35 23.1519C25 24.0901 27.85 25.3244 30 26.3119C26.6 28.8301 23.75 31.2494 24.6 32.9282C26.1148 34.002 27.925 34.5942 29.7894 34.626C31.6538 34.6578 33.4836 34.1275 35.035 33.1059C37.0242 31.8001 39.3614 31.1075 41.75 31.1161C43.485 31.1161 45.135 31.4716 46.63 32.1184C49.4 33.9651 54.5 38.5076 59.15 41.3713C65 45.5682 66.15 48.2838 64.75 49.6663V49.6713Z" fill="#EBF1FE"/>
</svg>
