<svg width="42" height="57" viewBox="0 0 42 57" fill="none" xmlns="http://www.w3.org/2000/svg">
<path d="M32.8072 23.485V15.3592C32.8072 15.0192 32.6215 14.7333 32.3594 14.5558L41.5253 0.579102H23.951L20.999 5.01286L18.0469 0.579102H0.472656L9.63672 14.5549C9.37455 14.7324 9.18888 15.0192 9.18888 15.3592V23.485C5.00804 26.9117 2.33868 32.1162 2.33868 37.9475C2.33868 48.2659 10.6938 56.6317 20.999 56.6317C21.6353 56.6317 22.2623 56.599 22.8818 56.5364C32.3024 55.592 39.6593 47.6306 39.6593 37.9475C39.6593 32.1162 36.988 26.9117 32.8072 23.485ZM29.2338 1.51331H35.1379L26.9031 13.8813L23.951 9.44756L29.2338 1.51331ZM29.8551 18.3151L30.763 16.953C30.8124 17.0698 30.8395 17.1968 30.8395 17.3304V21.2719C30.8386 21.3938 30.8137 21.5143 30.7661 21.6265C30.7186 21.7388 30.6493 21.8405 30.5624 21.9258C27.7633 20.2461 24.4996 19.2633 20.999 19.2633C17.628 19.2639 14.321 20.1847 11.4337 21.9267C11.2587 21.7536 11.1591 21.5182 11.1566 21.2719V17.3304C11.1566 17.1968 11.1855 17.0689 11.2331 16.953L12.1409 18.316H29.8551V18.3151ZM6.86007 1.51331H12.7642L23.3296 17.3809H17.4255L6.86007 1.51331ZM20.999 53.8291C12.2389 53.8291 5.13773 46.7188 5.13773 37.9475C5.13773 29.1772 12.2389 22.0659 20.999 22.0659C29.7572 22.0659 36.8602 29.1772 36.8602 37.9475C36.8602 46.7188 29.7572 53.8291 20.999 53.8291Z" fill="#EBF1FE"/>
<path d="M22.8356 45.1974V28.21H19.1616C19.1617 28.5818 19.0868 28.95 18.9411 29.2935C18.7954 29.6371 18.5818 29.9493 18.3125 30.2122C18.0433 30.4752 17.7235 30.6838 17.3717 30.8261C17.0198 30.9684 16.6426 31.0417 16.2617 31.0417V34.5806C16.5236 34.5806 18.503 34.435 19.1616 34.1775V45.1974H16.2617V48.7363H25.7354V45.1974H22.8356Z" fill="#EBF1FE"/>
</svg>
