<svg width="65" height="64" viewBox="0 0 65 64" fill="none" xmlns="http://www.w3.org/2000/svg">
<path d="M63.5899 37.2541L64.1268 31.4422C64.1268 23.7253 62.6185 17.5521 57.0942 13.4934C54.0711 7.53381 47.3339 0.126063 32.4935 0.125C17.6607 0.125 10.9267 7.53381 7.90581 13.4944C2.3815 17.5521 0.873203 23.7263 0.873203 31.4433L1.41011 37.2551C0.665125 37.9808 0.15625 39.1071 0.15625 40.7614C0.15625 45.1984 2.78903 45.7944 3.86931 45.8518C4.40622 54.6886 13.4183 63.875 32.5011 63.875C52.7623 63.875 60.5862 53.3998 61.1285 45.8529C61.7905 45.8231 62.6756 45.6255 63.4336 44.9211C64.3705 44.0519 64.8438 42.6516 64.8438 40.7614C64.8438 39.1071 64.3349 37.9808 63.5899 37.2541ZM62.3285 43.7714C61.604 44.4429 60.5442 44.2411 60.541 44.2421L59.5502 44.0084V45.0103C59.5502 51.9569 52.3461 62.294 32.5011 62.294C12.656 62.294 5.45308 51.958 5.45308 45.0114L5.44553 44.0286L4.46875 44.2411C4.33444 44.2662 4.19791 44.2779 4.06122 44.2761C2.16264 44.2761 1.76373 42.3647 1.76373 40.7614C1.76373 38.2751 3.11031 37.7534 4.23911 37.7534C4.35231 37.7534 4.42778 37.7609 4.44072 37.7619L4.64556 37.7874L4.83962 37.7141C7.2902 36.7664 8.9268 35.3203 9.7052 33.4174C11.2103 29.7294 9.11655 25.2701 7.86484 22.6043C7.5468 21.9264 7.21689 21.2273 7.13064 20.8958C7.37106 19.1331 10.3143 1.70494 32.5011 1.70494C54.6846 1.70706 57.6311 19.1299 57.8704 20.8958C57.7831 21.2284 57.4554 21.9275 57.1362 22.6043C55.8845 25.2691 53.7887 29.7294 55.2948 33.4174C56.0721 35.3203 57.7087 36.7664 60.1604 37.7141L60.3544 37.7853L60.555 37.763C60.6234 37.7562 60.6921 37.753 60.7609 37.7534C61.8897 37.7534 63.2363 38.2751 63.2363 40.7614C63.2363 42.1798 62.9215 43.2221 62.3285 43.7714Z" fill="#EBF1FE"/>
</svg>
