<svg width="47" height="47" viewBox="0 0 47 47" fill="none" xmlns="http://www.w3.org/2000/svg">
<path d="M35.5988 17.2664C35.9024 16.9406 36.0677 16.5097 36.0598 16.0644C36.052 15.6191 35.8716 15.1943 35.5567 14.8794C35.2418 14.5645 34.8169 14.3841 34.3717 14.3762C33.9264 14.3684 33.4954 14.5337 33.1696 14.8373L19.4884 28.5185L13.828 22.8581C13.5021 22.5545 13.0712 22.3892 12.6259 22.3971C12.1807 22.4049 11.7558 22.5853 11.4409 22.9002C11.126 23.2151 10.9456 23.64 10.9378 24.0852C10.9299 24.5305 11.0952 24.9615 11.3988 25.2873L18.2738 32.1623C18.5961 32.4841 19.0329 32.6649 19.4884 32.6649C19.9438 32.6649 20.3807 32.4841 20.703 32.1623L35.5988 17.2664Z" fill="#EBF1FE"/>
<path fill-rule="evenodd" clip-rule="evenodd" d="M4.59245 0.583008C3.52882 0.583008 2.50875 1.00553 1.75666 1.75763C1.00456 2.50973 0.582031 3.5298 0.582031 4.59342V42.4059C0.582031 44.6197 2.3787 46.4163 4.59245 46.4163H42.405C43.4686 46.4163 44.4886 45.9938 45.2407 45.2417C45.9928 44.4896 46.4154 43.4696 46.4154 42.4059V4.59342C46.4154 3.5298 45.9928 2.50973 45.2407 1.75763C44.4886 1.00553 43.4686 0.583008 42.405 0.583008H4.59245ZM4.01953 4.59342C4.01953 4.44148 4.07989 4.29575 4.18734 4.18831C4.29478 4.08087 4.4405 4.02051 4.59245 4.02051H42.405C42.5569 4.02051 42.7026 4.08087 42.8101 4.18831C42.9175 4.29575 42.9779 4.44148 42.9779 4.59342V42.4059C42.9779 42.5579 42.9175 42.7036 42.8101 42.811C42.7026 42.9185 42.5569 42.9788 42.405 42.9788H4.59245C4.4405 42.9788 4.29478 42.9185 4.18734 42.811C4.07989 42.7036 4.01953 42.5579 4.01953 42.4059V4.59342Z" fill="#EBF1FE"/>
</svg>
