<svg width="54" height="74" viewBox="0 0 54 74" fill="none" xmlns="http://www.w3.org/2000/svg">
<path d="M42.3513 30.2385V19.5396C42.3513 19.0919 42.1099 18.7155 41.7691 18.4818L53.6848 0.0791016H30.8383L27.0006 5.91689L23.1629 0.0791016H0.316406L12.2297 18.4806C11.8889 18.7143 11.6475 19.0919 11.6475 19.5396V30.2385C6.2124 34.7503 2.74224 41.6029 2.74224 49.2809C2.74224 62.8667 13.6039 73.8817 27.0006 73.8817C27.8278 73.8817 28.6429 73.8387 29.4483 73.7563C41.6951 72.5127 51.259 62.0303 51.259 49.2809C51.259 41.6029 47.7864 34.7503 42.3513 30.2385ZM37.7058 1.30915H45.3812L34.676 17.5937L30.8383 11.7559L37.7058 1.30915ZM38.5136 23.4315L39.6938 21.6381C39.7581 21.7918 39.7933 21.9591 39.7933 22.135V27.3246C39.7922 27.4851 39.7597 27.6438 39.6979 27.7916C39.6361 27.9393 39.5461 28.0732 39.433 28.1856C35.7943 25.974 31.5515 24.68 27.0006 24.68C22.6184 24.6807 18.3192 25.8931 14.5658 28.1868C14.3383 27.9588 14.2088 27.6489 14.2055 27.3246V22.135C14.2055 21.9591 14.2431 21.7906 14.305 21.6381L15.4852 23.4327H38.5136V23.4315ZM8.62005 1.30915H16.2954L30.0305 22.2014H22.3551L8.62005 1.30915ZM27.0006 70.1916C15.6125 70.1916 6.381 60.8297 6.381 49.2809C6.381 37.7332 15.6125 28.3701 27.0006 28.3701C38.3863 28.3701 47.6202 37.7332 47.6202 49.2809C47.6202 60.8297 38.3863 70.1916 27.0006 70.1916Z" fill="#EBF1FE"/>
</svg>
