<svg width="72" height="67" viewBox="0 0 72 67" fill="none" xmlns="http://www.w3.org/2000/svg">
<path d="M3.64923 0L0 3.2624L64.4697 66.4714L68.119 61.5778L3.64923 0Z" fill="#EBF1FE"/>
<path d="M36.5 36.5L10.017 25.8837L11.65 65H4.55L6.254 24.3519L1 22.25L36.5 8L72 22.25L36.5 36.5ZM36.5 18.6875C34.5475 18.6875 32.95 19.4712 32.95 20.4688C32.95 21.4663 34.5475 22.25 36.5 22.25C38.4525 22.25 40.05 21.4663 40.05 20.4688C40.05 19.4712 38.4525 18.6875 36.5 18.6875ZM36.5 40.0625L56.2735 32.1181C58.794 35.4669 60.5335 39.4925 61.1015 43.8744C60.0365 43.7319 58.936 43.625 57.8 43.625C48.7475 43.625 40.831 48.5056 36.5 55.7731C34.3017 52.0708 31.1829 49.0048 27.4492 46.8753C23.7154 44.7458 19.4946 43.6258 15.2 43.625C14.064 43.625 12.9635 43.7319 11.8985 43.8744C12.4665 39.4925 14.206 35.4669 16.7265 32.1181L36.5 40.0625Z" fill="#EBF1FE"/>
</svg>
