<svg width="50" height="50" viewBox="0 0 50 50" fill="none" xmlns="http://www.w3.org/2000/svg">
<path d="M25.442 39.1667C15.3242 39.1667 11.3458 36.6111 10.8055 33.3333H0C0.589391 39.4167 8.6444 42.8333 18.0747 43.9722V50H32.8094V44.0278C42.387 43 50 39.8611 50 34.1667C50 26.2778 38.0648 23.5833 26.9155 21.9444C15.7662 20.3056 12.1807 18.6111 12.1807 15.9722C12.1807 12.9444 17.1415 10.8333 25.442 10.8333C34.1847 10.8333 37.4263 13.1944 37.721 16.6667H48.5756C48.2318 11.8889 43.0747 7.5 32.8094 6.08333V0H18.0747V6C8.54617 7.16667 0.884086 10.6667 0.884086 16.0278C0.884086 22.4444 10.2652 25.6389 23.9686 27.5C36.2475 29.1667 38.7033 31.6111 38.7033 34.1944C38.7033 36.1111 36.2967 39.1667 25.442 39.1667Z" fill="#EBF1FE"/>
</svg>
