<svg width="77" height="77" viewBox="0 0 77 77" fill="none" xmlns="http://www.w3.org/2000/svg">
<path d="M63.3974 0H16.8021C14.4084 0 12.4609 1.92605 12.4609 4.29347V68.6955C12.4609 71.063 14.4084 72.989 16.8021 72.989H63.3974C65.7911 72.989 67.7386 71.063 67.7386 68.6955V4.29347C67.7386 1.92605 65.7911 0 63.3974 0ZM63.3974 68.6955H16.8021V4.29347H63.3974C63.4002 70.1048 63.4119 68.6955 63.3974 68.6955Z" fill="#EBF1FE"/>
<path d="M48.2046 28.623C42.2615 28.623 37.4689 33.6466 37.9687 39.6279C37.9125 39.9268 37.9305 38.6806 37.9305 59.3929C37.9305 60.917 39.4959 61.9571 40.9225 61.3799L48.2046 58.4355L55.4866 61.3801C56.9089 61.955 58.4787 60.9224 58.4787 59.3929V38.7843C58.4787 33.1814 53.8697 28.623 48.2046 28.623ZM48.2046 32.9165C51.4759 32.9165 54.1375 35.5488 54.1375 38.7843C54.1375 42.0197 51.4759 44.652 48.2046 44.652C44.9332 44.652 42.2716 42.0197 42.2716 38.7843C42.2716 35.5488 44.9332 32.9165 48.2046 32.9165ZM49.0261 54.1291C48.4995 53.9163 47.9097 53.9163 47.3831 54.1291L42.2716 56.196V47.0722C45.8282 49.5699 50.5773 49.5725 54.1375 47.0722V56.196L49.0261 54.1291Z" fill="#EBF1FE"/>
<path d="M48.2046 32.9165C51.4759 32.9165 54.1375 35.5488 54.1375 38.7843C54.1375 42.0197 51.4759 44.652 48.2046 44.652C44.9332 44.652 42.2716 42.0197 42.2716 38.7843C42.2716 35.5488 44.9332 32.9165 48.2046 32.9165Z" fill="#EBF1FE"/>
<path d="M49.0261 54.1291C48.4995 53.9163 47.9097 53.9163 47.3831 54.1291L42.2716 56.196V47.0722C45.8282 49.5699 50.5773 49.5725 54.1375 47.0722V56.196L49.0261 54.1291Z" fill="#EBF1FE"/>
<path d="M4.55 4.4502L0.5 8.01064L72.05 76.9942L76.1 71.6535L4.55 4.4502Z" fill="#EBF1FE"/>
<path d="M56.3074 10.3037H23.8932C22.6945 10.3037 21.7227 11.2649 21.7227 12.4504C21.7227 13.636 22.6945 14.5972 23.8932 14.5972H56.3074C57.5061 14.5972 58.478 13.636 58.478 12.4504C58.478 11.2649 57.5061 10.3037 56.3074 10.3037Z" fill="#EBF1FE"/>
<path d="M56.3074 19.4639H23.8932C22.6945 19.4639 21.7227 20.425 21.7227 21.6106C21.7227 22.7962 22.6945 23.7573 23.8932 23.7573H56.3074C57.5061 23.7573 58.478 22.7962 58.478 21.6106C58.478 20.425 57.5061 19.4639 56.3074 19.4639Z" fill="#EBF1FE"/>
<path d="M31.3499 28.9092H23.3826C22.4659 28.9092 21.7227 29.8703 21.7227 31.0559C21.7227 32.2415 22.4659 33.2027 23.3826 33.2027H31.3499C32.2667 33.2027 33.0099 32.2415 33.0099 31.0559C33.0099 29.8703 32.2667 28.9092 31.3499 28.9092Z" fill="#EBF1FE"/>
<path d="M30.8391 37.7832H23.8932C22.6945 37.7832 21.7227 38.7444 21.7227 39.9299C21.7227 41.1155 22.6945 42.0767 23.8932 42.0767H30.8391C32.0379 42.0767 33.0097 41.1155 33.0097 39.9299C33.0097 38.7444 32.0379 37.7832 30.8391 37.7832Z" fill="#EBF1FE"/>
<path d="M30.8391 46.9424H23.8932C22.6945 46.9424 21.7227 47.9035 21.7227 49.0891C21.7227 50.2747 22.6945 51.2359 23.8932 51.2359H30.8391C32.0379 51.2359 33.0097 50.2747 33.0097 49.0891C33.0097 47.9035 32.0379 46.9424 30.8391 46.9424Z" fill="#EBF1FE"/>
<path d="M30.8391 56.1016H23.8932C22.6945 56.1016 21.7227 57.0627 21.7227 58.2483C21.7227 59.4339 22.6945 60.395 23.8932 60.395H30.8391C32.0379 60.395 33.0097 59.4339 33.0097 58.2483C33.0097 57.0627 32.0379 56.1016 30.8391 56.1016Z" fill="#EBF1FE"/>
</svg>
