<svg width="76" height="52" viewBox="0 0 76 52" fill="none" xmlns="http://www.w3.org/2000/svg">
<path d="M61.8428 0C59.2516 2.46388 56.1693 4.36059 52.7947 5.56771C49.2364 6.1916 39.3891 1.65424 34.5368 6.28613C33.7281 7.08962 32.7291 7.89311 31.6825 8.6966C29.3991 7.70405 25.8788 6.1916 23.31 4.72641C20.7411 3.26123 14.2714 0 14.2714 0L0 16.5424C0 16.5424 3.52028 21.2689 5.70856 24.3883C7.1357 26.4679 8.89584 29.6346 10.0376 31.7615L8.42013 33.6521C8.0328 34.4165 7.89344 35.2815 8.02122 36.1279C8.14901 36.9743 8.53766 37.7606 9.1337 38.3785C9.82168 38.8909 10.6588 39.1671 11.5186 39.1654C12.3785 39.1637 13.2144 38.8842 13.9004 38.369C13.646 38.6649 13.4535 39.0081 13.3341 39.3787C13.2147 39.7492 13.1708 40.1397 13.2049 40.5273C13.239 40.9149 13.3504 41.2919 13.5327 41.6362C13.715 41.9806 13.9645 42.2854 14.2667 42.533C14.9931 42.9545 15.8195 43.1759 16.6608 43.1742C17.502 43.1725 18.3276 42.9479 19.0523 42.5235C18.5088 43.1966 18.2114 44.0331 18.2088 44.8961C18.2062 45.759 18.4986 46.5973 19.0381 47.2736C19.7393 47.5148 20.4872 47.5916 21.2233 47.4982C21.9594 47.4047 22.6638 47.1434 23.2814 46.7348C22.9737 47.4584 22.894 48.2577 23.0528 49.0272C23.2116 49.7967 23.6015 50.5004 24.171 51.0453C24.9755 51.4004 25.8575 51.5468 26.7345 51.4708C27.6115 51.3947 28.4547 51.0987 29.185 50.6104L31.6397 48.4032C33.8851 50.6246 36.982 52 40.4024 52L40.6925 51.9953C41.8197 51.8997 42.8995 51.5013 43.8163 50.8427C44.733 50.1841 45.4522 49.2902 45.8968 48.2567C46.5914 48.5214 47.3811 48.701 48.2183 48.701C49.341 48.701 50.3828 48.3796 51.2629 47.8266C54.0458 45.9975 53.3798 44.5795 53.3798 44.5795C54.3694 45.0027 55.4686 45.1031 56.5192 44.8661C57.5698 44.6292 58.5177 44.0671 59.2263 43.2609C59.9628 42.5124 60.4271 41.5414 60.546 40.5014C60.6649 39.4615 60.4315 38.4118 59.8828 37.5183C59.9129 37.5361 59.9478 37.5444 59.9827 37.5419C61.9855 37.5419 63.7266 36.4454 64.6352 34.8289C65.0823 33.6801 65.2334 32.4384 65.0747 31.2168C64.9161 29.9952 64.4526 28.8323 63.7266 27.8338L63.7409 27.8575C67.6417 27.1013 67.499 25.1634 69.4019 22.3276C71.2036 20.0134 73.4454 18.0734 76 16.6181L61.8428 0ZM61.6049 33.3685C59.5118 35.4481 57.8943 34.5501 54.3265 31.856C50.7586 29.162 43.6705 24.1047 43.6705 24.1047C43.9607 25.5463 44.6315 26.7988 45.5781 27.796C47.0956 29.4928 51.6149 33.3685 53.7556 35.3536C55.0876 36.5824 58.5128 39.0402 56.5148 40.9307C54.5168 42.8213 52.9469 40.9307 49.6645 38.284C46.3821 35.6372 39.0561 29.1147 39.0561 29.1147C39.0157 29.7399 39.1093 30.3665 39.3308 30.9532C39.5522 31.5398 39.8963 32.073 40.3405 32.5177C41.1492 33.463 45.6685 37.8113 47.5714 39.7964C49.4742 41.7815 51.1392 42.9631 49.5218 44.5228C47.9044 46.0825 44.6219 43.6248 42.8142 41.7815C40.0075 39.0874 34.4417 34.0774 34.4417 34.0774L34.4369 34.3279C34.4369 35.6702 34.9031 36.8991 35.688 37.8727C37.0581 39.6593 39.7221 41.9753 41.3395 43.7713C42.9569 45.5673 43.9084 47.0798 41.3395 48.4977C38.7707 49.9156 34.9649 46.4181 33.2999 44.7166V44.7071C33.3003 44.2403 33.1314 43.789 32.8242 43.4357C32.2552 42.912 31.5531 42.5525 30.7936 42.3959C30.0341 42.2393 29.2461 42.2916 28.5143 42.5472C28.8154 42.2793 29.0567 41.9519 29.2228 41.5859C29.389 41.2199 29.4762 40.8233 29.4788 40.4218C29.4815 40.0203 29.3996 39.6227 29.2384 39.2545C29.0772 38.8863 28.8403 38.5557 28.5428 38.284C27.9184 37.8139 27.1562 37.5599 26.3728 37.5607C25.5893 37.5616 24.8277 37.8172 24.2043 38.2887C24.5195 37.9895 24.7629 37.6236 24.9162 37.2182C25.0696 36.8128 25.1291 36.3783 25.0902 35.9469C25.0514 35.5155 24.9152 35.0984 24.6918 34.7265C24.4685 34.3545 24.1636 34.0374 23.7999 33.7986C22.9483 33.2669 21.949 33.0172 20.9456 33.0851C19.9422 33.153 18.9862 33.5352 18.2151 34.1767C18.7305 33.5561 18.9846 32.7616 18.9243 31.9592C18.864 31.1569 18.494 30.4087 17.8916 29.8709C17.1429 29.1786 16.1888 28.7455 15.1718 28.6364C14.1549 28.5274 13.1298 28.7482 12.2496 29.266L9.08613 23.9582C6.89785 20.5079 4.32899 16.9158 4.32899 16.9158L15.1753 3.82367C15.1753 3.82367 19.0285 6.18688 22.2158 7.98291C23.7857 8.88093 26.4972 10.0625 28.5428 11.0078C25.308 13.4183 22.5964 15.7342 23.4051 17.3412C24.8463 18.3691 26.5686 18.936 28.3424 18.9664C30.1163 18.9968 31.8572 18.4892 33.3333 17.5114C35.2258 16.2614 37.4495 15.5984 39.7221 15.6066C41.3728 15.6066 42.9427 15.9469 44.3651 16.5661C47.0005 18.3338 51.8528 22.6821 56.2769 25.4234C61.8428 29.4408 62.9369 32.0404 61.6049 33.3638V33.3685Z" fill="#EBF1FE"/>
</svg>
