<svg width="49" height="90" viewBox="0 0 49 90" fill="none" xmlns="http://www.w3.org/2000/svg">
<path d="M24.9332 70.5C15.0177 70.5 11.1189 65.9 10.5894 60H0C0.577603 70.95 8.47151 77.1 17.7132 79.15V90H32.1532V79.25C41.5393 77.4 49 71.75 49 61.5C49 47.3 37.3035 42.45 26.3772 39.5C15.4509 36.55 11.9371 33.5 11.9371 28.75C11.9371 23.3 16.7986 19.5 24.9332 19.5C33.501 19.5 36.6778 23.75 36.9666 30H47.6041C47.2672 21.4 42.2132 13.5 32.1532 10.95V0H17.7132V10.8C8.37525 12.9 0.866404 19.2 0.866404 28.85C0.866404 40.4 10.0599 46.15 23.4892 49.5C35.5226 52.5 37.9293 56.9 37.9293 61.55C37.9293 65 35.5707 70.5 24.9332 70.5Z" fill="#EBF1FE"/>
</svg>
