<svg width="18" height="18" viewBox="0 0 18 18" fill="none" xmlns="http://www.w3.org/2000/svg">
<path opacity="0.6" d="M13.0127 5.04264H16.4809C17.3121 5.04264 18 5.57235 18 6.26327V10.4548H9.74522V5.57235C9.4586 5.50326 9.20064 5.41113 9.02866 5.27295C9 5.27295 9 5.24992 8.97134 5.24992C8.97134 5.24992 8.97134 5.27295 8.94268 5.27295C8.74204 5.41113 8.51274 5.50326 8.25478 5.57235V10.4548H0V6.26327C0 5.57235 0.659236 5.04264 1.49045 5.04264H4.98726C4.58599 4.88143 4.21338 4.65112 3.89809 4.44385C2.52229 3.38444 2.26433 1.91048 3.3535 1.08138C3.8121 0.758952 4.41401 0.574707 5.07325 0.574707C6.01911 0.574707 6.99363 0.874105 7.82484 1.49593C8.28344 1.84139 8.71338 2.32503 8.97134 2.78564C9.25796 2.32503 9.6879 1.84139 10.1465 1.49593C10.949 0.874105 11.9809 0.574707 12.8981 0.574707C13.586 0.574707 14.1879 0.758952 14.6178 1.08138C15.707 1.91048 15.449 3.38444 14.0446 4.44385C13.758 4.65112 13.3854 4.88143 13.0127 5.04264ZM7.91083 4.37476C8.02548 4.16748 7.73885 3.10807 6.79299 2.39412C6.30573 2.02563 5.6465 1.81836 5.07325 1.81836C4.90127 1.81836 4.61465 1.84139 4.41401 1.97957C4.35669 2.02563 4.18471 2.11776 4.18471 2.37109C4.18471 2.67049 4.41401 3.1311 4.9586 3.52262C5.6465 4.05233 6.73567 4.42082 7.53822 4.42082C7.79618 4.42082 7.91083 4.37476 7.91083 4.37476ZM10.0892 4.37476C10.0892 4.37476 10.2325 4.42082 10.4618 4.42082C11.2643 4.42082 12.3535 4.05233 13.0414 3.52262C13.586 3.1311 13.758 2.67049 13.758 2.37109C13.758 2.11776 13.6146 2.02563 13.586 1.97957C13.3854 1.84139 13.0701 1.81836 12.8981 1.81836C12.3535 1.81836 11.6656 2.02563 11.1783 2.39412C10.2611 3.10807 9.94586 4.14445 10.0892 4.39779V4.37476ZM8.25478 17.0876H1.49045C0.659236 17.0876 0 16.5579 0 15.8901V11.6755H8.25478V17.0876ZM16.4809 17.0876H9.74522V11.6755H18V15.8901C18 16.5579 17.3121 17.0876 16.4809 17.0876Z" fill="black"/>
</svg>
