<svg width="29" height="26" viewBox="0 0 29 26" fill="none" xmlns="http://www.w3.org/2000/svg">
<path d="M26.8521 0.00266211C26.4939 0.0286699 26.1424 0.112534 25.8112 0.250983H25.8067C25.4888 0.376814 23.9771 1.01154 21.6789 1.97364L13.4432 5.43567C7.53365 7.91888 1.72451 10.3642 1.72451 10.3642L1.79368 10.3375C1.79368 10.3375 1.39316 10.4689 0.974797 10.7551C0.716334 10.9192 0.493926 11.134 0.321031 11.3865C0.115753 11.6871 -0.0493614 12.147 0.0119988 12.6225C0.112407 13.4265 0.634526 13.9087 1.00938 14.1748C1.3887 14.4443 1.75017 14.5701 1.75017 14.5701H1.75909L7.20677 16.4019C7.45109 17.1847 8.86684 21.8304 9.20711 22.9006C9.40793 23.5397 9.60316 23.9395 9.84749 24.2446C9.96575 24.4005 10.1041 24.5308 10.2703 24.6355C10.3567 24.6856 10.4489 24.7253 10.5448 24.7535L10.489 24.7401C10.5057 24.7446 10.5191 24.758 10.5314 24.7624C10.576 24.7747 10.6061 24.7791 10.663 24.788C11.5254 25.0486 12.2182 24.5141 12.2182 24.5141L12.2573 24.4829L15.4737 21.5599L20.8644 25.6878L20.9872 25.7401C22.1106 26.2323 23.2486 25.9584 23.8499 25.4751C24.4557 24.9885 24.6911 24.366 24.6911 24.366L24.7301 24.2658L28.8959 2.9647C29.0142 2.43911 29.0443 1.94692 28.9138 1.46921C28.7792 0.985731 28.4684 0.569912 28.0425 0.30332C27.6848 0.0863061 27.2701 -0.0184413 26.8521 0.00266211ZM26.7394 2.28544C26.7349 2.35559 26.7483 2.3478 26.7171 2.48253V2.49478L22.5903 23.5743C22.5725 23.6043 22.5424 23.67 22.4598 23.7357C22.3728 23.8048 22.3036 23.8482 21.941 23.7045L15.3476 18.6591L11.3648 22.2825L12.2015 16.9486L22.9741 6.92671C23.4181 6.51469 23.2698 6.42784 23.2698 6.42784C23.301 5.92229 22.5993 6.27974 22.5993 6.27974L9.01522 14.6792L9.01076 14.657L2.49988 12.4688V12.4644L2.48314 12.461C2.49456 12.4573 2.50573 12.4528 2.51661 12.4477L2.55231 12.4299L2.5869 12.4176C2.5869 12.4176 8.4005 9.97226 14.3101 7.48905C17.2687 6.24522 20.2497 4.99247 22.5424 4.02591C24.835 3.06492 26.5297 2.36004 26.6256 2.32218C26.7171 2.28655 26.6736 2.28655 26.7394 2.28655V2.28544Z" fill="#DBAF5C"/>
</svg>
