<svg width="14" height="12" viewBox="0 0 14 12" fill="none" xmlns="http://www.w3.org/2000/svg">
<path d="M5.1871 6C5.1871 6.46413 5.37148 6.90925 5.69967 7.23744C6.02785 7.56563 6.47297 7.75 6.9371 7.75C7.40123 7.75 7.84635 7.56563 8.17454 7.23744C8.50273 6.90925 8.6871 6.46413 8.6871 6C8.6871 5.53587 8.50273 5.09075 8.17454 4.76256C7.84635 4.43437 7.40123 4.25 6.9371 4.25C6.47297 4.25 6.02785 4.43437 5.69967 4.76256C5.37148 5.09075 5.1871 5.53587 5.1871 6ZM13.7215 5.59688C12.2402 2.47656 10.0012 0.90625 6.9996 0.90625C3.99648 0.90625 1.75898 2.47656 0.277727 5.59844C0.218314 5.72425 0.1875 5.86165 0.1875 6.00078C0.1875 6.13991 0.218314 6.27732 0.277727 6.40312C1.75898 9.52344 3.99804 11.0938 6.9996 11.0938C10.0027 11.0938 12.2402 9.52344 13.7215 6.40156C13.8418 6.14844 13.8418 5.85469 13.7215 5.59688ZM6.9371 8.75C5.41835 8.75 4.1871 7.51875 4.1871 6C4.1871 4.48125 5.41835 3.25 6.9371 3.25C8.45585 3.25 9.6871 4.48125 9.6871 6C9.6871 7.51875 8.45585 8.75 6.9371 8.75Z" fill="black" fill-opacity="0.1"/>
</svg>
