<svg width="27" height="27" viewBox="0 0 27 27" fill="none" xmlns="http://www.w3.org/2000/svg">
<path d="M13.013 2.41857C9.54208 2.43898 9.1305 2.4544 7.76047 2.5253C6.9363 2.53993 6.12077 2.69607 5.34948 2.9869C4.78996 3.20652 4.28262 3.54086 3.86009 3.96838C3.43757 4.3959 3.10923 4.90714 2.8962 5.4692C2.61446 6.24386 2.46793 7.06117 2.46299 7.88546C2.40821 9.25622 2.39763 9.66796 2.41805 13.14C2.43847 16.612 2.45388 17.0214 2.52477 18.3914C2.5394 19.2156 2.69554 20.0311 2.98637 20.8024C3.206 21.362 3.54033 21.8693 3.96785 22.2918C4.39537 22.7143 4.90661 23.0427 5.46867 23.2557C6.24333 23.5375 7.06064 23.684 7.88493 23.6889C9.25569 23.7437 9.66743 23.7543 13.1384 23.7339C16.6093 23.7135 17.0209 23.698 18.3909 23.6271C19.2151 23.6125 20.0306 23.4564 20.8019 23.1655C21.3614 22.9459 21.8688 22.6116 22.2913 22.1841C22.7138 21.7565 23.0422 21.2453 23.2552 20.6832C23.5369 19.9086 23.6835 19.0913 23.6884 18.267C23.7432 16.8962 23.7538 16.4845 23.7333 13.0135C23.7129 9.54261 23.6975 9.13103 23.6266 7.761C23.612 6.93683 23.4558 6.1213 23.165 5.35001C22.9454 4.79049 22.6111 4.28314 22.1835 3.86062C21.756 3.4381 21.2448 3.10976 20.6827 2.89673C19.9081 2.61499 19.0907 2.46845 18.2665 2.46351C16.8957 2.40874 16.484 2.39816 13.013 2.41857ZM12.9992 0.0764464C16.5298 0.0556848 16.9729 0.0682457 18.3599 0.122924C19.4382 0.138354 20.5061 0.336474 21.5181 0.708862C22.3838 1.03777 23.1712 1.54391 23.8298 2.19486C24.4885 2.84581 25.0038 3.6272 25.3429 4.48894C25.7273 5.49687 25.938 6.5627 25.966 7.64108C26.0369 9.02735 26.0547 9.46817 26.0755 12.9998C26.0962 16.5314 26.0837 16.9735 26.029 18.3605C26.0136 19.4387 25.8154 20.5066 25.4431 21.5186C25.1142 22.3843 24.608 23.1717 23.9571 23.8304C23.3061 24.489 22.5247 25.0044 21.663 25.3434C20.655 25.7278 19.5892 25.9385 18.5108 25.9665C17.1246 26.0375 16.6827 26.0552 13.1521 26.076C9.62162 26.0968 9.17845 26.0842 7.79144 26.0295C6.71281 26.0142 5.64458 25.8161 4.63219 25.4436C3.76652 25.1147 2.97913 24.6085 2.32048 23.9576C1.66183 23.3066 1.14646 22.5253 0.807395 21.6635C0.423379 20.6555 0.213077 19.5897 0.185434 18.5114C0.114447 17.1251 0.0966871 16.6843 0.0759192 13.1527C0.0551513 9.62106 0.0677191 9.17898 0.122398 7.79197C0.137827 6.7137 0.335945 5.64585 0.708334 4.6338C1.03724 3.76814 1.54339 2.98074 2.19433 2.32209C2.84528 1.66344 3.62667 1.14807 4.48841 0.809007C5.49641 0.424989 6.56224 0.214687 7.64055 0.187043C9.02682 0.11389 9.46764 0.0972143 12.9992 0.0764464Z" fill="white"/>
<path fill-rule="evenodd" clip-rule="evenodd" d="M10.4165 8.73845C10.7834 8.55864 11.4368 8.55132 12.2052 8.55864C12.8012 8.56386 12.9737 8.60045 13.2068 8.65795C13.7496 8.78902 13.7326 9.2058 13.6959 10.1105C13.6848 10.382 13.672 10.6975 13.672 11.0625C13.672 11.143 13.6697 11.2289 13.6673 11.3174C13.6549 11.7803 13.6405 12.3133 13.9459 12.5125C14.1007 12.614 14.4885 12.524 15.4441 10.8994C15.8978 10.1268 16.2407 9.22041 16.2407 9.22041C16.2829 9.12846 16.3477 9.04864 16.4289 8.98832C16.547 8.91827 16.7059 8.93918 16.7059 8.93918L18.8585 8.92664C18.8585 8.92664 19.5046 8.84927 19.6092 9.13886C19.72 9.44936 19.3687 10.1645 18.4905 11.3364C17.6551 12.4487 17.2493 12.8577 17.2877 13.2195C17.3158 13.4834 17.5803 13.7222 18.087 14.1905C19.1453 15.1743 19.427 15.6917 19.4919 15.8109C19.4971 15.8204 19.5009 15.8274 19.5036 15.8319C19.9772 16.6201 18.9808 16.6818 18.9808 16.6818L17.0687 16.71C17.0687 16.71 16.6568 16.7916 16.1132 16.4205C15.8298 16.2262 15.5536 15.9087 15.2907 15.6065C14.8901 15.146 14.5202 14.7208 14.2021 14.8199C13.671 14.9913 13.6877 16.1382 13.6877 16.1382C13.6877 16.1382 13.6919 16.3839 13.5685 16.5145C13.4378 16.6536 13.1807 16.6818 13.1807 16.6818H12.3234C12.3234 16.6818 10.4363 16.7968 8.77407 15.0645C6.96125 13.1775 5.36066 9.43264 5.36066 9.43264C5.36066 9.43264 5.26657 9.19218 5.36902 9.06986C5.4788 8.93918 5.78511 8.92664 5.78511 8.92664L7.83107 8.91409C7.83107 8.91409 8.02343 8.94755 8.16248 9.04895C8.27539 9.1305 8.33811 9.28627 8.33811 9.28627C8.33811 9.28627 8.66848 10.1237 9.10548 10.8827C9.96275 12.3568 10.359 12.6798 10.6486 12.5209C11.0699 12.2878 10.9476 10.4342 10.9476 10.4342C10.9476 10.4342 10.9549 9.75986 10.7353 9.46191C10.5628 9.22877 10.2408 9.15977 10.0976 9.13886C9.98366 9.12632 10.1708 8.85764 10.4165 8.73845Z" fill="white"/>
</svg>
