<svg width="25" height="25" viewBox="0 0 25 25" fill="none" xmlns="http://www.w3.org/2000/svg">
<path d="M11.8885 0.0157225C5.23101 0.328859 -0.0209794 5.82754 -0.000919289 12.4372C0.00237884 14.3828 0.468642 16.2997 1.35941 18.0299L0.0329321 24.4191C0.0167473 24.499 0.0209853 24.5816 0.0452538 24.6595C0.0695224 24.7373 0.113038 24.8077 0.171777 24.8643C0.230516 24.9208 0.302582 24.9617 0.381311 24.9831C0.460039 25.0044 0.542889 25.0056 0.622198 24.9865L6.93361 23.5035C8.60523 24.3287 10.4403 24.7704 12.3047 24.7961C19.1089 24.9001 24.7809 19.5417 24.9927 12.7967C25.2209 5.56325 19.2041 -0.331233 11.8885 0.0144697V0.0157225ZM19.4198 19.2636C18.5102 20.1691 17.4306 20.8864 16.243 21.3743C15.0554 21.8622 13.7831 22.1111 12.499 22.1069C10.9883 22.1115 9.49715 21.765 8.14349 21.0948L7.26461 20.6602L3.39426 21.5696L4.2092 17.6478L3.7754 16.8061C3.07217 15.4443 2.70749 13.9333 2.71221 12.4009C2.71221 9.80813 3.73026 7.36943 5.5783 5.53695C7.42032 3.71537 9.90721 2.69322 12.499 2.69242C15.1144 2.69242 17.5717 3.70197 19.4198 5.5357C20.3303 6.43207 21.0528 7.50075 21.5451 8.67929C22.0375 9.85784 22.2897 11.1226 22.2871 12.3997C22.2871 14.9699 21.2528 17.4474 19.4198 19.2649V19.2636Z" fill="white"/>
<path d="M18.3466 15.6578L15.9289 14.9695C15.7729 14.9247 15.6077 14.9227 15.4507 14.9636C15.2936 15.0046 15.1504 15.087 15.0362 15.2022L14.4452 15.8004C14.3229 15.9242 14.1669 16.0093 13.9965 16.0449C13.8262 16.0805 13.6491 16.0651 13.4874 16.0007C12.3443 15.5414 9.93786 13.4189 9.3231 12.3564C9.23692 12.2063 9.19756 12.0339 9.21005 11.8613C9.22254 11.6888 9.28632 11.5238 9.39321 11.3877L9.90906 10.7244C10.0084 10.5974 10.0712 10.4457 10.0908 10.2856C10.1105 10.1256 10.0861 9.96317 10.0205 9.81588L9.00383 7.53318C8.94633 7.4056 8.86 7.29308 8.75164 7.20448C8.64328 7.11588 8.51584 7.0536 8.37933 7.02255C8.24282 6.99151 8.10097 6.99253 7.96493 7.02554C7.82888 7.05855 7.70235 7.12265 7.59528 7.21281C6.92042 7.77972 6.11911 8.63949 6.0227 9.59437C5.85117 11.2751 6.57736 13.3938 9.32435 15.9394C12.4983 18.8791 15.0412 19.2683 16.6952 18.8691C17.6342 18.6438 18.3854 17.739 18.8574 16.9994C18.9329 16.8819 18.9798 16.7483 18.9942 16.6094C19.0087 16.4706 18.9903 16.3302 18.9406 16.1997C18.891 16.0692 18.8113 15.9522 18.7081 15.8581C18.605 15.764 18.4811 15.6954 18.3466 15.6578Z" fill="white"/>
</svg>
