<svg width="347" height="249" viewBox="0 0 347 249" fill="none" xmlns="http://www.w3.org/2000/svg">
<path opacity="0.1" d="M342.501 75.7058C342.441 75.9883 342.384 76.2709 342.317 76.5502C340.233 86.1532 336.828 95.407 331.764 103.905C331.596 104.188 331.427 104.47 331.256 104.753C327.917 110.221 323.922 115.26 319.359 119.759C316.837 122.248 314.086 124.613 310.814 126.318C306.23 128.711 300.871 129.683 295.604 130.476C290.134 131.305 284.587 131.997 279.057 132.743C277.091 133.003 275.138 133.279 273.196 133.571C267.852 134.362 262.547 135.276 257.369 136.489C250.968 137.984 244.764 139.943 238.903 142.698C238.435 142.91 237.973 143.134 237.515 143.371C237.058 143.6 236.597 143.831 236.146 144.066C235.695 144.301 235.25 144.536 234.809 144.777C234.58 144.901 234.351 145.025 234.126 145.155C233.9 145.285 233.678 145.4 233.459 145.527C232.798 145.895 232.15 146.273 231.502 146.654L231.476 146.669C231.047 146.92 230.625 147.177 230.206 147.435C227.81 148.888 225.466 150.406 223.122 151.933L221.648 152.885L219.364 154.361C218.919 154.65 218.465 154.939 218.017 155.225C217.699 155.434 217.381 155.644 217.035 155.86C215.371 156.907 213.684 157.936 211.952 158.917C211.543 159.152 211.13 159.387 210.714 159.615C207.216 161.565 203.558 163.214 199.779 164.542L199.729 164.561C197.828 165.224 195.889 165.771 193.922 166.199C192.788 166.447 191.65 166.65 190.5 166.806C187.426 167.241 184.309 167.285 181.224 166.936C175.167 166.234 169.49 163.91 163.435 163.126C150.97 161.539 138.863 166.653 127.142 170.659C124.259 171.644 121.356 172.565 118.431 173.424C116.487 173.999 114.536 174.542 112.57 175.066C100.523 178.247 88.2275 180.401 75.816 181.507C70.6277 182.015 65.4084 182.131 60.2026 181.853C58.2236 181.732 56.2667 181.535 54.3448 181.218C47.7691 180.202 41.6381 178.072 36.6889 174.171C32.6354 170.967 29.7351 166.793 27.5273 162.425C25.2673 157.968 23.6716 153.204 22.7909 148.285C22.6702 147.616 22.5622 146.943 22.4733 146.27C22.3144 145.118 22.1958 143.961 22.1175 142.797C21.69 136.592 22.4314 130.363 24.303 124.432C26.3996 117.791 29.894 111.416 31.4315 104.724C31.495 104.441 31.5554 104.158 31.6126 103.877C31.8225 102.86 31.9784 101.833 32.0795 100.801C32.8642 92.5785 29.8559 84.5628 27.4956 76.5217C27.413 76.2423 27.3304 75.9598 27.251 75.6772C26.9968 74.7841 26.7533 73.8921 26.5203 73.0011C24.3348 64.4997 23.728 55.3983 25.6753 46.9127C25.7357 46.6302 25.8088 46.3477 25.8787 46.0683C27.1823 40.7045 29.6338 35.6868 33.0643 31.3607C36.7111 26.7893 41.4984 22.983 46.6128 19.6403C49.1054 18.0107 51.6828 16.4879 54.3448 15.0721C56.2508 14.0562 58.2034 13.0944 60.2026 12.1864C76.229 4.88499 94.5107 1.31998 112.589 2.10727C113.542 2.14854 114.495 2.19933 115.448 2.26917C116.401 2.33901 117.443 2.42155 118.441 2.51361C130.086 3.64375 141.418 6.37068 152.669 9.35157C156.44 10.3515 160.204 11.3769 163.966 12.3833C165.64 12.8277 167.311 13.2721 168.985 13.7039C177.184 15.8213 185.503 17.7387 193.928 19.1704C195.878 19.5069 197.831 19.8138 199.786 20.091C206.573 21.0878 213.414 21.6677 220.272 21.8275C222.938 21.8804 225.606 21.8571 228.274 21.7577C229.621 21.709 230.969 21.636 232.318 21.5386C246.248 20.5577 259.711 17.2752 273.196 14.2086C275.146 13.7642 277.1 13.3261 279.057 12.8944C281.623 12.3293 284.19 11.7833 286.769 11.2785C302.821 8.1262 317.129 9.93886 332.053 16.4435C335.446 17.9197 338.835 19.7037 340.913 22.4751C342.99 25.2465 343.511 28.6496 343.899 31.9352C344.448 36.6145 344.807 41.3541 344.944 46.1191C344.944 46.3985 344.944 46.681 344.963 46.9635C345.179 56.5887 344.461 66.306 342.501 75.7058Z" fill="#1448B6"/>
<path opacity="0.1" d="M236.16 103.919H235.113V104.294V104.768H236.3L236.16 103.919ZM224.281 103.919C224.279 103.926 224.279 103.934 224.281 103.941C224.252 104.173 224.221 104.405 224.189 104.64V104.704V104.768H233.266V104.717L233.901 103.919H224.281ZM199.954 103.919V76.5236H210.395C210.284 76.4505 210.17 76.3742 210.053 76.3043L209.9 76.2057L209.704 76.0849C209.589 76.0182 209.475 75.9514 209.354 75.8878C209.234 75.8242 209.161 75.7797 209.059 75.7257L208.989 75.6875H208.974H199.954V74.1774L199.709 74.2728L199.452 74.3936H199.433L199.379 74.4222L199.217 74.508L199.055 74.5939C198.897 74.6797 198.738 74.7751 198.579 74.8736L198.427 74.9754L198.11 75.1788C197.7 75.4522 197.297 75.7384 196.881 76.0054C196.777 76.0722 196.672 76.139 196.564 76.1994C196.339 76.3329 196.107 76.4601 195.869 76.5745C195.767 76.6254 195.669 76.6699 195.551 76.7112L195.38 76.778L195.221 76.832C194.849 76.9618 194.467 77.0618 194.079 77.1309V103.912H178.422C178.422 103.944 178.445 103.97 178.454 104.001C178.54 104.256 178.626 104.507 178.708 104.761H194.101V134.124C194.181 134.124 194.261 134.124 194.339 134.124L194.615 134.14L195.113 134.169L195.91 134.264L196.275 134.299L196.672 134.341H196.732L197.434 134.426L197.583 134.445L197.922 134.493L198.408 134.563L199.573 134.512L199.731 134.541C199.795 134.541 199.862 134.56 199.928 134.573V104.768H224.157V104.704V104.64C224.189 104.405 224.221 104.173 224.249 103.941C224.248 103.934 224.248 103.926 224.249 103.919H199.954ZM236.16 103.919H235.113V104.294V104.768H236.3L236.16 103.919ZM223.627 103.919C223.589 104.202 223.554 104.485 223.516 104.768H233.637L234.326 103.919H223.627ZM199.954 103.919V76.5236H210.395C210.284 76.4505 210.17 76.3742 210.053 76.3043L209.9 76.2057L209.704 76.0849C209.589 76.0182 209.475 75.9514 209.354 75.8878C209.234 75.8242 209.161 75.7797 209.059 75.7257L208.989 75.6875H208.967H199.954V74.1774L199.709 74.2728L199.452 74.3936H199.433L199.379 74.4222L199.217 74.508L199.055 74.5939C198.897 74.6797 198.738 74.7751 198.579 74.8736L198.427 74.9754L198.11 75.1788C197.7 75.4522 197.297 75.7384 196.881 76.0054C196.777 76.0722 196.672 76.139 196.564 76.1994C196.339 76.3329 196.107 76.4601 195.869 76.5745C195.767 76.6254 195.669 76.6699 195.551 76.7112L195.38 76.778L195.221 76.832C194.849 76.9618 194.467 77.0618 194.079 77.1309V103.912H178.422C178.422 103.944 178.445 103.97 178.454 104.001C178.54 104.253 178.629 104.507 178.711 104.761H194.101V134.121H194.339L194.615 134.137L195.113 134.166L195.91 134.264L196.275 134.299L196.672 134.341H196.732L197.434 134.426L197.583 134.445L197.922 134.493L198.408 134.563L199.573 134.512L199.731 134.541C199.795 134.541 199.862 134.56 199.928 134.573V104.768H223.522C223.56 104.485 223.595 104.202 223.633 103.919H199.954ZM279.153 46.8712H345C345 46.5883 345 46.3053 344.981 46.0256H279.153V12.7648C277.198 13.1887 275.246 13.6274 273.297 14.081V46.0256H201.683L201.502 45.8634L201.775 45.6218L228.413 21.6443C225.747 21.746 223.082 21.7693 220.418 21.7142L199.95 40.1345V19.9816C197.995 19.7039 196.044 19.3966 194.098 19.0596V39.2062L164.172 12.2625C160.414 11.2547 156.653 10.2278 152.886 9.22632L193.584 45.8634L193.403 46.0256H118.691V2.40694C117.695 2.31368 116.698 2.23208 115.701 2.16214C114.749 2.0922 113.797 2.04133 112.845 2V46.0256H60.4962V12.094C58.52 13.0011 56.5691 13.9644 54.6437 14.9839V46.0256H26.2031C26.1333 46.3053 26.0603 46.5883 26 46.8712H54.6437V75.678H27.5742C27.6536 75.9609 27.7361 76.2439 27.8186 76.5236H54.6437V103.919H31.9319C31.8747 104.201 31.8144 104.484 31.751 104.768H54.6437V181.364C56.548 181.66 58.5189 181.866 60.4962 182V104.768H112.836V175.197C114.8 174.672 116.749 174.128 118.691 173.553V104.768H194.101V166.301C196.066 165.872 198.004 165.324 199.903 164.661L199.954 164.642V104.768H273.297V133.628C275.244 133.342 277.196 133.068 279.153 132.805V104.768H331.305C331.476 104.485 331.645 104.202 331.813 103.919H279.153V76.5236H342.356C342.423 76.2439 342.48 75.9609 342.54 75.678H279.153V46.8712ZM60.4962 46.8712H112.836V75.678H60.4962V46.8712ZM60.4962 103.919V76.5236H112.836V103.919H60.4962ZM118.691 46.8712H194.101V75.678H118.691V46.8712ZM118.691 103.919V76.5236H194.101V103.919H118.691ZM273.297 103.919H199.954V76.5236H273.297V103.919ZM273.297 75.678H199.954V47.6438L200.982 46.8712H273.297V75.678ZM224.281 103.919C224.279 103.926 224.279 103.934 224.281 103.941C224.252 104.173 224.221 104.405 224.189 104.64V104.704V104.768H233.266V104.717L233.901 103.919H224.281ZM236.16 103.919H235.113V104.294V104.768H236.3L236.16 103.919ZM199.954 103.919V76.5236H210.395C210.284 76.4505 210.17 76.3742 210.053 76.3043L209.9 76.2057L209.704 76.0849C209.589 76.0182 209.475 75.9514 209.354 75.8878C209.234 75.8242 209.161 75.7797 209.059 75.7257L208.989 75.6875H208.974H199.954V74.1774L199.709 74.2728L199.452 74.3936H199.433L199.379 74.4222L199.217 74.508L199.055 74.5939C198.897 74.6797 198.738 74.7751 198.579 74.8736L198.427 74.9754L198.11 75.1788C197.7 75.4522 197.297 75.7384 196.881 76.0054C196.777 76.0722 196.672 76.139 196.564 76.1994C196.339 76.3329 196.107 76.4601 195.869 76.5745C195.767 76.6254 195.669 76.6699 195.551 76.7112L195.38 76.778L195.221 76.832C194.849 76.9618 194.467 77.0618 194.079 77.1309V103.912H178.422C178.422 103.944 178.445 103.97 178.454 104.001C178.54 104.256 178.626 104.507 178.708 104.761H194.101V134.124C194.181 134.124 194.261 134.124 194.339 134.124L194.615 134.14L195.113 134.169L195.91 134.264L196.275 134.299L196.672 134.341H196.732L197.434 134.426L197.583 134.445L197.922 134.493L198.408 134.563L199.573 134.512L199.731 134.541C199.795 134.541 199.862 134.56 199.928 134.573V104.768H224.157V104.704V104.64C224.189 104.405 224.221 104.173 224.249 103.941C224.248 103.934 224.248 103.926 224.249 103.919H199.954Z" fill="#1448B6"/>
<path opacity="0.1" d="M84.9531 26.7981H85.411C85.2601 26.7349 85.1287 26.6332 85.0303 26.5034C84.9319 26.3736 84.8699 26.2204 84.8507 26.0592C84.8507 25.4757 85.7312 25 86.807 25H100.498C101.574 25 102.451 25.4757 102.451 26.0592C102.451 26.6395 101.574 27.1184 100.498 27.1184H100.04C100.191 27.1805 100.323 27.2815 100.421 27.4108C100.52 27.5402 100.582 27.6932 100.601 27.8541C100.601 28.352 99.9603 28.7706 99.1054 28.8816H103.047C104.119 28.8816 105 29.3573 105 29.9408C105 30.5243 104.119 31 103.047 31H89.3525C88.2799 31 87.3994 30.5211 87.3994 29.9408C87.3994 29.4429 88.0397 29.0275 88.8946 28.9133H84.9531C83.8773 28.9133 83 28.4376 83 27.8541C83 27.2706 83.8773 26.7981 84.9531 26.7981Z" fill="#1448B6"/>
<path opacity="0.1" d="M232.953 36.7981H233.411C233.261 36.7344 233.13 36.6326 233.032 36.5028C232.934 36.3731 232.873 36.22 232.854 36.0592C232.854 35.4757 233.731 35 234.807 35H248.498C249.574 35 250.455 35.4757 250.455 36.0592C250.455 36.6395 249.574 37.1152 248.498 37.1152H248.044C248.194 37.1789 248.325 37.2808 248.422 37.4105C248.52 37.5403 248.582 37.6933 248.601 37.8541C248.601 38.352 247.96 38.7706 247.105 38.8816H251.047C252.123 38.8816 253 39.3573 253 39.9408C253 40.5243 252.123 41 251.047 41H237.356C236.28 41 235.399 40.5211 235.399 39.9408C235.399 39.4429 236.04 39.0243 236.895 38.9133H232.953C231.881 38.9133 231 38.4376 231 37.8541C231 37.2706 231.881 36.7981 232.953 36.7981Z" fill="#1448B6"/>
<path opacity="0.1" d="M64.9561 79.7981H65.4107C65.2602 79.7347 65.1293 79.6329 65.0315 79.5031C64.9336 79.3733 64.8722 79.2201 64.8536 79.0592C64.8536 78.4789 65.734 78 66.8065 78H80.4988C81.5713 78 82.4517 78.4789 82.4517 79.0592C82.4517 79.6427 81.5713 80.1184 80.4988 80.1184H80.041C80.1917 80.1807 80.3227 80.2818 80.4207 80.4111C80.5186 80.5405 80.5799 80.6934 80.5981 80.8541C80.5981 81.352 79.9578 81.7706 79.103 81.8816H83.044C84.1196 81.8816 85 82.3605 85 82.9408C85 83.5211 84.1196 84 83.044 84H69.3676C68.2919 84 67.4147 83.5243 67.4147 82.9408C67.4147 82.4461 68.055 82.0275 68.9098 81.9133H64.9561C63.8804 81.9133 63 81.4376 63 80.8541C63 80.2706 63.8932 79.7981 64.9561 79.7981Z" fill="#1448B6"/>
<path opacity="0.1" d="M320.363 193.112C322.633 182.02 294.643 166.94 257.846 159.43C221.049 151.92 189.38 154.824 187.11 165.916C184.84 177.008 212.83 192.088 249.627 199.598C286.423 207.108 318.093 204.204 320.363 193.112Z" fill="#1448B6"/>
<path d="M246 122.357C246 122.357 249.625 104.45 263.467 106.109C263.467 106.109 273.033 106.77 275 113.071V127L246 122.357Z" fill="#3A3768"/>
<path d="M322 128.167L198.81 118L183 121.28L183.988 143.247L185.065 143.377L186.292 176.363L307.175 198L320.024 187.18V151.421L321.669 150.46L322 128.167Z" fill="#DCAF54"/>
<path opacity="0.05" d="M322 128L321.665 150.666L308.168 157L308 133.331L322 128Z" fill="#001032"/>
<path opacity="0.05" d="M319.836 152L320 187.157L307 198L307.835 157.258L319.836 152Z" fill="#001032"/>
<path opacity="0.05" d="M185.092 145.112L307.936 160L308 157.175L185 144L185.092 145.112Z" fill="#001032"/>
<path opacity="0.05" d="M320 153.257V152L308 157.226V160L320 153.257Z" fill="#001032"/>
<path d="M183 121.193L198.81 118L322 127.896L308.166 133L183 121.193Z" fill="#DCAF54"/>
<path opacity="0.1" d="M308.003 129L314 129.349L304.061 132L299 131.676L308.003 129Z" fill="#001032"/>
<path d="M308.003 129L314 129.349L304.061 132L299 131.674L308.003 129Z" fill="white"/>
<path d="M308 129.029C308.232 128.927 308.476 129.121 308.723 129.169C308.866 129.197 309.011 129.169 309.153 129.197C309.441 129.235 309.725 129.432 310 129.334" fill="#D3DAE1"/>
<path d="M307 130.029C307.229 129.928 307.476 130.118 307.723 130.169C307.866 130.194 308.011 130.169 308.153 130.194C308.44 130.236 308.725 130.432 309 130.334" fill="#D3DAE1"/>
<path d="M307 130.029C307.232 129.928 307.479 130.118 307.726 130.166C307.866 130.194 308.014 130.166 308.153 130.194C308.444 130.236 308.728 130.433 309 130.331" fill="#D3DAE1"/>
<path opacity="0.1" d="M282.003 126L288 126.352L278.061 129L273 128.674L282.003 126Z" fill="#001032"/>
<path d="M282.003 126L288 126.349L278.061 129L273 128.676L282.003 126Z" fill="white"/>
<path d="M282 126.029C282.232 125.928 282.476 126.118 282.723 126.169C282.866 126.194 283.011 126.169 283.153 126.194C283.44 126.236 283.725 126.432 284 126.334" fill="#D3DAE1"/>
<path d="M281 127.029C281.229 126.928 281.476 127.118 281.723 127.166C281.866 127.194 282.011 127.166 282.153 127.194C282.44 127.236 282.725 127.433 283 127.331" fill="#D3DAE1"/>
<path d="M281 127.029C281.232 126.927 281.479 127.121 281.726 127.169C281.866 127.197 282.014 127.169 282.153 127.197C282.444 127.235 282.728 127.435 283 127.334" fill="#D3DAE1"/>
<path opacity="0.1" d="M295.001 128L301 128.349L291.063 131L286 130.674L295.001 128Z" fill="#001032"/>
<path d="M295.001 127L301 127.349L291.063 130L286 129.673L295.001 127Z" fill="white"/>
<path d="M294 128.029C294.232 127.928 294.479 128.118 294.726 128.166C294.866 128.194 295.011 128.166 295.153 128.194C295.44 128.233 295.728 128.433 296 128.331" fill="#D3DAE1"/>
<path d="M294 128.029C294.232 127.927 294.479 128.121 294.726 128.169C294.866 128.197 295.011 128.169 295.153 128.197C295.441 128.235 295.728 128.435 296 128.334" fill="#D3DAE1"/>
<path d="M293 128.029C293.229 127.928 293.476 128.118 293.723 128.169C293.866 128.194 294.011 128.169 294.153 128.194C294.441 128.236 294.725 128.432 295 128.334" fill="#D3DAE1"/>
<path d="M228.808 129.26C228.122 123.23 225.405 117.477 225.405 117.477L225.611 115.444C225.611 115.444 225.656 114.427 225.589 112.902C225.597 111.95 225.721 111.002 225.961 110.081C226.517 108.318 225.265 106.151 225.125 105.951C224.986 105.751 225.195 101.885 223.943 99.988C222.691 98.0914 214.354 94.565 214.354 94.565C214.354 94.565 213.906 93.6278 213.273 92.5318L213.33 92.4206C212.813 91.4823 212.172 90.6178 211.424 89.8505C210.912 89.304 210.42 88.9927 210.023 89.1452C209.861 88.6179 209.738 88.0796 209.654 87.5345C209.737 87.5567 209.822 87.579 209.905 87.5949C210.249 87.6747 210.606 87.6833 210.954 87.6203C211.729 87.4455 212.244 86.7498 212.676 86.0954C214.83 82.8232 216.686 79.2332 217.064 75.3606C217.166 74.5702 217.128 73.7681 216.953 72.9906C216.774 72.3862 216.524 71.805 216.209 71.2592C215.652 70.1393 214.947 69.0996 214.112 68.1681C212.628 66.6051 210.582 65.6488 208.478 65.0833C206.109 64.4462 203.64 64.2619 201.202 64.5401C200.566 64.6131 199.931 64.718 199.295 64.7593C198.489 64.7948 197.682 64.781 196.877 64.718L192.718 64.4765L192.699 64.413L192.006 64.3717C191.733 64.9149 192.006 65.5599 192.346 66.0682C192.686 66.5765 193.077 67.107 193.048 67.7074C193.02 68.3079 192.584 68.7908 192.244 69.2959C191.904 69.801 191.647 70.4618 191.987 70.9574C192.035 71.026 192.091 71.0879 192.155 71.1417C192.514 71.5134 193.14 71.5547 193.684 71.5483H193.779C192.411 73.3502 191.671 75.5508 191.672 77.8132C191.682 79.7465 192.223 81.64 193.237 83.2864C194.251 84.9327 195.698 86.2683 197.421 87.1469C197.481 87.3534 197.541 87.5663 197.598 87.7823C198.228 90.0138 198.454 92.3398 198.266 94.6508L198.193 94.8096L198.148 94.6412C198.148 94.6412 193.248 97.9643 191.793 98.8443C190.338 99.7243 188.876 102.707 188.806 103.521C188.736 104.334 186.442 116.6 186.442 116.6C185.976 117.836 185.592 119.101 185.292 120.387L182.365 122.957C182.365 122.957 176.328 123.5 174.58 123.094L174.631 123.43C173.09 123.079 171.521 122.866 169.941 122.795C169.079 122.684 168.202 122.801 167.399 123.135L167.339 123.163L167.291 123.186C166.371 123.311 165.473 123.564 164.622 123.935C164.52 123.977 164.428 124.018 164.339 124.059L164.358 123.643L157.825 123.306L154.489 122.63C154.489 122.63 153.307 121.677 152.611 121.816C151.915 121.956 150.457 121.003 150.457 121.003C150.124 120.742 149.764 120.519 149.383 120.336C149.272 119.567 149.202 119.1 149.202 119.1C149.202 119.1 146.606 108.801 144.661 102.746C143.358 98.7013 141.483 96.7094 140.378 95.8421C139.885 94.9843 139.561 94.4316 139.561 94.4316C139.348 93.6882 138.179 92.0139 137.88 91.9726C137.832 91.8964 137.797 91.8583 137.778 91.8583C137.714 91.8514 137.65 91.8613 137.591 91.8869C137.044 89.1674 136.727 85.7586 137.562 82.7882C138.706 81.8482 139.628 80.667 140.262 79.3291C140.896 77.9912 141.226 76.5297 141.229 75.0493C141.229 75.0048 141.229 74.9603 141.229 74.9158C141.229 74.8714 141.229 74.8237 141.229 74.7792C141.229 72.4183 140.392 70.1337 138.868 68.3301L138.76 68.2094C138.789 68.1889 138.817 68.1666 138.843 68.1427C139.082 67.9491 139.264 67.6944 139.369 67.4058C139.475 67.1172 139.501 66.8054 139.443 66.5034C139.3 65.8934 138.824 65.4137 138.579 64.8355C138.432 64.3904 138.314 63.9362 138.226 63.4758C138.039 62.8219 137.696 62.2233 137.226 61.7317L137.273 61.8588C136.028 60.4577 133.886 59.762 131.957 60.0733C130.524 60.3021 129.19 60.9692 127.75 61.1757C126.717 61.3219 125.666 61.2266 124.627 61.3314C123.663 61.4305 122.724 61.7017 121.856 62.132C121.629 62.2285 121.428 62.3764 121.268 62.564C121.12 62.8155 121.021 63.0924 120.976 63.3805C120.623 64.6671 119.504 65.5853 118.694 66.6591C117.769 67.8859 117.233 69.3623 117.156 70.8971C117.125 71.2871 117.162 71.6797 117.267 72.0566C117.337 72.2822 117.445 72.495 117.496 72.7238C117.655 73.4227 117.29 74.1184 117.112 74.811C116.888 75.6945 116.967 76.6277 117.337 77.4605C118.593 80.2689 122.714 81.2061 123.572 84.1543C124.228 84.456 124.922 84.6696 125.634 84.7896C125.691 85.0819 125.742 85.3774 125.783 85.676C125.764 85.6842 125.746 85.6949 125.729 85.7078C124.617 86.7911 124.341 88.8847 124.341 88.8847L124.207 88.9927C123.753 89.3676 122.199 90.6256 120.795 91.5946C119.126 92.7478 116.346 96.6109 114.401 97.7641C112.457 98.9174 110.855 106.024 111.275 108.607C111.694 111.19 113.429 118.433 112.733 121.076C112.037 123.719 113.775 135.782 113.775 135.782C114.942 136.004 116.083 136.343 117.182 136.792L117.147 137.32L117.042 138.908C117.042 138.908 113.893 150.294 115.097 159.059C116.302 167.824 114.541 168.727 114.541 168.727C114.541 168.727 114.91 172.612 113.985 173.969C113.06 175.325 112.873 178.305 112.873 178.305C112.873 178.305 112.781 184.992 112.965 186.883C113.149 188.773 113.242 192.217 112.593 193.03C111.945 193.843 110.741 199.171 110.833 200.797C110.925 202.424 108.517 206.132 109.813 210.919C111.109 215.707 106 215.799 106 215.799C106 215.799 106.651 223.106 108.04 225.196L108.243 225.495C108.208 225.615 108.173 225.743 108.135 225.879C107.611 227.785 106.893 230.794 107.392 231.521C108.132 232.608 108.504 232.424 108.504 232.424L108.78 237.303C108.78 237.303 114.341 242.002 118.605 241.824C122.869 241.646 122.034 237.303 122.034 237.303L118.402 227.887L118.278 227.569L122.313 219.945C122.313 219.945 123.426 216.603 123.702 215.427C123.978 214.252 125.488 210.087 125.488 210.087C125.488 210.087 129.301 201.052 129.38 199.965C129.46 198.879 129.752 193.011 130.492 191.832C131.233 190.654 133.273 183.89 133.273 183.89L133.324 183.934C133.67 184.274 133.917 184.702 134.039 185.171C134.161 185.641 134.153 186.135 134.016 186.6C133.549 188.315 133.829 191.839 133.829 191.839C133.829 191.839 133.644 194.822 133.273 196.359C132.901 197.897 132.812 210.455 133.46 213.435C133.978 215.821 133.962 220.288 133.937 221.978C133.501 223.773 133.12 226.003 133.829 226.267C135.036 226.721 141.153 226.629 141.153 226.629C141.153 226.629 143.746 225.723 147.27 228.888C150.794 232.052 161.632 227.985 161.632 227.985C161.632 227.985 164.968 227.08 158.388 224.462C153.796 222.636 150.832 221.419 148.893 220.116C148.938 220.03 148.986 219.945 149.027 219.853C149.027 219.853 146.339 217.311 148.563 212.806C150.787 208.301 150.695 204.492 150.695 204.492L151.067 189.31L149.955 169.156L149.094 148.004L149.246 147.953C149.392 151.841 150.152 161.099 154.127 159.304C159.131 157.045 154.867 151.171 154.867 151.171L152.621 146.793L153.291 146.565L150.778 138.444C150.536 136.86 150.504 135.25 150.682 133.657C150.732 132.725 150.713 131.79 150.625 130.861C153.917 130.286 157.069 129.676 157.635 129.816C158.302 129.978 162.036 130.01 163.504 130.016C163.024 130.391 162.639 130.763 162.639 130.763L168.616 134.785C168.616 134.785 170.644 133.676 171.066 132.5C171.482 132.395 171.866 132.19 172.185 131.903C172.248 133.291 172.617 134.794 173.9 134.829C174.222 134.836 174.54 134.773 174.835 134.645L184.609 132.71L183.77 137.949L184.355 138.988C184.059 143.407 183.719 148.099 183.42 152.226L183.284 153.128L183.354 153.144C182.89 159.498 182.518 164.311 182.518 164.311C183.065 163.268 183.915 162.414 184.955 161.861L185.019 171.29C185.019 171.29 185.508 186.2 185.508 188.233C185.508 190.266 185.575 194.806 185.575 194.806C185.575 194.806 186.62 200.362 187.243 202.192C187.866 204.022 188.355 212.358 188.355 212.358C188.355 212.358 189.817 214.661 189.191 215.535C188.565 216.409 191.625 218.312 191.625 218.312C191.625 218.312 189.677 220.955 189.537 222.718C189.521 222.921 189.721 223.137 190.084 223.354C189.969 223.446 189.852 223.538 189.721 223.627C188.819 224.23 187.497 224.65 185.508 224.478C180.084 224.002 176.261 229.018 179.598 230.035C182.934 231.051 192.943 231.254 192.943 231.254C192.943 231.254 195.975 229.364 198.345 230.216C198.31 232.204 198.409 234.028 198.425 234.269L198.396 234.292C196.979 235.562 194.265 237.748 191.615 238.641C187.802 239.927 186.957 245.147 191.892 245.824C196.826 246.5 204.055 245.01 204.055 245.01C204.055 245.01 207.808 242.234 210.658 241.624C213.508 241.014 215.942 239.657 215.456 238.031C215.138 236.992 214.322 234.269 213.769 232.439C213.737 232.329 213.705 232.223 213.674 232.122C213.759 231.931 213.845 231.734 213.925 231.531C213.925 231.531 212.466 223.941 213.648 222.045C214.83 220.148 214.204 201.169 214.204 201.169C214.204 201.169 212.186 196.359 213.232 193.446C214.277 190.533 211.564 186.397 211.564 186.397C211.564 186.397 211.859 178.108 212.654 173.489C212.69 173.292 212.725 173.101 212.758 172.917C214.088 172.522 215.385 172.022 216.635 171.421C216.635 171.421 217.331 160.981 217.747 158.611C217.788 158.389 217.846 158.03 217.916 157.563L218.233 155.889L218.608 153.983L219.879 147.486L222.173 144.519L228.084 138.483C228.084 138.483 229.504 135.293 228.808 129.26ZM137.664 91.9853L137.62 92.0171C137.613 91.9942 137.607 91.9708 137.604 91.9472C137.622 91.9624 137.642 91.9752 137.664 91.9853ZM196.057 99.3843L195.829 99.8831L196.664 99.0508L195.53 100.322L195.911 99.521L196.057 99.3843ZM190.414 111.044C190.195 111.625 189.96 112.254 189.715 112.908L190.163 111.571L190.414 111.044Z" fill="url(#paint0_linear)"/>
<path d="M172.134 129.93C172.134 129.93 171.296 134.935 173.809 134.999C176.322 135.064 178 131.139 178 131.139L176.974 128L172.134 129.93Z" fill="#585B8A"/>
<path opacity="0.2" d="M172.134 129.93C172.134 129.93 171.296 134.935 173.809 134.999C176.322 135.064 178 131.139 178 131.139L176.974 128L172.134 129.93Z" fill="#001032"/>
<path d="M152.561 146L155.386 151.724C155.386 151.724 159.45 157.54 154.68 159.775C149.91 162.009 150 146.897 150 146.897L152.561 146Z" fill="#FFD6D6"/>
<path d="M140 96C140 96 143.054 97.4454 144.887 103.494C146.719 109.542 149.163 119.838 149.163 119.838C149.163 119.838 150.821 131.484 150.557 134.374C150.389 135.967 150.419 137.574 150.646 139.159L153 147.285L148.288 149L141.047 120.289L140 96Z" fill="#DCE6F2"/>
<path opacity="0.05" d="M140 96C140 96 143.054 97.4454 144.887 103.494C146.719 109.542 149.163 119.838 149.163 119.838C149.163 119.838 150.821 131.484 150.557 134.374C150.389 135.967 150.419 137.574 150.646 139.159L153 147.285L148.288 149L141.047 120.289L140 96Z" fill="#001032"/>
<path d="M149.542 213.956C147.371 218.484 149.997 221.026 149.997 221.026C147.358 227.012 138.386 224.792 135.893 224.04C135.482 223.919 135.256 223.836 135.256 223.836C135.256 223.836 135.438 217.578 134.804 214.587C134.171 211.596 134.26 198.998 134.623 197.458C134.986 195.918 135.164 192.923 135.164 192.923C135.164 192.923 134.893 189.389 135.346 187.667C135.482 187.202 135.491 186.709 135.372 186.239C135.253 185.769 135.011 185.339 134.671 184.995L134.623 184.947C134.623 184.947 132.633 191.746 131.907 192.92C131.181 194.093 130.914 199.99 130.821 201.078C130.729 202.165 127.02 211.232 127.02 211.232C127.02 211.232 125.575 215.4 125.304 216.577C125.033 217.754 123.944 221.112 123.944 221.112L119.583 229.544C117.5 230.45 112.343 229.726 112.343 229.726C112.343 229.726 111.349 228.45 109.99 226.371C108.63 224.292 108 216.947 108 216.947C108 216.947 112.976 216.855 111.709 212.052C110.442 207.249 112.795 203.53 112.706 201.897C112.616 200.265 113.791 194.919 114.425 194.103C115.058 193.287 114.966 189.842 114.785 187.938C114.603 186.034 114.696 179.328 114.696 179.328C114.696 179.328 114.877 176.336 115.781 174.978C116.685 173.619 116.326 169.719 116.326 169.719C116.326 169.719 118.042 168.813 116.867 160.02C115.692 151.228 118.777 139.807 118.777 139.807L118.882 138.213L119.048 135.63C119.048 135.63 144.929 133.997 147.011 135.99C147.555 136.543 148.002 137.185 148.332 137.888C149.045 139.422 149.548 141.044 149.829 142.713L150.914 170.178L152 190.391L151.637 205.619C151.637 205.619 151.717 209.421 149.542 213.956Z" fill="#565988"/>
<path opacity="0.1" d="M142 159L139.115 217.653L135.651 223C135.215 222.879 134.975 222.797 134.975 222.797C134.975 222.797 135.167 216.568 134.494 213.59C133.821 210.611 133.916 198.071 134.301 196.537C134.687 195.004 134.877 192.022 134.877 192.022C134.877 192.022 134.589 188.505 135.069 186.79C135.214 186.327 135.224 185.836 135.097 185.368C134.971 184.9 134.714 184.472 134.352 184.129L134.4 183.812L142 159Z" fill="#001032"/>
<path d="M126 81.2505C126 81.2505 128.35 86.6763 127.107 89.4574C125.864 92.2385 140.53 97 140.53 97C140.53 97 136.242 86.4124 140.394 80.4559C144.546 74.4994 126 81.2505 126 81.2505Z" fill="#FFD6D6"/>
<path d="M184 151.876L184.139 171.615C184.139 171.615 184.619 186.44 184.619 188.463C184.619 190.486 184.687 194.996 184.687 194.996C184.687 194.996 185.719 200.521 186.338 202.342C186.957 204.163 187.437 212.457 187.437 212.457C187.437 212.457 188.882 214.748 188.262 215.618C187.643 216.487 190.668 218.38 190.668 218.38C190.668 218.38 188.733 221.01 188.607 222.761C188.482 224.512 204 227 204 227L197.955 166.226L193.141 151L184 151.876Z" fill="#575988"/>
<path opacity="0.1" d="M184 151.876L184.139 171.615C184.139 171.615 184.619 186.44 184.619 188.463C184.619 190.486 184.687 194.996 184.687 194.996C184.687 194.996 185.719 200.521 186.338 202.342C186.957 204.163 187.437 212.457 187.437 212.457C187.437 212.457 188.882 214.748 188.262 215.618C187.643 216.487 190.668 218.38 190.668 218.38C190.668 218.38 188.733 221.01 188.607 222.761C188.482 224.512 204 227 204 227L197.955 166.226L193.141 151L184 151.876Z" fill="#001032"/>
<path d="M212.568 232.215C208.227 243.343 197.448 234.993 197.448 234.993C197.448 234.993 197.108 229.232 197.788 226.59C198.469 223.948 197.041 216.016 197.041 216.016C197.041 216.016 196.227 208.967 195.482 207.342C194.738 205.717 194.805 202.462 194.805 202.191C194.805 201.921 195.075 199.75 194.465 198.259C193.854 196.767 193.511 193.108 193.511 193.108C193.511 193.108 193.511 187.957 192.9 184.908L190.798 174.416L187 152.93L188.186 152.726L209.442 149C209.442 149 213.443 169.348 212.085 171.434C211.792 171.892 211.535 172.893 211.322 174.184C210.545 178.801 210.256 187.089 210.256 187.089C210.256 187.089 212.899 191.223 211.884 194.138C210.87 197.054 212.839 201.864 212.839 201.864C212.839 201.864 213.449 220.842 212.295 222.74C211.14 224.638 212.568 232.215 212.568 232.215Z" fill="#575988"/>
<path d="M211 93.4057C211 93.4057 191.542 106.836 195.926 100.119C198.288 96.5025 197.854 91.8967 196.928 88.4188C196.461 86.6498 195.815 84.9308 195 83.2869C195 83.2869 211.534 76.394 209.342 82.5718C208.828 84.011 208.609 85.5356 208.699 87.0579C208.83 89.3461 209.629 91.5493 211 93.4057Z" fill="#D28690"/>
<path d="M175.591 124.022C175.591 124.022 167.758 121.751 166.453 123.979C165.148 126.207 166.845 131.097 169.209 131.883C171.573 132.67 177 129.219 177 129.219L175.591 124.022Z" fill="#D28690"/>
<path d="M185.922 120L182.457 123.124C182.457 123.124 176.425 123.665 174.693 123.257C174.693 123.257 176.289 133.71 174 135L188 132.217L185.922 120Z" fill="#585B8A"/>
<path opacity="0.1" d="M185.922 120L182.457 123.124C182.457 123.124 176.425 123.665 174.693 123.257C174.693 123.257 176.289 133.71 174 135L188 132.217L185.922 120Z" fill="#001032"/>
<path opacity="0.1" d="M142 75.7035C142 78.4343 140.947 81.0532 139.072 82.9842C137.198 84.9152 134.655 86 132.004 86C126.875 83.4613 122.008 81.3955 122.008 75.7035C121.955 74.3181 122.174 72.936 122.652 71.6399C123.13 70.3439 123.857 69.1606 124.789 68.1611C125.722 67.1616 126.841 66.3664 128.08 65.8232C129.318 65.28 130.65 65 131.996 65C133.342 65 134.674 65.28 135.913 65.8232C137.151 66.3664 138.27 67.1616 139.203 68.1611C140.135 69.1606 140.863 70.3439 141.341 71.6399C141.819 72.936 142.038 74.3181 141.984 75.7035H142Z" fill="#001032"/>
<path d="M142 74.9937C142.001 77.3499 141.171 79.6309 139.655 81.4345C138.139 83.2382 136.034 84.4485 133.713 84.8522C131.392 85.2558 129.002 84.8268 126.966 83.6408C124.93 82.4548 123.379 80.588 122.585 78.3695C121.791 76.1511 121.806 73.7236 122.627 71.5152C123.448 69.3067 125.023 67.459 127.073 66.2981C129.123 65.1372 131.518 64.7375 133.834 65.1696C136.15 65.6017 138.239 66.8378 139.733 68.6599C141.196 70.4468 141.997 72.6843 142 74.9937Z" fill="#FFD6D6"/>
<path opacity="0.1" d="M147 137.944C146.007 138.583 144.968 139.142 143.892 139.615C143.892 139.615 138.812 138.851 138.079 139.752C137.345 140.652 130.866 141 130.866 141C130.866 141 120.973 140.516 119.502 139.199C119.047 138.817 118.541 138.506 118 138.275L118.163 135.642C118.163 135.642 143.654 133.977 145.705 136.009C146.239 136.574 146.677 137.228 147 137.944Z" fill="#001032"/>
<path d="M148.971 135.718C148.77 136.872 144.623 138.639 144.623 138.639C144.623 138.639 139.54 137.893 138.806 138.776C138.072 139.659 131.59 140 131.59 140C131.59 140 121.692 139.522 120.221 138.231C118.749 136.939 115.471 136.318 115.471 136.318C115.471 136.318 113.798 124.222 114.47 121.572C115.141 118.923 113.466 111.648 113.064 109.065C112.663 106.483 114.2 99.3478 116.073 98.1937C117.946 97.0396 120.622 93.1628 122.225 92.0087C123.578 91.0363 125.071 89.777 125.507 89.3976L125.636 89.2892C125.636 89.2892 125.905 87.1818 126.975 86.1011C128.045 85.0203 137.874 92.9652 137.874 92.9652C137.874 92.9652 137.943 93.5773 138.612 92.4232C138.762 92.1649 140.058 94.0651 140.284 94.8685C140.284 94.8685 145.633 104.385 145.969 106.346C146.305 108.307 147.707 114.705 147.974 116.267C148.043 116.669 148.156 118.078 148.287 119.966C148.312 120.335 148.334 120.728 148.363 121.136C148.56 124.266 148.774 128.264 148.902 131.287C148.902 131.631 148.931 131.963 148.94 132.281C149.008 133.426 149.018 134.573 148.971 135.718Z" fill="#DCE6F2"/>
<path opacity="0.1" d="M115 111C115 111 118.648 116 119.843 116C121.039 116 115 111 115 111Z" fill="#001032"/>
<path opacity="0.1" d="M122 121C122 121 116.311 127.662 117.07 128.887C117.829 130.111 122 121 122 121Z" fill="#001032"/>
<path opacity="0.1" d="M118 134C118 134 124.696 126.565 125 124L118 134Z" fill="#001032"/>
<path opacity="0.1" d="M127 134C127 134 135.27 129.887 135.964 126.622C136.659 123.358 127 134 127 134Z" fill="#001032"/>
<path opacity="0.1" d="M137.086 93.8818L136 96.5843L137.808 97.4629L139.585 102.57C139.585 102.57 144.483 112.644 144.286 117.884C144.088 123.124 145.174 131 145.174 131L148 130.461L146.667 115.048C146.46 112.662 145.879 110.326 144.946 108.13C142.688 102.814 138.486 93 138.221 93C137.86 93 138.113 93.1364 138.113 93.1364L137.086 93.8818Z" fill="#001032"/>
<path d="M137.086 92.8786L136 95.5843L137.81 96.4629L139.584 101.57C139.584 101.57 144.481 111.644 144.284 116.884C144.086 122.124 145.172 130 145.172 130L148 129.461L146.665 114.048C146.46 111.662 145.879 109.325 144.947 107.13C142.689 101.811 138.489 92 138.227 92C137.863 92 138.116 92.1364 138.116 92.1364L137.086 92.8786Z" fill="#575989"/>
<path d="M171.065 132.996C169.58 132.893 166.015 131.253 164.6 130.571L164 130.268L164.073 125.263C164.423 125.076 164.786 124.909 165.159 124.763C167.051 124.011 170.932 122.99 172.878 126.279C175.503 130.689 172.948 133.111 171.065 132.996Z" fill="#FFD6D6"/>
<path opacity="0.1" d="M140 68.7729C139.855 68.8647 139.695 68.9307 139.528 68.968C138.353 69.2271 137.016 68.2069 136.008 68.8625C135.394 69.2654 135.251 70.1002 135.169 70.8357C135.025 72.1149 134.881 73.3856 134.738 74.6478C134.708 75.0972 134.614 75.5398 134.459 75.9622C133.962 77.1103 132.596 77.6508 131.351 77.6316C130.863 77.6667 130.382 77.5057 130.011 77.1839C129.792 76.96 129.675 76.6466 129.434 76.4419C127.85 75.1019 127.369 78.3864 127.787 79.3202C128.459 80.8457 130.844 82.3168 129.843 84.2549C129.675 84.5698 129.419 84.8287 129.108 85C127.599 84.5231 126.222 83.6966 125.086 82.5866C123.951 81.4765 123.088 80.1137 122.567 78.6071C122.045 77.1004 121.881 75.4916 122.085 73.9091C122.29 72.3267 122.858 70.8145 123.745 69.4933C124.632 68.1722 125.812 67.0787 127.193 66.3002C128.573 65.5217 130.114 65.0798 131.693 65.0098C133.273 64.9399 134.846 65.2437 136.289 65.8971C137.731 66.5505 139.002 67.5353 140 68.7729Z" fill="#001032"/>
<path d="M128.514 77.0974C128.753 77.2994 128.875 77.6137 129.095 77.8381C129.469 78.1606 129.955 78.3219 130.447 78.2871C131.702 78.3063 133.079 77.7676 133.578 76.6099C133.737 76.1882 133.832 75.7451 133.862 75.2952L134.296 71.4726C134.38 70.7351 134.52 69.8981 135.143 69.494C136.159 68.8527 137.507 69.8596 138.693 69.5999C139.12 69.4909 139.49 69.2227 139.727 68.8498C139.964 68.4769 140.051 68.0274 139.97 67.5924C139.833 66.9799 139.367 66.4957 139.127 65.912C138.982 65.4636 138.865 65.0062 138.779 64.5427C138.117 62.0542 135.207 60.6561 132.677 61.073C131.271 61.307 129.964 61.9805 128.555 62.1857C127.546 62.3332 126.514 62.237 125.495 62.3461C124.548 62.4441 123.627 62.717 122.779 63.151C122.556 63.2499 122.36 63.3991 122.204 63.5871C122.059 63.8409 121.962 64.1191 121.916 64.408C121.575 65.6908 120.476 66.6368 119.68 67.7175C118.77 68.9609 118.244 70.4449 118.166 71.9857C118.134 72.3793 118.171 72.7753 118.274 73.1562C118.341 73.3807 118.447 73.5987 118.498 73.8296C118.655 74.5319 118.297 75.2342 118.121 75.9333C117.903 76.8254 117.981 77.7647 118.345 78.6078C119.571 81.4394 123.613 82.3854 124.453 85.3581C125.199 85.7172 126.005 85.9347 126.83 85.9995C127.654 86.0155 128.543 85.6596 128.926 84.9252C129.932 83.0011 127.53 81.5067 126.853 79.9803C126.428 79.0407 126.904 75.7505 128.514 77.0974Z" fill="#353045"/>
<path opacity="0.1" d="M208.807 82.6913C208.313 84.1974 208.103 85.7928 208.189 87.3857C207.712 87.8176 207.192 86.5253 206.642 86.8583C205.132 87.7879 203.387 90 201.519 90C199.898 90.0011 198.3 89.5933 196.856 88.8099C196.406 86.9588 195.784 85.1598 195 83.4396C195 83.4396 210.917 76.2265 208.807 82.6913Z" fill="#001032"/>
<path d="M212 78.5C212 80.5767 211.384 82.6068 210.23 84.3335C209.077 86.0602 207.437 87.406 205.518 88.2007C203.6 88.9954 201.488 89.2034 199.452 88.7982C197.415 88.3931 195.544 87.3931 194.075 85.9246C192.607 84.4562 191.607 82.5853 191.202 80.5485C190.797 78.5117 191.005 76.4004 191.799 74.4818C192.594 72.5632 193.94 70.9233 195.667 69.7696C197.393 68.6158 199.423 68 201.5 68C202.879 67.9996 204.245 68.2709 205.519 68.7984C206.793 69.3259 207.95 70.0994 208.926 71.0745C209.901 72.0496 210.674 73.2072 211.202 74.4813C211.729 75.7554 212 77.121 212 78.5Z" fill="#D28690"/>
<path d="M212 96.0005C212 96.0005 210.019 98.1819 209.75 98.3611C209.481 98.5402 203.736 122.99 203.635 123.275C203.534 123.559 196.796 145.636 196.796 145.636L186 151L186.902 123.998L194.814 101.729C194.814 101.729 197.425 98.7289 198.232 97.6382C199.04 96.5475 209.117 90 209.117 90L210.838 93.5856L212 96.0005Z" fill="#F0F3F7"/>
<path opacity="0.1" d="M211 93.4238L198.206 102L198 97.2904C198.835 96.2489 209.219 90 209.219 90L211 93.4238Z" fill="#001032"/>
<path d="M211 93.4238L198.199 102L198 97.2935C198.836 96.2489 209.224 90 209.224 90L211 93.4238Z" fill="#F0F3F7"/>
<path d="M197.578 95L198 97.1903L195.172 100.035L197.429 95.0319C197.429 95.0319 192.592 98.3685 191.141 99.2529C189.69 100.137 188.239 103.132 188.185 103.95C188.13 104.767 185.847 117.085 185.847 117.085C185.847 117.085 184.128 121.644 184.612 122.937C185.096 124.231 182 165 182 165C182.414 164.208 182.999 163.516 183.713 162.974C184.428 162.432 185.254 162.052 186.134 161.861L185.031 137.768C185.031 137.768 186.372 121.74 186.44 121.536C186.508 121.331 189.568 112.04 189.568 112.04L197.578 95Z" fill="#585B8A"/>
<path opacity="0.1" d="M199 98L198.777 102.465C198.777 102.465 195.664 112.016 194.618 113.579C193.571 115.141 190.386 124.457 190.386 124.457L188.592 140.638L185.515 142L184 139.286L186.519 123.659C186.519 123.659 191.272 110.473 191.974 109.111L195.48 101.929L199 98Z" fill="#001032"/>
<path d="M198 97L197.78 101.465C197.78 101.465 194.67 111.018 193.621 112.581C192.572 114.144 189.395 123.461 189.395 123.461L187.612 139.641L184.537 141L183 138.282L185.517 122.654C185.517 122.654 190.267 109.462 190.965 108.103L194.496 100.93L198 97Z" fill="#663D5C"/>
<path d="M163 131.609L168.621 136C168.621 136 172.587 133.491 170.278 131.869C167.968 130.246 165.92 130 165.177 130C164.435 130 163 131.609 163 131.609Z" fill="#D28690"/>
<path d="M167.407 123.543C167.282 123.625 167.179 123.739 167.107 123.875C167.036 124.011 166.999 124.164 167 124.319C167 125.572 167.135 128.889 168.132 127.391C169.356 125.559 169.132 123.913 171.002 125.102C172.164 125.863 173.18 126.846 174 128L173.48 124.065C173.48 124.065 169.637 122.068 167.407 123.543Z" fill="#D28690"/>
<path opacity="0.1" d="M211.723 171.313C211.434 171.768 211.18 172.764 210.97 174.048C199.251 177.593 190.677 170.098 190.677 170.098C189.639 166.552 188.792 162.953 188.137 159.315C187.927 158.069 187.974 155.653 188.169 152.706L209.12 149C209.12 149 213.061 169.222 211.723 171.313Z" fill="#001032"/>
<path d="M223.864 111.031C223.329 112.8 223.531 116.397 223.531 116.397L218.706 139.493C218.706 139.493 216.361 157.29 215.958 159.667C215.556 162.044 214.886 172.506 214.886 172.506C201.216 179.299 190.683 170.062 190.683 170.062C189.643 166.487 188.793 162.859 188.137 159.192C187.464 155.158 189.444 138.996 190.381 131.817C190.661 129.691 190.849 128.353 190.849 128.353L194.367 115.107C194.367 115.107 198.689 103.931 200.298 100.672C201.908 97.4118 208.37 90.0892 208.37 90.0892C209.172 89.5729 210.454 91.3956 211.407 93.0558C212.127 94.3113 212.664 95.4776 212.664 95.4776C212.664 95.4776 220.705 99.0083 221.909 100.895C223.112 102.781 222.914 106.669 223.05 106.873C223.185 107.077 224.401 109.266 223.864 111.031Z" fill="#585B8A"/>
<path opacity="0.1" d="M205.225 102.596C205.225 102.596 205.828 106.212 204.283 107.304C202.792 108.36 191.691 130.611 191 132C191.279 129.862 191.468 128.518 191.468 128.518L194.981 115.218C194.981 115.218 199.301 103.995 200.905 100.718C202.509 97.4405 208.97 90.0895 208.97 90.0895C209.771 89.5711 211.049 91.4016 212 93.069C210.565 96.106 207.573 101.847 205.225 102.596Z" fill="#001032"/>
<path d="M205.231 102.597C205.231 102.597 205.831 106.214 204.289 107.305C202.748 108.396 191.7 130.611 191 132C191.279 129.865 191.468 128.521 191.468 128.521L194.981 115.217C194.981 115.217 199.298 103.992 200.905 100.718C202.512 97.4443 208.967 90.0895 208.967 90.0895C209.768 89.5711 211.049 91.4017 212 93.0692C210.572 96.1033 207.576 101.848 205.231 102.597Z" fill="#585B8A"/>
<path d="M221 134.118L217.204 153.857V153.86L216.842 155.749V155.752L216.024 160L212.538 159.262L210.913 158.918L188.427 154.156L186.773 153.806L183 153.008L183.738 148.108L184.044 146.07L186.767 128L221 134.118Z" fill="#1448B6"/>
<path d="M200.402 151C200.402 151 191.298 154.136 193.283 157.861C195.268 161.585 208 154.985 208 154.985L200.402 151Z" fill="#D28690"/>
<path opacity="0.1" d="M206 179C206 179.265 206.333 182.652 207.66 183.844C208.987 185.036 206 179 206 179Z" fill="#001032"/>
<path opacity="0.1" d="M197 191C197 191 198.673 195.764 205.303 197.714C211.933 199.664 197 191 197 191Z" fill="#001032"/>
<path opacity="0.1" d="M212 78.7002C212 80.5862 211.513 82.4391 210.587 84.0718C209.661 85.7046 208.329 87.0595 206.726 88C206.121 87.6552 205.585 87.1991 205.144 86.6549C204.685 86.0871 204.327 85.313 204.603 84.6356C204.824 84.0904 205.409 83.7452 205.552 83.1807C205.619 82.8355 205.601 82.4788 205.501 82.1421C205.384 81.6098 205.273 81.0776 205.159 80.5485C205.061 80.0969 204.887 79.5647 204.447 79.455C204.008 79.3453 203.641 79.7195 203.296 79.9969C202.451 80.6776 200.831 81.1389 199.815 80.5808C198.8 80.0227 199.084 78.155 198.92 77.1454C198.918 77.0577 198.897 76.9715 198.859 76.8929C198.82 76.8143 198.766 76.7453 198.698 76.6906C198.551 76.6406 198.393 76.6295 198.24 76.6583C197.692 76.6583 197.252 76.1583 197.094 75.6228C196.982 75.0762 196.921 74.52 196.911 73.9616C196.851 73.4035 196.651 72.8132 196.183 72.5261C195.809 72.3486 195.394 72.2794 194.984 72.3261L193 72.3487C194.316 70.5347 196.16 69.1899 198.268 68.5055C200.377 67.8211 202.644 67.8319 204.746 68.5364C206.849 69.2409 208.68 70.6032 209.979 72.4296C211.279 74.256 211.98 76.4536 211.984 78.7099L212 78.7002Z" fill="#001032"/>
<path d="M203.668 79.514C204.02 79.2436 204.408 78.8851 204.844 78.9889C205.279 79.0926 205.467 79.6177 205.567 80.0516L205.915 81.6017C206.019 81.9308 206.037 82.2795 205.97 82.6173C205.806 83.1707 205.212 83.504 204.982 84.0354C204.701 84.6957 205.07 85.4503 205.534 86.0005C206.382 86.9958 207.555 87.6783 208.857 87.9342C209.196 88.0137 209.55 88.0213 209.893 87.9562C210.661 87.7833 211.184 87.0947 211.598 86.4501C213.732 83.2116 215.569 79.6618 215.943 75.8321C216.046 75.0509 216.009 74.2584 215.834 73.4896C215.659 72.8921 215.411 72.3169 215.097 71.776C214.548 70.671 213.85 69.6422 213.021 68.7167C211.552 67.176 209.525 66.2296 207.443 65.6699C205.1 65.0369 202.655 64.8501 200.24 65.1197C199.594 65.192 198.974 65.2957 198.338 65.3366C197.539 65.3728 196.739 65.3602 195.942 65.2989L191.19 65.0222C190.919 65.5599 191.19 66.1981 191.513 66.7012C191.836 67.2043 192.236 67.7262 192.21 68.3236C192.184 68.921 191.749 69.3927 191.413 69.8958C191.077 70.3988 190.822 71.0497 191.158 71.5402C191.493 72.0307 192.178 72.0621 192.772 72.0558L195.168 72.0307C195.585 71.9889 196.006 72.0596 196.385 72.2351C196.863 72.5149 197.066 73.0934 197.127 73.6342C197.141 74.1783 197.203 74.7202 197.315 75.2535C197.479 75.7755 197.925 76.2691 198.483 76.2628C198.64 76.2324 198.802 76.2444 198.951 76.2974C199.02 76.3501 199.076 76.4169 199.115 76.4929C199.154 76.569 199.175 76.6526 199.177 76.7376C199.345 77.7218 199.035 79.5391 200.091 80.0862C201.147 80.6333 202.806 80.1774 203.668 79.514Z" fill="#663D5C"/>
<path opacity="0.1" d="M217.158 101.029C215.981 100.905 214.797 101.182 213.8 101.815C212.802 102.448 212.051 103.399 211.669 104.513C210.389 108.136 208.255 114.674 208.789 117.258C209.541 120.92 210.428 127.025 210.428 127.025C210.428 127.025 214.316 129.252 212.348 131.498C210.38 133.744 209.823 136.926 209.823 136.926C209.823 136.926 207.298 138.011 206.754 140.317C206.21 142.624 202.523 145.808 202.523 145.808L197 151.303C197 151.303 206.14 160.529 207.983 161L213.644 154.421L220.329 145.605L226.128 139.56C226.128 139.56 227.491 136.378 226.809 130.334C226.128 124.289 223.465 118.534 223.465 118.534L223.67 116.497C223.67 116.497 224.297 101.91 217.158 101.029Z" fill="#001032"/>
<path d="M218.164 101.028C216.988 100.906 215.805 101.184 214.808 101.816C213.812 102.449 213.061 103.4 212.68 104.512C211.399 108.136 209.264 114.674 209.798 117.257C210.547 120.919 211.434 127.025 211.434 127.025C211.434 127.025 215.324 129.252 213.355 131.498C211.386 133.744 210.832 136.925 210.832 136.925C210.832 136.925 208.306 138.01 207.759 140.317C207.211 142.624 203.529 145.808 203.529 145.808L198 151.303C198 151.303 207.144 160.529 208.988 161L214.652 154.421L221.324 145.605L227.126 139.56C227.126 139.56 228.493 136.378 227.808 130.333C227.123 124.288 224.465 118.533 224.465 118.533L224.67 116.497C224.67 116.497 225.307 101.91 218.164 101.028Z" fill="#585B8A"/>
<path opacity="0.1" d="M212 121C212 121 218.052 128.4 220.618 126.764C223.183 125.127 212 121 212 121Z" fill="#001032"/>
<path opacity="0.1" d="M214 116C214.639 116.19 219.889 122.708 222.584 121.937C225.279 121.165 214 116 214 116Z" fill="#001032"/>
<path opacity="0.1" d="M216 128C216 128 216.365 132.562 220.796 131.942C225.227 131.322 216 128 216 128Z" fill="#001032"/>
<path opacity="0.1" d="M197.402 95L195 100L198 97.157L197.402 95Z" fill="#001032"/>
<path d="M197.402 95L195 100L198 97.157L197.402 95Z" fill="#F0F3F7"/>
<path opacity="0.3" d="M189 155L187.237 154.654L184 149.016L184.326 147L189 155Z" fill="#001032"/>
<path opacity="0.3" d="M217 154L216.654 155.748V155.751L212.55 159L211 158.682L217 154Z" fill="#001032"/>
<path opacity="0.1" d="M149 132.597C148.153 132.736 147.332 132.863 146.582 132.958C142.413 133.499 132.496 128.641 132.496 128.641C132.496 128.641 120.396 118.655 116.91 109.211C113.424 99.7662 121.079 98.3482 121.079 98.3482C123.965 96.7277 130.242 101.247 131.13 101.991C132.018 102.735 132.772 104.621 132.702 105.837C132.631 107.052 134.754 108.603 134.754 108.603C134.754 108.603 138.378 114.81 139.266 115.484C140.155 116.158 140.36 116.766 140.633 117.914C140.905 119.063 143.298 120.007 144.324 119.937C145.35 119.867 146.569 120.276 146.569 120.814C146.569 121.247 147.573 121.463 148.397 121.532C148.641 124.992 148.881 129.524 149 132.597Z" fill="#001032"/>
<path opacity="0.1" d="M149 130.689C148.367 130.79 147.759 130.882 147.189 130.958C143.073 131.499 133.286 126.641 133.286 126.641C133.286 126.641 121.34 116.655 117.898 107.211C114.457 97.7662 122.014 96.3482 122.014 96.3482C124.864 94.7277 131.057 99.2474 131.934 99.9912C132.811 100.735 133.555 102.621 133.489 103.837C133.422 105.052 135.512 106.603 135.512 106.603C135.512 106.603 139.09 112.81 139.967 113.484C140.844 114.158 141.046 114.766 141.319 115.914C141.591 117.063 143.95 118.003 144.963 117.937C145.976 117.87 147.179 118.276 147.179 118.814C147.179 119.13 147.743 119.342 148.37 119.447C148.395 119.814 148.417 120.203 148.446 120.608C148.655 123.719 148.87 127.688 149 130.689Z" fill="#001032"/>
<path opacity="0.1" d="M165 124L164.767 130H164.517L164 129.687L164.063 124.517C164.365 124.323 164.678 124.151 165 124Z" fill="#001032"/>
<path d="M121.02 97.3472C121.02 97.3472 113.454 98.765 116.899 108.209C120.345 117.653 132.306 127.641 132.306 127.641C132.306 127.641 142.104 132.496 146.229 131.958C150.353 131.42 156.633 130.002 157.444 130.205C158.256 130.408 163.731 130.408 163.731 130.408L164 124.078L157.66 123.739L154.417 123.065C154.417 123.065 153.266 122.116 152.591 122.255C151.916 122.394 150.499 121.445 150.499 121.445C150.499 121.445 149.415 120.568 148.597 120.568C147.779 120.568 146.232 120.365 146.232 119.827C146.232 119.289 145.015 118.878 144.013 118.951C143.011 119.023 140.618 118.074 140.339 116.913C140.06 115.751 139.866 115.159 138.988 114.485C138.11 113.811 134.528 107.601 134.528 107.601C134.528 107.601 132.433 106.051 132.499 104.838C132.566 103.626 131.824 101.734 130.946 100.99C130.068 100.246 123.854 95.7299 121.02 97.3472Z" fill="#DCE6F2"/>
<path opacity="0.1" d="M141 119C141 119 138.457 121.531 139.106 122L141 119Z" fill="#001032"/>
<path opacity="0.1" d="M144 121C144 121 140.142 123.796 141.176 123.991C142.21 124.187 144 121 144 121Z" fill="#001032"/>
<path opacity="0.1" d="M138 126C138.56 126.272 146.858 131.069 150 130.999L138 126Z" fill="#001032"/>
<path opacity="0.1" d="M139 94.1688C139 94.1688 137.523 99 136.959 99C136.517 99 129.097 93.016 126 90.5002L126.135 90.3885C126.135 90.3885 126.416 88.2176 127.54 87.1042C128.665 85.9908 139 94.1688 139 94.1688Z" fill="#001032"/>
<path d="M138 93.1688C138 93.1688 136.526 98 135.962 98C135.517 98 128.097 92.016 125 89.5002L125.135 89.3885C125.135 89.3885 125.419 87.2176 126.543 86.1042C127.668 84.9908 138 93.1688 138 93.1688Z" fill="#DCE6F2"/>
<g opacity="0.15">
<path opacity="0.15" d="M119 78C119.935 80.1913 122.508 81.2534 124 83C123.112 80.8535 120.517 79.801 119 78Z" fill="#001032"/>
<path opacity="0.15" d="M128.99 82.7686C128.629 83.4693 127.776 83.809 126.998 83.7937C126.307 83.7437 125.63 83.5696 125 83.2796C125.229 83.6193 125.403 83.9931 125.516 84.3873C126.225 84.7306 126.991 84.9381 127.776 84.9993C128.562 85.0177 129.406 84.678 129.768 83.9742C130.348 82.8574 129.743 81.9027 129.036 81C129.168 81.2774 129.232 81.5824 129.224 81.8898C129.216 82.1973 129.136 82.4985 128.99 82.7686Z" fill="#001032"/>
<path opacity="0.15" d="M140.971 66.7829C140.835 66.1711 140.372 65.69 140.134 65.1132C139.988 64.6669 139.873 64.2113 139.788 63.7494C139.608 63.0962 139.274 62.4962 138.814 62C138.878 62.1568 138.932 62.3175 138.976 62.4812C139.065 62.9451 139.184 63.4028 139.331 63.8514C139.569 64.4281 140.032 64.9093 140.169 65.5211C140.249 65.9533 140.163 66.4 139.927 66.7705C139.691 67.141 139.324 67.4075 138.9 67.5158C137.726 67.7739 136.388 66.7543 135.379 67.4107C134.76 67.809 134.617 68.6407 134.535 69.3736C134.393 70.6482 134.249 71.9153 134.103 73.1751C134.075 73.622 133.981 74.0622 133.824 74.4815C133.326 75.6287 131.959 76.1672 130.712 76.1481C130.225 76.1808 129.745 76.0206 129.374 75.702C129.193 75.4454 128.999 75.1986 128.793 74.9627C127.207 73.6244 126.725 76.8969 127.144 77.8305C127.353 78.2505 127.613 78.6433 127.918 79C127.569 77.9485 128.057 74.9213 129.605 76.2182C129.812 76.4534 130.004 76.7002 130.183 76.9574C130.555 77.2757 131.036 77.4357 131.524 77.4036C132.771 77.4227 134.138 76.8842 134.636 75.737C134.793 75.3167 134.887 74.8753 134.916 74.4274C135.059 73.1528 135.203 71.8867 135.347 70.629C135.429 69.8962 135.572 69.0645 136.188 68.6662C137.2 68.0097 138.538 69.0294 139.712 68.7681C140.133 68.6585 140.497 68.3928 140.731 68.0244C140.964 67.6561 141.05 67.2125 140.971 66.7829Z" fill="#001032"/>
</g>
<path opacity="0.1" d="M210.426 87.2223C210.086 87.2848 209.737 87.2762 209.401 87.1972C208.117 86.9411 206.959 86.2593 206.122 85.2648C205.659 84.7109 205.295 83.9556 205.576 83.2947C205.799 82.7628 206.386 82.4292 206.533 81.8753C206.599 81.5371 206.581 81.1881 206.479 80.8587L206.134 79.3072C206.035 78.8665 205.863 78.3473 205.42 78.2434C204.976 78.1395 204.606 78.4983 204.258 78.769C203.406 79.433 201.769 79.8862 200.748 79.3386C199.727 78.791 200.011 76.9719 199.846 75.9869C199.843 75.9019 199.821 75.8185 199.783 75.7424C199.744 75.6663 199.689 75.5994 199.622 75.5463C199.473 75.4949 199.312 75.483 199.156 75.5116C198.604 75.5116 198.164 75.0238 198.001 74.5014C197.891 73.9677 197.83 73.4252 197.819 72.8806C197.756 72.3393 197.558 71.7602 197.082 71.4801C196.708 71.306 196.292 71.2353 195.88 71.2755L193.512 71.3007C192.928 71.3007 192.236 71.2629 191.917 70.7845C191.598 70.3062 191.834 69.6264 192.169 69.1386C192.504 68.6507 192.928 68.1661 192.957 67.565C192.986 66.9638 192.59 66.4446 192.268 65.941C192.083 65.6656 191.947 65.3613 191.866 65.0409L191.186 65C190.921 65.535 191.186 66.1739 191.505 66.6806C191.824 67.1873 192.223 67.7066 192.194 68.3014C192.166 68.8962 191.741 69.3746 191.406 69.875C191.071 70.3754 190.826 71.03 191.157 71.521C191.489 72.012 192.162 72.0466 192.753 72.0403L195.12 72.012C195.533 71.9726 195.949 72.0444 196.323 72.2197C196.798 72.4998 196.999 73.0788 197.06 73.6202C197.07 74.165 197.132 74.7076 197.245 75.241C197.405 75.7603 197.848 76.2575 198.4 76.2481C198.555 76.2211 198.714 76.233 198.863 76.2827C198.93 76.3363 198.985 76.4038 199.024 76.4804C199.062 76.557 199.084 76.641 199.086 76.7265C199.252 77.7084 198.946 79.5306 199.989 80.0782C201.032 80.6258 202.66 80.1726 203.499 79.5086C203.847 79.2379 204.233 78.8791 204.663 78.9799C205.094 79.0806 205.279 79.6093 205.375 80.0436L205.723 81.5983C205.824 81.9279 205.841 82.277 205.774 82.6149C205.614 83.1656 205.024 83.5024 204.801 84.0311C204.523 84.692 204.884 85.4505 205.346 86.0012C206.19 87 207.356 87.6823 208.649 87.9336C208.984 88.0126 209.333 88.0212 209.673 87.9588C210.221 87.7939 210.692 87.4412 211 86.9643C210.826 87.0835 210.631 87.1709 210.426 87.2223Z" fill="#001032"/>
<path d="M65.1965 189C65.1965 189 65.9939 190.122 64.8298 191.82C63.6658 193.518 62.7054 194.953 63.0837 196C63.0837 196 64.8298 192.867 66.2849 192.81C67.74 192.754 66.7709 190.893 65.1965 189Z" fill="#1448B6"/>
<path opacity="0.1" d="M65.1694 189C65.2413 189.107 65.2969 189.226 65.3342 189.352C66.7471 191.122 67.4978 192.77 66.1408 192.804C64.878 192.842 63.3621 195.253 63 195.862C63.011 195.909 63.0248 195.955 63.0412 196C63.0412 196 64.8073 192.861 66.2791 192.804C67.7509 192.748 66.7619 190.896 65.1694 189Z" fill="#001032"/>
<path d="M67.2034 190.262C67.2034 190.67 67.1557 191 67.1017 191C67.0477 191 67 190.676 67 190.262C67 189.848 67.0572 190.049 67.1112 190.049C67.1653 190.049 67.2034 189.854 67.2034 190.262Z" fill="#FFD037"/>
<path d="M67.7622 191.504C67.3732 191.851 67.0302 192.082 67.0019 191.972C66.9736 191.862 67.2636 191.533 67.6561 191.18C68.0486 190.827 67.893 191.087 67.9213 191.18C67.9496 191.272 68.1547 191.151 67.7622 191.504Z" fill="#FFD037"/>
<path d="M60.7948 189C60.7948 189 59.9946 190.122 61.1628 191.82C62.331 193.518 63.2976 194.953 62.915 196C62.915 196 61.1628 192.867 59.7172 192.81C58.2716 192.754 59.2061 190.893 60.7948 189Z" fill="#1448B6"/>
<path opacity="0.1" d="M60.821 189C60.7504 189.108 60.6948 189.227 60.6557 189.352C59.2384 191.122 58.4855 192.77 59.8467 192.804C61.1133 192.842 62.6339 195.253 63 195.862C62.9879 195.909 62.9731 195.955 62.9557 196C62.9557 196 61.1842 192.861 59.7227 192.804C58.2611 192.748 59.2148 190.896 60.821 189Z" fill="#001032"/>
<path d="M59 190.262C59 190.67 59.0445 191 59.0985 191C59.1526 191 59.2002 190.676 59.2002 190.262C59.2002 189.848 59.143 190.049 59.089 190.049C59.035 190.049 59 189.854 59 190.262Z" fill="#FFD037"/>
<path d="M58.2369 191.504C58.6278 191.851 58.966 192.082 58.9977 191.972C59.0294 191.862 58.7335 191.533 58.3425 191.18C57.9516 190.827 58.1066 191.087 58.0784 191.18C58.0502 191.272 57.8459 191.151 58.2369 191.504Z" fill="#FFD037"/>
<path d="M327.101 185C327.101 185 326.053 190.366 330.712 191L331 190.403C331 190.403 327.389 186.665 327.101 185Z" fill="#1448B6"/>
<path d="M332 189.732L330.928 189.974L330.822 190C330.822 190 327.964 187.525 328 182C328.382 182.815 328.84 183.586 329.366 184.304C330.498 185.903 331.785 188.036 332 189.732Z" fill="#1448B6"/>
<path d="M332.68 189.887C332.592 189.944 332.491 189.98 332.386 189.994C332.281 190.008 332.175 189.998 332.074 189.966C329.178 189.299 330.16 180 330.16 180C330.32 180.072 330.479 181.257 331.162 182.784C332.326 185.465 333.611 189.214 332.68 189.887Z" fill="#1448B6"/>
<path d="M338.999 185C338.999 185 339.188 190.366 334.305 191L334 190.393C334 190.393 338.697 186.665 338.999 185Z" fill="#1448B6"/>
<path d="M338 182C338.037 187.525 334.213 190 334.213 190L334.101 189.974L333 189.732C333.218 188.036 334.559 185.903 335.71 184.304C336.371 183.434 337.141 182.659 338 182Z" fill="#1448B6"/>
<path d="M333.927 189.404C333.743 189.612 333.509 189.779 333.244 189.891C333.162 189.925 333.076 189.951 332.988 189.969C332.226 190.133 331.963 189.627 332.004 188.765C332.076 187.234 333.121 184.578 334.053 182.587C334.502 181.611 335.165 180.73 336 180C336 180 335.952 187.241 333.927 189.404Z" fill="#1448B6"/>
<path d="M333.755 177C333.755 177 330.164 188.186 333.256 189.857C336.347 191.529 334.548 177.988 333.755 177Z" fill="#1448B6"/>
<path opacity="0.1" d="M327.101 185C327.101 185 326.053 190.366 330.712 191L331 190.403C331 190.403 327.389 186.665 327.101 185Z" fill="#001032"/>
<path opacity="0.1" d="M332 189.732L330.928 189.974L330.822 190C330.822 190 327.964 187.525 328 182C328.382 182.815 328.84 183.586 329.366 184.304C330.498 185.903 331.785 188.036 332 189.732Z" fill="#001032"/>
<path opacity="0.1" d="M332.68 189.887C332.592 189.944 332.491 189.98 332.386 189.994C332.281 190.008 332.175 189.998 332.074 189.966C329.178 189.299 330.16 180 330.16 180C330.32 180.072 330.479 181.257 331.162 182.784C332.326 185.465 333.611 189.214 332.68 189.887Z" fill="#001032"/>
<path opacity="0.1" d="M338.999 185C338.999 185 339.188 190.366 334.305 191L334 190.393C334 190.393 338.697 186.665 338.999 185Z" fill="#001032"/>
<path opacity="0.1" d="M338 182C338.037 187.525 334.213 190 334.213 190L334.101 189.974L333 189.732C333.218 188.036 334.559 185.903 335.71 184.304C336.371 183.434 337.141 182.659 338 182Z" fill="#001032"/>
<path opacity="0.1" d="M333.927 189.404C333.743 189.612 333.509 189.779 333.244 189.891C333.162 189.925 333.076 189.951 332.988 189.969C332.226 190.133 331.963 189.627 332.004 188.765C332.076 187.234 333.121 184.578 334.053 182.587C334.502 181.611 335.165 180.73 336 180C336 180 335.952 187.241 333.927 189.404Z" fill="#001032"/>
<path opacity="0.1" d="M333.755 177C333.755 177 330.164 188.186 333.256 189.857C336.347 191.529 334.548 177.988 333.755 177Z" fill="#001032"/>
<path d="M327.031 185C327.031 185 326.328 190.366 331.67 191L332 190.403C332 190.403 327.361 186.665 327.031 185Z" fill="#1448B6"/>
<path d="M333 189.732L331.792 189.974L331.672 190C331.672 190 327.969 187.522 328 182C328 182 328.949 182.97 330.021 184.307C331.307 185.898 332.758 188.033 333 189.732Z" fill="#1448B6"/>
<path opacity="0.1" d="M333 189.744L331.779 190C330.624 188.995 330.166 186.369 330 184C331.29 185.692 332.755 187.949 333 189.744Z" fill="#001032"/>
<path d="M332.713 189.887C332.633 189.944 332.542 189.98 332.447 189.994C332.352 190.008 332.256 189.998 332.165 189.966C329.557 189.299 330.034 180 330.034 180C330.178 180.072 330.741 181.257 331.341 182.784C332.395 185.465 333.549 189.214 332.713 189.887Z" fill="#1448B6"/>
<path d="M339.969 185C339.969 185 340.672 190.366 335.33 191L335 190.403C335 190.403 339.639 186.665 339.969 185Z" fill="#1448B6"/>
<path d="M338 182C338.041 187.525 334.33 190 334.33 190L334.211 189.974L333 189.732C333.239 188.036 334.71 185.903 335.975 184.304C337.049 182.969 338 182 338 182Z" fill="#1448B6"/>
<path opacity="0.1" d="M336 184C335.841 186.209 335.434 188.639 334.445 189.774C334.377 189.856 334.302 189.932 334.221 190L333 189.744C333.241 187.949 334.71 185.692 336 184Z" fill="#001032"/>
<path d="M334.625 189.404C334.471 189.613 334.273 189.78 334.049 189.891C333.98 189.925 333.909 189.951 333.835 189.969C333.19 190.133 332.971 189.627 333.003 188.765C333.066 187.234 333.948 184.578 334.731 182.587C335.307 181.157 335.829 180.072 335.967 180C335.967 179.997 336.333 187.241 334.625 189.404Z" fill="#1448B6"/>
<path opacity="0.1" d="M333.684 190C333.52 190.002 333.36 189.952 333.228 189.857C331.876 189.034 331.847 185.942 332.17 183C333.332 185.642 334.605 189.337 333.684 190Z" fill="#001032"/>
<path opacity="0.1" d="M334.653 189.531C334.509 189.853 334.315 190.022 334.066 189.998C333.938 189.982 333.816 189.934 333.71 189.859C333.384 189.63 333.135 189.301 333 188.919C333.065 187.452 333.963 184.907 334.761 183C335.049 185.642 335.146 188.443 334.653 189.531Z" fill="#001032"/>
<path d="M333.401 177C333.401 177 330.249 188.186 333.401 189.857C336.553 191.529 334.211 177.988 333.401 177Z" fill="#1448B6"/>
<path d="M339 189H327V190.961H328.831L328.877 191.193L329.611 195H336.587L337.321 191.193L337.364 190.961H339V189Z" fill="#DCAF54"/>
<path opacity="0.1" d="M339 189H327V190.961H328.831L328.877 191.193L329.611 195H336.587L337.321 191.193L337.364 190.961H339V189Z" fill="#001032"/>
<path d="M338 190L337.795 191.073L337.049 195H329.951L329.205 191.073L329 190H338Z" fill="#DCAF54"/>
<path opacity="0.1" d="M338 190L337.795 191H329.205L329 190H338Z" fill="#001032"/>
<path d="M339 189H327V191H339V189Z" fill="#DCAF54"/>
<path opacity="0.1" d="M335.5 125C337.985 125 340 122.985 340 120.5C340 118.015 337.985 116 335.5 116C333.015 116 331 118.015 331 120.5C331 122.985 333.015 125 335.5 125Z" fill="#1448B6"/>
<path opacity="0.1" d="M344 114C345.657 114 347 112.657 347 111C347 109.343 345.657 108 344 108C342.343 108 341 109.343 341 111C341 112.657 342.343 114 344 114Z" fill="#1448B6"/>
<defs>
<linearGradient id="paint0_linear" x1="167.507" y1="246.002" x2="167.507" y2="59.9939" gradientUnits="userSpaceOnUse">
<stop stop-color="#808080" stop-opacity="0.25"/>
<stop offset="0.54" stop-color="#808080" stop-opacity="0.12"/>
<stop offset="1" stop-color="#808080" stop-opacity="0.1"/>
</linearGradient>
</defs>
</svg>
