<svg width="360" height="229" viewBox="0 0 360 229" fill="none" xmlns="http://www.w3.org/2000/svg">
<path d="M358 30H87V203H358V30Z" fill="#E6E6E6"/>
<path d="M209 54H111V154H209V54Z" fill="white"/>
<path d="M344 56H246V178H344V56Z" fill="white"/>
<path d="M358 30H87V42H358V30Z" fill="#1448B6"/>
<path d="M96 38C97.1046 38 98 37.1046 98 36C98 34.8954 97.1046 34 96 34C94.8954 34 94 34.8954 94 36C94 37.1046 94.8954 38 96 38Z" fill="#E6E6E6"/>
<path d="M104 38C105.105 38 106 37.1046 106 36C106 34.8954 105.105 34 104 34C102.895 34 102 34.8954 102 36C102 37.1046 102.895 38 104 38Z" fill="#E6E6E6"/>
<path d="M112 38C113.105 38 114 37.1046 114 36C114 34.8954 113.105 34 112 34C110.895 34 110 34.8954 110 36C110 37.1046 110.895 38 112 38Z" fill="#E6E6E6"/>
<path d="M322 88.6648H321.405V72.4087C321.405 71.1731 321.161 69.9496 320.687 68.8081C320.213 67.6666 319.518 66.6294 318.642 65.7557C317.766 64.882 316.725 64.189 315.581 63.7162C314.436 63.2433 313.209 63 311.97 63H277.435C276.196 63 274.969 63.2433 273.824 63.7162C272.679 64.189 271.639 64.882 270.763 65.7557C269.887 66.6294 269.192 67.6666 268.718 68.8081C268.244 69.9496 268 71.1731 268 72.4087V161.591C268 162.827 268.244 164.05 268.718 165.192C269.192 166.333 269.887 167.371 270.763 168.244C271.639 169.118 272.679 169.811 273.824 170.284C274.969 170.757 276.196 171 277.435 171H311.97C313.209 171 314.436 170.757 315.581 170.284C316.725 169.811 317.766 169.118 318.642 168.244C319.518 167.371 320.213 166.333 320.687 165.192C321.161 164.05 321.405 162.827 321.405 161.591V100.236H322V88.6648Z" fill="#3F3D56"/>
<path d="M312.925 65H308.397C308.606 65.5064 308.685 66.0557 308.629 66.5997C308.573 67.1437 308.382 67.6657 308.075 68.1196C307.767 68.5734 307.352 68.9454 306.866 69.2025C306.379 69.4597 305.836 69.5942 305.285 69.5942H285.416C284.865 69.5942 284.322 69.4597 283.836 69.2025C283.349 68.9453 282.934 68.5734 282.626 68.1196C282.319 67.6657 282.129 67.1437 282.072 66.5997C282.016 66.0557 282.096 65.5064 282.304 65H278.075C277.146 65 276.226 65.1816 275.368 65.5343C274.509 65.887 273.729 66.4041 273.072 67.0559C272.415 67.7076 271.894 68.4814 271.539 69.333C271.183 70.1846 271 71.0974 271 72.0191V160.981C271 161.903 271.183 162.815 271.539 163.667C271.894 164.519 272.415 165.292 273.072 165.944C273.729 166.596 274.509 167.113 275.368 167.466C276.226 167.818 277.146 168 278.075 168H312.925C313.854 168 314.774 167.818 315.632 167.466C316.491 167.113 317.271 166.596 317.928 165.944C318.585 165.292 319.106 164.519 319.461 163.667C319.817 162.815 320 161.903 320 160.981V72.0191C320 70.1575 319.255 68.3722 317.928 67.0558C316.601 65.7395 314.801 65 312.925 65Z" fill="white"/>
<path d="M194 117H126V120H194V117Z" fill="#E6E6E6"/>
<path d="M194 127H126V130H194V127Z" fill="#DCAF54"/>
<path d="M194 137H126V140H194V137Z" fill="#E6E6E6"/>
<path d="M315 124H275V127H315V124Z" fill="#E6E6E6"/>
<path d="M315 134H275V137H315V134Z" fill="#E6E6E6"/>
<path d="M315 143H275V146H315V143Z" fill="#E6E6E6"/>
<path d="M319 192V185H312V192H319Z" fill="#3F3D56"/>
<path d="M309 192V185H302V192H309Z" fill="#1448B6"/>
<path d="M298 192V185H291V192H298Z" fill="#3F3D56"/>
<path d="M287 192V185H280V192H287Z" fill="#3F3D56"/>
<path d="M277 192V185H270V192H277Z" fill="#3F3D56"/>
<path d="M306 84H284V106H306V84Z" fill="#DCAF54"/>
<path d="M72 173H18V211H72V173Z" fill="#1448B6"/>
<path d="M45.5 180C43.2255 180 41.0021 180.674 39.1109 181.938C37.2198 183.202 35.7458 184.998 34.8754 187.099C34.005 189.2 33.7772 191.513 34.221 193.744C34.6647 195.974 35.76 198.023 37.3683 199.632C38.9766 201.24 41.0257 202.335 43.2565 202.779C45.4872 203.223 47.7995 202.995 49.9009 202.125C52.0022 201.254 53.7983 199.78 55.0619 197.889C56.3255 195.998 57 193.774 57 191.5C56.9911 188.453 55.7766 185.533 53.6219 183.378C51.4671 181.223 48.5472 180.009 45.5 180ZM45.5 183.45C46.1823 183.45 46.8494 183.652 47.4167 184.031C47.9841 184.411 48.4263 184.949 48.6874 185.58C48.9485 186.21 49.0168 186.904 48.8837 187.573C48.7506 188.242 48.422 188.857 47.9395 189.34C47.457 189.822 46.8423 190.151 46.1731 190.284C45.5038 190.417 44.8101 190.349 44.1797 190.087C43.5493 189.826 43.0105 189.384 42.6314 188.817C42.2523 188.249 42.05 187.582 42.05 186.9C42.0531 185.986 42.4175 185.11 43.0639 184.464C43.7102 183.818 44.5859 183.453 45.5 183.45ZM45.5 200.059C44.1371 200.052 42.7963 199.714 41.5939 199.072C40.3915 198.43 39.3638 197.505 38.6 196.376C38.6553 194.076 43.2 192.81 45.5 192.81C47.8 192.81 52.3447 194.076 52.4 196.376C51.6353 197.504 50.6074 198.429 49.4052 199.071C48.203 199.712 46.8627 200.051 45.5 200.059Z" fill="white"/>
<path d="M194 65H126V104H194V65Z" fill="#E6E6E6"/>
<path d="M126.498 65.1328L126 66L193.663 104.803L194.161 103.936L126.498 65.1328Z" fill="white"/>
<path d="M193.666 65.2019L126 104L126.498 104.867L194.164 66.0691L193.666 65.2019Z" fill="white"/>
<path d="M284.707 83.2931L284 84L305.928 105.913L306.635 105.206L284.707 83.2931Z" fill="white"/>
<path d="M305.928 83.0871L284 105L284.707 105.707L306.635 83.7939L305.928 83.0871Z" fill="white"/>
</svg>
