<?xml version="1.0" encoding="utf-8"?><svg xmlns="http://www.w3.org/2000/svg" xmlns:xlink="http://www.w3.org/1999/xlink"><symbol viewBox="0 0 14 11" id="check" xmlns="http://www.w3.org/2000/svg"><path fill-rule="evenodd" clip-rule="evenodd" d="M12.71 0a1.29 1.29 0 00-.902.368h.002a.4.4 0 00-.035.037L5.82 7.897c-.652.525-1.651 1.622-1.24 2.368l.367.363A1.289 1.289 0 005.88 11a1.301 1.301 0 00.92-.406l6.846-8.448a1.26 1.26 0 00-.03-1.783A1.295 1.295 0 0012.71 0z"/><path d="M.111 5.736c.07.156.172.296.298.412l4.17 4.117c-.411-.746.588-1.843 1.24-2.368L2.227 4.353a1.286 1.286 0 00-.918-.403 1.301 1.301 0 00-.932.371 1.269 1.269 0 00-.377.92c.003.171.041.34.111.495z"/></symbol><symbol viewBox="0 0 11 11" id="cross" xmlns="http://www.w3.org/2000/svg"><path fill-rule="evenodd" clip-rule="evenodd" d="M8.71 0a1.29 1.29 0 00-.902.368h.002a.402.402 0 00-.034.037L1.819 7.897C1.167 8.422.168 9.52.579 10.265l.367.363a1.289 1.289 0 00.933.372 1.301 1.301 0 00.92-.406l6.846-8.448a1.261 1.261 0 00-.03-1.783A1.295 1.295 0 008.71 0z"/><path fill-rule="evenodd" clip-rule="evenodd" d="M2.29 0c.338 0 .662.133.902.368H3.19a.402.402 0 01.034.037l5.957 7.492c.652.525 1.651 1.622 1.24 2.368l-.367.363a1.29 1.29 0 01-.933.372 1.301 1.301 0 01-.92-.406L1.356 2.146a1.26 1.26 0 01.03-1.783C1.628.13 1.953 0 2.29 0z"/></symbol><symbol viewBox="0 0 27 27" id="fb" xmlns="http://www.w3.org/2000/svg"><path d="M13.013 2.419c-3.47.02-3.883.035-5.253.106a7.19 7.19 0 00-2.41.462 4.306 4.306 0 00-2.454 2.482 7.196 7.196 0 00-.433 2.416c-.055 1.371-.065 1.783-.045 5.255.02 3.472.036 3.881.107 5.251.014.825.17 1.64.461 2.411a4.305 4.305 0 002.483 2.454 7.193 7.193 0 002.416.433c1.37.055 1.782.065 5.253.045 3.471-.02 3.883-.036 5.253-.107a7.193 7.193 0 002.41-.461 4.306 4.306 0 002.454-2.483 7.195 7.195 0 00.433-2.416c.055-1.37.066-1.782.045-5.253-.02-3.471-.035-3.883-.106-5.253a7.195 7.195 0 00-.462-2.411 4.305 4.305 0 00-2.482-2.453 7.195 7.195 0 00-2.416-.433c-1.371-.055-1.783-.066-5.254-.045zM12.999.076c3.53-.02 3.974-.008 5.36.047a9.54 9.54 0 013.16.586 6.647 6.647 0 013.824 3.78 9.54 9.54 0 01.623 3.152c.07 1.386.089 1.827.11 5.359.02 3.531.008 3.974-.047 5.36a9.542 9.542 0 01-.586 3.159 6.648 6.648 0 01-3.78 3.824 9.541 9.541 0 01-3.152.623c-1.386.072-1.828.09-5.359.11-3.53.02-3.974.008-5.36-.047a9.54 9.54 0 01-3.16-.585 6.648 6.648 0 01-3.825-3.78 9.54 9.54 0 01-.622-3.153c-.07-1.386-.088-1.827-.11-5.358C.056 9.62.069 9.179.123 7.792a9.54 9.54 0 01.586-3.158A6.648 6.648 0 014.488.809 9.54 9.54 0 017.641.187c1.386-.073 1.827-.09 5.358-.11z"/><path d="M16.999 6.393a.403.403 0 00-.107-.275.352.352 0 00-.257-.113h-1.818a3.337 3.337 0 00-2.493.947 3.815 3.815 0 00-1.143 2.551v2.1H9.363a.352.352 0 00-.257.114.403.403 0 00-.107.274v2.022a.4.4 0 00.107.275.35.35 0 00.257.114h1.818v5.21c0 .102.038.201.106.274a.352.352 0 00.257.114h2.182a.352.352 0 00.257-.114.403.403 0 00.107-.275v-5.21h1.905a.341.341 0 00.225-.078.391.391 0 00.132-.209l.523-2.021a.415.415 0 00-.061-.337.37.37 0 00-.127-.112.345.345 0 00-.16-.041H14.09v-2.1a.798.798 0 01.237-.5c.134-.13.31-.2.49-.2h1.818a.352.352 0 00.257-.113.403.403 0 00.107-.275V6.393z"/></symbol><symbol viewBox="0 0 26 27" id="insta" xmlns="http://www.w3.org/2000/svg"><path d="M5.57 8.138a1.5 1.5 0 11-.017-3 1.5 1.5 0 01.017 3zm6.988-2.041a6.5 6.5 0 11.076 13 6.5 6.5 0 01-.076-13zm.063 10.719a4.22 4.22 0 10-.05-8.438 4.22 4.22 0 00.05 8.438z"/><path d="M12.537 2.44c-3.338.019-3.734.034-5.051.105a6.683 6.683 0 00-2.318.46 4.129 4.129 0 00-1.432.982 4.327 4.327 0 00-.927 1.5 7.451 7.451 0 00-.416 2.417c-.052 1.37-.062 1.782-.042 5.254.02 3.472.036 3.882.104 5.252.014.824.165 1.64.445 2.41.21.56.532 1.068.944 1.49.41.423.902.751 1.443.965.745.281 1.53.428 2.323.433 1.318.055 1.714.066 5.052.046 3.337-.02 3.733-.035 5.05-.105a6.684 6.684 0 002.319-.461 4.127 4.127 0 001.431-.981c.407-.428.722-.939.927-1.501.27-.775.411-1.592.416-2.416.052-1.37.062-1.783.042-5.253-.02-3.471-.036-3.883-.104-5.253a7.453 7.453 0 00-.444-2.411 4.327 4.327 0 00-.944-1.49 4.129 4.129 0 00-1.444-.964 6.684 6.684 0 00-2.323-.434c-1.318-.055-1.714-.066-5.052-.046zM12.523.096c3.394-.02 3.82-.007 5.154.048a8.864 8.864 0 013.037.586c.833.33 1.59.836 2.223 1.487a6.678 6.678 0 011.456 2.294 9.88 9.88 0 01.6 3.153c.068 1.386.085 1.827.106 5.358.02 3.532.009 3.974-.044 5.36a9.876 9.876 0 01-.562 3.159 6.678 6.678 0 01-1.429 2.311 6.373 6.373 0 01-2.205 1.513 8.867 8.867 0 01-3.03.622c-1.334.07-1.759.088-5.153.108-3.395.02-3.821.008-5.155-.047a8.864 8.864 0 01-3.038-.587 6.373 6.373 0 01-2.223-1.486A6.68 6.68 0 01.805 21.68a9.878 9.878 0 01-.6-3.152C.138 17.143.12 16.702.1 13.17.08 9.64.091 9.197.143 7.81a9.878 9.878 0 01.563-3.158A6.68 6.68 0 012.134 2.34 6.373 6.373 0 014.339.828 8.864 8.864 0 017.37.206c1.333-.073 1.757-.09 5.153-.11z"/></symbol><symbol viewBox="0 0 50 50" id="list-image-title_advantages_icon1" xmlns="http://www.w3.org/2000/svg"><path d="M25.442 39.167c-10.118 0-14.096-2.556-14.636-5.834H0c.59 6.084 8.644 9.5 18.075 10.64V50h14.734v-5.972C42.387 43 50 39.86 50 34.167c0-7.89-11.935-10.584-23.084-12.223-11.15-1.638-14.735-3.333-14.735-5.972 0-3.028 4.96-5.139 13.261-5.139 8.743 0 11.984 2.361 12.279 5.834h10.855c-.344-4.778-5.501-9.167-15.767-10.584V0H18.075v6C8.546 7.167.885 10.667.885 16.028c0 6.416 9.38 9.61 23.084 11.472 12.279 1.667 14.734 4.111 14.734 6.694 0 1.917-2.406 4.973-13.261 4.973z"/></symbol><symbol viewBox="0 0 61 61" id="list-image-title_advantages_icon2" xmlns="http://www.w3.org/2000/svg"><path d="M46.12 22.453a2.219 2.219 0 00-3.135-3.136L25.324 36.978l-7.308-7.307a2.219 2.219 0 00-3.135 3.136l8.875 8.875a2.22 2.22 0 003.136 0L46.12 22.453z"/><path fill-rule="evenodd" clip-rule="evenodd" d="M6.093.917A5.177 5.177 0 00.916 6.094v48.813a5.179 5.179 0 005.177 5.177h48.813a5.177 5.177 0 005.177-5.177V6.094A5.177 5.177 0 0054.906.917H6.093zm-.74 5.177a.74.74 0 01.74-.74h48.813a.74.74 0 01.74.74v48.813a.74.74 0 01-.74.74H6.093a.74.74 0 01-.74-.74V6.094z"/></symbol><symbol viewBox="0 0 65 66" id="list-image-title_advantages_icon3" xmlns="http://www.w3.org/2000/svg"><path d="M58.166.5H6.833a6.375 6.375 0 00-4.538 1.904A6.543 6.543 0 00.416 7v39a6.54 6.54 0 001.88 4.596A6.375 6.375 0 006.832 52.5h19.25V59h-9.625v6.5H48.54V59h-9.625v-6.5h19.25a6.375 6.375 0 004.537-1.904A6.543 6.543 0 0064.583 46V7a6.543 6.543 0 00-1.88-4.596A6.375 6.375 0 0058.166.5zm0 45.5H6.833V7h51.333v39zm-10.427-9.75a5.725 5.725 0 01-1.645 4.022 5.579 5.579 0 01-3.97 1.666c-1.489 0-2.917-.6-3.97-1.666a5.725 5.725 0 01-1.644-4.022l-10.427-5.33a5.425 5.425 0 01-5.77.582 5.512 5.512 0 01-2.235-2.05 5.611 5.611 0 010-5.872 5.512 5.512 0 012.235-2.05 5.425 5.425 0 015.77.582L36.51 16.75a5.801 5.801 0 011.19-3.606 5.673 5.673 0 013.153-2.066 5.612 5.612 0 013.735.378 5.714 5.714 0 012.687 2.656 5.82 5.82 0 01.463 3.774 5.764 5.764 0 01-1.961 3.242 5.634 5.634 0 01-3.53 1.294 5.632 5.632 0 01-3.556-1.22L28.361 26.5l10.33 5.233a5.52 5.52 0 015.934-.639 5.61 5.61 0 012.294 2.121 5.71 5.71 0 01.82 3.035z"/></symbol><symbol viewBox="0 0 54 74" id="list-image-title_advantages_icon4" xmlns="http://www.w3.org/2000/svg"><path d="M42.351 30.238V19.54c0-.448-.241-.825-.582-1.058L53.685.079H30.838l-3.837 5.838L23.163.079H.316L12.23 18.481c-.341.233-.582.61-.582 1.059v10.698a24.68 24.68 0 00-8.906 19.043c0 13.586 10.862 24.6 24.259 24.6.827 0 1.642-.042 2.447-.125C41.695 72.513 51.26 62.03 51.26 49.281c0-7.678-3.473-14.53-8.908-19.043zM37.706 1.31h7.675L34.676 17.594l-3.838-5.838 6.868-10.447zm.808 22.122l1.18-1.793c.064.154.1.321.1.497v5.19a1.233 1.233 0 01-.361.86c-3.639-2.211-7.881-3.505-12.432-3.505a23.848 23.848 0 00-12.435 3.507 1.239 1.239 0 01-.36-.862v-5.19c0-.176.037-.344.099-.497l1.18 1.795h23.029v-.002zM8.62 1.31h7.675L30.03 22.201h-7.675L8.62 1.31zM27 70.192c-11.387 0-20.619-9.362-20.619-20.911 0-11.548 9.232-20.91 20.62-20.91 11.385 0 20.62 9.362 20.62 20.91 0 11.549-9.235 20.91-20.62 20.91z"/></symbol><symbol viewBox="0 0 47 47" id="list-image-title_blogtime-help_icon1" xmlns="http://www.w3.org/2000/svg"><path d="M35.599 17.266a1.718 1.718 0 00-2.43-2.429L19.49 28.518l-5.661-5.66a1.719 1.719 0 00-2.43 2.43l6.876 6.874a1.719 1.719 0 002.429 0L35.6 17.266z"/><path fill-rule="evenodd" clip-rule="evenodd" d="M4.592.583a4.01 4.01 0 00-4.01 4.01v37.813a4.012 4.012 0 004.01 4.01h37.813a4.01 4.01 0 004.01-4.01V4.593a4.01 4.01 0 00-4.01-4.01H4.592zm-.572 4.01a.573.573 0 01.572-.572h37.813a.573.573 0 01.573.572v37.813a.573.573 0 01-.573.573H4.592a.573.573 0 01-.572-.573V4.593z"/></symbol><symbol viewBox="0 0 48 48" id="list-image-title_blogtime-help_icon2" xmlns="http://www.w3.org/2000/svg"><path d="M36 8V0M14 36h-4m28 0H18m-4-8h-4m28 0H18M12 8V0M2 18h44M2 46h44V8H2v38z"/></symbol><symbol viewBox="0 0 42 57" id="list-image-title_blogtime-help_icon3" xmlns="http://www.w3.org/2000/svg"><path d="M32.807 23.485v-8.126a.973.973 0 00-.448-.803L41.525.579H23.951l-2.952 4.434L18.047.579H.473l9.164 13.976a.974.974 0 00-.448.804v8.126c-4.181 3.427-6.85 8.631-6.85 14.462 0 10.319 8.355 18.685 18.66 18.685.636 0 1.263-.033 1.883-.096 9.42-.944 16.777-8.905 16.777-18.589 0-5.83-2.671-11.035-6.852-14.462zM29.234 1.513h5.904l-8.235 12.368-2.952-4.433 5.283-7.935zm.621 16.802l.908-1.362c.05.117.076.244.076.377v3.942a.925.925 0 01-.277.654A18.52 18.52 0 0021 19.263c-3.371 0-6.678.922-9.565 2.664a.934.934 0 01-.277-.655V17.33c0-.133.028-.261.076-.377l.908 1.363h17.714zM6.86 1.513h5.904L23.33 17.381h-5.904L6.86 1.513zM21 53.83c-8.76 0-15.861-7.11-15.861-15.882 0-8.77 7.1-15.881 15.861-15.881 8.758 0 15.861 7.111 15.861 15.881C36.86 46.72 29.757 53.83 21 53.83z"/><path d="M22.836 45.197V28.21h-3.674a2.79 2.79 0 01-.85 2.002 2.892 2.892 0 01-.94.614c-.352.142-.73.216-1.11.216v3.539c.262 0 2.241-.146 2.9-.404v11.02h-2.9v3.54h9.473v-3.54h-2.9z"/></symbol><symbol viewBox="0 0 31 56" id="list-image-title_blogtime-help_icon4" xmlns="http://www.w3.org/2000/svg"><path d="M15.774 43.867c-6.273 0-8.74-2.863-9.075-6.534H0c.365 6.814 5.36 10.64 11.206 11.916V56h9.136v-6.689C26.28 48.16 31 44.644 31 38.267c0-8.836-7.4-11.854-14.312-13.69-6.913-1.835-9.136-3.733-9.136-6.688 0-3.391 3.076-5.756 8.222-5.756 5.42 0 7.43 2.645 7.613 6.534h6.73c-.213-5.351-3.41-10.267-9.775-11.854V0h-9.136v6.72C5.3 8.027.548 11.947.548 17.951c0 7.187 5.816 10.765 14.313 12.849 7.613 1.867 9.135 4.604 9.135 7.498 0 2.146-1.492 5.569-8.222 5.569z"/></symbol><symbol viewBox="0 0 48 47" id="list-image-title_blogtime-problem_icon1" xmlns="http://www.w3.org/2000/svg"><path d="M3.296 0l42.82 43.007-3.293 3.308-8.728-8.765L24.706 47 4.954 27.135a14.07 14.07 0 01-3.543-9.399 14.07 14.07 0 013.622-9.369L0 3.31 3.296 0zm40.61 7.87a14.064 14.064 0 014.088 9.522 14.072 14.072 0 01-3.538 9.743l-3.809 3.827L13.666 3.867a13.912 13.912 0 0111.042 3.469 13.935 13.935 0 019.705-3.572c3.57.1 6.968 1.569 9.493 4.105z"/></symbol><symbol viewBox="0 0 55 55" id="list-image-title_blogtime-problem_icon2" xmlns="http://www.w3.org/2000/svg"><path d="M55 16.328c0 1.504-.331 2.9-.994 4.19a9.787 9.787 0 01-2.712 3.276 8.23 8.23 0 01.269 1.987c0 2.364-.842 4.387-2.525 6.07-1.683 1.682-3.706 2.524-6.07 2.524-1.253 0-2.488-.286-3.705-.86a10.006 10.006 0 01-3.599 3.143 10.028 10.028 0 01-4.727 1.154c-1.897 0-3.643-.483-5.236-1.45a10.205 10.205 0 01-3.733-3.92c-1.36 1.288-2.954 1.933-4.78 1.933-1.898 0-3.519-.671-4.861-2.014-1.343-1.343-2.014-2.963-2.014-4.861-2.865 0-5.3-1.003-7.305-3.008S0 20.052 0 17.187c0-2.864 1.003-5.299 3.008-7.304s4.44-3.008 7.304-3.008c1.469 0 2.883.304 4.244.913.859-2.292 2.31-4.163 4.35-5.613C20.947.725 23.24 0 25.781 0c1.79 0 3.474.385 5.05 1.155a12.733 12.733 0 014.081 3.142 6.607 6.607 0 012.47-3.115C38.53.394 39.819 0 41.25 0c1.898 0 3.518.671 4.86 2.014 1.344 1.343 2.015 2.963 2.015 4.861 0 .036-.009.098-.027.188a1.13 1.13 0 00-.027.188c2.041.573 3.706 1.692 4.995 3.357C54.356 12.273 55 14.18 55 16.328zM10.312 48.125c.967 0 1.782.331 2.444.994.663.662.994 1.468.994 2.417 0 .948-.34 1.763-1.02 2.444-.68.68-1.495 1.02-2.444 1.02-.95 0-1.755-.34-2.417-1.02-.663-.68-.994-1.486-.994-2.417 0-.931.331-1.737.994-2.418.662-.68 1.477-1.02 2.444-1.02zm8.594-10.313c1.433 0 2.65.502 3.653 1.504 1.002 1.003 1.503 2.22 1.503 3.653 0 1.432-.5 2.65-1.503 3.652-1.003 1.003-2.22 1.504-3.653 1.504-1.432 0-2.65-.501-3.652-1.504-1.003-1.003-1.504-2.22-1.504-3.652 0-1.433.501-2.65 1.504-3.653 1.002-1.002 2.22-1.504 3.652-1.504z"/></symbol><symbol viewBox="0 0 55 55" id="list-image-title_blogtime-problem_icon3" xmlns="http://www.w3.org/2000/svg"><path fill-rule="evenodd" clip-rule="evenodd" d="M27.5 0a27.5 27.5 0 100 55 27.5 27.5 0 000-55zm0 50.77a23.269 23.269 0 110-46.538 23.269 23.269 0 010 46.537zm6.558-35.624a7.784 7.784 0 00-2.581-1.777 9.52 9.52 0 00-3.85-.677 9.139 9.139 0 00-3.723.72 7.095 7.095 0 00-2.623 1.903 7.994 7.994 0 00-1.608 2.624 12.69 12.69 0 00-.634 3.046h5.203a3.554 3.554 0 012.141-3.135 3.047 3.047 0 011.286-.208c.379-.06.764-.06 1.142 0a2.7 2.7 0 01.931.593c.294.254.526.572.677.93.174.4.26.833.254 1.27 0 .732-.156 1.45-.465 2.115-.308.69-.69 1.342-1.143 1.946l-1.48 1.777a29.085 29.085 0 00-1.481 1.735 9.863 9.863 0 00-1.142 1.904 4.992 4.992 0 00-.424 2.115v2.792h5.077v-2.073c.015-.62.174-1.229.466-1.777.348-.609.744-1.189 1.184-1.734l1.523-1.862c.555-.64 1.064-1.32 1.524-2.03a10.96 10.96 0 001.184-2.328 8.055 8.055 0 00.465-2.707 9.223 9.223 0 00-.422-2.835 6.43 6.43 0 00-1.481-2.327zm-9.52 22.212h4.95v4.95h-4.95v-4.95z"/></symbol><symbol viewBox="0 0 52 59" id="list-image-title_blogtime-problem_icon4" xmlns="http://www.w3.org/2000/svg"><path d="M27.379 12.783c5.774 0 7.915 2.786 8.11 6.884h7.169C42.43 14.029 39.023 8.85 32.245 7.178V0h-9.732v7.08c-1.265.262-2.433.688-3.569 1.18l4.899 4.95a14.533 14.533 0 013.536-.427zM4.574 3.016L0 7.637l11.16 11.276c0 6.818 5.06 10.554 12.683 12.816l11.386 11.505c-1.103 1.606-3.406 2.983-7.85 2.983-6.683 0-9.31-3.016-9.667-6.884h-7.137c.39 7.179 5.71 11.21 11.938 12.554V59h9.732v-7.047c3.114-.59 5.936-1.803 7.98-3.671l7.201 7.276L52 50.937 4.574 3.016z"/></symbol><symbol viewBox="0 0 71 57" id="list-image-title_education-help_icon1" xmlns="http://www.w3.org/2000/svg"><path d="M35.5 28.5L9.017 17.884 10.65 57h-7.1l1.704-40.648L0 14.25 35.5 0 71 14.25 35.5 28.5zm0-17.813c-1.953 0-3.55.784-3.55 1.782 0 .997 1.598 1.781 3.55 1.781 1.953 0 3.55-.784 3.55-1.781 0-.998-1.597-1.781-3.55-1.781zm0 21.376l19.773-7.945c2.521 3.349 4.26 7.375 4.828 11.756-1.065-.142-2.165-.249-3.301-.249-9.052 0-16.969 4.88-21.3 12.148a24.842 24.842 0 00-9.05-8.898 24.733 24.733 0 00-12.25-3.25c-1.136 0-2.236.107-3.301.25.568-4.383 2.307-8.408 4.828-11.757L35.5 32.063z"/></symbol><symbol viewBox="0 0 54 50" id="list-image-title_education-help_icon2" xmlns="http://www.w3.org/2000/svg"><path d="M54 50H38V0h16v50zm-20 0H18V15h16v35zm-20 0H-2V27h16v23z"/></symbol><symbol viewBox="0 0 49 65" id="list-image-title_education-help_icon3" xmlns="http://www.w3.org/2000/svg"><path d="M45.152 0H3.848C1.726 0 0 1.715 0 3.824v57.352C0 63.285 1.726 65 3.848 65h41.304C47.274 65 49 63.285 49 61.176V3.825C49 1.715 47.274 0 45.152 0zm0 61.176H3.848V3.825h41.304c.002 58.608.013 57.352 0 57.352z"/><path d="M32.001 25c-5.205 0-9.403 4.425-8.965 9.695-.05.263-.034-.835-.034 17.412 0 1.343 1.372 2.26 2.621 1.75l6.378-2.593 6.378 2.594c1.246.506 2.621-.403 2.621-1.75V33.951C41 29.016 36.963 25 32.001 25zm0 3.782c2.866 0 5.197 2.32 5.197 5.17S34.867 39.12 32 39.12c-2.865 0-5.196-2.32-5.196-5.17s2.33-5.169 5.196-5.169zm.72 18.688a1.911 1.911 0 00-1.44 0l-4.476 1.82v-8.037a9.003 9.003 0 0010.393 0v8.038L32.72 47.47z"/><path d="M32.001 28.782c2.866 0 5.197 2.32 5.197 5.17S34.867 39.12 32 39.12c-2.865 0-5.196-2.32-5.196-5.17s2.33-5.169 5.196-5.169zM39.051 9H9.95C8.873 9 8 9.895 8 11c0 1.104.873 2 1.949 2H39.05c1.077 0 1.95-.896 1.95-2 0-1.105-.873-2-1.949-2zm0 8H9.95C8.873 17 8 17.895 8 19s.873 2 1.949 2H39.05c1.077 0 1.95-.895 1.95-2s-.873-2-1.949-2zM16.53 26H9.47C8.659 26 8 26.895 8 28s.658 2 1.47 2h7.06c.811 0 1.47-.895 1.47-2s-.659-2-1.47-2zm-.453 8H9.923C8.861 34 8 34.895 8 36s.861 2 1.923 2h6.154C17.139 38 18 37.105 18 36s-.861-2-1.923-2zm0 8H9.923C8.861 42 8 42.895 8 44s.861 2 1.923 2h6.154C17.139 46 18 45.105 18 44s-.861-2-1.923-2zm0 8H9.923C8.861 50 8 50.895 8 52s.861 2 1.923 2h6.154C17.139 54 18 53.105 18 52s-.861-2-1.923-2z"/></symbol><symbol viewBox="0 0 76 52" id="list-image-title_education-help_icon4" xmlns="http://www.w3.org/2000/svg"><path d="M61.843 0a25.683 25.683 0 01-9.048 5.568c-3.559.624-13.406-3.914-18.258.718-.809.804-1.808 1.607-2.854 2.41-2.284-.992-5.804-2.504-8.373-3.97C20.741 3.261 14.271 0 14.271 0L0 16.542s3.52 4.727 5.709 7.846c1.427 2.08 3.187 5.247 4.329 7.373L8.42 33.653a4.117 4.117 0 00.714 4.727 3.98 3.98 0 004.766-.01 2.924 2.924 0 00-.695 2.158 2.916 2.916 0 001.062 2.006 4.752 4.752 0 004.785-.01 3.794 3.794 0 00-.014 4.75 4.844 4.844 0 004.243-.538 3.862 3.862 0 00.89 4.31 5.23 5.23 0 005.014-.435l2.455-2.207A12.422 12.422 0 0040.402 52l.29-.005a6.261 6.261 0 003.124-1.152 6.204 6.204 0 002.08-2.586 6.542 6.542 0 002.322.444 5.699 5.699 0 003.045-.874c2.783-1.83 2.117-3.247 2.117-3.247a5.12 5.12 0 003.14.286 5.096 5.096 0 002.706-1.605 4.683 4.683 0 00.657-5.743c.03.018.065.026.1.024a5.328 5.328 0 004.652-2.713 7.348 7.348 0 00-.908-6.995l.014.024c3.9-.757 3.758-2.695 5.66-5.53A22.433 22.433 0 0176 16.618L61.843 0zm-.238 33.368c-2.093 2.08-3.71 1.182-7.278-1.512-3.568-2.694-10.657-7.751-10.657-7.751a7.457 7.457 0 001.908 3.691c1.518 1.697 6.037 5.572 8.178 7.558 1.332 1.228 4.757 3.686 2.759 5.577-1.998 1.89-3.568 0-6.85-2.647-3.283-2.647-10.609-9.17-10.609-9.17a4.4 4.4 0 001.285 3.404c.808.945 5.328 5.293 7.23 7.278 1.903 1.986 3.568 3.167 1.95 4.727-1.617 1.56-4.9-.898-6.707-2.742-2.806-2.694-8.372-7.704-8.372-7.704l-.005.25a5.62 5.62 0 001.251 3.546c1.37 1.786 4.034 4.102 5.651 5.898 1.618 1.796 2.57 3.309 0 4.727-2.568 1.418-6.374-2.08-8.04-3.781v-.01a1.93 1.93 0 00-.475-1.271 4.288 4.288 0 00-4.31-.889 2.88 2.88 0 00.965-2.125 2.862 2.862 0 00-.936-2.138 3.602 3.602 0 00-4.339.005 2.882 2.882 0 00.886-2.342 2.869 2.869 0 00-1.29-2.148 4.781 4.781 0 00-5.585.378 3.106 3.106 0 00-.323-4.306 4.763 4.763 0 00-5.642-.605l-3.164-5.308c-2.188-3.45-4.757-7.042-4.757-7.042L15.175 3.824s3.854 2.363 7.04 4.159c1.57.898 4.282 2.08 6.328 3.025-3.235 2.41-5.947 4.726-5.138 6.333a8.767 8.767 0 009.928.17 11.518 11.518 0 016.39-1.904c1.65 0 3.22.34 4.642.96 2.636 1.767 7.488 6.115 11.912 8.856 5.566 4.018 6.66 6.617 5.328 7.94v.005z"/></symbol><symbol viewBox="0 0 58 58" id="list-image-title_education-problem_icon1" xmlns="http://www.w3.org/2000/svg"><path d="M21.956 5.92H32.92v5.483h-9.868l5.482 5.482h20.832v20.831l5.482 5.483V16.885a5.463 5.463 0 00-5.482-5.482H38.402V5.92A5.463 5.463 0 0032.92.439H21.956c-2.714 0-4.934 1.918-5.373 4.495l5.373 5.372V5.921zM3.865 0L0 3.865l7.538 7.538H5.509c-3.042 0-5.454 2.44-5.454 5.482l-.028 30.15a5.463 5.463 0 005.482 5.483h43.144L54.135 58 58 54.135 3.865 0zm1.644 47.036V16.885h7.51l30.152 30.15H5.51z"/></symbol><symbol viewBox="0 0 69 71" id="list-image-title_education-problem_icon2" xmlns="http://www.w3.org/2000/svg"><path d="M57.205.047H15.22c-2.157 0-3.911 1.765-3.911 3.934v59.011c0 2.17 1.754 3.934 3.911 3.934h41.985c2.157 0 3.911-1.765 3.911-3.934V3.981c0-2.17-1.755-3.934-3.911-3.934zm0 62.945H15.22V3.981h41.985c.002 60.302.013 59.011 0 59.011z"/><path d="M43.514 26.273c-5.355 0-9.674 4.603-9.223 10.084-.05.274-.035-.868-.035 18.11 0 1.397 1.41 2.35 2.696 1.821l6.562-2.698 6.561 2.698c1.282.527 2.696-.419 2.696-1.82V35.584c0-5.134-4.153-9.31-9.257-9.31zm0 3.934c2.947 0 5.346 2.413 5.346 5.377 0 2.965-2.399 5.377-5.346 5.377-2.948 0-5.346-2.412-5.346-5.377s2.398-5.377 5.346-5.377zm.74 19.438a1.946 1.946 0 00-1.48 0l-4.606 1.893v-8.36a9.18 9.18 0 0010.692 0v8.36l-4.606-1.893z"/><path d="M43.514 30.207c2.947 0 5.346 2.413 5.346 5.377 0 2.965-2.399 5.377-5.346 5.377-2.948 0-5.346-2.412-5.346-5.377s2.398-5.377 5.346-5.377zm.74 19.438a1.946 1.946 0 00-1.48 0l-4.606 1.893v-8.36a9.18 9.18 0 0010.692 0v8.36l-4.606-1.893z"/><path d="M4.18 4.125L.531 7.387l64.47 63.21 3.65-4.894L4.18 4.125zm46.635 5.363H21.608c-1.08 0-1.956.881-1.956 1.967 0 1.087.876 1.967 1.956 1.967h29.207c1.08 0 1.956-.88 1.956-1.967a1.962 1.962 0 00-1.956-1.967z"/><path d="M50.815 17.882H21.608c-1.08 0-1.956.88-1.956 1.967 0 1.086.876 1.967 1.956 1.967h29.207c1.08 0 1.956-.88 1.956-1.967a1.962 1.962 0 00-1.956-1.967zm-22.488 8.654h-7.179c-.826 0-1.496.88-1.496 1.967 0 1.087.67 1.967 1.496 1.967h7.179c.826 0 1.496-.88 1.496-1.967 0-1.086-.67-1.967-1.496-1.967zm-.46 8.131h-6.259c-1.08 0-1.956.88-1.956 1.967 0 1.086.876 1.967 1.956 1.967h6.259c1.08 0 1.956-.88 1.956-1.967a1.961 1.961 0 00-1.956-1.967zm0 8.393h-6.259c-1.08 0-1.956.881-1.956 1.968 0 1.086.876 1.967 1.956 1.967h6.259c1.08 0 1.956-.881 1.956-1.967a1.962 1.962 0 00-1.956-1.968zm0 8.392h-6.259c-1.08 0-1.956.88-1.956 1.967 0 1.087.876 1.967 1.956 1.967h6.259c1.08 0 1.956-.88 1.956-1.967a1.962 1.962 0 00-1.956-1.967z"/></symbol><symbol viewBox="0 0 56 53" id="list-image-title_education-problem_icon3" xmlns="http://www.w3.org/2000/svg"><path d="M56 52.063H40V.874h16v51.188zm-12-3.938h8V4.812h-8v43.313zm-8 3.938H20V16.624h16v35.438zm-12-3.938h8V20.562h-8v27.563zm-8 3.938H0V28.436h16v23.625z"/></symbol><symbol viewBox="0 0 51 58" id="list-image-title_education-problem_icon4" xmlns="http://www.w3.org/2000/svg"><path d="M26.852 12.567c5.663 0 7.763 2.739 7.954 6.766h7.031C41.614 13.791 38.274 8.7 31.624 7.057V0H22.08v6.96c-1.24.258-2.386.677-3.5 1.16l4.804 4.866a14.22 14.22 0 013.468-.42zM4.486 2.964L0 7.508l10.944 11.084c0 6.702 4.964 10.376 12.44 12.6l11.167 11.31c-1.081 1.578-3.34 2.931-7.699 2.931-6.554 0-9.13-2.964-9.48-6.766h-7c.382 7.056 5.6 11.02 11.708 12.34V58h9.545v-6.928c3.054-.58 5.822-1.772 7.826-3.609l7.063 7.154L51 50.073 4.486 2.964z"/></symbol><symbol viewBox="0 0 49 90" id="list-image-title_help_icon1" xmlns="http://www.w3.org/2000/svg"><path d="M24.933 70.5c-9.915 0-13.814-4.6-14.344-10.5H0c.578 10.95 8.472 17.1 17.713 19.15V90h14.44V79.25C41.54 77.4 49 71.75 49 61.5c0-14.2-11.697-19.05-22.623-22-10.926-2.95-14.44-6-14.44-10.75 0-5.45 4.862-9.25 12.996-9.25 8.568 0 11.745 4.25 12.034 10.5h10.637c-.337-8.6-5.39-16.5-15.45-19.05V0h-14.44v10.8C8.374 12.9.865 19.2.865 28.85c0 11.55 9.194 17.3 22.623 20.65 12.034 3 14.44 7.4 14.44 12.05 0 3.45-2.358 8.95-12.996 8.95z"/></symbol><symbol viewBox="0 0 71 71" id="list-image-title_help_icon2" xmlns="http://www.w3.org/2000/svg"><path d="M35.5 35.5L9.017 24.92 10.65 63.9h-7.1l1.704-40.506L0 21.3 35.5 7.1 71 21.3 35.5 35.5zm0-17.75c-1.953 0-3.55.78-3.55 1.775 0 .994 1.598 1.775 3.55 1.775 1.953 0 3.55-.781 3.55-1.775 0-.994-1.597-1.775-3.55-1.775zm0 21.3l19.773-7.917c2.521 3.337 4.26 7.349 4.828 11.715-1.065-.142-2.165-.248-3.301-.248-9.052 0-16.969 4.863-21.3 12.105A24.8 24.8 0 0014.2 42.6c-1.136 0-2.236.106-3.301.248.568-4.366 2.307-8.378 4.828-11.715L35.5 39.05z"/></symbol><symbol viewBox="0 0 80 79" id="list-image-title_help_icon3" xmlns="http://www.w3.org/2000/svg"><path d="M65 14.813a27.022 27.022 0 01-9.51 5.816c-3.74.652-14.09-4.088-19.19.75-.85.84-1.9 1.68-3 2.518-2.4-1.036-6.1-2.616-8.8-4.147-2.7-1.53-9.5-4.938-9.5-4.938L0 32.094s3.7 4.937 6 8.196c1.5 2.172 3.35 5.48 4.55 7.703l-1.7 1.974a4.278 4.278 0 00-.42 2.587 4.304 4.304 0 001.17 2.351 4.2 4.2 0 002.507.822 4.2 4.2 0 002.503-.832 3.052 3.052 0 00-.731 2.255 3.035 3.035 0 001.116 2.095 5.02 5.02 0 005.03-.01 3.948 3.948 0 00-.887 2.479 3.948 3.948 0 00.872 2.483 5.122 5.122 0 004.46-.563 4.012 4.012 0 00-.24 2.395 4.044 4.044 0 001.175 2.109 5.526 5.526 0 005.27-.455l2.58-2.306a13.097 13.097 0 009.21 3.758l.305-.005a6.605 6.605 0 003.283-1.204 6.488 6.488 0 002.187-2.702c.73.277 1.56.465 2.44.465 1.18 0 2.275-.336 3.2-.914 2.925-1.91 2.225-3.392 2.225-3.392a5.413 5.413 0 003.3.3 5.363 5.363 0 002.845-1.678 4.868 4.868 0 00.69-5.999.183.183 0 00.105.025 5.606 5.606 0 004.89-2.834 7.632 7.632 0 00-.955-7.308l.015.025c4.1-.79 3.95-2.814 5.95-5.777a23.541 23.541 0 016.935-5.964L65 14.813zm-.25 34.858c-2.2 2.173-3.9 1.235-7.65-1.58-3.75-2.814-11.2-8.097-11.2-8.097a7.773 7.773 0 002.005 3.856c1.595 1.773 6.345 5.821 8.595 7.895 1.4 1.284 5 3.851 2.9 5.826-2.1 1.975-3.75 0-7.2-2.765s-11.15-9.578-11.15-9.578a4.575 4.575 0 00.289 1.92 4.6 4.6 0 001.061 1.634c.85.988 5.6 5.53 7.6 7.604s3.75 3.308 2.05 4.938c-1.7 1.63-5.15-.938-7.05-2.864-2.95-2.814-8.8-8.048-8.8-8.048l-.005.262c0 1.402.49 2.686 1.315 3.703 1.44 1.866 4.24 4.285 5.94 6.162 1.7 1.876 2.7 3.456 0 4.937-2.7 1.481-6.7-2.172-8.45-3.95v-.01c0-.487-.177-.959-.5-1.328a4.5 4.5 0 00-2.134-1.086 4.533 4.533 0 00-2.396.158c.317-.28.57-.622.745-1.004a2.974 2.974 0 00-.715-3.45 3.801 3.801 0 00-2.28-.755c-.824 0-1.625.268-2.28.76.331-.312.587-.694.748-1.118a2.978 2.978 0 00-.236-2.603 3.028 3.028 0 00-.937-.97 5.05 5.05 0 00-5.87.396 3.232 3.232 0 00-.34-4.498 5.032 5.032 0 00-5.93-.632L9.55 39.84c-2.3-3.605-5-7.357-5-7.357l11.4-13.677s4.05 2.469 7.4 4.345c1.65.938 4.5 2.172 6.65 3.16-3.4 2.518-6.25 4.937-5.4 6.616a9.248 9.248 0 005.19 1.698 9.254 9.254 0 005.245-1.52 12.16 12.16 0 016.715-1.99c1.735 0 3.385.356 4.88 1.002 2.77 1.847 7.87 6.39 12.52 9.253 5.85 4.197 7 6.913 5.6 8.295v.005z"/></symbol><symbol viewBox="0 0 72 69" id="list-image-title_help_icon4" xmlns="http://www.w3.org/2000/svg"><path d="M67.5 64.688h-18V8.624h18v56.063zm-22.5 0H27V25.874h18v38.813zm-22.5 0h-18V38.811h18v25.876z"/></symbol><symbol viewBox="0 0 54 50" id="list-image-title_investments-help_icon1" xmlns="http://www.w3.org/2000/svg"><path d="M54 50H38V0h16v50zm-20 0H18V15h16v35zm-20 0H-2V27h16v23z"/></symbol><symbol viewBox="0 0 54 74" id="list-image-title_investments-help_icon2" xmlns="http://www.w3.org/2000/svg"><path d="M42.351 30.238V19.54c0-.448-.241-.825-.582-1.058L53.685.079H30.838l-3.837 5.838L23.163.079H.316L12.23 18.481c-.341.233-.582.61-.582 1.059v10.698a24.68 24.68 0 00-8.906 19.043c0 13.586 10.862 24.6 24.259 24.6.827 0 1.642-.042 2.447-.125C41.695 72.513 51.26 62.03 51.26 49.281c0-7.678-3.473-14.53-8.908-19.043zM37.706 1.31h7.675L34.676 17.594l-3.838-5.838 6.868-10.447zm.808 22.122l1.18-1.793c.064.154.1.321.1.497v5.19a1.233 1.233 0 01-.361.86c-3.639-2.211-7.881-3.505-12.432-3.505a23.848 23.848 0 00-12.435 3.507 1.239 1.239 0 01-.36-.862v-5.19c0-.176.037-.344.099-.497l1.18 1.795h23.029v-.002zM8.62 1.31h7.675L30.03 22.201h-7.675L8.62 1.31zM27 70.192c-11.387 0-20.619-9.362-20.619-20.911 0-11.548 9.232-20.91 20.62-20.91 11.385 0 20.62 9.362 20.62 20.91 0 11.549-9.235 20.91-20.62 20.91z"/><path d="M29.39 58.828V36.46h-4.777a3.702 3.702 0 01-1.103 2.637 3.807 3.807 0 01-2.666 1.092v4.659c.34 0 2.913-.192 3.77-.53v14.509h-3.77v4.66H33.16v-4.66h-3.77z"/></symbol><symbol viewBox="0 0 71 57" id="list-image-title_investments-help_icon3" xmlns="http://www.w3.org/2000/svg"><path d="M35.5 28.5L9.017 17.884 10.65 57h-7.1l1.704-40.648L0 14.25 35.5 0 71 14.25 35.5 28.5zm0-17.813c-1.953 0-3.55.784-3.55 1.782 0 .997 1.598 1.781 3.55 1.781 1.953 0 3.55-.784 3.55-1.781 0-.998-1.597-1.781-3.55-1.781zm0 21.376l19.773-7.945c2.521 3.349 4.26 7.375 4.828 11.756-1.065-.142-2.165-.249-3.301-.249-9.052 0-16.969 4.88-21.3 12.148a24.842 24.842 0 00-9.05-8.898 24.733 24.733 0 00-12.25-3.25c-1.136 0-2.236.107-3.301.25.568-4.383 2.307-8.408 4.828-11.757L35.5 32.063z"/></symbol><symbol viewBox="0 0 76 52" id="list-image-title_investments-help_icon4" xmlns="http://www.w3.org/2000/svg"><path d="M61.843 0a25.683 25.683 0 01-9.048 5.568c-3.559.624-13.406-3.914-18.258.718-.809.804-1.808 1.607-2.854 2.41-2.284-.992-5.804-2.504-8.373-3.97C20.741 3.261 14.271 0 14.271 0L0 16.542s3.52 4.727 5.709 7.846c1.427 2.08 3.187 5.247 4.329 7.373L8.42 33.653a4.117 4.117 0 00.714 4.727 3.98 3.98 0 004.766-.01 2.924 2.924 0 00-.695 2.158 2.916 2.916 0 001.062 2.006 4.752 4.752 0 004.785-.01 3.794 3.794 0 00-.014 4.75 4.844 4.844 0 004.243-.538 3.862 3.862 0 00.89 4.31 5.23 5.23 0 005.014-.435l2.455-2.207A12.422 12.422 0 0040.402 52l.29-.005a6.261 6.261 0 003.124-1.152 6.204 6.204 0 002.08-2.586 6.542 6.542 0 002.322.444 5.699 5.699 0 003.045-.874c2.783-1.83 2.117-3.247 2.117-3.247a5.12 5.12 0 003.14.286 5.096 5.096 0 002.706-1.605 4.683 4.683 0 00.657-5.743c.03.018.065.026.1.024a5.328 5.328 0 004.652-2.713 7.348 7.348 0 00-.908-6.995l.014.024c3.9-.757 3.758-2.695 5.66-5.53A22.433 22.433 0 0176 16.618L61.843 0zm-.238 33.368c-2.093 2.08-3.71 1.182-7.278-1.512-3.568-2.694-10.657-7.751-10.657-7.751a7.457 7.457 0 001.908 3.691c1.518 1.697 6.037 5.572 8.178 7.558 1.332 1.228 4.757 3.686 2.759 5.577-1.998 1.89-3.568 0-6.85-2.647-3.283-2.647-10.609-9.17-10.609-9.17a4.4 4.4 0 001.285 3.404c.808.945 5.328 5.293 7.23 7.278 1.903 1.986 3.568 3.167 1.95 4.727-1.617 1.56-4.9-.898-6.707-2.742-2.806-2.694-8.372-7.704-8.372-7.704l-.005.25a5.62 5.62 0 001.251 3.546c1.37 1.786 4.034 4.102 5.651 5.898 1.618 1.796 2.57 3.309 0 4.727-2.568 1.418-6.374-2.08-8.04-3.781v-.01a1.93 1.93 0 00-.475-1.271 4.288 4.288 0 00-4.31-.889 2.88 2.88 0 00.965-2.125 2.862 2.862 0 00-.936-2.138 3.602 3.602 0 00-4.339.005 2.882 2.882 0 00.886-2.342 2.869 2.869 0 00-1.29-2.148 4.781 4.781 0 00-5.585.378 3.106 3.106 0 00-.323-4.306 4.763 4.763 0 00-5.642-.605l-3.164-5.308c-2.188-3.45-4.757-7.042-4.757-7.042L15.175 3.824s3.854 2.363 7.04 4.159c1.57.898 4.282 2.08 6.328 3.025-3.235 2.41-5.947 4.726-5.138 6.333a8.767 8.767 0 009.928.17 11.518 11.518 0 016.39-1.904c1.65 0 3.22.34 4.642.96 2.636 1.767 7.488 6.115 11.912 8.856 5.566 4.018 6.66 6.617 5.328 7.94v.005z"/></symbol><symbol viewBox="0 0 56 53" id="list-image-title_investments-problem_icon1" xmlns="http://www.w3.org/2000/svg"><path d="M56 52.063H40V.874h16v51.188zm-12-3.938h8V4.812h-8v43.313zm-8 3.938H20V16.624h16v35.438zm-12-3.938h8V20.562h-8v27.563zm-8 3.938H0V28.436h16v23.625z"/></symbol><symbol viewBox="0 0 62 62" id="list-image-title_investments-problem_icon2" xmlns="http://www.w3.org/2000/svg"><path fill-rule="evenodd" clip-rule="evenodd" d="M30.813 0a30.812 30.812 0 100 61.625 30.812 30.812 0 000-61.625zm0 56.885a26.072 26.072 0 110-52.145 26.072 26.072 0 010 52.145zM38.16 16.97a8.723 8.723 0 00-2.891-1.991 10.665 10.665 0 00-4.314-.759 10.24 10.24 0 00-4.172.806 7.95 7.95 0 00-2.939 2.133 8.959 8.959 0 00-1.801 2.94 14.226 14.226 0 00-.711 3.412h5.83A3.982 3.982 0 0129.561 20c.458-.18.95-.26 1.441-.233a4.076 4.076 0 011.28 0c.39.148.745.374 1.043.664.33.285.589.642.758 1.043.195.449.291.933.285 1.422 0 .82-.176 1.626-.522 2.37a11.366 11.366 0 01-1.28 2.18l-1.659 1.992a32.584 32.584 0 00-1.659 1.943 11.09 11.09 0 00-1.28 2.133 5.593 5.593 0 00-.474 2.37v3.13h5.689V36.69a4.456 4.456 0 01.521-1.991 14.72 14.72 0 011.327-1.944l1.707-2.086a20.333 20.333 0 001.706-2.275c.545-.813.99-1.688 1.328-2.607.346-.974.522-2 .521-3.034a10.333 10.333 0 00-.474-3.176 7.204 7.204 0 00-1.659-2.607zM27.494 41.858h5.547v5.546h-5.547v-5.546z"/></symbol><symbol viewBox="0 0 72 67" id="list-image-title_investments-problem_icon3" xmlns="http://www.w3.org/2000/svg"><path d="M3.65 0L0 3.262l64.47 63.21 3.649-4.894L3.649 0z"/><path d="M36.5 36.5L10.017 25.884 11.65 65h-7.1l1.704-40.648L1 22.25 36.5 8 72 22.25 36.5 36.5zm0-17.813c-1.953 0-3.55.784-3.55 1.782 0 .997 1.597 1.781 3.55 1.781 1.953 0 3.55-.784 3.55-1.781 0-.998-1.597-1.782-3.55-1.782zm0 21.375l19.773-7.944c2.521 3.349 4.26 7.374 4.828 11.756-1.065-.142-2.165-.249-3.301-.249-9.052 0-16.969 4.88-21.3 12.148a24.842 24.842 0 00-9.05-8.898 24.733 24.733 0 00-12.25-3.25c-1.136 0-2.236.107-3.301.25.568-4.383 2.307-8.408 4.828-11.757L36.5 40.062z"/></symbol><symbol viewBox="0 0 77 67" id="list-image-title_investments-problem_icon4" xmlns="http://www.w3.org/2000/svg"><path d="M62.843 7a25.682 25.682 0 01-9.048 5.568c-3.559.624-13.406-3.914-18.258.718-.809.804-1.808 1.607-2.855 2.41-2.283-.992-5.803-2.504-8.372-3.97C21.741 10.261 15.271 7 15.271 7L1 23.542s3.52 4.727 5.709 7.846c1.427 2.08 3.187 5.247 4.329 7.373L9.42 40.652a4.117 4.117 0 00.714 4.727 3.98 3.98 0 004.766-.01 2.924 2.924 0 00-.695 2.158 2.916 2.916 0 001.062 2.006 4.752 4.752 0 004.785-.01 3.794 3.794 0 00-.014 4.75 4.844 4.844 0 004.243-.538 3.862 3.862 0 00.89 4.31 5.23 5.23 0 005.014-.435l2.455-2.207A12.422 12.422 0 0041.402 59l.29-.005a6.261 6.261 0 003.124-1.152 6.204 6.204 0 002.08-2.586 6.542 6.542 0 002.322.444 5.699 5.699 0 003.045-.874c2.783-1.83 2.117-3.247 2.117-3.247a5.12 5.12 0 003.14.286 5.096 5.096 0 002.706-1.605 4.683 4.683 0 00.657-5.743c.03.018.065.026.1.024a5.328 5.328 0 004.652-2.713 7.348 7.348 0 00-.908-6.995l.014.023c3.9-.756 3.758-2.694 5.66-5.53A22.433 22.433 0 0177 23.619L62.843 7zm-.238 33.368c-2.093 2.08-3.71 1.182-7.278-1.512-3.568-2.694-10.657-7.751-10.657-7.751a7.457 7.457 0 001.908 3.691c1.518 1.697 6.037 5.572 8.178 7.558 1.332 1.228 4.757 3.686 2.759 5.577-1.998 1.89-3.568 0-6.85-2.647-3.283-2.647-10.609-9.17-10.609-9.17a4.4 4.4 0 001.285 3.404c.808.945 5.328 5.293 7.23 7.278 1.903 1.986 3.568 3.167 1.95 4.727-1.617 1.56-4.9-.898-6.707-2.742-2.806-2.694-8.372-7.704-8.372-7.704l-.005.25a5.62 5.62 0 001.251 3.546c1.37 1.786 4.034 4.102 5.651 5.898 1.618 1.796 2.57 3.309 0 4.727-2.568 1.418-6.374-2.08-8.04-3.781v-.01a1.93 1.93 0 00-.475-1.271 4.288 4.288 0 00-4.31-.889 2.88 2.88 0 00.965-2.125 2.862 2.862 0 00-.936-2.138 3.602 3.602 0 00-4.339.005 2.882 2.882 0 00.886-2.342 2.869 2.869 0 00-1.29-2.148 4.781 4.781 0 00-5.585.378 3.106 3.106 0 00-.323-4.306 4.763 4.763 0 00-5.642-.605l-3.164-5.308c-2.188-3.45-4.757-7.042-4.757-7.042l10.846-13.092s3.854 2.363 7.04 4.159c1.57.898 4.282 2.08 6.328 3.025-3.235 2.41-5.947 4.726-5.138 6.333a8.767 8.767 0 009.928.17 11.518 11.518 0 016.39-1.904c1.65 0 3.22.34 4.642.96 2.636 1.767 7.488 6.115 11.912 8.856 5.566 4.018 6.66 6.617 5.328 7.94v.005z"/><path d="M3.65 0L0 3.262l64.47 63.21 3.649-4.894L3.649 0z"/></symbol><symbol viewBox="0 0 66 74" id="list-image-title_problem_icon1" xmlns="http://www.w3.org/2000/svg"><path d="M34.75 16.033c7.329 0 10.046 3.495 10.293 8.634h9.1c-.29-7.071-4.613-13.567-13.218-15.664V0H28.574v8.88c-1.606.329-3.088.863-4.53 1.48l6.218 6.208a18.652 18.652 0 014.488-.535zM5.805 3.783L0 9.578 14.163 23.72c0 8.551 6.423 13.238 16.099 16.075l14.452 14.43c-1.4 2.014-4.323 3.74-9.964 3.74-8.482 0-11.817-3.782-12.27-8.633h-9.058c.494 9.004 7.247 14.06 15.152 15.746V74h12.352v-8.839c3.952-.74 7.534-2.261 10.128-4.604l9.14 9.126L66 63.887 5.805 3.782z"/></symbol><symbol viewBox="0 0 77 77" id="list-image-title_problem_icon2" xmlns="http://www.w3.org/2000/svg"><path d="M63.397 0H16.802c-2.394 0-4.341 1.926-4.341 4.293v64.403c0 2.367 1.947 4.293 4.341 4.293h46.595c2.394 0 4.342-1.926 4.342-4.294V4.293C67.739 1.926 65.79 0 63.397 0zm0 68.695H16.802V4.293h46.595c.003 65.812.015 64.402 0 64.402z"/><path d="M48.205 28.623c-5.944 0-10.736 5.024-10.236 11.005-.056.299-.038-.947-.038 19.765 0 1.524 1.565 2.564 2.992 1.987l7.282-2.945 7.282 2.945c1.422.575 2.992-.458 2.992-1.987V38.784c0-5.603-4.61-10.161-10.274-10.161zm0 4.293c3.27 0 5.933 2.633 5.933 5.868 0 3.236-2.662 5.868-5.933 5.868-3.272 0-5.933-2.632-5.933-5.868 0-3.235 2.661-5.867 5.933-5.867zm.821 21.213a2.194 2.194 0 00-1.643 0l-5.111 2.067v-9.124a10.328 10.328 0 0011.866 0v9.124l-5.112-2.067z"/><path d="M48.205 32.916c3.27 0 5.933 2.633 5.933 5.868 0 3.236-2.662 5.868-5.933 5.868-3.272 0-5.933-2.632-5.933-5.868 0-3.235 2.661-5.867 5.933-5.867zm.821 21.214a2.194 2.194 0 00-1.643 0l-5.111 2.066v-9.124a10.328 10.328 0 0011.866 0v9.124l-5.112-2.067z"/><path d="M4.55 4.45L.5 8.01l71.55 68.984 4.05-5.34L4.55 4.45zm51.757 5.854H23.893c-1.198 0-2.17.96-2.17 2.146s.972 2.147 2.17 2.147h32.414c1.2 0 2.171-.961 2.171-2.147 0-1.185-.972-2.146-2.17-2.146z"/><path d="M56.307 19.464H23.893c-1.198 0-2.17.961-2.17 2.147 0 1.185.972 2.146 2.17 2.146h32.414c1.2 0 2.171-.96 2.171-2.146s-.972-2.147-2.17-2.147zM31.35 28.91h-7.967c-.917 0-1.66.96-1.66 2.146s.743 2.147 1.66 2.147h7.967c.917 0 1.66-.962 1.66-2.147 0-1.186-.743-2.147-1.66-2.147zm-.51 8.873h-6.947c-1.198 0-2.17.961-2.17 2.147 0 1.185.972 2.147 2.17 2.147h6.946c1.199 0 2.17-.962 2.17-2.147a2.158 2.158 0 00-2.17-2.147zm0 9.159h-6.947c-1.198 0-2.17.962-2.17 2.147 0 1.186.972 2.147 2.17 2.147h6.946c1.199 0 2.17-.961 2.17-2.147a2.159 2.159 0 00-2.17-2.147zm0 9.16h-6.947c-1.198 0-2.17.96-2.17 2.146s.972 2.147 2.17 2.147h6.946c1.199 0 2.17-.961 2.17-2.147 0-1.185-.971-2.146-2.17-2.146z"/></symbol><symbol viewBox="0 0 71 71" id="list-image-title_problem_icon3" xmlns="http://www.w3.org/2000/svg"><path d="M35.5 35.5L9.017 24.92 10.65 63.9h-7.1l1.704-40.506L0 21.3 35.5 7.1 71 21.3 35.5 35.5zm0-17.75c-1.953 0-3.55.78-3.55 1.775 0 .994 1.598 1.775 3.55 1.775 1.953 0 3.55-.781 3.55-1.775 0-.994-1.597-1.775-3.55-1.775zm0 21.3l19.773-7.917c2.521 3.337 4.26 7.349 4.828 11.715-1.065-.142-2.165-.248-3.301-.248-9.052 0-16.969 4.863-21.3 12.105A24.8 24.8 0 0014.2 42.6c-1.136 0-2.236.106-3.301.248.568-4.366 2.307-8.378 4.828-11.715L35.5 39.05z"/></symbol><symbol viewBox="0 0 71 69" id="list-image-title_problem_icon4" xmlns="http://www.w3.org/2000/svg"><path d="M66.563 64.688h-17.75V8.624h17.75v56.063zM53.25 60.374h8.875V12.937H53.25v47.438zm-8.875 4.314h-17.75V25.874h17.75v38.813zm-13.313-4.313h8.875V30.187h-8.874v30.188zm-8.874 4.313H4.438V38.811h17.75v25.876z"/></symbol><symbol viewBox="0 0 66 65" id="list-image-title_promotion_icon1" xmlns="http://www.w3.org/2000/svg"><path d="M65.364 23.42C65.364 10.875 55.13.77 42.554.962c-12.29.192-22.428 10.812-22.074 23.068a22.414 22.414 0 0018.704 21.495v12.641H13.486v-9.625h3.208V32.5H.652v16.04h3.209v16.042h51.333v-6.417h-9.625V45.718A22.458 22.458 0 0065.364 23.42zm-56.69 5.871a4.806 4.806 0 004.812-4.812 4.806 4.806 0 00-4.813-4.813 4.806 4.806 0 00-4.812 4.813 4.806 4.806 0 004.812 4.812z"/></symbol><symbol viewBox="0 0 64 63" id="list-image-title_promotion_icon2" xmlns="http://www.w3.org/2000/svg"><path d="M24.583 6.666h11.833V12.5h-10.65l5.917 5.834h22.483V40.5l5.917 5.834v-28c0-3.238-2.633-5.833-5.917-5.833H42.333V6.665c0-3.237-2.633-5.833-5.917-5.833H24.583c-2.929 0-5.325 2.042-5.798 4.783l5.798 5.717V6.666zM5.058.366L.887 4.48l8.135 8.02H6.833c-3.284 0-5.887 2.596-5.887 5.834l-.03 32.083c0 3.238 2.633 5.834 5.917 5.834h46.564l5.917 5.833 4.171-4.113L5.058.366zm1.775 50.05V18.333h8.106L47.48 50.416H6.834z"/></symbol><symbol viewBox="0 0 65 64" id="list-image-title_promotion_icon3" xmlns="http://www.w3.org/2000/svg"><path d="M63.59 37.254l.537-5.812c0-7.717-1.508-13.89-7.033-17.949-3.023-5.96-9.76-13.367-24.6-13.368-14.833 0-21.567 7.409-24.588 13.37C2.382 17.551.873 23.725.873 31.442l.537 5.812C.665 37.98.156 39.106.156 40.76c0 4.437 2.633 5.033 3.713 5.09.537 8.838 9.55 18.024 28.632 18.024 20.261 0 28.085-10.475 28.628-18.022.662-.03 1.547-.227 2.305-.932.937-.87 1.41-2.27 1.41-4.16 0-1.654-.51-2.78-1.254-3.507zm-1.262 6.517c-.724.672-1.784.47-1.787.471l-.99-.234v1.002c0 6.947-7.205 17.284-27.05 17.284S5.453 51.958 5.453 45.011l-.007-.982-.977.212a2.07 2.07 0 01-.408.035c-1.898 0-2.297-1.911-2.297-3.515 0-2.486 1.346-3.008 2.475-3.008.113 0 .189.008.202.009l.205.025.194-.073c2.45-.948 4.087-2.394 4.865-4.297 1.505-3.688-.588-8.147-1.84-10.813-.318-.678-.648-1.377-.734-1.708.24-1.763 3.183-19.191 25.37-19.191 22.184.002 25.13 17.425 25.37 19.19-.088.333-.416 1.032-.735 1.71-1.252 2.664-3.347 7.124-1.841 10.812.777 1.903 2.414 3.35 4.865 4.297l.194.071.201-.022c.068-.007.137-.01.206-.01 1.129 0 2.475.522 2.475 3.008 0 1.419-.314 2.461-.907 3.01z"/></symbol><symbol viewBox="0 0 58 64" id="list-image-title_promotion_icon4" xmlns="http://www.w3.org/2000/svg"><path d="M30.538 13.867c6.44 0 8.828 3.022 9.045 7.466h7.997C47.326 15.218 43.527 9.6 35.965 7.787V0H25.11v7.68c-1.41.284-2.713.747-3.98 1.28l5.464 5.369a16.64 16.64 0 013.944-.462zM5.102 3.27L0 8.284l12.447 12.232c0 7.395 5.644 11.448 14.147 13.902l12.7 12.48c-1.23 1.742-3.8 3.235-8.756 3.235-7.454 0-10.384-3.27-10.782-7.466h-7.96c.434 7.786 6.367 12.16 13.314 13.617V64h10.855v-7.644c3.474-.64 6.621-1.956 8.9-3.983l8.033 7.894L58 55.253 5.102 3.271z"/></symbol><symbol viewBox="0 0 18 18" id="present" xmlns="http://www.w3.org/2000/svg"><path opacity=".6" d="M13.013 5.043h3.468c.831 0 1.519.53 1.519 1.22v4.192H9.745V5.572c-.286-.069-.544-.16-.716-.3C9 5.273 9 5.25 8.97 5.25c0 0 0 .023-.028.023a2.22 2.22 0 01-.688.3v4.882H0V6.263c0-.69.66-1.22 1.49-1.22h3.497a6.31 6.31 0 01-1.089-.6C2.522 3.384 2.264 1.91 3.353 1.081c.46-.322 1.061-.506 1.72-.506.946 0 1.92.3 2.752.92.458.346.888.83 1.146 1.29.287-.46.717-.944 1.175-1.29.803-.62 1.835-.92 2.752-.92.688 0 1.29.184 1.72.506 1.089.83.831 2.303-.573 3.363-.287.207-.66.437-1.032.599zM7.91 4.375c.114-.208-.172-1.267-1.118-1.98a2.98 2.98 0 00-1.72-.577c-.172 0-.458.023-.659.162-.057.046-.23.138-.23.391 0 .3.23.76.775 1.152.688.53 1.777.898 2.58.898.257 0 .372-.046.372-.046zm2.178 0s.143.046.373.046c.802 0 1.892-.369 2.58-.898.544-.392.716-.853.716-1.152 0-.253-.143-.345-.172-.391-.2-.139-.516-.162-.688-.162a3.05 3.05 0 00-1.72.576c-.917.714-1.232 1.75-1.089 2.004v-.023zM8.255 17.088H1.49c-.83 0-1.49-.53-1.49-1.198v-4.215h8.255v5.413zm8.226 0H9.745v-5.413H18v4.215c0 .668-.688 1.198-1.52 1.198z"/></symbol><symbol viewBox="0 0 10 8" id="select-arrow" xmlns="http://www.w3.org/2000/svg"><path d="M6.659 6.537a2 2 0 01-3.318 0l-2.303-3.42C.143 1.79 1.095 0 2.696 0h4.608c1.601 0 2.553 1.789 1.658 3.117L6.66 6.537z"/></symbol><symbol viewBox="0 0 9 13" id="slider-next-btn" xmlns="http://www.w3.org/2000/svg"><path d="M7.608 5.093a2 2 0 010 2.814l-4.187 4.23C2.165 13.406 0 12.516 0 10.728V2.271C0 .484 2.165-.406 3.421.864l4.187 4.23z"/></symbol><symbol viewBox="0 0 9 13" id="slider-prev-btn" xmlns="http://www.w3.org/2000/svg"><path d="M1.392 5.093a2 2 0 000 2.814l4.187 4.23C6.835 13.406 9 12.516 9 10.728V2.271C9 .484 6.835-.406 5.579.864l-4.187 4.23z"/></symbol><symbol viewBox="0 0 29 26" id="telegram" xmlns="http://www.w3.org/2000/svg"><path d="M26.852.003c-.358.026-.71.11-1.04.248h-.005c-.318.126-1.83.76-4.128 1.723l-8.236 3.462c-5.91 2.483-11.718 4.928-11.718 4.928l.069-.027s-.4.132-.82.418a2.27 2.27 0 00-.653.631c-.205.301-.37.761-.309 1.237.1.804.623 1.286.997 1.552.38.27.741.395.741.395h.01l5.447 1.832c.244.783 1.66 5.428 2 6.499.2.639.396 1.038.64 1.344.119.155.257.286.423.39.087.05.179.09.275.118l-.056-.013c.017.005.03.018.042.022.045.013.075.017.132.026.862.26 1.555-.274 1.555-.274l.04-.031 3.216-2.923 5.39 4.128.123.052c1.124.492 2.262.218 2.863-.265.606-.487.841-1.109.841-1.109l.04-.1 4.165-21.301c.118-.526.148-1.018.018-1.496a2.012 2.012 0 00-.872-1.166 2.092 2.092 0 00-1.19-.3zm-.113 2.282c-.004.07.01.063-.022.198v.012l-4.127 21.08c-.017.03-.048.095-.13.16-.087.07-.156.113-.519-.03l-6.593-5.046-3.983 3.623.836-5.333L22.974 6.927c.444-.412.296-.5.296-.5.031-.505-.67-.147-.67-.147l-13.585 8.4-.004-.023L2.5 12.469v-.005l-.017-.003a.288.288 0 00.034-.013l.035-.018.035-.012S8.4 9.972 14.31 7.489c2.959-1.244 5.94-2.497 8.232-3.463a903.472 903.472 0 014.084-1.704c.091-.035.048-.035.113-.035v-.002z"/></symbol><symbol viewBox="0 0 27 27" id="vk" xmlns="http://www.w3.org/2000/svg"><path d="M13.013 2.419c-3.47.02-3.883.035-5.253.106a7.19 7.19 0 00-2.41.462 4.306 4.306 0 00-2.454 2.482 7.196 7.196 0 00-.433 2.416c-.055 1.371-.065 1.783-.045 5.255.02 3.472.036 3.881.107 5.251.014.825.17 1.64.461 2.411a4.305 4.305 0 002.483 2.454 7.193 7.193 0 002.416.433c1.37.055 1.782.065 5.253.045 3.471-.02 3.883-.036 5.253-.107a7.193 7.193 0 002.41-.461 4.306 4.306 0 002.454-2.483 7.195 7.195 0 00.433-2.416c.055-1.37.066-1.782.045-5.253-.02-3.471-.035-3.883-.106-5.253a7.195 7.195 0 00-.462-2.411 4.305 4.305 0 00-2.482-2.453 7.195 7.195 0 00-2.416-.433c-1.371-.055-1.783-.066-5.254-.045zM12.999.076c3.53-.02 3.974-.008 5.36.047a9.54 9.54 0 013.16.586 6.647 6.647 0 013.824 3.78 9.54 9.54 0 01.623 3.152c.07 1.386.089 1.827.11 5.359.02 3.531.008 3.974-.047 5.36a9.542 9.542 0 01-.586 3.159 6.648 6.648 0 01-3.78 3.824 9.541 9.541 0 01-3.152.623c-1.386.072-1.828.09-5.359.11-3.53.02-3.974.008-5.36-.047a9.54 9.54 0 01-3.16-.585 6.648 6.648 0 01-3.825-3.78 9.54 9.54 0 01-.622-3.153c-.07-1.386-.088-1.827-.11-5.358C.056 9.62.069 9.179.123 7.792a9.54 9.54 0 01.586-3.158A6.648 6.648 0 014.488.809 9.54 9.54 0 017.641.187c1.386-.073 1.827-.09 5.358-.11z"/><path fill-rule="evenodd" clip-rule="evenodd" d="M10.416 8.738c.367-.18 1.02-.187 1.79-.18.595.006.768.042 1 .1.544.131.527.548.49 1.453-.011.271-.024.586-.024.951 0 .081-.002.167-.005.255-.012.463-.027.996.279 1.195.155.102.543.012 1.498-1.613.454-.772.797-1.679.797-1.679a.602.602 0 01.188-.232c.118-.07.277-.049.277-.049l2.152-.012s.647-.078.751.212c.111.31-.24 1.026-1.119 2.197-.835 1.113-1.24 1.522-1.202 1.883.028.264.292.503.799.972 1.058.983 1.34 1.5 1.405 1.62l.012.02c.473.79-.523.85-.523.85l-1.912.029s-.412.082-.956-.29c-.283-.194-.56-.511-.822-.814-.4-.46-.77-.885-1.089-.786-.531.171-.514 1.318-.514 1.318s.004.246-.12.377c-.13.139-.387.167-.387.167h-.858s-1.887.115-3.549-1.617c-1.813-1.887-3.413-5.632-3.413-5.632s-.094-.24.008-.363c.11-.13.416-.143.416-.143l2.046-.013s.192.034.331.135a.62.62 0 01.176.237s.33.838.767 1.597c.858 1.474 1.254 1.797 1.544 1.638.42-.233.299-2.087.299-2.087s.007-.674-.213-.972c-.172-.233-.494-.302-.637-.323-.114-.013.073-.281.318-.4z"/></symbol><symbol viewBox="0 0 25 25" id="whatsapp" xmlns="http://www.w3.org/2000/svg"><path d="M11.889.016C5.23.329-.021 5.828-.002 12.437c.003 1.946.47 3.863 1.36 5.593L.033 24.42a.484.484 0 00.59.566l6.31-1.483a12.524 12.524 0 005.372 1.293c6.804.104 12.476-5.254 12.688-12C25.22 5.564 19.204-.33 11.889.015v.002zm7.53 19.248a9.76 9.76 0 01-6.92 2.843 9.75 9.75 0 01-4.356-1.012l-.878-.435-3.87.91.814-3.922-.434-.842a9.537 9.537 0 01-1.063-4.405 9.604 9.604 0 012.866-6.864A9.847 9.847 0 0112.5 2.692a9.76 9.76 0 016.92 2.844 9.609 9.609 0 012.868 6.864 9.683 9.683 0 01-2.867 6.865v-.001z"/><path d="M18.347 15.658l-2.418-.688a.906.906 0 00-.893.232l-.59.598a.885.885 0 01-.959.2c-1.143-.459-3.55-2.581-4.164-3.644a.868.868 0 01.07-.968l.516-.664a.887.887 0 00.111-.908L9.005 7.533a.905.905 0 00-1.409-.32C6.92 7.78 6.12 8.639 6.023 9.594c-.172 1.681.554 3.8 3.301 6.345 3.174 2.94 5.717 3.33 7.371 2.93.94-.225 1.69-1.13 2.162-1.87a.892.892 0 00-.51-1.341z"/></symbol><symbol viewBox="0 0 36 26" id="youtube" xmlns="http://www.w3.org/2000/svg"><path d="M35.999 12.888c0-.088 0-.188-.004-.304-.004-.324-.012-.688-.02-1.076a59.95 59.95 0 00-.177-3.277c-.12-1.445-.297-2.65-.538-3.554a5.577 5.577 0 00-1.446-2.496A5.611 5.611 0 0031.31.736C30.173.432 27.947.244 24.813.128c-1.49-.056-3.085-.092-4.68-.112C19.573.008 19.056.004 18.59 0h-1.182c-.466.004-.984.008-1.543.016-1.595.02-3.19.056-4.68.112C8.05.248 5.82.436 4.688.736a5.604 5.604 0 00-2.504 1.445A5.57 5.57 0 00.738 4.677C.493 5.582.32 6.787.2 8.231a60 60 0 00-.177 3.277c-.012.388-.016.752-.02 1.076 0 .116-.004.216-.004.304v.224c0 .088 0 .188.004.304.004.324.012.688.02 1.076.032 1.117.089 2.23.177 3.277.12 1.445.297 2.65.538 3.554a5.587 5.587 0 003.95 3.94c1.133.305 3.363.493 6.497.609 1.49.056 3.085.092 4.68.112.559.008 1.077.012 1.543.016h1.182c.466-.004.984-.008 1.543-.016 1.595-.02 3.19-.056 4.68-.112 3.134-.12 5.364-.308 6.497-.608a5.58 5.58 0 003.95-3.941c.245-.905.418-2.11.538-3.553.088-1.049.145-2.161.177-3.277.012-.389.016-.753.02-1.077 0-.116.004-.216.004-.304v-.224zm-2.893.208c0 .084 0 .176-.004.284-.004.312-.012.656-.02 1.028a53.92 53.92 0 01-.169 3.117c-.108 1.289-.26 2.345-.45 3.053a2.698 2.698 0 01-1.904 1.9c-.844.225-2.97.405-5.858.513a183.343 183.343 0 01-6.127.124h-1.15l-1.518-.012a183.91 183.91 0 01-4.609-.112c-2.889-.112-5.018-.288-5.858-.512a2.705 2.705 0 01-1.904-1.9c-.19-.709-.342-1.765-.45-3.054a57.708 57.708 0 01-.169-3.117c-.012-.372-.016-.72-.02-1.028 0-.108-.004-.204-.004-.284v-.192c0-.084 0-.176.004-.284.004-.312.012-.656.02-1.028a53.12 53.12 0 01.169-3.117c.108-1.289.26-2.345.45-3.053a2.693 2.693 0 011.904-1.9c.844-.225 2.97-.405 5.858-.513a183.34 183.34 0 016.127-.124h1.15l1.518.012c1.571.02 3.142.056 4.609.112 2.889.112 5.018.288 5.858.512a2.705 2.705 0 011.904 1.9c.19.709.342 1.765.45 3.054.085.988.137 2.052.17 3.117.011.372.015.72.02 1.028 0 .108.003.204.003.284v.192zm-18.683 5.266l9.322-5.402-9.322-5.322v10.724z"/></symbol></svg>