<?xml version="1.0" encoding="utf-8"?><svg xmlns="http://www.w3.org/2000/svg" xmlns:xlink="http://www.w3.org/1999/xlink"><symbol viewBox="0 0 27 27" id="fb" xmlns="http://www.w3.org/2000/svg"><path d="M13.013 2.419c-3.47.02-3.883.035-5.253.106a7.19 7.19 0 00-2.41.462 4.306 4.306 0 00-2.454 2.482 7.196 7.196 0 00-.433 2.416c-.055 1.371-.065 1.783-.045 5.255.02 3.472.036 3.881.107 5.251.014.825.17 1.64.461 2.411a4.305 4.305 0 002.483 2.454 7.193 7.193 0 002.416.433c1.37.055 1.782.065 5.253.045 3.471-.02 3.883-.036 5.253-.107a7.193 7.193 0 002.41-.461 4.306 4.306 0 002.454-2.483 7.195 7.195 0 00.433-2.416c.055-1.37.066-1.782.045-5.253-.02-3.471-.035-3.883-.106-5.253a7.195 7.195 0 00-.462-2.411 4.305 4.305 0 00-2.482-2.453 7.195 7.195 0 00-2.416-.433c-1.371-.055-1.783-.066-5.254-.045zM12.999.076c3.53-.02 3.974-.008 5.36.047a9.54 9.54 0 013.16.586 6.647 6.647 0 013.824 3.78 9.54 9.54 0 01.623 3.152c.07 1.386.089 1.827.11 5.359.02 3.531.008 3.974-.047 5.36a9.542 9.542 0 01-.586 3.159 6.648 6.648 0 01-3.78 3.824 9.541 9.541 0 01-3.152.623c-1.386.072-1.828.09-5.359.11-3.53.02-3.974.008-5.36-.047a9.54 9.54 0 01-3.16-.585 6.648 6.648 0 01-3.825-3.78 9.54 9.54 0 01-.622-3.153c-.07-1.386-.088-1.827-.11-5.358C.056 9.62.069 9.179.123 7.792a9.54 9.54 0 01.586-3.158A6.648 6.648 0 014.488.809 9.54 9.54 0 017.641.187c1.386-.073 1.827-.09 5.358-.11z"/><path d="M16.999 6.393a.403.403 0 00-.107-.275.352.352 0 00-.257-.113h-1.818a3.337 3.337 0 00-2.493.947 3.815 3.815 0 00-1.143 2.551v2.1H9.363a.352.352 0 00-.257.114.403.403 0 00-.107.274v2.022a.4.4 0 00.107.275.35.35 0 00.257.114h1.818v5.21c0 .102.038.201.106.274a.352.352 0 00.257.114h2.182a.352.352 0 00.257-.114.403.403 0 00.107-.275v-5.21h1.905a.341.341 0 00.225-.078.391.391 0 00.132-.209l.523-2.021a.415.415 0 00-.061-.337.37.37 0 00-.127-.112.345.345 0 00-.16-.041H14.09v-2.1a.798.798 0 01.237-.5c.134-.13.31-.2.49-.2h1.818a.352.352 0 00.257-.113.403.403 0 00.107-.275V6.393z"/></symbol><symbol viewBox="0 0 26 27" id="insta" xmlns="http://www.w3.org/2000/svg"><path d="M5.57 8.138a1.5 1.5 0 11-.017-3 1.5 1.5 0 01.017 3zm6.988-2.041a6.5 6.5 0 11.076 13 6.5 6.5 0 01-.076-13zm.063 10.719a4.22 4.22 0 10-.05-8.438 4.22 4.22 0 00.05 8.438z"/><path d="M12.537 2.44c-3.338.019-3.734.034-5.051.105a6.683 6.683 0 00-2.318.46 4.129 4.129 0 00-1.432.982 4.327 4.327 0 00-.927 1.5 7.451 7.451 0 00-.416 2.417c-.052 1.37-.062 1.782-.042 5.254.02 3.472.036 3.882.104 5.252.014.824.165 1.64.445 2.41.21.56.532 1.068.944 1.49.41.423.902.751 1.443.965.745.281 1.53.428 2.323.433 1.318.055 1.714.066 5.052.046 3.337-.02 3.733-.035 5.05-.105a6.684 6.684 0 002.319-.461 4.127 4.127 0 001.431-.981c.407-.428.722-.939.927-1.501.27-.775.411-1.592.416-2.416.052-1.37.062-1.783.042-5.253-.02-3.471-.036-3.883-.104-5.253a7.453 7.453 0 00-.444-2.411 4.327 4.327 0 00-.944-1.49 4.129 4.129 0 00-1.444-.964 6.684 6.684 0 00-2.323-.434c-1.318-.055-1.714-.066-5.052-.046zM12.523.096c3.394-.02 3.82-.007 5.154.048a8.864 8.864 0 013.037.586c.833.33 1.59.836 2.223 1.487a6.678 6.678 0 011.456 2.294 9.88 9.88 0 01.6 3.153c.068 1.386.085 1.827.106 5.358.02 3.532.009 3.974-.044 5.36a9.876 9.876 0 01-.562 3.159 6.678 6.678 0 01-1.429 2.311 6.373 6.373 0 01-2.205 1.513 8.867 8.867 0 01-3.03.622c-1.334.07-1.759.088-5.153.108-3.395.02-3.821.008-5.155-.047a8.864 8.864 0 01-3.038-.587 6.373 6.373 0 01-2.223-1.486A6.68 6.68 0 01.805 21.68a9.878 9.878 0 01-.6-3.152C.138 17.143.12 16.702.1 13.17.08 9.64.091 9.197.143 7.81a9.878 9.878 0 01.563-3.158A6.68 6.68 0 012.134 2.34 6.373 6.373 0 014.339.828 8.864 8.864 0 017.37.206c1.333-.073 1.757-.09 5.153-.11z"/></symbol><symbol viewBox="0 0 50 50" id="list-image-title_advantages_icon1" xmlns="http://www.w3.org/2000/svg"><path d="M25.442 39.167c-10.118 0-14.096-2.556-14.636-5.834H0c.59 6.084 8.644 9.5 18.075 10.64V50h14.734v-5.972C42.387 43 50 39.86 50 34.167c0-7.89-11.935-10.584-23.084-12.223-11.15-1.638-14.735-3.333-14.735-5.972 0-3.028 4.96-5.139 13.261-5.139 8.743 0 11.984 2.361 12.279 5.834h10.855c-.344-4.778-5.501-9.167-15.767-10.584V0H18.075v6C8.546 7.167.885 10.667.885 16.028c0 6.416 9.38 9.61 23.084 11.472 12.279 1.667 14.734 4.111 14.734 6.694 0 1.917-2.406 4.973-13.261 4.973z"/></symbol><symbol viewBox="0 0 61 61" id="list-image-title_advantages_icon2" xmlns="http://www.w3.org/2000/svg"><path d="M46.12 22.453a2.219 2.219 0 00-3.135-3.136L25.324 36.978l-7.308-7.307a2.219 2.219 0 00-3.135 3.136l8.875 8.875a2.22 2.22 0 003.136 0L46.12 22.453z"/><path fill-rule="evenodd" clip-rule="evenodd" d="M6.093.917A5.177 5.177 0 00.916 6.094v48.813a5.179 5.179 0 005.177 5.177h48.813a5.177 5.177 0 005.177-5.177V6.094A5.177 5.177 0 0054.906.917H6.093zm-.74 5.177a.74.74 0 01.74-.74h48.813a.74.74 0 01.74.74v48.813a.74.74 0 01-.74.74H6.093a.74.74 0 01-.74-.74V6.094z"/></symbol><symbol viewBox="0 0 65 66" id="list-image-title_advantages_icon3" xmlns="http://www.w3.org/2000/svg"><path d="M58.166.5H6.833a6.375 6.375 0 00-4.538 1.904A6.543 6.543 0 00.416 7v39a6.54 6.54 0 001.88 4.596A6.375 6.375 0 006.832 52.5h19.25V59h-9.625v6.5H48.54V59h-9.625v-6.5h19.25a6.375 6.375 0 004.537-1.904A6.543 6.543 0 0064.583 46V7a6.543 6.543 0 00-1.88-4.596A6.375 6.375 0 0058.166.5zm0 45.5H6.833V7h51.333v39zm-10.427-9.75a5.725 5.725 0 01-1.645 4.022 5.579 5.579 0 01-3.97 1.666c-1.489 0-2.917-.6-3.97-1.666a5.725 5.725 0 01-1.644-4.022l-10.427-5.33a5.425 5.425 0 01-5.77.582 5.512 5.512 0 01-2.235-2.05 5.611 5.611 0 010-5.872 5.512 5.512 0 012.235-2.05 5.425 5.425 0 015.77.582L36.51 16.75a5.801 5.801 0 011.19-3.606 5.673 5.673 0 013.153-2.066 5.612 5.612 0 013.735.378 5.714 5.714 0 012.687 2.656 5.82 5.82 0 01.463 3.774 5.764 5.764 0 01-1.961 3.242 5.634 5.634 0 01-3.53 1.294 5.632 5.632 0 01-3.556-1.22L28.361 26.5l10.33 5.233a5.52 5.52 0 015.934-.639 5.61 5.61 0 012.294 2.121 5.71 5.71 0 01.82 3.035z"/></symbol><symbol viewBox="0 0 54 74" id="list-image-title_advantages_icon4" xmlns="http://www.w3.org/2000/svg"><path d="M42.351 30.238V19.54c0-.448-.241-.825-.582-1.058L53.685.079H30.838l-3.837 5.838L23.163.079H.316L12.23 18.481c-.341.233-.582.61-.582 1.059v10.698a24.68 24.68 0 00-8.906 19.043c0 13.586 10.862 24.6 24.259 24.6.827 0 1.642-.042 2.447-.125C41.695 72.513 51.26 62.03 51.26 49.281c0-7.678-3.473-14.53-8.908-19.043zM37.706 1.31h7.675L34.676 17.594l-3.838-5.838 6.868-10.447zm.808 22.122l1.18-1.793c.064.154.1.321.1.497v5.19a1.233 1.233 0 01-.361.86c-3.639-2.211-7.881-3.505-12.432-3.505a23.848 23.848 0 00-12.435 3.507 1.239 1.239 0 01-.36-.862v-5.19c0-.176.037-.344.099-.497l1.18 1.795h23.029v-.002zM8.62 1.31h7.675L30.03 22.201h-7.675L8.62 1.31zM27 70.192c-11.387 0-20.619-9.362-20.619-20.911 0-11.548 9.232-20.91 20.62-20.91 11.385 0 20.62 9.362 20.62 20.91 0 11.549-9.235 20.91-20.62 20.91z"/></symbol><symbol viewBox="0 0 66 65" id="list-image-title_promotion_icon1" xmlns="http://www.w3.org/2000/svg"><path d="M65.364 23.42C65.364 10.875 55.13.77 42.554.962c-12.29.192-22.428 10.812-22.074 23.068a22.414 22.414 0 0018.704 21.495v12.641H13.486v-9.625h3.208V32.5H.652v16.04h3.209v16.042h51.333v-6.417h-9.625V45.718A22.458 22.458 0 0065.364 23.42zm-56.69 5.871a4.806 4.806 0 004.812-4.812 4.806 4.806 0 00-4.813-4.813 4.806 4.806 0 00-4.812 4.813 4.806 4.806 0 004.812 4.812z"/></symbol><symbol viewBox="0 0 64 63" id="list-image-title_promotion_icon2" xmlns="http://www.w3.org/2000/svg"><path d="M24.583 6.666h11.833V12.5h-10.65l5.917 5.834h22.483V40.5l5.917 5.834v-28c0-3.238-2.633-5.833-5.917-5.833H42.333V6.665c0-3.237-2.633-5.833-5.917-5.833H24.583c-2.929 0-5.325 2.042-5.798 4.783l5.798 5.717V6.666zM5.058.366L.887 4.48l8.135 8.02H6.833c-3.284 0-5.887 2.596-5.887 5.834l-.03 32.083c0 3.238 2.633 5.834 5.917 5.834h46.564l5.917 5.833 4.171-4.113L5.058.366zm1.775 50.05V18.333h8.106L47.48 50.416H6.834z"/></symbol><symbol viewBox="0 0 65 64" id="list-image-title_promotion_icon3" xmlns="http://www.w3.org/2000/svg"><path d="M63.59 37.254l.537-5.812c0-7.717-1.508-13.89-7.033-17.949-3.023-5.96-9.76-13.367-24.6-13.368-14.833 0-21.567 7.409-24.588 13.37C2.382 17.551.873 23.725.873 31.442l.537 5.812C.665 37.98.156 39.106.156 40.76c0 4.437 2.633 5.033 3.713 5.09.537 8.838 9.55 18.024 28.632 18.024 20.261 0 28.085-10.475 28.628-18.022.662-.03 1.547-.227 2.305-.932.937-.87 1.41-2.27 1.41-4.16 0-1.654-.51-2.78-1.254-3.507zm-1.262 6.517c-.724.672-1.784.47-1.787.471l-.99-.234v1.002c0 6.947-7.205 17.284-27.05 17.284S5.453 51.958 5.453 45.011l-.007-.982-.977.212a2.07 2.07 0 01-.408.035c-1.898 0-2.297-1.911-2.297-3.515 0-2.486 1.346-3.008 2.475-3.008.113 0 .189.008.202.009l.205.025.194-.073c2.45-.948 4.087-2.394 4.865-4.297 1.505-3.688-.588-8.147-1.84-10.813-.318-.678-.648-1.377-.734-1.708.24-1.763 3.183-19.191 25.37-19.191 22.184.002 25.13 17.425 25.37 19.19-.088.333-.416 1.032-.735 1.71-1.252 2.664-3.347 7.124-1.841 10.812.777 1.903 2.414 3.35 4.865 4.297l.194.071.201-.022c.068-.007.137-.01.206-.01 1.129 0 2.475.522 2.475 3.008 0 1.419-.314 2.461-.907 3.01z"/></symbol><symbol viewBox="0 0 58 64" id="list-image-title_promotion_icon4" xmlns="http://www.w3.org/2000/svg"><path d="M30.538 13.867c6.44 0 8.828 3.022 9.045 7.466h7.997C47.326 15.218 43.527 9.6 35.965 7.787V0H25.11v7.68c-1.41.284-2.713.747-3.98 1.28l5.464 5.369a16.64 16.64 0 013.944-.462zM5.102 3.27L0 8.284l12.447 12.232c0 7.395 5.644 11.448 14.147 13.902l12.7 12.48c-1.23 1.742-3.8 3.235-8.756 3.235-7.454 0-10.384-3.27-10.782-7.466h-7.96c.434 7.786 6.367 12.16 13.314 13.617V64h10.855v-7.644c3.474-.64 6.621-1.956 8.9-3.983l8.033 7.894L58 55.253 5.102 3.271z"/></symbol><symbol viewBox="0 0 9 13" id="slider-next-btn" xmlns="http://www.w3.org/2000/svg"><path d="M7.608 5.093a2 2 0 010 2.814l-4.187 4.23C2.165 13.406 0 12.516 0 10.728V2.271C0 .484 2.165-.406 3.421.864l4.187 4.23z"/></symbol><symbol viewBox="0 0 9 13" id="slider-prev-btn" xmlns="http://www.w3.org/2000/svg"><path d="M1.392 5.093a2 2 0 000 2.814l4.187 4.23C6.835 13.406 9 12.516 9 10.728V2.271C9 .484 6.835-.406 5.579.864l-4.187 4.23z"/></symbol><symbol viewBox="0 0 29 26" id="telegram" xmlns="http://www.w3.org/2000/svg"><path d="M26.852.003c-.358.026-.71.11-1.04.248h-.005c-.318.126-1.83.76-4.128 1.723l-8.236 3.462c-5.91 2.483-11.718 4.928-11.718 4.928l.069-.027s-.4.132-.82.418a2.27 2.27 0 00-.653.631c-.205.301-.37.761-.309 1.237.1.804.623 1.286.997 1.552.38.27.741.395.741.395h.01l5.447 1.832c.244.783 1.66 5.428 2 6.499.2.639.396 1.038.64 1.344.119.155.257.286.423.39.087.05.179.09.275.118l-.056-.013c.017.005.03.018.042.022.045.013.075.017.132.026.862.26 1.555-.274 1.555-.274l.04-.031 3.216-2.923 5.39 4.128.123.052c1.124.492 2.262.218 2.863-.265.606-.487.841-1.109.841-1.109l.04-.1 4.165-21.301c.118-.526.148-1.018.018-1.496a2.012 2.012 0 00-.872-1.166 2.092 2.092 0 00-1.19-.3zm-.113 2.282c-.004.07.01.063-.022.198v.012l-4.127 21.08c-.017.03-.048.095-.13.16-.087.07-.156.113-.519-.03l-6.593-5.046-3.983 3.623.836-5.333L22.974 6.927c.444-.412.296-.5.296-.5.031-.505-.67-.147-.67-.147l-13.585 8.4-.004-.023L2.5 12.469v-.005l-.017-.003a.288.288 0 00.034-.013l.035-.018.035-.012S8.4 9.972 14.31 7.489c2.959-1.244 5.94-2.497 8.232-3.463a903.472 903.472 0 014.084-1.704c.091-.035.048-.035.113-.035v-.002z"/></symbol><symbol viewBox="0 0 27 27" id="vk" xmlns="http://www.w3.org/2000/svg"><path d="M13.013 2.419c-3.47.02-3.883.035-5.253.106a7.19 7.19 0 00-2.41.462 4.306 4.306 0 00-2.454 2.482 7.196 7.196 0 00-.433 2.416c-.055 1.371-.065 1.783-.045 5.255.02 3.472.036 3.881.107 5.251.014.825.17 1.64.461 2.411a4.305 4.305 0 002.483 2.454 7.193 7.193 0 002.416.433c1.37.055 1.782.065 5.253.045 3.471-.02 3.883-.036 5.253-.107a7.193 7.193 0 002.41-.461 4.306 4.306 0 002.454-2.483 7.195 7.195 0 00.433-2.416c.055-1.37.066-1.782.045-5.253-.02-3.471-.035-3.883-.106-5.253a7.195 7.195 0 00-.462-2.411 4.305 4.305 0 00-2.482-2.453 7.195 7.195 0 00-2.416-.433c-1.371-.055-1.783-.066-5.254-.045zM12.999.076c3.53-.02 3.974-.008 5.36.047a9.54 9.54 0 013.16.586 6.647 6.647 0 013.824 3.78 9.54 9.54 0 01.623 3.152c.07 1.386.089 1.827.11 5.359.02 3.531.008 3.974-.047 5.36a9.542 9.542 0 01-.586 3.159 6.648 6.648 0 01-3.78 3.824 9.541 9.541 0 01-3.152.623c-1.386.072-1.828.09-5.359.11-3.53.02-3.974.008-5.36-.047a9.54 9.54 0 01-3.16-.585 6.648 6.648 0 01-3.825-3.78 9.54 9.54 0 01-.622-3.153c-.07-1.386-.088-1.827-.11-5.358C.056 9.62.069 9.179.123 7.792a9.54 9.54 0 01.586-3.158A6.648 6.648 0 014.488.809 9.54 9.54 0 017.641.187c1.386-.073 1.827-.09 5.358-.11z"/><path fill-rule="evenodd" clip-rule="evenodd" d="M10.416 8.738c.367-.18 1.02-.187 1.79-.18.595.006.768.042 1 .1.544.131.527.548.49 1.453-.011.271-.024.586-.024.951 0 .081-.002.167-.005.255-.012.463-.027.996.279 1.195.155.102.543.012 1.498-1.613.454-.772.797-1.679.797-1.679a.602.602 0 01.188-.232c.118-.07.277-.049.277-.049l2.152-.012s.647-.078.751.212c.111.31-.24 1.026-1.119 2.197-.835 1.113-1.24 1.522-1.202 1.883.028.264.292.503.799.972 1.058.983 1.34 1.5 1.405 1.62l.012.02c.473.79-.523.85-.523.85l-1.912.029s-.412.082-.956-.29c-.283-.194-.56-.511-.822-.814-.4-.46-.77-.885-1.089-.786-.531.171-.514 1.318-.514 1.318s.004.246-.12.377c-.13.139-.387.167-.387.167h-.858s-1.887.115-3.549-1.617c-1.813-1.887-3.413-5.632-3.413-5.632s-.094-.24.008-.363c.11-.13.416-.143.416-.143l2.046-.013s.192.034.331.135a.62.62 0 01.176.237s.33.838.767 1.597c.858 1.474 1.254 1.797 1.544 1.638.42-.233.299-2.087.299-2.087s.007-.674-.213-.972c-.172-.233-.494-.302-.637-.323-.114-.013.073-.281.318-.4z"/></symbol><symbol viewBox="0 0 25 25" id="whatsapp" xmlns="http://www.w3.org/2000/svg"><path d="M11.889.016C5.23.329-.021 5.828-.002 12.437c.003 1.946.47 3.863 1.36 5.593L.033 24.42a.484.484 0 00.59.566l6.31-1.483a12.524 12.524 0 005.372 1.293c6.804.104 12.476-5.254 12.688-12C25.22 5.564 19.204-.33 11.889.015v.002zm7.53 19.248a9.76 9.76 0 01-6.92 2.843 9.75 9.75 0 01-4.356-1.012l-.878-.435-3.87.91.814-3.922-.434-.842a9.537 9.537 0 01-1.063-4.405 9.604 9.604 0 012.866-6.864A9.847 9.847 0 0112.5 2.692a9.76 9.76 0 016.92 2.844 9.609 9.609 0 012.868 6.864 9.683 9.683 0 01-2.867 6.865v-.001z"/><path d="M18.347 15.658l-2.418-.688a.906.906 0 00-.893.232l-.59.598a.885.885 0 01-.959.2c-1.143-.459-3.55-2.581-4.164-3.644a.868.868 0 01.07-.968l.516-.664a.887.887 0 00.111-.908L9.005 7.533a.905.905 0 00-1.409-.32C6.92 7.78 6.12 8.639 6.023 9.594c-.172 1.681.554 3.8 3.301 6.345 3.174 2.94 5.717 3.33 7.371 2.93.94-.225 1.69-1.13 2.162-1.87a.892.892 0 00-.51-1.341z"/></symbol><symbol viewBox="0 0 36 26" id="youtube" xmlns="http://www.w3.org/2000/svg"><path d="M35.999 12.888c0-.088 0-.188-.004-.304-.004-.324-.012-.688-.02-1.076a59.95 59.95 0 00-.177-3.277c-.12-1.445-.297-2.65-.538-3.554a5.577 5.577 0 00-1.446-2.496A5.611 5.611 0 0031.31.736C30.173.432 27.947.244 24.813.128c-1.49-.056-3.085-.092-4.68-.112C19.573.008 19.056.004 18.59 0h-1.182c-.466.004-.984.008-1.543.016-1.595.02-3.19.056-4.68.112C8.05.248 5.82.436 4.688.736a5.604 5.604 0 00-2.504 1.445A5.57 5.57 0 00.738 4.677C.493 5.582.32 6.787.2 8.231a60 60 0 00-.177 3.277c-.012.388-.016.752-.02 1.076 0 .116-.004.216-.004.304v.224c0 .088 0 .188.004.304.004.324.012.688.02 1.076.032 1.117.089 2.23.177 3.277.12 1.445.297 2.65.538 3.554a5.587 5.587 0 003.95 3.94c1.133.305 3.363.493 6.497.609 1.49.056 3.085.092 4.68.112.559.008 1.077.012 1.543.016h1.182c.466-.004.984-.008 1.543-.016 1.595-.02 3.19-.056 4.68-.112 3.134-.12 5.364-.308 6.497-.608a5.58 5.58 0 003.95-3.941c.245-.905.418-2.11.538-3.553.088-1.049.145-2.161.177-3.277.012-.389.016-.753.02-1.077 0-.116.004-.216.004-.304v-.224zm-2.893.208c0 .084 0 .176-.004.284-.004.312-.012.656-.02 1.028a53.92 53.92 0 01-.169 3.117c-.108 1.289-.26 2.345-.45 3.053a2.698 2.698 0 01-1.904 1.9c-.844.225-2.97.405-5.858.513a183.343 183.343 0 01-6.127.124h-1.15l-1.518-.012a183.91 183.91 0 01-4.609-.112c-2.889-.112-5.018-.288-5.858-.512a2.705 2.705 0 01-1.904-1.9c-.19-.709-.342-1.765-.45-3.054a57.708 57.708 0 01-.169-3.117c-.012-.372-.016-.72-.02-1.028 0-.108-.004-.204-.004-.284v-.192c0-.084 0-.176.004-.284.004-.312.012-.656.02-1.028a53.12 53.12 0 01.169-3.117c.108-1.289.26-2.345.45-3.053a2.693 2.693 0 011.904-1.9c.844-.225 2.97-.405 5.858-.513a183.34 183.34 0 016.127-.124h1.15l1.518.012c1.571.02 3.142.056 4.609.112 2.889.112 5.018.288 5.858.512a2.705 2.705 0 011.904 1.9c.19.709.342 1.765.45 3.054.085.988.137 2.052.17 3.117.011.372.015.72.02 1.028 0 .108.003.204.003.284v.192zm-18.683 5.266l9.322-5.402-9.322-5.322v10.724z"/></symbol></svg>